<svg width="16" height="16" viewBox="0 0 16 16" fill="none" xmlns="http://www.w3.org/2000/svg">
<path d="M7.33366 8.16683C7.05752 8.16683 6.83366 8.39069 6.83366 8.66683C6.83366 8.94297 7.05752 9.16683 7.33366 9.16683H10.667C10.9431 9.16683 11.167 8.94297 11.167 8.66683C11.167 8.39069 10.9431 8.16683 10.667 8.16683H7.33366Z" fill="#A2A2A2"/>
<path d="M5.33366 8.16683C5.05752 8.16683 4.83366 8.39069 4.83366 8.66683C4.83366 8.94297 5.05752 9.16683 5.33366 9.16683H5.33965C5.61579 9.16683 5.83965 8.94297 5.83965 8.66683C5.83965 8.39069 5.61579 8.16683 5.33965 8.16683H5.33366Z" fill="#A2A2A2"/>
<path d="M5.33366 10.8335C5.05752 10.8335 4.83366 11.0574 4.83366 11.3335C4.83366 11.6096 5.05752 11.8335 5.33366 11.8335H8.66699C8.94313 11.8335 9.16699 11.6096 9.16699 11.3335C9.16699 11.0574 8.94313 10.8335 8.66699 10.8335H5.33366Z" fill="#A2A2A2"/>
<path d="M10.661 10.8335C10.3849 10.8335 10.161 11.0574 10.161 11.3335C10.161 11.6096 10.3849 11.8335 10.661 11.8335H10.667C10.9431 11.8335 11.167 11.6096 11.167 11.3335C11.167 11.0574 10.9431 10.8335 10.667 10.8335H10.661Z" fill="#A2A2A2"/>
<path fill-rule="evenodd" clip-rule="evenodd" d="M4.50033 1.3335C4.50033 1.05735 4.27647 0.833496 4.00033 0.833496C3.72418 0.833496 3.50033 1.05735 3.50033 1.3335V1.75669C2.96382 1.90875 2.51133 2.15589 2.13469 2.56307C1.61608 3.12373 1.38556 3.83211 1.27516 4.71984C1.16698 5.5897 1.16699 6.70447 1.16699 8.12685V8.54014C1.16699 9.96252 1.16698 11.0773 1.27516 11.9472C1.38556 12.8349 1.61608 13.5433 2.13469 14.1039C2.65842 14.6701 3.32884 14.9269 4.16785 15.0488C4.97987 15.1669 6.01736 15.1668 7.32649 15.1668H8.67416C9.98329 15.1668 11.0208 15.1669 11.8328 15.0488C12.6718 14.9269 13.3422 14.6701 13.866 14.1039C14.3846 13.5433 14.6151 12.8349 14.7255 11.9472C14.8337 11.0773 14.8337 9.96251 14.8337 8.54012V8.12688C14.8337 6.70448 14.8337 5.5897 14.7255 4.71984C14.6151 3.83211 14.3846 3.12373 13.866 2.56307C13.4893 2.15589 13.0368 1.90875 12.5003 1.75669V1.3335C12.5003 1.05735 12.2765 0.833496 12.0003 0.833496C11.7242 0.833496 11.5003 1.05735 11.5003 1.3335V1.57743C10.743 1.50014 9.81098 1.50015 8.67416 1.50016H7.32649C6.18967 1.50015 5.2577 1.50014 4.50033 1.57743V1.3335ZM2.86879 3.24211C3.04168 3.0552 3.24785 2.9121 3.51939 2.80406C3.57903 3.01348 3.77177 3.16683 4.00033 3.16683C4.27647 3.16683 4.50033 2.94297 4.50033 2.66683V2.58322C5.20766 2.5012 6.12191 2.50016 7.36699 2.50016H8.63366C9.87874 2.50016 10.793 2.5012 11.5003 2.58322V2.66683C11.5003 2.94297 11.7242 3.16683 12.0003 3.16683C12.2289 3.16683 12.4216 3.01348 12.4813 2.80406C12.7528 2.9121 12.959 3.0552 13.1319 3.24211C13.4467 3.58248 13.6333 4.04907 13.7319 4.8335H2.26873C2.36734 4.04907 2.55395 3.58248 2.86879 3.24211ZM2.19294 5.8335C2.16736 6.47142 2.16699 7.23403 2.16699 8.16233V8.50467C2.16699 9.9702 2.1679 11.0228 2.26751 11.8237C2.3658 12.6141 2.55265 13.0831 2.86879 13.4249C3.1798 13.7611 3.59851 13.9556 4.31169 14.0592C5.0435 14.1656 6.00824 14.1668 7.36699 14.1668H8.63366C9.99241 14.1668 10.9572 14.1656 11.689 14.0592C12.4021 13.9556 12.8209 13.7611 13.1319 13.4249C13.448 13.0831 13.6349 12.6141 13.7331 11.8237C13.8327 11.0228 13.8337 9.9702 13.8337 8.50467V8.16233C13.8337 7.23403 13.8333 6.47142 13.8077 5.8335H2.19294Z" fill="#A2A2A2"/>
</svg>
