<svg width="16" height="16" viewBox="0 0 16 16" fill="none" xmlns="http://www.w3.org/2000/svg">
<path fill-rule="evenodd" clip-rule="evenodd" d="M4.63919 1.5H4.69351C4.98444 1.49998 5.24524 1.49996 5.45628 1.52478C5.68217 1.55136 5.92642 1.61322 6.13367 1.79457C6.35053 1.98432 6.43451 2.22312 6.46948 2.45066C6.49979 2.64796 6.49974 2.88762 6.49969 3.13547L6.49969 4.9519C6.49973 5.33408 6.49976 5.67619 6.45727 5.95272C6.41011 6.25969 6.30172 6.55421 6.03604 6.78668C5.77997 7.01074 5.47203 7.09396 5.15537 7.13121C4.85367 7.1667 4.47543 7.16669 4.02935 7.16667L3.33302 7.16667C3.05687 7.16667 2.83302 6.94281 2.83302 6.66667C2.83302 6.39053 3.05687 6.16667 3.33302 6.16667H3.99968C4.4835 6.16667 4.80227 6.16585 5.03854 6.13806C5.26651 6.11124 5.34071 6.06632 5.37754 6.0341C5.40475 6.01029 5.44282 5.97043 5.46887 5.80085C5.4983 5.60929 5.49968 5.34524 5.49968 4.91667V4.83334L4.63919 4.83334C4.34826 4.83336 4.08746 4.83338 3.87642 4.80856C3.65054 4.78198 3.40628 4.72012 3.19903 4.53877C2.98217 4.34902 2.89819 4.11022 2.86322 3.88268C2.83291 3.68538 2.83296 3.44572 2.83301 3.19786V3.13548C2.83296 2.88762 2.83291 2.64796 2.86322 2.45066C2.89819 2.22312 2.98217 1.98432 3.19903 1.79457C3.40628 1.61322 3.65054 1.55136 3.87642 1.52478C4.08746 1.49996 4.34826 1.49998 4.63919 1.5ZM5.49968 3.83334V3.16667C5.49968 2.8756 5.4983 2.71466 5.48108 2.60253C5.47657 2.5732 5.47208 2.55509 5.46883 2.54466C5.45303 2.53823 5.41591 2.52693 5.33945 2.51794C5.19395 2.50082 4.99303 2.5 4.66635 2.5C4.33967 2.5 4.13875 2.50082 3.99325 2.51794C3.91679 2.52693 3.87967 2.53823 3.86387 2.54466C3.86062 2.55509 3.85613 2.5732 3.85162 2.60253C3.8344 2.71466 3.83302 2.8756 3.83302 3.16667C3.83302 3.45774 3.8344 3.61868 3.85162 3.73081C3.85613 3.76014 3.86062 3.77825 3.86387 3.78868C3.87967 3.79511 3.91679 3.80641 3.99325 3.8154C4.13875 3.83252 4.33967 3.83334 4.66635 3.83334H5.49968ZM3.86654 3.79635C3.8682 3.79887 3.8688 3.8008 3.8688 3.8008C3.8688 3.8008 3.8679 3.79976 3.86654 3.79635ZM3.8688 2.53254C3.8688 2.53254 3.8682 2.53447 3.86654 2.53699C3.8679 2.53358 3.8688 2.53254 3.8688 2.53254ZM5.46616 2.53699C5.4645 2.53447 5.4639 2.53254 5.4639 2.53254C5.4639 2.53254 5.4648 2.53358 5.46616 2.53699Z" fill="#515E32"/>
<path d="M4.08191 10.2774L4.08435 10.2738L4.09708 10.2556C4.10884 10.239 4.12664 10.2143 4.14919 10.1847L4.16634 10.1623V13.4996H3.66634C3.3902 13.4996 3.16634 13.7235 3.16634 13.9996C3.16634 14.2757 3.3902 14.4996 3.66634 14.4996H5.66634C5.94248 14.4996 6.16634 14.2757 6.16634 13.9996C6.16634 13.7235 5.94248 13.4996 5.66634 13.4996H5.16634L5.16636 9.93341C5.16649 9.77117 5.16663 9.58506 5.13846 9.43583C5.12205 9.34887 5.0892 9.23068 5.0102 9.11862C4.92243 8.99412 4.80024 8.90894 4.6609 8.86571C4.37352 8.77655 4.12104 8.88941 3.98247 8.97182C3.83123 9.06175 3.69985 9.18366 3.60155 9.28645C3.4996 9.39305 3.41301 9.50064 3.35302 9.57958C3.3226 9.6196 3.29802 9.65359 3.28063 9.67817C3.27192 9.69049 3.26496 9.70052 3.25993 9.70786L3.25382 9.71682C3.25979 9.70786 3.25079 9.72131 3.25079 9.72131C3.09731 9.95087 3.15888 10.2615 3.38844 10.415C3.61796 10.5685 3.92839 10.5069 4.08191 10.2774Z" fill="#515E32"/>
<path d="M11.4997 2.66602C11.4997 2.38987 11.2758 2.16602 10.9997 2.16602C10.7235 2.16602 10.4997 2.38987 10.4997 2.66602V12.3073L10.4956 12.3025C10.3552 12.1368 10.2176 11.9616 10.089 11.7978L10.0592 11.7598C9.93108 11.5967 9.79626 11.4252 9.69155 11.3175C9.49908 11.1195 9.18253 11.115 8.98451 11.3075C8.7865 11.4999 8.782 11.8165 8.97447 12.0145C9.0336 12.0753 9.13068 12.1966 9.27281 12.3775L9.30418 12.4175C9.43088 12.5789 9.57957 12.7683 9.7327 12.949C9.89683 13.1427 10.0806 13.3439 10.2642 13.5003C10.3562 13.5787 10.46 13.656 10.5716 13.7157C10.6792 13.7733 10.8275 13.8327 10.9997 13.8327C11.1719 13.8327 11.3202 13.7733 11.4278 13.7157C11.5394 13.656 11.6431 13.5787 11.7351 13.5003C11.9188 13.3439 12.1025 13.1427 12.2667 12.949C12.4198 12.7683 12.5684 12.579 12.6951 12.4176L12.7265 12.3775C12.8687 12.1966 12.9657 12.0753 13.0249 12.0145C13.2174 11.8165 13.2129 11.4999 13.0148 11.3075C12.8168 11.115 12.5003 11.1195 12.3078 11.3175C12.2031 11.4252 12.0683 11.5967 11.9401 11.7598L11.9103 11.7978C11.7817 11.9616 11.6442 12.1368 11.5037 12.3025L11.4997 12.3073V2.66602Z" fill="#515E32"/>
</svg>
