<svg width="16" height="16" viewBox="0 0 16 16" fill="none" xmlns="http://www.w3.org/2000/svg">
<path fill-rule="evenodd" clip-rule="evenodd" d="M10.1361 1.19588C10.9258 0.726207 11.8998 0.711489 12.703 1.15741C13.0362 1.34238 13.3401 1.65304 13.7921 2.11506L13.9148 2.24043C14.3684 2.70346 14.6719 3.01335 14.8521 3.35212C15.2845 4.16485 15.2705 5.14805 14.8147 5.94772C14.6247 6.28104 14.3123 6.58176 13.8457 7.03089L7.43329 13.2071C6.51273 14.0941 5.94532 14.6408 5.22737 14.9212C4.50838 15.2021 3.72661 15.1815 2.4618 15.1481L2.13717 15.1397C1.9518 15.1349 1.76441 15.13 1.6097 15.1042C1.43201 15.0746 1.22097 15.0064 1.054 14.8169C0.888532 14.6291 0.84607 14.4124 0.836134 14.2341C0.827349 14.0765 0.842105 13.8876 0.856935 13.6979L0.884212 13.3477C0.970401 12.2393 1.02309 11.5617 1.29064 10.9459C1.55854 10.3293 2.0162 9.8336 2.7629 9.02482L9.07521 2.18574C9.51377 1.71027 9.80852 1.39072 10.1361 1.19588ZM12.2176 2.0317C11.7258 1.75865 11.1313 1.76749 10.6473 2.05537C10.4617 2.16573 10.2714 2.36419 9.74998 2.9291L9.6956 2.98801L13.0839 6.37626L13.0894 6.37089C13.6418 5.83885 13.8369 5.64384 13.9459 5.45257C14.2317 4.95102 14.2407 4.33199 13.9693 3.8218C13.8658 3.62721 13.6763 3.4263 13.1395 2.87795C12.602 2.3289 12.4062 2.13637 12.2176 2.0317ZM3.56046 9.63513L9.01682 3.72344L12.3635 7.0701L6.82031 12.4091C5.79195 13.3996 5.37275 13.7909 4.86355 13.9898C4.35546 14.1882 3.78988 14.1825 2.37673 14.1456L2.19008 14.1407C2.08373 14.1379 1.9995 14.1357 1.92718 14.1319C1.8897 14.1299 1.85888 14.1277 1.83335 14.1252C1.83361 14.0451 1.84175 13.9317 1.85596 13.7493L1.87396 13.5183C1.96987 12.2873 2.01511 11.7879 2.20781 11.3444C2.40014 10.9017 2.73106 10.5337 3.56046 9.63513Z" fill="#515E32"/>
<path d="M9.3335 14.1663C9.05735 14.1663 8.8335 14.3902 8.8335 14.6663C8.8335 14.9425 9.05735 15.1663 9.3335 15.1663H14.6668C14.943 15.1663 15.1668 14.9425 15.1668 14.6663C15.1668 14.3902 14.943 14.1663 14.6668 14.1663H9.3335Z" fill="#515E32"/>
</svg>
