<svg width="20" height="20" viewBox="0 0 20 20" fill="none" xmlns="http://www.w3.org/2000/svg">
<path d="M10.209 5.83398C10.209 5.48881 9.92916 5.20898 9.58398 5.20898C9.23881 5.20898 8.95898 5.48881 8.95898 5.83398V6.35841H5.83398C5.48881 6.35841 5.20898 6.63823 5.20898 6.98341C5.20898 7.32859 5.48881 7.60841 5.83398 7.60841H11.2149C10.843 8.5552 10.2968 9.4736 9.6616 10.338C9.54215 10.183 9.42261 10.023 9.30968 9.86642C9.02796 9.47574 8.81922 9.14952 8.73976 8.97905C8.59394 8.66618 8.22211 8.53076 7.90924 8.67658C7.59638 8.8224 7.46096 9.19424 7.60678 9.5071C7.74161 9.7964 8.01501 10.2082 8.29579 10.5975C8.47631 10.8479 8.67307 11.107 8.86349 11.3461C8.10856 12.2369 7.30219 13.0355 6.57165 13.7073C6.31757 13.9409 6.30099 14.3363 6.53464 14.5904C6.76828 14.8444 7.16366 14.861 7.41774 14.6274C8.13706 13.9659 8.94018 13.174 9.70674 12.2835L10.83 13.4512C11.0693 13.6999 11.4649 13.7076 11.7137 13.4683C11.9625 13.229 11.9701 12.8334 11.7308 12.5846L10.4997 11.3047C11.3446 10.1915 12.0958 8.94243 12.5451 7.60841H14.1673C14.5125 7.60841 14.7923 7.32859 14.7923 6.98341C14.7923 6.63823 14.5125 6.35841 14.1673 6.35841L10.209 6.35841V5.83398Z" fill="#515E32"/>
<path fill-rule="evenodd" clip-rule="evenodd" d="M10.0483 1.45898H9.953C8.12742 1.45897 6.69352 1.45896 5.574 1.60948C4.42679 1.76372 3.51658 2.08625 2.80141 2.80141C2.08625 3.51658 1.76372 4.42679 1.60948 5.574C1.45896 6.69352 1.45897 8.12742 1.45898 9.953V10.0483C1.45897 11.8739 1.45896 13.3078 1.60948 14.4273C1.76372 15.5745 2.08625 16.4847 2.80141 17.1999C3.51658 17.9151 4.42679 18.2376 5.574 18.3918C6.69351 18.5423 8.1274 18.5423 9.95298 18.5423H10.0483C11.8739 18.5423 13.3078 18.5423 14.4273 18.3918C15.5745 18.2376 16.4847 17.9151 17.1999 17.1999C17.9151 16.4847 18.2376 15.5745 18.3918 14.4273C18.5423 13.3078 18.5423 11.8739 18.5423 10.0483V9.95301C18.5423 8.12743 18.5423 6.69351 18.3918 5.574C18.2376 4.42679 17.9151 3.51658 17.1999 2.80141C16.4847 2.08625 15.5745 1.76372 14.4273 1.60948C13.3078 1.45896 11.8739 1.45897 10.0483 1.45898ZM3.6853 3.6853C4.1295 3.24109 4.73196 2.98394 5.74056 2.84833C6.76715 2.71031 8.11701 2.70898 10.0007 2.70898C11.8843 2.70898 13.2342 2.71031 14.2607 2.84833C15.2693 2.98394 15.8718 3.24109 16.316 3.6853C16.7602 4.1295 17.0174 4.73196 17.153 5.74056C17.291 6.76715 17.2923 8.11701 17.2923 10.0007C17.2923 11.8843 17.291 13.2342 17.153 14.2607C17.0174 15.2693 16.7602 15.8718 16.316 16.316C15.8718 16.7602 15.2693 17.0174 14.2607 17.153C13.2342 17.291 11.8843 17.2923 10.0007 17.2923C8.11701 17.2923 6.76715 17.291 5.74056 17.153C4.73196 17.0174 4.1295 16.7602 3.6853 16.316C3.24109 15.8718 2.98394 15.2693 2.84833 14.2607C2.71031 13.2342 2.70898 11.8843 2.70898 10.0007C2.70898 8.11701 2.71031 6.76715 2.84833 5.74056C2.98394 4.73196 3.24109 4.1295 3.6853 3.6853Z" fill="#515E32"/>
</svg>
