<svg width="21" height="21" viewBox="0 0 21 21" fill="none" xmlns="http://www.w3.org/2000/svg">
<path fill-rule="evenodd" clip-rule="evenodd" d="M2.61006 1.60262C2.83148 1.55398 3.07883 1.5415 3.33366 1.5415H17.667C17.9218 1.5415 18.1692 1.55398 18.3906 1.60262C18.6191 1.65281 18.8579 1.74966 19.0542 1.94594C19.2505 2.14222 19.3473 2.38108 19.3975 2.60957C19.4462 2.83099 19.4587 3.07834 19.4587 3.33317V4.33317C19.4587 4.588 19.4462 4.83535 19.3975 5.05677C19.3473 5.28526 19.2505 5.52412 19.0542 5.7204C18.8579 5.91669 18.6191 6.01353 18.3906 6.06372C18.1692 6.11236 17.9218 6.12484 17.667 6.12484H3.33366C3.07883 6.12484 2.83148 6.11236 2.61006 6.06372C2.38157 6.01353 2.14271 5.91669 1.94643 5.7204C1.75014 5.52412 1.6533 5.28526 1.60311 5.05677C1.55446 4.83535 1.54199 4.588 1.54199 4.33317V3.33317C1.54199 3.07834 1.55446 2.83099 1.60311 2.60957C1.6533 2.38108 1.75014 2.14222 1.94643 1.94594C2.14271 1.74966 2.38157 1.65281 2.61006 1.60262ZM2.82399 2.87778C2.8047 2.9656 2.79199 3.10539 2.79199 3.33317V4.33317C2.79199 4.56095 2.8047 4.70074 2.82399 4.78856C2.82813 4.80737 2.83205 4.8214 2.83531 4.83152C2.84543 4.83478 2.85945 4.8387 2.87827 4.84284C2.96609 4.86213 3.10588 4.87484 3.33366 4.87484H17.667C17.8948 4.87484 18.0346 4.86213 18.1224 4.84284C18.1412 4.8387 18.1552 4.83478 18.1653 4.83152C18.1686 4.8214 18.1725 4.80737 18.1767 4.78856C18.196 4.70074 18.2087 4.56095 18.2087 4.33317V3.33317C18.2087 3.10539 18.196 2.9656 18.1767 2.87778C18.1725 2.85897 18.1686 2.84494 18.1653 2.83482C18.1552 2.83156 18.1412 2.82764 18.1224 2.8235C18.0346 2.80421 17.8948 2.7915 17.667 2.7915H3.33366C3.10588 2.7915 2.96609 2.80421 2.87827 2.8235C2.85945 2.82764 2.84543 2.83156 2.83531 2.83482C2.83205 2.84495 2.82813 2.85897 2.82399 2.87778ZM2.84411 2.81253L2.84328 2.81403C2.84381 2.81298 2.8441 2.81251 2.84411 2.81253ZM2.81452 2.8428L2.81302 2.84363C2.81299 2.84361 2.81347 2.84332 2.81452 2.8428ZM18.1876 2.84363L18.1862 2.84281C18.1872 2.84333 18.1877 2.84361 18.1876 2.84363ZM18.1574 2.81408L18.1565 2.81253C18.1566 2.81251 18.1569 2.81299 18.1574 2.81408ZM18.1565 4.85381L18.1574 4.85234C18.1568 4.85337 18.1566 4.85383 18.1565 4.85381ZM18.1861 4.82357L18.1876 4.82272C18.1877 4.82273 18.1872 4.82303 18.1861 4.82357ZM2.84329 4.85232L2.84411 4.85381C2.8441 4.85384 2.84381 4.85336 2.84329 4.85232Z" fill="#A2A2A2"/>
<path fill-rule="evenodd" clip-rule="evenodd" d="M2.61006 8.26928C2.83148 8.22064 3.07883 8.20817 3.33366 8.20817H17.667C17.9218 8.20817 18.1692 8.22064 18.3906 8.26928C18.6191 8.31948 18.8579 8.41632 19.0542 8.6126C19.2505 8.80888 19.3473 9.04774 19.3975 9.27624C19.4462 9.49766 19.4587 9.74501 19.4587 9.99984V10.9998C19.4587 11.2547 19.4462 11.502 19.3975 11.7234C19.3473 11.9519 19.2505 12.1908 19.0542 12.3871C18.8579 12.5834 18.6191 12.6802 18.3906 12.7304C18.1692 12.779 17.9218 12.7915 17.667 12.7915H3.33366C3.07883 12.7915 2.83148 12.779 2.61006 12.7304C2.38157 12.6802 2.14271 12.5834 1.94643 12.3871C1.75014 12.1908 1.6533 11.9519 1.60311 11.7234C1.55446 11.502 1.54199 11.2547 1.54199 10.9998V9.99984C1.54199 9.74501 1.55446 9.49766 1.60311 9.27624C1.6533 9.04774 1.75014 8.80888 1.94643 8.6126C2.14271 8.41632 2.38157 8.31948 2.61006 8.26928ZM2.82399 9.54445C2.8047 9.63227 2.79199 9.77206 2.79199 9.99984V10.9998C2.79199 11.2276 2.8047 11.3674 2.82399 11.4552C2.82813 11.474 2.83205 11.4881 2.83531 11.4982C2.84543 11.5014 2.85945 11.5054 2.87827 11.5095C2.96609 11.5288 3.10588 11.5415 3.33366 11.5415H17.667C17.8948 11.5415 18.0346 11.5288 18.1224 11.5095C18.1412 11.5054 18.1552 11.5014 18.1653 11.4982C18.1686 11.4881 18.1725 11.474 18.1767 11.4552C18.196 11.3674 18.2087 11.2276 18.2087 10.9998V9.99984C18.2087 9.77206 18.196 9.63227 18.1767 9.54445C18.1725 9.52563 18.1686 9.51161 18.1653 9.50149C18.1552 9.49823 18.1412 9.4943 18.1224 9.49017C18.0346 9.47088 17.8948 9.45817 17.667 9.45817H3.33366C3.10588 9.45817 2.96609 9.47088 2.87827 9.49017C2.85945 9.4943 2.84543 9.49823 2.83531 9.50149C2.83205 9.51161 2.82813 9.52563 2.82399 9.54445ZM2.84411 9.4792L2.84328 9.4807C2.84381 9.47965 2.8441 9.47917 2.84411 9.4792ZM2.81452 9.50946L2.81302 9.51029C2.81299 9.51028 2.81347 9.50999 2.81452 9.50946ZM18.1876 9.51029L18.1862 9.50948C18.1872 9.50999 18.1877 9.51028 18.1876 9.51029ZM18.1574 9.48074L18.1565 9.4792C18.1566 9.47917 18.1569 9.47966 18.1574 9.48074ZM18.1565 11.5205L18.1574 11.519C18.1568 11.52 18.1566 11.5205 18.1565 11.5205ZM2.81302 11.4894L2.81452 11.4902C2.81347 11.4897 2.81299 11.4894 2.81302 11.4894ZM2.84329 11.519L2.84411 11.5205C2.8441 11.5205 2.84381 11.52 2.84329 11.519Z" fill="#A2A2A2"/>
<path fill-rule="evenodd" clip-rule="evenodd" d="M3.33366 14.8748C3.07883 14.8748 2.83148 14.8873 2.61006 14.936C2.38157 14.9861 2.14271 15.083 1.94643 15.2793C1.75014 15.4756 1.6533 15.7144 1.60311 15.9429C1.55446 16.1643 1.54199 16.4117 1.54199 16.6665V17.6665C1.54199 17.9213 1.55446 18.1687 1.60311 18.3901C1.6533 18.6186 1.75014 18.8575 1.94643 19.0537C2.14271 19.25 2.38157 19.3469 2.61006 19.3971C2.83148 19.4457 3.07883 19.4582 3.33366 19.4582H17.667C17.9218 19.4582 18.1692 19.4457 18.3906 19.3971C18.6191 19.3469 18.8579 19.25 19.0542 19.0537C19.2505 18.8575 19.3473 18.6186 19.3975 18.3901C19.4462 18.1687 19.4587 17.9213 19.4587 17.6665V16.6665C19.4587 16.4117 19.4462 16.1643 19.3975 15.9429C19.3473 15.7144 19.2505 15.4756 19.0542 15.2793C18.8579 15.083 18.6191 14.9861 18.3906 14.936C18.1692 14.8873 17.9218 14.8748 17.667 14.8748H3.33366ZM2.79199 16.6665C2.79199 16.4387 2.8047 16.2989 2.82399 16.2111C2.82813 16.1923 2.83205 16.1783 2.83531 16.1682C2.84543 16.1649 2.85945 16.161 2.87827 16.1568C2.96609 16.1375 3.10588 16.1248 3.33366 16.1248H17.667C17.8948 16.1248 18.0346 16.1375 18.1224 16.1568C18.1412 16.161 18.1552 16.1649 18.1653 16.1682C18.1686 16.1783 18.1725 16.1923 18.1767 16.2111C18.196 16.2989 18.2087 16.4387 18.2087 16.6665V17.6665C18.2087 17.8943 18.196 18.0341 18.1767 18.1219C18.1725 18.1407 18.1686 18.1547 18.1653 18.1649C18.1552 18.1681 18.1412 18.172 18.1224 18.1762C18.0346 18.1955 17.8948 18.2082 17.667 18.2082H3.33366C3.10588 18.2082 2.96609 18.1955 2.87827 18.1762C2.85945 18.172 2.84543 18.1681 2.83531 18.1649C2.83205 18.1547 2.82813 18.1407 2.82399 18.1219C2.8047 18.0341 2.79199 17.8943 2.79199 17.6665V16.6665ZM2.84411 16.1459L2.84328 16.1474C2.84381 16.1463 2.8441 16.1458 2.84411 16.1459ZM2.81452 16.1761L2.81302 16.177C2.81299 16.1769 2.81347 16.1767 2.81452 16.1761ZM18.1876 16.177L18.1862 16.1761C18.1872 16.1767 18.1877 16.1769 18.1876 16.177ZM18.1574 16.1474L18.1566 16.146C18.1567 16.1461 18.157 16.1466 18.1574 16.1474ZM18.1565 18.1871L18.1574 18.1857C18.1568 18.1867 18.1566 18.1872 18.1565 18.1871ZM18.1861 18.1569L18.1876 18.156C18.1877 18.1561 18.1872 18.1564 18.1861 18.1569ZM2.81302 18.156L2.81452 18.1569C2.81347 18.1564 2.81299 18.1561 2.81302 18.156ZM2.84329 18.1856L2.84411 18.1871C2.8441 18.1872 2.84381 18.1867 2.84329 18.1856Z" fill="#A2A2A2"/>
</svg>
