<svg width="20" height="20" viewBox="0 0 20 20" fill="none" xmlns="http://www.w3.org/2000/svg">
<path d="M7.08301 12.9167C7.08301 12.4565 7.4561 12.0834 7.91634 12.0834H7.92381C8.38405 12.0834 8.75715 12.4565 8.75715 12.9167C8.75715 13.377 8.38405 13.7501 7.92381 13.7501H7.91634C7.4561 13.7501 7.08301 13.377 7.08301 12.9167Z" fill="#515E32"/>
<path d="M11.2422 12.9167C11.2422 12.4565 11.6153 12.0834 12.0755 12.0834H12.083C12.5432 12.0834 12.9163 12.4565 12.9163 12.9167C12.9163 13.377 12.5432 13.7501 12.083 13.7501H12.0755C11.6153 13.7501 11.2422 13.377 11.2422 12.9167Z" fill="#515E32"/>
<path fill-rule="evenodd" clip-rule="evenodd" d="M5.62467 7.04932V5.41675C5.62467 3.0005 7.58343 1.04175 9.99967 1.04175C12.4159 1.04175 14.3747 3.0005 14.3747 5.41675V7.04932C15.7837 7.38579 16.8655 8.58212 17.0626 10.0461C17.186 10.9631 17.2913 11.9266 17.2913 12.9167C17.2913 13.9069 17.186 14.8704 17.0626 15.7874C16.8363 17.4683 15.4437 18.7963 13.7287 18.8752C12.5383 18.9299 11.3295 18.9584 9.99968 18.9584C8.66981 18.9584 7.46104 18.9299 6.27069 18.8752C4.55564 18.7963 3.16308 17.4683 2.93677 15.7874C2.81331 14.8704 2.70801 13.9069 2.70801 12.9167C2.70801 11.9266 2.81331 10.963 2.93677 10.0461C3.13388 8.58212 4.21566 7.38579 5.62467 7.04932ZM6.87467 5.41675C6.87467 3.69086 8.27378 2.29175 9.99967 2.29175C11.7256 2.29175 13.1247 3.69086 13.1247 5.41675V6.93289C12.1274 6.89479 11.1054 6.87508 9.99968 6.87508C8.89397 6.87508 7.87197 6.89479 6.87467 6.93289V5.41675ZM9.99968 8.12508C8.68838 8.12508 7.49876 8.15318 6.32809 8.207C5.23726 8.25715 4.32409 9.10998 4.17559 10.2129C4.05445 11.1126 3.95801 12.0108 3.95801 12.9167C3.95801 13.8227 4.05445 14.7209 4.17559 15.6206C4.32409 16.7235 5.23726 17.5763 6.32809 17.6265C7.49876 17.6803 8.68838 17.7084 9.99968 17.7084C11.311 17.7084 12.5006 17.6803 13.6713 17.6265C14.7621 17.5763 15.6753 16.7235 15.8238 15.6206C15.9449 14.7209 16.0413 13.8227 16.0413 12.9167C16.0413 12.0108 15.9449 11.1126 15.8238 10.2129C15.6753 9.10998 14.7621 8.25715 13.6713 8.207C12.5006 8.15318 11.311 8.12508 9.99968 8.12508Z" fill="#515E32"/>
</svg>
