<svg width="20" height="20" viewBox="0 0 20 20" fill="none" xmlns="http://www.w3.org/2000/svg">
<path fill-rule="evenodd" clip-rule="evenodd" d="M12.4337 2.32242C10.8061 2.28153 9.19452 2.28152 7.56698 2.32241L7.51851 2.32363C6.24782 2.35554 5.22534 2.38121 4.40591 2.52392C3.54799 2.67333 2.85073 2.95989 2.26167 3.55119C1.67509 4.14 1.39003 4.82724 1.24346 5.67125C1.1039 6.47489 1.08264 7.47242 1.05631 8.70812L1.05527 8.75707C1.03757 9.58736 1.03757 10.4128 1.05527 11.2431L1.05632 11.292C1.08265 12.5277 1.1039 13.5253 1.24346 14.3289C1.39003 15.1729 1.67509 15.8602 2.26168 16.449C2.85073 17.0403 3.54799 17.3268 4.40591 17.4762C5.22533 17.619 6.2478 17.6446 7.51847 17.6765L7.56699 17.6778C9.19452 17.7186 10.8061 17.7186 12.4337 17.6778L12.4822 17.6765C13.7529 17.6446 14.7753 17.619 15.5947 17.4762C16.4527 17.3268 17.1499 17.0403 17.739 16.449C18.3256 15.8602 18.6106 15.1729 18.7572 14.3289C18.8968 13.5253 18.918 12.5277 18.9443 11.292L18.9454 11.2431C18.9631 10.4128 18.9631 9.58737 18.9454 8.75709L18.9443 8.70814C18.918 7.47244 18.8968 6.47491 18.7572 5.67126C18.6106 4.82726 18.3256 4.14001 17.739 3.5512C17.1499 2.9599 16.4527 2.67334 15.5947 2.52393C14.7753 2.38122 13.7528 2.35554 12.4821 2.32364L12.4337 2.32242ZM7.59837 3.57202C9.20498 3.53166 10.7957 3.53166 12.4023 3.57202C13.7328 3.60546 14.6626 3.6304 15.3803 3.75539C16.0699 3.87549 16.4999 4.0785 16.8534 4.4334C16.9984 4.57891 17.1174 4.73554 17.2155 4.91533L12.2648 7.72045C11.2187 8.31317 10.5839 8.54175 10.0004 8.54175C9.41691 8.54175 8.78212 8.31317 7.73604 7.72045L2.78517 4.91525C2.88324 4.73549 3.0023 4.57888 3.14723 4.43339C3.50079 4.07849 3.93076 3.87548 4.62037 3.75538C5.33807 3.63039 6.26782 3.60545 7.59837 3.57202ZM2.43451 6.15327C2.34828 6.81312 2.32922 7.64714 2.30499 8.78372C2.28766 9.59625 2.28766 10.4039 2.30499 11.2164C2.33263 12.5127 2.35353 13.4154 2.47503 14.115C2.59135 14.7849 2.79121 15.2094 3.14724 15.5668C3.50079 15.9217 3.93076 16.1247 4.62037 16.2448C5.33807 16.3698 6.26783 16.3947 7.59838 16.4281C9.20499 16.4685 10.7957 16.4685 12.4023 16.4281C13.7328 16.3947 14.6626 16.3698 15.3803 16.2448C16.0699 16.1247 16.4999 15.9217 16.8534 15.5668C17.2094 15.2094 17.4093 14.7849 17.5256 14.115C17.6471 13.4154 17.668 12.5127 17.6957 11.2164C17.713 10.4039 17.713 9.59625 17.6957 8.78374C17.6714 7.64719 17.6524 6.8132 17.5662 6.15336L12.881 8.80801C11.8033 9.41866 10.9275 9.79175 10.0004 9.79175C9.07333 9.79175 8.19755 9.41866 7.11982 8.80801L2.43451 6.15327Z" fill="#515E32"/>
</svg>
