<svg width="24" height="24" viewBox="0 0 24 24" fill="none" xmlns="http://www.w3.org/2000/svg">
<path d="M10.206 14.7211C10.6043 14.6073 10.8349 14.1923 10.7212 13.794C10.6074 13.3957 10.1923 13.165 9.79402 13.2788L9.75132 13.291C8.16568 13.7439 6.9167 14.1006 5.94427 14.497C4.94685 14.9035 4.17064 15.3779 3.56834 16.1055C3.45819 16.2386 3.3541 16.3765 3.25638 16.519C2.34541 17.8467 2.26364 19.5043 2.25001 21.9958C2.24775 22.4101 2.58169 22.7477 2.9959 22.7499C3.41011 22.7522 3.74772 22.4183 3.74999 22.004C3.76416 19.413 3.88769 18.2502 4.49324 17.3676C4.56547 17.2623 4.64241 17.1604 4.72382 17.062C5.10999 16.5955 5.63893 16.2412 6.51044 15.886C7.39823 15.5242 8.56829 15.1889 10.206 14.7211Z" fill="#2E2E2E"/>
<path d="M14.206 13.2788C13.8077 13.165 13.3926 13.3957 13.2788 13.794C13.1651 14.1923 13.3957 14.6073 13.794 14.7211C15.4317 15.1889 16.6018 15.5242 17.4896 15.886C18.3611 16.2412 18.89 16.5955 19.2762 17.062C19.3576 17.1604 19.4345 17.2623 19.5068 17.3676C20.1123 18.2502 20.2358 19.413 20.25 22.004C20.2523 22.4183 20.5899 22.7522 21.0041 22.7499C21.4183 22.7477 21.7523 22.4101 21.75 21.9958C21.7364 19.5043 21.6546 17.8467 20.7436 16.519C20.6459 16.3766 20.5418 16.2386 20.4317 16.1055C19.8294 15.3779 19.0532 14.9035 18.0557 14.497C17.0833 14.1006 15.8344 13.7439 14.2488 13.291L14.206 13.2788Z" fill="#2E2E2E"/>
<path fill-rule="evenodd" clip-rule="evenodd" d="M7.25044 6.02606C7.25015 6.01741 7.25 6.00872 7.25 6C7.25 5.97987 7.25079 5.95993 7.25235 5.9402C7.33071 3.40722 9.3601 1.25 11.9998 1.25C14.637 1.25 16.6651 3.40314 16.747 5.93301C16.749 5.95508 16.75 5.97742 16.75 6C16.75 6.01116 16.7498 6.02226 16.7493 6.0333C16.7533 6.3663 16.7235 6.70538 16.6569 7.04652L16.2364 9.20188C15.8364 11.252 14.073 12.75 11.9998 12.75C9.92666 12.75 8.1632 11.252 7.76322 9.20188L7.3427 7.04652C7.27566 6.70291 7.24594 6.36139 7.25044 6.02606ZM8.85443 5.25C9.21671 3.827 10.4777 2.75 11.9998 2.75C13.5219 2.75 14.7829 3.827 15.1452 5.25L8.85443 5.25ZM8.81314 6.75C8.81374 6.75309 8.81434 6.75619 8.81494 6.75928L9.23546 8.91464C9.50292 10.2855 10.6697 11.25 11.9998 11.25C13.33 11.25 14.4967 10.2855 14.7642 8.91464L15.1847 6.75928C15.1853 6.75619 15.1859 6.75309 15.1865 6.75L8.81314 6.75Z" fill="#2E2E2E"/>
<path d="M12 15.25C12.4142 15.25 12.75 15.5858 12.75 16L12.75 20C12.75 20.4142 12.4142 20.75 12 20.75C11.5858 20.75 11.25 20.4142 11.25 20L11.25 16C11.25 15.5858 11.5858 15.25 12 15.25Z" fill="#2E2E2E"/>
</svg>
