<svg width="16" height="16" viewBox="0 0 16 16" fill="none" xmlns="http://www.w3.org/2000/svg">
<path fill-rule="evenodd" clip-rule="evenodd" d="M5.83301 7.99992C5.83301 6.8033 6.80306 5.83325 7.99967 5.83325C9.19629 5.83325 10.1663 6.8033 10.1663 7.99992C10.1663 9.19654 9.19629 10.1666 7.99967 10.1666C6.80306 10.1666 5.83301 9.19654 5.83301 7.99992ZM7.99967 6.83325C7.35534 6.83325 6.83301 7.35559 6.83301 7.99992C6.83301 8.64425 7.35534 9.16659 7.99967 9.16659C8.64401 9.16659 9.16634 8.64425 9.16634 7.99992C9.16634 7.35559 8.64401 6.83325 7.99967 6.83325Z" fill="#A2A2A2"/>
<path d="M4.49846 8.67834C4.51772 8.40287 4.31003 8.16394 4.03456 8.14467C3.81934 8.12962 3.60904 8.107 3.40466 8.07741C3.13137 8.03783 2.87774 8.2273 2.83817 8.50059C2.79859 8.77388 2.98806 9.02751 3.26135 9.06708C3.49046 9.10026 3.7253 9.12549 3.96479 9.14223C4.24026 9.1615 4.47919 8.95381 4.49846 8.67834Z" fill="#A2A2A2"/>
<path d="M13.1612 7.49924C13.2008 7.22595 13.0113 6.97232 12.738 6.93275C12.5089 6.89957 12.274 6.87434 12.0346 6.85759C11.7591 6.83833 11.5202 7.04602 11.5009 7.32149C11.4816 7.59696 11.6893 7.83589 11.9648 7.85516C12.18 7.87021 12.3903 7.89283 12.5947 7.92242C12.868 7.962 13.1216 7.77253 13.1612 7.49924Z" fill="#A2A2A2"/>
<path fill-rule="evenodd" clip-rule="evenodd" d="M11.333 1.83325C9.99401 1.83325 8.7529 2.09628 7.78809 2.54689C6.97618 2.9261 5.88344 3.16659 4.66634 3.16659C3.99167 3.16659 3.35293 3.09263 2.77797 2.96094C1.89368 2.7584 0.833008 3.36444 0.833008 4.40923V11.5906C0.833008 12.1476 0.921288 12.672 1.21063 13.0991C1.50983 13.5407 1.97093 13.802 2.55471 13.9357C3.206 14.0849 3.91978 14.1666 4.66634 14.1666C6.00534 14.1666 7.24645 13.9036 8.21126 13.4529C9.02317 13.0737 10.1159 12.8333 11.333 12.8333C12.0077 12.8333 12.6464 12.9072 13.2214 13.0389C14.1057 13.2414 15.1663 12.6354 15.1663 11.5906V4.40923C15.1663 3.878 15.0949 3.35627 14.8142 2.92489C14.5213 2.4747 14.056 2.20417 13.4446 2.06414C12.7933 1.91496 12.0796 1.83325 11.333 1.83325ZM8.21126 3.45294C9.02317 3.07374 10.1159 2.83325 11.333 2.83325C12.0077 2.83325 12.6464 2.9072 13.2214 3.0389C13.6645 3.14039 13.8658 3.30085 13.976 3.4702C14.0984 3.65836 14.1663 3.94473 14.1663 4.40923V11.5906C14.1663 11.8589 13.8403 12.1548 13.4446 12.0641C12.7933 11.915 12.0796 11.8333 11.333 11.8333C9.99401 11.8333 8.7529 12.0963 7.78809 12.5469C6.97618 12.9261 5.88344 13.1666 4.66634 13.1666C3.99167 13.1666 3.35293 13.0926 2.77797 12.9609C2.36147 12.8655 2.1559 12.7114 2.0385 12.5382C1.91125 12.3504 1.83301 12.0605 1.83301 11.5906V4.40923C1.83301 4.14092 2.15905 3.84508 2.55471 3.9357C3.206 4.08487 3.91978 4.16659 4.66634 4.16659C6.00534 4.16659 7.24645 3.90356 8.21126 3.45294Z" fill="#A2A2A2"/>
</svg>
