<svg width="28" height="28" viewBox="0 0 28 28" fill="none" xmlns="http://www.w3.org/2000/svg">
<path fill-rule="evenodd" clip-rule="evenodd" d="M14.0007 1.4585C8.67168 1.4585 4.34671 5.76499 4.34667 11.0834C4.34656 12.3205 4.26358 13.2542 3.69469 14.0934C3.61559 14.2084 3.51063 14.3524 3.39594 14.5098C3.19675 14.7831 2.96822 15.0967 2.79488 15.3684C2.48893 15.8477 2.19003 16.4258 2.08727 17.0994C1.75202 19.2971 3.29745 20.72 4.83654 21.3576C5.98234 21.8322 7.22041 22.2066 8.51174 22.4806C9.1815 24.8378 11.3977 26.5418 13.9996 26.5418C16.6013 26.5418 18.8173 24.838 19.4872 22.4811C20.7794 22.207 22.0183 21.8325 23.1648 21.3576C24.7039 20.72 26.2494 19.2971 25.9141 17.0994C25.8113 16.4258 25.5124 15.8477 25.2065 15.3684C25.0332 15.0967 24.8046 14.7831 24.6054 14.5098C24.4908 14.3525 24.3858 14.2084 24.3068 14.0935C23.7378 13.2542 23.6548 12.3206 23.6547 11.0835C23.6547 5.76503 19.3297 1.4585 14.0007 1.4585ZM6.09667 11.0835C6.09667 6.73698 9.63269 3.2085 14.0007 3.2085C18.3687 3.2085 21.9047 6.73706 21.9047 11.0836C21.9048 12.3464 21.9671 13.7629 22.8602 15.0784L22.863 15.0825C23.0099 15.2961 23.1388 15.4713 23.2603 15.6364C23.4221 15.8563 23.5708 16.0584 23.7313 16.3098C23.9801 16.6996 24.1344 17.0374 24.1841 17.3633C24.3451 18.4184 23.6721 19.2532 22.4951 19.7408C17.5029 21.8088 10.4984 21.8088 5.5063 19.7408C4.32926 19.2532 3.65631 18.4184 3.81726 17.3633C3.86697 17.0374 4.02127 16.6996 4.27005 16.3098C4.43053 16.0584 4.57924 15.8563 4.74108 15.6364C4.8624 15.4716 4.99175 15.2958 5.13835 15.0825L5.14114 15.0784C6.03428 13.7629 6.09656 12.3463 6.09667 11.0835ZM17.4574 22.8241C15.1841 23.1145 12.8148 23.1144 10.5415 22.8238C11.2083 23.989 12.4987 24.7918 13.9996 24.7918C15.5003 24.7918 16.7906 23.9891 17.4574 22.8241Z" fill="#F3DC9A"/>
</svg>
