<svg width="20" height="20" viewBox="0 0 20 20" fill="none" xmlns="http://www.w3.org/2000/svg">
<path d="M8.54199 15.8334C8.54199 15.4882 8.82181 15.2084 9.16699 15.2084H10.8337C11.1788 15.2084 11.4587 15.4882 11.4587 15.8334C11.4587 16.1786 11.1788 16.4584 10.8337 16.4584H9.16699C8.82181 16.4584 8.54199 16.1786 8.54199 15.8334Z" fill="#515E32"/>
<path fill-rule="evenodd" clip-rule="evenodd" d="M9.95387 1.04175H10.0468C11.3823 1.04173 12.4481 1.04172 13.284 1.15411C14.1475 1.27021 14.8587 1.51646 15.4213 2.07908C15.9839 2.6417 16.2302 3.35287 16.3463 4.21643C16.4587 5.05233 16.4587 6.11814 16.4587 7.45363V12.5465C16.4587 13.882 16.4587 14.9478 16.3463 15.7837C16.2302 16.6473 15.9839 17.3585 15.4213 17.9211C14.8587 18.4837 14.1475 18.73 13.284 18.8461C12.4481 18.9584 11.3823 18.9584 10.0468 18.9584H9.95388C8.61838 18.9584 7.55258 18.9584 6.71667 18.8461C5.85312 18.73 5.14194 18.4837 4.57932 17.9211C4.01671 17.3585 3.77045 16.6473 3.65435 15.7837C3.54197 14.9478 3.54198 13.882 3.54199 12.5465V7.45363C3.54198 6.11814 3.54197 5.05233 3.65435 4.21643C3.77045 3.35287 4.01671 2.6417 4.57932 2.07908C5.14194 1.51646 5.85312 1.27021 6.71667 1.15411C7.55257 1.04172 8.61838 1.04173 9.95387 1.04175ZM6.88323 2.39296C6.15829 2.49043 5.75486 2.67131 5.46321 2.96296C5.17155 3.25462 4.99067 3.65804 4.8932 4.38299C4.79332 5.12591 4.79199 6.10749 4.79199 7.50008V12.5001C4.79199 13.8927 4.79332 14.8743 4.8932 15.6172C4.99067 16.3421 5.17155 16.7455 5.46321 17.0372C5.75486 17.3289 6.15829 17.5097 6.88323 17.6072C7.62615 17.7071 8.60773 17.7084 10.0003 17.7084C11.3929 17.7084 12.3745 17.7071 13.1174 17.6072C13.8424 17.5097 14.2458 17.3289 14.5374 17.0372C14.8291 16.7455 15.01 16.3421 15.1074 15.6172C15.2073 14.8743 15.2087 13.8927 15.2087 12.5001V7.50008C15.2087 6.10748 15.2073 5.12591 15.1074 4.38299C15.01 3.65804 14.8291 3.25462 14.5374 2.96296C14.2458 2.67131 13.8424 2.49043 13.1174 2.39296C13.0838 2.38844 13.0497 2.38412 13.0151 2.38C12.9485 2.77762 12.887 3.12569 12.8037 3.4094C12.7045 3.74758 12.5556 4.06514 12.2692 4.31931C11.9729 4.5822 11.6316 4.69264 11.266 4.74317C10.9214 4.7908 10.496 4.79176 10.0004 4.79176C9.5047 4.79176 9.07937 4.7908 8.73471 4.74317C8.36915 4.69264 8.02788 4.5822 7.73156 4.31931C7.44509 4.06514 7.29625 3.74758 7.19699 3.4094C7.11373 3.12569 7.05223 2.77761 6.98565 2.37999C6.95101 2.38412 6.91687 2.38844 6.88323 2.39296ZM8.24059 2.30387C8.29766 2.63826 8.34258 2.874 8.39641 3.05739C8.4602 3.27476 8.51691 3.34502 8.56115 3.38427C8.60983 3.42746 8.68562 3.4745 8.90585 3.50494C9.14698 3.53827 9.47615 3.54176 10.0004 3.54176C10.5246 3.54176 10.8538 3.53827 11.0949 3.50494C11.3151 3.4745 11.3909 3.42746 11.4396 3.38427C11.4838 3.34502 11.5405 3.27476 11.6043 3.05739C11.6581 2.874 11.7031 2.63826 11.7601 2.30387C11.2575 2.29206 10.6775 2.29175 10.0003 2.29175C9.32317 2.29175 8.7432 2.29206 8.24059 2.30387Z" fill="#515E32"/>
</svg>
