<svg width="25" height="25" viewBox="0 0 25 25" fill="none" xmlns="http://www.w3.org/2000/svg">
<path d="M13.0833 1.75H11.9167C9.96585 1.74999 8.42941 1.74998 7.22885 1.90242C5.99987 2.05847 5.00965 2.38575 4.22552 3.12631C3.43534 3.87259 3.0806 4.82468 2.91255 6.00521C2.74997 7.14729 2.74998 8.6054 2.75 10.4407V14.5593C2.74998 16.3946 2.74997 17.8527 2.91255 18.9948C3.0806 20.1753 3.43534 21.1274 4.22552 21.8737C5.00965 22.6142 5.99987 22.9415 7.22885 23.0976C8.42941 23.25 9.96586 23.25 11.9167 23.25H11.9706L11.9853 23.2499L12 23.25H13.5C13.9142 23.25 14.25 22.9142 14.25 22.5C14.25 22.0858 13.9142 21.75 13.5 21.75H12L11.9853 21.7501L11.9706 21.75C9.954 21.75 8.51286 21.7486 7.41779 21.6095C6.34011 21.4727 5.71182 21.2142 5.25546 20.7832C4.80515 20.3579 4.53964 19.7814 4.39758 18.7834C4.25178 17.7592 4.25 16.408 4.25 14.5L4.25 10.5C4.25 8.59197 4.25178 7.24077 4.39758 6.21661C4.53964 5.21864 4.80515 4.64213 5.25546 4.21683C5.71182 3.78582 6.34011 3.52731 7.4178 3.39047C8.51287 3.25142 9.954 3.25 11.9706 3.25H13.0294C15.046 3.25 16.4871 3.25142 17.5822 3.39047C18.6599 3.52731 19.2882 3.78582 19.7445 4.21683C20.1949 4.64213 20.4604 5.21864 20.6024 6.21661C20.7482 7.24077 20.75 8.59197 20.75 10.5C20.75 10.9142 21.0858 11.25 21.5 11.25C21.9142 11.25 22.25 10.9142 22.25 10.5V10.4407C22.25 8.60541 22.25 7.14729 22.0875 6.00521C21.9194 4.82468 21.5647 3.87259 20.7745 3.12631C19.9904 2.38575 19.0001 2.05847 17.7712 1.90242C16.5706 1.74998 15.0342 1.74999 13.0833 1.75Z" fill="#515E32"/>
<path d="M8.5 6.75C8.08579 6.75 7.75 7.08579 7.75 7.5C7.75 7.91421 8.08579 8.25 8.5 8.25H16.5C16.9142 8.25 17.25 7.91421 17.25 7.5C17.25 7.08579 16.9142 6.75 16.5 6.75H8.5Z" fill="#515E32"/>
<path d="M7.75 12.5C7.75 12.0858 8.08579 11.75 8.5 11.75H13.5C13.9142 11.75 14.25 12.0858 14.25 12.5C14.25 12.9142 13.9142 13.25 13.5 13.25H8.5C8.08579 13.25 7.75 12.9142 7.75 12.5Z" fill="#515E32"/>
<path fill-rule="evenodd" clip-rule="evenodd" d="M19.5 12.75C17.4301 12.75 15.75 14.4256 15.75 16.4951C15.75 17.6668 16.2885 18.7122 17.1314 19.3988L16.3768 22.0365L16.3714 22.0563C16.1774 22.8119 16.9246 23.4616 17.644 23.1743L19.5 22.4331L21.375 23.1819C22.077 23.4622 22.8139 22.8489 22.657 22.1043L22.6534 22.0881L21.9986 19.2879C22.7664 18.6023 23.25 17.6054 23.25 16.4951C23.25 14.4256 21.5699 12.75 19.5 12.75ZM17.25 16.4951C17.25 15.2563 18.2562 14.25 19.5 14.25C20.7438 14.25 21.75 15.2563 21.75 16.4951C21.75 17.7339 20.7438 18.7402 19.5 18.7402C18.2562 18.7402 17.25 17.7339 17.25 16.4951ZM18.1289 21.3655L18.4902 20.1029C18.8115 20.1924 19.1502 20.2402 19.5 20.2402C19.8973 20.2402 20.2802 20.1785 20.6396 20.0641L20.9515 21.3976L19.9267 20.9883C19.6528 20.8789 19.3472 20.8789 19.0733 20.9883L18.1289 21.3655Z" fill="#515E32"/>
</svg>
