<svg width="14" height="16" viewBox="0 0 14 16" fill="none" xmlns="http://www.w3.org/2000/svg">
<g clip-path="url(#clip0_957_1532)">
<path d="M8.71303 14.1742C8.46321 14.7406 8.29807 15.3554 8.2348 16L13.5216 14.8508C13.7715 14.2845 13.9365 13.6696 13.9999 13.025L8.71303 14.1742Z" fill="white"/>
<path d="M13.5216 11.4079C13.7715 10.8416 13.9366 10.2268 13.9999 9.58212L9.8816 10.4778V8.75601L13.5215 7.96504C13.7713 7.39872 13.9365 6.78388 13.9998 6.13924L9.88148 7.03412V0.842159C9.25043 1.20447 8.69001 1.68674 8.23444 2.25561V7.39223L6.5874 7.75021V0C5.95636 0.362181 5.39593 0.844579 4.94037 1.41345V8.10806L1.25511 8.90883C1.00529 9.47515 0.840022 10.09 0.776632 10.7346L4.94037 9.82981V11.9981L0.47811 12.9677C0.228284 13.534 0.0631441 14.1489 -0.00012207 14.7935L4.67061 13.7785C5.05083 13.6977 5.37762 13.4678 5.59009 13.1515L6.44667 11.8529V11.8526C6.53559 11.7183 6.5874 11.5563 6.5874 11.3818V9.47184L8.23444 9.11386V12.5574L13.5215 11.4077L13.5216 11.4079Z" fill="white"/>
</g>
<defs>
<clipPath id="clip0_957_1532">
<rect width="14" height="16" fill="white"/>
</clipPath>
</defs>
</svg>
