<svg width="16" height="16" viewBox="0 0 16 16" fill="none" xmlns="http://www.w3.org/2000/svg">
<path d="M4.83398 9.00016C4.83398 7.25126 6.25175 5.8335 8.00065 5.8335C8.27679 5.8335 8.50065 5.60964 8.50065 5.3335C8.50065 5.05735 8.27679 4.8335 8.00065 4.8335C5.69946 4.8335 3.83398 6.69898 3.83398 9.00016C3.83398 11.3013 5.69946 13.1668 8.00065 13.1668C8.27679 13.1668 8.50065 12.943 8.50065 12.6668C8.50065 12.3907 8.27679 12.1668 8.00065 12.1668C6.25175 12.1668 4.83398 10.7491 4.83398 9.00016Z" fill="#A2A2A2"/>
<path d="M10.4166 6.27752C10.5698 6.04775 10.5077 5.73732 10.278 5.58414C10.0482 5.43096 9.73777 5.49305 9.5846 5.72282L7.5846 8.72282C7.43142 8.95258 7.49351 9.26301 7.72327 9.41619C7.95304 9.56937 8.26347 9.50728 8.41665 9.27752L10.4166 6.27752Z" fill="#A2A2A2"/>
<path fill-rule="evenodd" clip-rule="evenodd" d="M9.50065 2.3335C9.50065 2.56591 9.44779 2.78598 9.35344 2.98234C12.1085 3.59898 14.1673 6.05913 14.1673 9.00016C14.1673 12.4059 11.4064 15.1668 8.00065 15.1668C4.59489 15.1668 1.83398 12.4059 1.83398 9.00016C1.83398 6.05913 3.89283 3.59898 6.64786 2.98234C6.55351 2.78598 6.50065 2.56591 6.50065 2.3335C6.50065 1.50507 7.17222 0.833496 8.00065 0.833496C8.82908 0.833496 9.50065 1.50507 9.50065 2.3335ZM8.00065 2.8335C7.72451 2.8335 7.50065 2.60964 7.50065 2.3335C7.50065 2.05735 7.72451 1.8335 8.00065 1.8335C8.27679 1.8335 8.50065 2.05735 8.50065 2.3335C8.50065 2.60964 8.27679 2.8335 8.00065 2.8335ZM2.83398 9.00016C2.83398 6.14669 5.14718 3.8335 8.00065 3.8335C10.8541 3.8335 13.1673 6.14669 13.1673 9.00016C13.1673 11.8536 10.8541 14.1668 8.00065 14.1668C5.14718 14.1668 2.83398 11.8536 2.83398 9.00016Z" fill="#A2A2A2"/>
</svg>
