<svg width="88" height="88" viewBox="0 0 88 88" fill="none" xmlns="http://www.w3.org/2000/svg">
<path d="M73.333 7.33337H14.6663C12.7214 7.33337 10.8562 8.10599 9.48089 9.48126C8.10562 10.8565 7.33301 12.7218 7.33301 14.6667V40.3334C7.33301 42.2783 8.10562 44.1436 9.48089 45.5188C10.8562 46.8941 12.7214 47.6667 14.6663 47.6667H18.333V40.3334H14.6663V14.6667H73.333V40.3334H69.6663V47.6667H73.333C75.2779 47.6667 77.1432 46.8941 78.5185 45.5188C79.8937 44.1436 80.6663 42.2783 80.6663 40.3334V14.6667C80.6663 12.7218 79.8937 10.8565 78.5185 9.48126C77.1432 8.10599 75.2779 7.33337 73.333 7.33337Z" fill="#E02C1F"/>
<path d="M64.1663 18.3334H23.833C22.3743 18.3334 20.9754 18.9128 19.9439 19.9443C18.9125 20.9757 18.333 22.3747 18.333 23.8334V75.1667C18.333 76.6254 18.9125 78.0243 19.9439 79.0558C20.9754 80.0872 22.3743 80.6667 23.833 80.6667H64.1663C65.625 80.6667 67.024 80.0872 68.0554 79.0558C69.0869 78.0243 69.6663 76.6254 69.6663 75.1667V23.8334C69.6663 22.3747 69.0869 20.9757 68.0554 19.9443C67.024 18.9128 65.625 18.3334 64.1663 18.3334ZM53.9363 61.27L46.603 68.6034C46.2543 68.9372 45.8431 69.1989 45.393 69.3734C44.9541 69.5674 44.4795 69.6676 43.9997 69.6676C43.5198 69.6676 43.0452 69.5674 42.6063 69.3734C42.1563 69.1989 41.7451 68.9372 41.3963 68.6034L34.063 61.27C33.3726 60.5796 32.9847 59.6431 32.9847 58.6667C32.9847 57.6903 33.3726 56.7538 34.063 56.0634C34.7535 55.3729 35.6899 54.985 36.6663 54.985C37.6428 54.985 38.5792 55.3729 39.2697 56.0634L40.333 57.1634V44C40.333 43.0276 40.7193 42.0949 41.407 41.4073C42.0946 40.7197 43.0272 40.3334 43.9997 40.3334C44.9721 40.3334 45.9048 40.7197 46.5924 41.4073C47.28 42.0949 47.6663 43.0276 47.6663 44V57.1634L48.7297 56.0634C49.0715 55.7215 49.4774 55.4503 49.9241 55.2653C50.3708 55.0803 50.8495 54.985 51.333 54.985C51.8165 54.985 52.2952 55.0803 52.7419 55.2653C53.1886 55.4503 53.5945 55.7215 53.9363 56.0634C54.2782 56.4052 54.5494 56.8111 54.7344 57.2578C54.9194 57.7045 55.0147 58.1832 55.0147 58.6667C55.0147 59.1502 54.9194 59.6289 54.7344 60.0756C54.5494 60.5223 54.2782 60.9282 53.9363 61.27Z" fill="#E02C1F"/>
<path d="M53.9363 61.27L46.603 68.6034C46.2543 68.9372 45.8431 69.1989 45.393 69.3734C44.9541 69.5674 44.4795 69.6676 43.9997 69.6676C43.5198 69.6676 43.0452 69.5674 42.6063 69.3734C42.1563 69.1989 41.7451 68.9372 41.3963 68.6034L34.063 61.27C33.3726 60.5796 32.9847 59.6431 32.9847 58.6667C32.9847 57.6903 33.3726 56.7538 34.063 56.0634C34.7535 55.3729 35.6899 54.985 36.6663 54.985C37.6428 54.985 38.5792 55.3729 39.2697 56.0634L40.333 57.1634V44C40.333 43.0276 40.7193 42.0949 41.407 41.4073C42.0946 40.7197 43.0272 40.3334 43.9997 40.3334C44.9721 40.3334 45.9048 40.7197 46.5924 41.4073C47.28 42.0949 47.6663 43.0276 47.6663 44V57.1634L48.7297 56.0634C49.0715 55.7215 49.4774 55.4503 49.9241 55.2653C50.3708 55.0803 50.8495 54.985 51.333 54.985C51.8165 54.985 52.2952 55.0803 52.7419 55.2653C53.1886 55.4503 53.5945 55.7215 53.9363 56.0634C54.2782 56.4052 54.5494 56.8111 54.7344 57.2578C54.9194 57.7045 55.0147 58.1832 55.0147 58.6667C55.0147 59.1502 54.9194 59.6289 54.7344 60.0756C54.5494 60.5223 54.2782 60.9282 53.9363 61.27Z" fill="#E02C1F"/>
<path d="M53.936 61.27L46.6027 68.6034C46.254 68.9372 45.8428 69.1989 45.3927 69.3734C44.9538 69.5674 44.4792 69.6676 43.9994 69.6676C43.5195 69.6676 43.0449 69.5674 42.606 69.3734C42.156 69.1989 41.7448 68.9372 41.396 68.6034L34.0627 61.27C33.3723 60.5796 32.9844 59.6431 32.9844 58.6667C32.9844 57.6903 33.3723 56.7538 34.0627 56.0634C34.7532 55.3729 35.6896 54.985 36.666 54.985C37.6425 54.985 38.5789 55.3729 39.2694 56.0634L40.3327 57.1634V44C40.3327 43.0276 40.719 42.0949 41.4067 41.4073C42.0943 40.7197 43.0269 40.3334 43.9994 40.3334C44.9718 40.3334 45.9045 40.7197 46.5921 41.4073C47.2797 42.0949 47.666 43.0276 47.666 44V57.1634L48.7294 56.0634C49.0713 55.7215 49.4771 55.4503 49.9238 55.2653C50.3705 55.0803 50.8492 54.985 51.3327 54.985C51.8162 54.985 52.2949 55.0803 52.7416 55.2653C53.1883 55.4503 53.5942 55.7215 53.936 56.0634C54.2779 56.4052 54.5491 56.8111 54.7341 57.2578C54.9192 57.7045 55.0144 58.1832 55.0144 58.6667C55.0144 59.1502 54.9192 59.6289 54.7341 60.0756C54.5491 60.5223 54.2779 60.9282 53.936 61.27Z" fill="white"/>
<path d="M53.936 61.27L46.6027 68.6034C46.254 68.9372 45.8428 69.1989 45.3927 69.3734C44.9538 69.5674 44.4792 69.6676 43.9994 69.6676C43.5195 69.6676 43.0449 69.5674 42.606 69.3734C42.156 69.1989 41.7448 68.9372 41.396 68.6034L34.0627 61.27C33.3723 60.5796 32.9844 59.6431 32.9844 58.6667C32.9844 57.6903 33.3723 56.7538 34.0627 56.0634C34.7532 55.3729 35.6896 54.985 36.666 54.985C37.6425 54.985 38.5789 55.3729 39.2694 56.0634L40.3327 57.1634V44C40.3327 43.0276 40.719 42.0949 41.4067 41.4073C42.0943 40.7197 43.0269 40.3334 43.9994 40.3334C44.9718 40.3334 45.9045 40.7197 46.5921 41.4073C47.2797 42.0949 47.666 43.0276 47.666 44V57.1634L48.7294 56.0634C49.0713 55.7215 49.4771 55.4503 49.9238 55.2653C50.3705 55.0803 50.8492 54.985 51.3327 54.985C51.8162 54.985 52.2949 55.0803 52.7416 55.2653C53.1883 55.4503 53.5942 55.7215 53.936 56.0634C54.2779 56.4052 54.5491 56.8111 54.7341 57.2578C54.9192 57.7045 55.0144 58.1832 55.0144 58.6667C55.0144 59.1502 54.9192 59.6289 54.7341 60.0756C54.5491 60.5223 54.2779 60.9282 53.936 61.27Z" fill="white"/>
</svg>
