<svg width="20" height="20" viewBox="0 0 20 20" fill="none" xmlns="http://www.w3.org/2000/svg">
<path d="M9.15978 5.83341C9.15978 5.37318 9.53288 5.00008 9.99311 5.00008H10.0006C10.4608 5.00008 10.8339 5.37318 10.8339 5.83341C10.8339 6.29365 10.4608 6.66675 10.0006 6.66675H9.99311C9.53288 6.66675 9.15978 6.29365 9.15978 5.83341Z" fill="#515E32"/>
<path fill-rule="evenodd" clip-rule="evenodd" d="M8.21287 1.46847C8.8307 1.19861 9.38906 1.04175 9.99655 1.04175C10.604 1.04175 11.1624 1.1986 11.7802 1.46847C12.3794 1.73018 13.0742 2.11687 13.9482 2.60324L17.4 4.52419C17.8803 4.79151 18.2823 5.12725 18.5585 5.57996C18.836 6.03492 18.9549 6.55618 18.9549 7.14097L18.955 7.19604C18.9553 7.40892 18.9557 7.62485 18.9044 7.81801C18.7753 8.30408 18.4676 8.61738 18.0907 8.78528C17.8215 8.90522 17.5338 8.94381 17.2882 8.95465V15.1522C18.2794 15.6761 18.9549 16.7176 18.9549 17.9167C18.9549 18.492 18.4885 18.9584 17.9132 18.9584H2.0799C1.50461 18.9584 1.03824 18.492 1.03824 17.9167C1.03824 16.7176 1.7137 15.6761 2.70491 15.1522V8.95465C2.45929 8.94381 2.17163 8.90522 1.90242 8.78528C1.52554 8.61738 1.21782 8.30408 1.08869 7.81801C1.03737 7.62485 1.03777 7.40892 1.03815 7.19604L1.03822 7.14097C1.03822 6.55618 1.1571 6.03492 1.43464 5.57996C1.71081 5.12725 2.11281 4.79151 2.59315 4.52419L6.04494 2.60323C6.91888 2.11687 7.61371 1.73018 8.21287 1.46847ZM8.71322 2.61396C8.17557 2.84881 7.53288 3.2057 6.62537 3.71074L3.201 5.61644C2.84947 5.81207 2.63455 6.01325 2.50175 6.23093C2.37034 6.44636 2.28822 6.72896 2.28822 7.14097C2.28822 7.28175 2.28837 7.36663 2.29127 7.43067C2.29337 7.47696 2.29638 7.49468 2.297 7.49787C2.31342 7.55925 2.3331 7.58609 2.3434 7.59786C2.35443 7.61047 2.37304 7.62651 2.41112 7.64348C2.50258 7.68422 2.65365 7.70841 2.88762 7.70841H17.1055C17.3395 7.70841 17.4905 7.68422 17.582 7.64348C17.6201 7.62651 17.6387 7.61047 17.6497 7.59786C17.66 7.58609 17.6797 7.55925 17.6961 7.49787C17.6967 7.49466 17.6997 7.47695 17.7018 7.43067C17.7047 7.36663 17.7049 7.28175 17.7049 7.14097C17.7049 6.72896 17.6228 6.44636 17.4914 6.23093C17.3586 6.01325 17.1436 5.81207 16.7921 5.61644L13.3677 3.71074C12.4602 3.2057 11.8175 2.8488 11.2799 2.61396C10.7546 2.38454 10.3726 2.29175 9.99655 2.29175C9.62048 2.29175 9.23846 2.38454 8.71322 2.61396ZM3.95491 14.7986C4.02376 14.794 4.09323 14.7917 4.16324 14.7917H6.03824V8.95841H3.95491V14.7986ZM7.28824 14.7917H12.7049V8.95841H7.28824V14.7917ZM13.9549 14.7917H15.8299C15.8999 14.7917 15.9694 14.7941 16.0382 14.7986V8.95841H13.9549V14.7917ZM17.6935 17.7084H2.29968C2.40332 16.7709 3.19812 16.0417 4.16324 16.0417H15.8299C16.795 16.0417 17.5898 16.7709 17.6935 17.7084Z" fill="#515E32"/>
</svg>
