<svg width="40" height="40" viewBox="0 0 40 40" fill="none" xmlns="http://www.w3.org/2000/svg">
<path d="M38.3018 33.0514C39.7438 34.4934 39.7438 36.8598 38.3018 38.3018C36.8598 39.7438 34.5304 39.7438 33.0884 38.3018L19.9993 25.2127L6.94717 38.3018C5.50515 39.7438 3.13876 39.7438 1.69675 38.3018C0.25473 36.8598 0.25473 34.4934 1.69675 33.0514L14.7858 19.9993L1.69675 6.91019C0.25473 5.46817 0.25473 3.13876 1.69675 1.69675C3.13876 0.25473 5.50515 0.25473 6.94717 1.69675L19.9993 14.7488L33.0884 1.69675C33.7797 1.0054 34.7174 0.617006 35.6951 0.617006C36.6728 0.617006 37.6105 1.0054 38.3018 1.69675C38.9931 2.38809 39.3815 3.32576 39.3815 4.30347C39.3815 5.28118 38.9931 6.21885 38.3018 6.91019L25.2497 19.9993L38.3018 33.0514Z" fill="white"/>
</svg>
