<svg width="20" height="20" viewBox="0 0 20 20" fill="none" xmlns="http://www.w3.org/2000/svg">
<path d="M6.25033 6.87508C5.90515 6.87508 5.62533 7.1549 5.62533 7.50008C5.62533 7.84526 5.90515 8.12508 6.25033 8.12508L7.91699 8.12508C8.26217 8.12508 8.54199 7.84526 8.54199 7.50008C8.54199 7.1549 8.26217 6.87508 7.91699 6.87508L6.25033 6.87508Z" fill="#515E32"/>
<path d="M6.25033 10.2084C5.90515 10.2084 5.62533 10.4882 5.62533 10.8334C5.62533 11.1786 5.90515 11.4584 6.25033 11.4584H7.91699C8.26217 11.4584 8.54199 11.1786 8.54199 10.8334C8.54199 10.4882 8.26217 10.2084 7.91699 10.2084H6.25033Z" fill="#515E32"/>
<path d="M6.25033 13.5417C5.90515 13.5417 5.62533 13.8216 5.62533 14.1667C5.62533 14.5119 5.90515 14.7917 6.25033 14.7917H7.91699C8.26217 14.7917 8.54199 14.5119 8.54199 14.1667C8.54199 13.8216 8.26217 13.5417 7.91699 13.5417H6.25033Z" fill="#515E32"/>
<path fill-rule="evenodd" clip-rule="evenodd" d="M1.66699 17.7084C1.32181 17.7084 1.04199 17.9882 1.04199 18.3334C1.04199 18.6786 1.32181 18.9584 1.66699 18.9584L18.3337 18.9584C18.6788 18.9584 18.9587 18.6786 18.9587 18.3334C18.9587 17.9882 18.6788 17.7084 18.3337 17.7084H17.2922L17.2922 9.33478C17.2922 9.10902 17.2922 8.88804 17.2695 8.69959C17.2434 8.4835 17.183 8.25841 17.0289 8.04475C16.8795 7.83755 16.6876 7.70472 16.498 7.60134C16.3229 7.5058 16.1033 7.41172 15.8621 7.30839L11.4587 5.42118L11.4587 3.84525C11.4587 3.26166 11.4588 2.74903 11.3951 2.35373C11.3265 1.9273 11.16 1.48086 10.6986 1.2178C10.253 0.963695 9.78134 1.02474 9.36328 1.15095C8.96156 1.27224 8.47244 1.49791 7.90001 1.76202L4.08454 3.5222C3.85286 3.62906 3.63944 3.7275 3.46888 3.82762C3.28203 3.93732 3.0967 4.0765 2.95441 4.28892C2.80995 4.50458 2.75425 4.72922 2.73005 4.94512C2.7086 5.13659 2.70863 5.36221 2.70866 5.59839L2.70866 17.7084H1.66699ZM11.4587 17.7084H16.0422L16.0422 9.36343C16.0422 9.09792 16.0411 8.9538 16.0285 8.84928C16.023 8.80381 16.017 8.78312 16.0146 8.77613L16.0141 8.77481L16.0129 8.77349C16.0111 8.77165 16.0071 8.76769 15.9994 8.7616C15.9832 8.74868 15.9536 8.7282 15.8995 8.69874C15.7826 8.63498 15.6186 8.56397 15.3461 8.44718L11.4587 6.78114L11.4587 17.7084ZM10.2087 17.7084L10.2087 3.89611C10.2087 3.24623 10.2067 2.83626 10.161 2.55235C10.1395 2.4185 10.1136 2.35379 10.098 2.32535C10.089 2.30895 10.0857 2.30714 10.0809 2.30447L10.0794 2.30366C10.0724 2.29965 10.0589 2.29193 10.0153 2.29174C9.96197 2.29152 9.87208 2.30307 9.72456 2.3476C9.41676 2.44053 9.00774 2.6276 8.38195 2.9163L4.63195 4.64627C4.36853 4.7678 4.21249 4.84057 4.10173 4.90559C4.05097 4.93539 4.02361 4.95579 4.00887 4.96844C3.99659 4.97897 3.99348 4.98375 3.99299 4.9845C3.99272 4.98486 3.99116 4.9869 3.98833 4.99579C3.98449 5.00787 3.97794 5.03383 3.97228 5.08433C3.95957 5.19775 3.95866 5.3521 3.95866 5.62609L3.95866 17.7084L10.2087 17.7084Z" fill="#515E32"/>
</svg>
