<svg width="20" height="20" viewBox="0 0 20 20" fill="none" xmlns="http://www.w3.org/2000/svg">
<path d="M2.98591 6.87533C4.18067 4.17245 6.85884 2.29199 10.0003 2.29199C14.2575 2.29199 17.7086 5.74313 17.7086 10.0003C17.7086 14.2575 14.2575 17.7087 10.0003 17.7087C9.65515 17.7087 9.37532 17.9885 9.37532 18.3337C9.37532 18.6788 9.65515 18.9587 10.0003 18.9587C14.9479 18.9587 18.9586 14.9479 18.9586 10.0003C18.9586 5.05277 14.9478 1.04199 10.0003 1.04199C5.98501 1.04199 2.62777 3.68216 1.48738 7.31305C1.42775 7.50288 1.46209 7.70977 1.57983 7.87017C1.69758 8.03058 1.88467 8.12533 2.08366 8.12533H4.16699C4.51217 8.12533 4.79199 7.8455 4.79199 7.50033C4.79199 7.15515 4.51217 6.87533 4.16699 6.87533H2.98591Z" fill="#515E32"/>
<path d="M10.0003 6.04199C10.3455 6.04199 10.6253 6.32181 10.6253 6.66699V9.74144L12.1089 11.2251C12.353 11.4691 12.353 11.8649 12.1089 12.1089C11.8649 12.353 11.4691 12.353 11.2251 12.1089L9.55838 10.4423C9.44117 10.3251 9.37533 10.1661 9.37533 10.0003V6.66699C9.37533 6.32181 9.65515 6.04199 10.0003 6.04199Z" fill="#515E32"/>
<path d="M2.29199 10.0003C2.29199 9.65515 2.01217 9.37533 1.66699 9.37533C1.32181 9.37533 1.04199 9.65515 1.04199 10.0003C1.04199 10.3002 1.05551 10.5969 1.08197 10.8899C1.11303 11.2337 1.41689 11.4872 1.76067 11.4561C2.10444 11.4251 2.35796 11.1212 2.3269 10.7774C2.30382 10.5218 2.29199 10.2626 2.29199 10.0003Z" fill="#515E32"/>
<path d="M2.83102 12.9852C2.70934 12.6622 2.34885 12.499 2.02583 12.6206C1.7028 12.7423 1.53958 13.1028 1.66125 13.4258C1.79461 13.7799 1.94803 14.1234 2.12008 14.4549C2.27909 14.7613 2.65636 14.8807 2.96273 14.7217C3.2691 14.5627 3.38857 14.1855 3.22956 13.8791C3.0802 13.5913 2.94692 13.2929 2.83102 12.9852Z" fill="#515E32"/>
<path d="M4.48443 15.6639C4.2496 15.4109 3.85415 15.3962 3.60116 15.631C3.34816 15.8658 3.33344 16.2613 3.56826 16.5143C3.84146 16.8086 4.13316 17.0844 4.44148 17.3395C4.7074 17.5596 5.10138 17.5224 5.32145 17.2565C5.54152 16.9906 5.50435 16.5966 5.23842 16.3765C4.97259 16.1565 4.72068 15.9184 4.48443 15.6639Z" fill="#515E32"/>
<path d="M6.92719 17.4385C6.61335 17.2948 6.24243 17.4328 6.09873 17.7466C5.95503 18.0604 6.09295 18.4314 6.4068 18.5751C6.69829 18.7085 6.99799 18.8263 7.30492 18.9273C7.63279 19.0352 7.98607 18.8569 8.09399 18.5291C8.20191 18.2012 8.02361 17.8479 7.69573 17.74C7.43334 17.6536 7.17688 17.5529 6.92719 17.4385Z" fill="#515E32"/>
</svg>
