<svg width="25" height="25" viewBox="0 0 25 25" fill="none" xmlns="http://www.w3.org/2000/svg">
<path fill-rule="evenodd" clip-rule="evenodd" d="M17.8812 23.2453C17.5132 23.2453 17.1442 23.2092 16.7782 23.1352C15.1732 22.8182 13.7552 22.2743 12.1822 21.3703C8.72419 19.3883 5.60619 16.2703 3.62619 12.8153C2.73019 11.2563 2.18519 9.83928 1.85919 8.21928C1.42219 6.05428 2.3162 3.75921 4.1942 2.23021C4.6782 1.83821 5.2452 1.68119 5.7922 1.78519C6.3412 1.89019 6.8102 2.24519 7.1132 2.78519L7.98722 4.35726L7.98928 4.36096C8.73098 5.69062 9.14012 6.4241 9.04821 7.31927C8.95639 8.20154 8.42229 8.8198 7.45489 9.93962L7.44918 9.94623L5.19821 12.5273C6.96421 15.4243 9.57421 18.0342 12.4732 19.8012L15.0012 17.6052L15.002 17.6045C16.1055 16.6369 16.7724 16.0522 17.6802 15.9552C18.5922 15.8612 19.3662 16.2952 20.6492 17.0172L22.2122 17.8852C22.7602 18.1932 23.1162 18.6662 23.2202 19.2182C23.3232 19.7642 23.1632 20.3282 22.7712 20.8062C21.5022 22.3652 19.7002 23.2462 17.8832 23.2462L17.8812 23.2453ZM13.8702 20.5733C14.9362 21.0993 15.9552 21.4443 17.0732 21.6653C18.6962 21.9943 20.4332 21.3013 21.6082 19.8573C21.6852 19.7633 21.7692 19.6273 21.7442 19.4953C21.7242 19.3883 21.6272 19.2783 21.4782 19.1943L19.9152 18.3262C18.8042 17.7002 18.2532 17.4012 17.8372 17.4462C17.4202 17.4902 16.9692 17.8732 15.9862 18.7342L13.8692 20.5733H13.8702ZM5.46022 3.25228C5.33322 3.25228 5.20822 3.3372 5.13922 3.3932C3.69622 4.5682 3.00221 6.3042 3.32921 7.9222C3.55621 9.0482 3.90321 10.0692 4.42521 11.1292L6.3132 8.9642C7.1662 7.9772 7.51319 7.56122 7.55519 7.16322C7.59719 6.75622 7.33219 6.26227 6.67619 5.08627L5.80221 3.51527C5.72121 3.37027 5.61619 3.27826 5.50919 3.25726C5.49319 3.25426 5.47622 3.25228 5.46022 3.25228Z" fill="#515E32"/>
<path d="M18.4983 13.2502C18.0843 13.2502 17.7483 12.9142 17.7483 12.5002V10.7502H17.0413C16.6323 10.7502 16.2453 10.7502 15.9263 10.4302C15.6053 10.1132 15.6053 9.73223 15.6053 9.33024V7.50024C15.6053 7.08624 15.9413 6.75024 16.3553 6.75024C16.7693 6.75024 17.1053 7.08624 17.1053 7.50024V9.25024H17.7483V7.50024C17.7483 7.08624 18.0843 6.75024 18.4983 6.75024C18.9123 6.75024 19.2483 7.08624 19.2483 7.50024V12.5002C19.2483 12.9142 18.9123 13.2502 18.4983 13.2502Z" fill="#515E32"/>
<path d="M14.2113 13.2502H13.3553C12.8483 13.2502 12.4473 13.2502 12.1053 12.9212C11.7483 12.5813 11.7483 12.1593 11.7483 11.6703V10.5002C11.7483 10.1923 11.7483 9.84419 12.0343 9.5562C12.3253 9.2522 12.6853 9.25024 13.0043 9.25024C13.2553 9.24524 13.3733 9.22723 13.4273 9.21323C13.4623 9.06423 13.4623 8.67622 13.4623 8.33022V8.25024H12.4983C12.0843 8.25024 11.7483 7.91424 11.7483 7.50024C11.7483 7.08624 12.0843 6.75024 12.4983 6.75024H13.3553C13.8613 6.75024 14.2613 6.7503 14.6043 7.07729C14.9623 7.4213 14.9623 7.8422 14.9623 8.3312C14.9623 9.2292 14.9623 9.82224 14.4903 10.2922C14.4853 10.2972 14.4803 10.3022 14.4753 10.3062C14.1233 10.6382 13.6723 10.7192 13.2473 10.7422V11.7502H14.2113C14.6253 11.7502 14.9613 12.0862 14.9613 12.5002C14.9613 12.9142 14.6253 13.2502 14.2113 13.2502Z" fill="#515E32"/>
<path d="M19.6363 15.0025C19.7843 15.1665 19.9893 15.2504 20.1943 15.2504V15.2525C20.3733 15.2525 20.5533 15.1884 20.6963 15.0594C20.7943 14.9714 20.9083 14.8674 21.0243 14.7474C22.4593 13.3104 23.2493 11.4024 23.2493 9.36741C23.2493 7.33241 22.4563 5.41937 21.0183 3.98137C18.0483 1.01337 13.2163 1.01337 10.2463 3.98137L10.2353 3.99241C10.1363 4.09541 10.0403 4.2004 9.93932 4.3134C9.66432 4.6234 9.69228 5.09739 10.0013 5.37239C10.3103 5.64739 10.7843 5.61938 11.0603 5.31038C11.1463 5.21338 11.2283 5.12445 11.3123 5.03645C13.6983 2.65845 17.5753 2.65943 19.9583 5.04143C21.1133 6.19643 21.7493 7.73243 21.7493 9.36643C21.7493 11.0004 21.1133 12.5365 19.9583 13.6905L19.9473 13.7014C19.8723 13.7794 19.7943 13.8514 19.6923 13.9434C19.3843 14.2204 19.3593 14.6945 19.6363 15.0025Z" fill="#515E32"/>
</svg>
