<svg width="24" height="24" viewBox="0 0 24 24" fill="none" xmlns="http://www.w3.org/2000/svg">
<path fill-rule="evenodd" clip-rule="evenodd" d="M9.95 18.428C10.477 18.644 11.238 18.752 12 18.752C12.762 18.752 13.523 18.644 14.05 18.428C15.75 17.73 15.75 16.101 15.75 14.911L15.75 7.973C15.75 5.92 14.068 4.25 12 4.25C9.932 4.25 8.25 5.92 8.25 7.973L8.25 14.911C8.25 16.101 8.25 17.73 9.95 18.428ZM9.75 10.25V8.75L14.25 8.75V10.25L9.75 10.25ZM9.75 11.75L14.25 11.75L14.25 14.911C14.25 16.171 14.177 16.754 13.48 17.04C12.803 17.318 11.198 17.318 10.52 17.04C9.82302 16.754 9.75 16.172 9.75 14.911L9.75 11.75ZM9.87208 7.25L14.1279 7.25C13.8237 6.37797 12.9849 5.75 12 5.75C11.0151 5.75 10.1763 6.37797 9.87208 7.25Z" fill="#2E2E2E"/>
<path fill-rule="evenodd" clip-rule="evenodd" d="M2.8708 20.078C5.5618 21.826 8.7188 22.75 11.9998 22.75C15.2808 22.75 18.4368 21.826 21.1278 20.078C22.0178 19.5 22.6048 19.118 22.7298 18.369C22.8578 17.6111 22.3859 17.0281 21.5241 15.9633C19.1771 13.0653 18.5508 9.29199 18.5508 7.51899C18.5508 4.06199 15.6118 1.25 11.9988 1.25C8.38582 1.25 5.44682 4.06199 5.44682 7.51899C5.44682 9.29199 4.82082 13.066 2.46982 15.969C1.61282 17.028 1.14079 17.612 1.26879 18.368C1.39373 19.1176 1.9812 19.4996 2.86945 20.0771L2.8708 20.078ZM3.68881 18.82C3.28381 18.557 2.8268 18.26 2.7538 18.13C2.80775 17.9362 3.22888 17.4171 3.64046 16.9086L3.64179 16.907C6.08279 13.893 6.94882 9.96599 6.94882 7.51899C6.94882 4.88899 9.21478 2.75 12.0008 2.75C14.7868 2.75 17.0528 4.88899 17.0528 7.51899C17.0528 9.96599 17.9188 13.893 20.3648 16.913C20.7728 17.417 21.1938 17.938 21.2468 18.131C21.1748 18.259 20.7168 18.557 20.3118 18.82C15.3398 22.049 8.65981 22.049 3.68881 18.82Z" fill="#2E2E2E"/>
</svg>
