<svg width="20" height="20" viewBox="0 0 20 20" fill="none" xmlns="http://www.w3.org/2000/svg">
<path d="M3.45441 2.79596C5.93855 1.27219 8.16707 1.87948 9.51336 2.89051C9.73484 3.05683 9.88684 3.17067 10 3.24754C10.1132 3.17067 10.2652 3.05683 10.4866 2.89051C11.8329 1.87948 14.0615 1.27219 16.5456 2.79596C18.2633 3.8496 19.2298 6.0505 18.8907 8.57926C18.5499 11.1202 16.9052 13.9941 13.4222 16.5721C12.2127 17.4678 11.3251 18.1253 10 18.1253C8.67495 18.1253 7.78727 17.4678 6.57778 16.5721C3.09478 13.9941 1.45012 11.1202 1.10933 8.57926C0.770179 6.0505 1.7367 3.8496 3.45441 2.79596Z" fill="#F3DC9A"/>
</svg>
