<svg width="20" height="21" viewBox="0 0 20 21" fill="none" xmlns="http://www.w3.org/2000/svg">
<path d="M9.11665 19.375C8.71665 19.375 8.32498 19.275 7.95831 19.075C7.22498 18.6667 6.78331 17.925 6.78331 17.0917V12.675C6.78331 12.2583 6.50831 11.6333 6.24998 11.3167L3.13331 8.01667C2.60831 7.49167 2.20831 6.59167 2.20831 5.91667V4C2.20831 2.66667 3.21665 1.625 4.49998 1.625H15.5C16.7666 1.625 17.7916 2.65 17.7916 3.91667V5.75C17.7916 6.625 17.2666 7.61667 16.775 8.10833L13.1666 11.3C12.8166 11.5917 12.5416 12.2333 12.5416 12.75V16.3333C12.5416 17.075 12.075 17.9333 11.4916 18.2833L10.3416 19.025C9.96665 19.2583 9.54165 19.375 9.11665 19.375ZM4.49998 2.875C3.91665 2.875 3.45831 3.36667 3.45831 4V5.91667C3.45831 6.225 3.70831 6.825 4.02498 7.14167L7.19998 10.4833C7.62498 11.0083 8.04165 11.8833 8.04165 12.6667V17.0833C8.04165 17.625 8.41665 17.8917 8.57498 17.975C8.92498 18.1667 9.34998 18.1667 9.67498 17.9667L10.8333 17.225C11.0666 17.0833 11.3 16.6333 11.3 16.3333V12.75C11.3 11.8583 11.7333 10.875 12.3583 10.35L15.925 7.19167C16.2083 6.90833 16.55 6.23333 16.55 5.74167V3.91667C16.55 3.34167 16.0833 2.875 15.5083 2.875H4.49998Z" fill="#B9B9B9"/>
</svg>
