<svg width="21" height="21" viewBox="0 0 21 21" fill="none" xmlns="http://www.w3.org/2000/svg">
<path fill-rule="evenodd" clip-rule="evenodd" d="M15.5308 1.5415H15.4699C14.8539 1.54149 14.3476 1.54149 13.9381 1.58043C13.5125 1.6209 13.1272 1.70778 12.7767 1.92255C12.4288 2.13576 12.1362 2.42829 11.923 2.77622C11.7083 3.12668 11.6214 3.51197 11.5809 3.93758C11.542 4.34716 11.542 4.85342 11.542 5.46937V5.53029C11.542 6.14625 11.542 6.65252 11.5809 7.0621C11.6214 7.48771 11.7083 7.873 11.923 8.22346C12.1362 8.57139 12.4288 8.86392 12.7767 9.07713C13.1272 9.29189 13.5125 9.37878 13.9381 9.41925C14.3476 9.45819 14.8539 9.45818 15.4699 9.45817H15.5308C16.1467 9.45818 16.653 9.45819 17.0626 9.41925C17.4882 9.37878 17.8735 9.29189 18.2239 9.07713C18.5719 8.86392 18.8644 8.57139 19.0776 8.22346C19.2924 7.873 19.3793 7.48771 19.4197 7.0621C19.4587 6.65252 19.4587 6.14626 19.4587 5.53031V5.46937C19.4587 4.85342 19.4587 4.34716 19.4197 3.93758C19.3793 3.51197 19.2924 3.12668 19.0776 2.77622C18.8644 2.42829 18.5719 2.13576 18.2239 1.92255C17.8735 1.70778 17.4882 1.6209 17.0626 1.58043C16.653 1.54149 16.1467 1.54149 15.5308 1.5415ZM13.4298 2.98835C13.5509 2.91417 13.7223 2.85658 14.0564 2.82482C14.3998 2.79216 14.8464 2.7915 15.5003 2.7915C16.1543 2.7915 16.6009 2.79216 16.9443 2.82482C17.2784 2.85658 17.4498 2.91417 17.5708 2.98835C17.7506 3.09849 17.9017 3.24961 18.0118 3.42934C18.086 3.55039 18.1436 3.72178 18.1753 4.0559C18.208 4.39931 18.2087 4.84589 18.2087 5.49984C18.2087 6.15379 18.208 6.60036 18.1753 6.94378C18.1436 7.27789 18.086 7.44929 18.0118 7.57033C17.9017 7.75007 17.7506 7.90119 17.5708 8.01133C17.4498 8.08551 17.2784 8.14309 16.9443 8.17486C16.6009 8.20751 16.1543 8.20817 15.5003 8.20817C14.8464 8.20817 14.3998 8.20751 14.0564 8.17486C13.7223 8.14309 13.5509 8.08551 13.4298 8.01133C13.2501 7.90119 13.099 7.75007 12.9888 7.57033C12.9147 7.44929 12.8571 7.27789 12.8253 6.94378C12.7927 6.60036 12.792 6.15379 12.792 5.49984C12.792 4.84589 12.7927 4.39931 12.8253 4.0559C12.8571 3.72178 12.9147 3.55039 12.9888 3.42934C13.099 3.24961 13.2501 3.09849 13.4298 2.98835Z" fill="#A2A2A2"/>
<path fill-rule="evenodd" clip-rule="evenodd" d="M5.46987 1.5415H5.53078C6.14674 1.54149 6.65301 1.54149 7.06258 1.58043C7.4882 1.6209 7.87348 1.70778 8.22394 1.92255C8.57188 2.13576 8.86441 2.42829 9.07762 2.77622C9.29238 3.12668 9.37927 3.51197 9.41974 3.93758C9.45868 4.34715 9.45867 4.85341 9.45866 5.46935V5.53031C9.45867 6.14625 9.45868 6.65252 9.41974 7.0621C9.37927 7.48771 9.29238 7.873 9.07762 8.22346C8.86441 8.57139 8.57188 8.86392 8.22394 9.07713C7.87348 9.29189 7.4882 9.37878 7.06258 9.41925C6.65301 9.45819 6.14676 9.45818 5.53082 9.45817H5.46986C4.85392 9.45818 4.34764 9.45819 3.93807 9.41925C3.51246 9.37878 3.12717 9.29189 2.77671 9.07713C2.42878 8.86392 2.13625 8.57139 1.92303 8.22346C1.70827 7.873 1.62138 7.48771 1.58092 7.0621C1.54197 6.65252 1.54198 6.14626 1.54199 5.53031V5.46938C1.54198 4.85343 1.54197 4.34716 1.58092 3.93758C1.62138 3.51197 1.70827 3.12668 1.92303 2.77622C2.13625 2.42829 2.42878 2.13576 2.77671 1.92255C3.12717 1.70778 3.51246 1.6209 3.93807 1.58043C4.34765 1.54149 4.85392 1.54149 5.46987 1.5415ZM4.05639 2.82482C3.72227 2.85658 3.55088 2.91417 3.42983 2.98835C3.2501 3.09849 3.09898 3.24961 2.98883 3.42934C2.91466 3.55039 2.85707 3.72178 2.8253 4.0559C2.79265 4.39931 2.79199 4.84589 2.79199 5.49984C2.79199 6.15379 2.79265 6.60036 2.8253 6.94378C2.85707 7.27789 2.91466 7.44929 2.98883 7.57033C3.09898 7.75007 3.2501 7.90119 3.42983 8.01133C3.55088 8.08551 3.72227 8.14309 4.05639 8.17486C4.3998 8.20751 4.84638 8.20817 5.50033 8.20817C6.15428 8.20817 6.60085 8.20751 6.94427 8.17486C7.27838 8.14309 7.44977 8.08551 7.57082 8.01133C7.75056 7.90119 7.90168 7.75007 8.01182 7.57033C8.086 7.44929 8.14358 7.27789 8.17535 6.94378C8.208 6.60036 8.20866 6.15379 8.20866 5.49984C8.20866 4.84589 8.208 4.39931 8.17535 4.0559C8.14358 3.72178 8.086 3.55039 8.01182 3.42934C7.90168 3.24961 7.75056 3.09849 7.57082 2.98835C7.44977 2.91417 7.27838 2.85658 6.94427 2.82482C6.60085 2.79216 6.15428 2.7915 5.50033 2.7915C4.84638 2.7915 4.3998 2.79216 4.05639 2.82482Z" fill="#A2A2A2"/>
<path fill-rule="evenodd" clip-rule="evenodd" d="M5.46987 11.5415C4.85393 11.5415 4.34764 11.5415 3.93807 11.5804C3.51246 11.6209 3.12717 11.7078 2.77671 11.9225C2.42878 12.1358 2.13625 12.4283 1.92303 12.7762C1.70827 13.1267 1.62138 13.512 1.58092 13.9376C1.54197 14.3472 1.54198 14.8534 1.54199 15.4694V15.5303C1.54198 16.1462 1.54197 16.6525 1.58092 17.0621C1.62138 17.4877 1.70827 17.873 1.92303 18.2235C2.13625 18.5714 2.42878 18.8639 2.77671 19.0771C3.12717 19.2919 3.51246 19.3788 3.93807 19.4192C4.34765 19.4582 4.85391 19.4582 5.46986 19.4582H5.53079C6.14675 19.4582 6.65301 19.4582 7.06258 19.4192C7.4882 19.3788 7.87348 19.2919 8.22394 19.0771C8.57188 18.8639 8.86441 18.5714 9.07762 18.2235C9.29238 17.873 9.37927 17.4877 9.41974 17.0621C9.45868 16.6525 9.45867 16.1463 9.45866 15.5303V15.4694C9.45867 14.8534 9.45868 14.3472 9.41974 13.9376C9.37927 13.512 9.29238 13.1267 9.07762 12.7762C8.86441 12.4283 8.57188 12.1358 8.22394 11.9225C7.87348 11.7078 7.4882 11.6209 7.06258 11.5804C6.65301 11.5415 6.14676 11.5415 5.53082 11.5415H5.46987ZM3.42983 12.9883C3.55088 12.9142 3.72227 12.8566 4.05639 12.8248C4.3998 12.7922 4.84638 12.7915 5.50033 12.7915C6.15428 12.7915 6.60085 12.7922 6.94427 12.8248C7.27838 12.8566 7.44977 12.9142 7.57082 12.9883C7.75056 13.0985 7.90168 13.2496 8.01182 13.4293C8.086 13.5504 8.14358 13.7218 8.17535 14.0559C8.208 14.3993 8.20866 14.8459 8.20866 15.4998C8.20866 16.1538 8.208 16.6004 8.17535 16.9438C8.14358 17.2779 8.086 17.4493 8.01182 17.5703C7.90168 17.7501 7.75056 17.9012 7.57082 18.0113C7.44977 18.0855 7.27838 18.1431 6.94427 18.1749C6.60085 18.2075 6.15428 18.2082 5.50033 18.2082C4.84638 18.2082 4.3998 18.2075 4.05639 18.1749C3.72227 18.1431 3.55088 18.0855 3.42983 18.0113C3.2501 17.9012 3.09898 17.7501 2.98883 17.5703C2.91466 17.4493 2.85707 17.2779 2.8253 16.9438C2.79265 16.6004 2.79199 16.1538 2.79199 15.4998C2.79199 14.8459 2.79265 14.3993 2.8253 14.0559C2.85707 13.7218 2.91466 13.5504 2.98883 13.4293C3.09898 13.2496 3.2501 13.0985 3.42983 12.9883Z" fill="#A2A2A2"/>
<path fill-rule="evenodd" clip-rule="evenodd" d="M17.0626 11.5804C16.653 11.5415 16.1467 11.5415 15.5308 11.5415H15.4699C14.8539 11.5415 14.3476 11.5415 13.9381 11.5804C13.5125 11.6209 13.1272 11.7078 12.7767 11.9225C12.4288 12.1358 12.1362 12.4283 11.923 12.7762C11.7083 13.1267 11.6214 13.512 11.5809 13.9376C11.542 14.3472 11.542 14.8534 11.542 15.4694V15.5303C11.542 16.1462 11.542 16.6525 11.5809 17.0621C11.6214 17.4877 11.7083 17.873 11.923 18.2235C12.1362 18.5714 12.4288 18.8639 12.7767 19.0771C13.1272 19.2919 13.5125 19.3788 13.9381 19.4192C14.3476 19.4582 14.8539 19.4582 15.4699 19.4582H15.5308C16.1467 19.4582 16.653 19.4582 17.0626 19.4192C17.4882 19.3788 17.8735 19.2919 18.2239 19.0771C18.5719 18.8639 18.8644 18.5714 19.0776 18.2235C19.2924 17.873 19.3793 17.4877 19.4197 17.0621C19.4587 16.6525 19.4587 16.1463 19.4587 15.5303V15.4694C19.4587 14.8534 19.4587 14.3472 19.4197 13.9376C19.3793 13.512 19.2924 13.1267 19.0776 12.7762C18.8644 12.4283 18.5719 12.1358 18.2239 11.9225C17.8735 11.7078 17.4882 11.6209 17.0626 11.5804ZM13.4298 12.9883C13.5509 12.9142 13.7223 12.8566 14.0564 12.8248C14.3998 12.7922 14.8464 12.7915 15.5003 12.7915C16.1543 12.7915 16.6009 12.7922 16.9443 12.8248C17.2784 12.8566 17.4498 12.9142 17.5708 12.9883C17.7506 13.0985 17.9017 13.2496 18.0118 13.4293C18.086 13.5504 18.1436 13.7218 18.1753 14.0559C18.208 14.3993 18.2087 14.8459 18.2087 15.4998C18.2087 16.1538 18.208 16.6004 18.1753 16.9438C18.1436 17.2779 18.086 17.4493 18.0118 17.5703C17.9017 17.7501 17.7506 17.9012 17.5708 18.0113C17.4498 18.0855 17.2784 18.1431 16.9443 18.1749C16.6009 18.2075 16.1543 18.2082 15.5003 18.2082C14.8464 18.2082 14.3998 18.2075 14.0564 18.1749C13.7223 18.1431 13.5509 18.0855 13.4298 18.0113C13.2501 17.9012 13.099 17.7501 12.9888 17.5703C12.9147 17.4493 12.8571 17.2779 12.8253 16.9438C12.7927 16.6004 12.792 16.1538 12.792 15.4998C12.792 14.8459 12.7927 14.3993 12.8253 14.0559C12.8571 13.7218 12.9147 13.5504 12.9888 13.4293C13.099 13.2496 13.2501 13.0985 13.4298 12.9883Z" fill="#A2A2A2"/>
</svg>
