<svg width="20" height="20" viewBox="0 0 20 20" fill="none" xmlns="http://www.w3.org/2000/svg">
<path d="M9.57619 9.79297C9.51831 9.79204 9.45138 9.79201 9.36882 9.79201C9.02364 9.79201 8.74382 9.51219 8.74382 9.16701C8.74382 8.82183 9.02364 8.54201 9.36882 8.54201L9.39752 8.542C9.56845 8.54193 9.75328 8.54186 9.90929 8.56284C10.0921 8.58741 10.3256 8.6506 10.5221 8.8471C10.7186 9.0436 10.7817 9.27709 10.8063 9.45986C10.8273 9.61588 10.8272 9.80071 10.8272 9.97164L10.8271 14.167C10.8271 14.5122 10.5473 14.792 10.2021 14.792C9.85697 14.792 9.57715 14.5122 9.57715 14.167V10.0003C9.57715 9.91778 9.57712 9.85085 9.57619 9.79297Z" fill="#515E32"/>
<path d="M9.99382 5.83366C9.53358 5.83366 9.16048 6.20676 9.16048 6.66699C9.16048 7.12723 9.53358 7.50033 9.99382 7.50033H10.0013C10.4615 7.50033 10.8346 7.12723 10.8346 6.66699C10.8346 6.20676 10.4615 5.83366 10.0013 5.83366H9.99382Z" fill="#515E32"/>
<path fill-rule="evenodd" clip-rule="evenodd" d="M1.04199 10.0003C1.04199 14.9479 5.05277 18.9587 10.0003 18.9587C14.9479 18.9587 18.9587 14.9479 18.9587 10.0003C18.9587 5.05277 14.9479 1.04199 10.0003 1.04199C5.05277 1.04199 1.04199 5.05277 1.04199 10.0003ZM10.0003 17.7087C5.74313 17.7087 2.29199 14.2575 2.29199 10.0003C2.29199 5.74313 5.74313 2.29199 10.0003 2.29199C14.2575 2.29199 17.7087 5.74313 17.7087 10.0003C17.7087 14.2575 14.2575 17.7087 10.0003 17.7087Z" fill="#515E32"/>
</svg>
