<svg width="21" height="20" viewBox="0 0 21 20" fill="none" xmlns="http://www.w3.org/2000/svg">
<path d="M13.5 15.6249C13.426 17.4769 11.883 19.0489 9.816 18.9989C9.335 18.9869 8.74 18.8189 7.551 18.4839C4.69 17.6769 2.206 16.3199 1.61 13.2819C1.5 12.7229 1.5 12.0939 1.5 10.8369V9.16292C1.5 7.90592 1.5 7.27692 1.61 6.71792C2.206 3.67992 4.69 2.32292 7.551 1.51592C8.741 1.18092 9.335 1.01292 9.816 1.00092C11.883 0.950917 13.426 2.52292 13.5 4.37492" stroke="white" stroke-width="2" stroke-linecap="round" stroke-linejoin="round"/>
<path d="M8.5 10H19.5M8.5 10C8.5 9.3 10.494 7.992 11 7.5M8.5 10C8.5 10.7 10.494 12.008 11 12.5" stroke="white" stroke-width="2" stroke-linecap="round" stroke-linejoin="round"/>
</svg>
