<svg width="80" height="88" viewBox="0 0 80 88" fill="none" xmlns="http://www.w3.org/2000/svg">
<path fill-rule="evenodd" clip-rule="evenodd" d="M39.3686 73.9845V78.37C39.3686 81.8869 37.6158 84.9231 34.57 86.6814C33.1046 87.5273 31.4691 87.9993 29.7734 88.0002C28.0761 88.001 26.441 87.5282 24.9746 86.6814L5.47436 75.4229C2.42822 73.6643 0.675781 70.6289 0.675781 67.1115V9.59716C0.675781 4.30495 4.98091 0 10.2729 0H53.2195C58.5119 0 62.8174 4.30461 62.8174 9.59716V21.721C62.8174 23.4602 61.4052 24.8724 59.666 24.8724C57.9263 24.8724 56.5154 23.4604 56.5154 21.721V9.59716C56.5154 7.77992 55.0367 6.30128 53.2195 6.30128H15.5871L34.57 17.263C37.6148 19.0212 39.3686 22.0565 39.3686 25.5726V67.6825H53.2195C55.0366 67.6825 56.5154 66.2047 56.5154 64.3873V53.7592C56.5154 52.0188 57.9255 50.6079 59.666 50.6079C61.4059 50.6079 62.8174 52.0192 62.8174 53.7592V64.3873C62.8174 69.6798 58.5119 73.9845 53.2195 73.9845H39.3686ZM68.5673 40.1428L65.0969 43.6131C63.8665 44.8436 63.8668 46.8383 65.0969 48.069C65.3893 48.3618 65.7366 48.594 66.119 48.7522C66.5013 48.9104 66.9112 48.9915 67.325 48.9909C67.7389 48.9917 68.1489 48.9107 68.5314 48.7525C68.914 48.5943 69.2614 48.362 69.5538 48.069L78.4018 39.2195C79.6319 37.9892 79.6321 35.9954 78.4018 34.7652L69.5538 25.917C68.3232 24.6864 66.3282 24.6869 65.0971 25.9169C63.867 27.1461 63.8673 29.1417 65.0971 30.3713L68.5673 33.8408H45.3195C43.5785 33.8408 42.1688 35.2516 42.1688 36.9923C42.1688 38.7331 43.5787 40.143 45.3195 40.143H68.5673V40.1428Z" fill="#E02C1F"/>
</svg>
