<svg width="35" height="34" viewBox="0 0 35 34" fill="none" xmlns="http://www.w3.org/2000/svg">
<rect x="0.9" y="0.4" width="33.2" height="33.2" rx="16.6" stroke="#F2F5F8" stroke-width="0.8"/>
<g clip-path="url(#clip0_41_841)">
<path d="M25.051 15.4855L21.7185 14.3782L18.7233 13.3763C18.5652 13.313 18.3859 13.3447 18.2488 13.4395C18.1117 13.5451 18.0273 13.7032 18.0273 13.872V25.4727C18.0273 25.7679 18.2593 26 18.5546 26H24.8823C25.1776 26 25.4096 25.7679 25.4096 25.4727V15.9812C25.4096 15.7491 25.2619 15.5488 25.051 15.4855Z" fill="#C4CAD9"/>
<path d="M25.4096 15.9812V25.4727C25.4096 25.7679 25.1776 26 24.8823 26H21.7185V14.3782L25.051 15.4855C25.2619 15.5488 25.4096 15.7491 25.4096 15.9812Z" fill="#B8BFCC"/>
<path d="M22.773 26H20.6638C20.3724 26 20.1365 25.7641 20.1365 25.4727V22.3089C20.1365 22.0174 20.3724 21.7816 20.6638 21.7816H22.773C23.0645 21.7816 23.3004 22.0174 23.3004 22.3089V25.4727C23.3004 25.7642 23.0645 26 22.773 26Z" fill="#4DB5FF"/>
<path d="M22.7731 21.7816H21.7184V26H22.7731C23.0645 26 23.3004 25.7641 23.3004 25.4727V22.3089C23.3004 22.0174 23.0645 21.7816 22.7731 21.7816Z" fill="#4D97FF"/>
<path d="M18.7444 11.1968L14.3361 9.541L10.3075 8.0329C10.1388 7.96962 9.95948 8.00129 9.82237 8.09618C9.67475 8.19114 9.59037 8.35982 9.59037 8.5286V25.4727C9.59037 25.7679 9.82237 26 10.1177 26H18.5546C18.8499 26 19.0819 25.7679 19.0819 25.4727V11.6925C19.0819 11.4709 18.9448 11.2706 18.7444 11.1968Z" fill="#E6EEFF"/>
<path d="M19.0819 11.6925V25.4727C19.0819 25.768 18.8499 26 18.5546 26H14.3362V9.541L18.7445 11.1968C18.9448 11.2706 19.0819 11.4709 19.0819 11.6925Z" fill="#DAE2F2"/>
<path d="M16.4454 26H12.227C11.9355 26 11.6996 25.7641 11.6996 25.4727V22.3089C11.6996 22.0174 11.9355 21.7816 12.227 21.7816H16.4454C16.7368 21.7816 16.9727 22.0174 16.9727 22.3089V25.4727C16.9727 25.7642 16.7369 26 16.4454 26Z" fill="#4DB5FF"/>
<path d="M16.4454 21.7816H14.3362V26H16.4454C16.7368 26 16.9727 25.7641 16.9727 25.4727V22.3089C16.9727 22.0174 16.7369 21.7816 16.4454 21.7816Z" fill="#4D97FF"/>
<path d="M13.2816 20.7269H12.227C11.9355 20.7269 11.6996 20.4911 11.6996 20.1996C11.6996 19.9082 11.9355 19.6723 12.227 19.6723H13.2816C13.573 19.6723 13.8089 19.9082 13.8089 20.1996C13.8089 20.4911 13.573 20.7269 13.2816 20.7269Z" fill="#4DB5FF"/>
<path d="M16.4454 20.7269H15.3908C15.0993 20.7269 14.8635 20.4911 14.8635 20.1996C14.8635 19.9082 15.0993 19.6723 15.3908 19.6723H16.4454C16.7368 19.6723 16.9727 19.9082 16.9727 20.1996C16.9727 20.4911 16.7369 20.7269 16.4454 20.7269Z" fill="#4D97FF"/>
<path d="M13.2816 18.6177H12.227C11.9355 18.6177 11.6996 18.3818 11.6996 18.0904C11.6996 17.799 11.9355 17.5631 12.227 17.5631H13.2816C13.573 17.5631 13.8089 17.799 13.8089 18.0904C13.8089 18.3818 13.573 18.6177 13.2816 18.6177Z" fill="#4DB5FF"/>
<path d="M16.4454 18.6177H15.3908C15.0993 18.6177 14.8635 18.3818 14.8635 18.0904C14.8635 17.799 15.0993 17.5631 15.3908 17.5631H16.4454C16.7368 17.5631 16.9727 17.799 16.9727 18.0904C16.9727 18.3818 16.7369 18.6177 16.4454 18.6177Z" fill="#4D97FF"/>
<path d="M22.7731 20.7269H20.6638C20.3724 20.7269 20.1365 20.4911 20.1365 20.1996C20.1365 19.9082 20.3724 19.6723 20.6638 19.6723H22.7731C23.0645 19.6723 23.3004 19.9082 23.3004 20.1996C23.3004 20.4911 23.0645 20.7269 22.7731 20.7269ZM22.7731 18.6177H20.6638C20.3724 18.6177 20.1365 18.3818 20.1365 18.0904C20.1365 17.7989 20.3724 17.5631 20.6638 17.5631H22.7731C23.0645 17.5631 23.3004 17.7989 23.3004 18.0904C23.3004 18.3818 23.0645 18.6177 22.7731 18.6177ZM13.2816 16.5085H12.227C11.9355 16.5085 11.6996 16.2726 11.6996 15.9812C11.6996 15.6898 11.9355 15.4539 12.227 15.4539H13.2816C13.573 15.4539 13.8089 15.6898 13.8089 15.9812C13.8089 16.2726 13.573 16.5085 13.2816 16.5085Z" fill="#4DB5FF"/>
<path d="M16.4454 16.5085H15.3908C15.0993 16.5085 14.8635 16.2726 14.8635 15.9812C14.8635 15.6898 15.0993 15.4539 15.3908 15.4539H16.4454C16.7368 15.4539 16.9727 15.6898 16.9727 15.9812C16.9727 16.2726 16.7369 16.5085 16.4454 16.5085Z" fill="#4D97FF"/>
<path d="M13.2816 14.3993H12.227C11.9355 14.3993 11.6996 14.1634 11.6996 13.872C11.6996 13.5805 11.9355 13.3447 12.227 13.3447H13.2816C13.573 13.3447 13.8089 13.5805 13.8089 13.872C13.8089 14.1634 13.573 14.3993 13.2816 14.3993Z" fill="#4DB5FF"/>
<path d="M16.4454 14.3993H15.3908C15.0993 14.3993 14.8635 14.1634 14.8635 13.872C14.8635 13.5805 15.0993 13.3447 15.3908 13.3447H16.4454C16.7368 13.3447 16.9727 13.5805 16.9727 13.872C16.9727 14.1634 16.7369 14.3993 16.4454 14.3993Z" fill="#4D97FF"/>
<path d="M12.7543 22.8363H15.9181V24.9455H12.7543V22.8363Z" fill="#2EE6C7"/>
<path d="M14.3362 22.8363H15.9181V24.9455H14.3362V22.8363Z" fill="#29CCB1"/>
<path d="M14.3362 26C14.0447 26 13.8089 25.7641 13.8089 25.4727V22.3089C13.8089 22.0174 14.0447 21.7816 14.3362 21.7816C14.6276 21.7816 14.8635 22.0174 14.8635 22.3089V25.4727C14.8635 25.7642 14.6276 26 14.3362 26Z" fill="#4DB5FF"/>
<path d="M14.8635 25.4727V22.3089C14.8635 22.0174 14.6276 21.7816 14.3362 21.7816V26C14.6276 26 14.8635 25.7642 14.8635 25.4727Z" fill="#4D97FF"/>
<path d="M25.9721 26H9.02798C8.73678 26 8.50067 25.7639 8.50067 25.4727C8.50067 25.1815 8.73678 24.9454 9.02798 24.9454H25.9721C26.2633 24.9454 26.4994 25.1815 26.4994 25.4727C26.4994 25.7639 26.2633 26 25.9721 26Z" fill="#5C5F66"/>
<path d="M25.9721 24.9454H14.3362V26H25.9721C26.2633 26 26.4994 25.7639 26.4994 25.4727C26.4994 25.1814 26.2632 24.9454 25.9721 24.9454Z" fill="#53565C"/>
<path d="M22.7731 19.6723H21.7184V20.7269H22.7731C23.0645 20.7269 23.3004 20.4911 23.3004 20.1996C23.3004 19.9082 23.0645 19.6723 22.7731 19.6723ZM22.7731 17.5631H21.7184V18.6177H22.7731C23.0645 18.6177 23.3004 18.3819 23.3004 18.0904C23.3004 17.799 23.0645 17.5631 22.7731 17.5631Z" fill="#4D97FF"/>
</g>
<defs>
<clipPath id="clip0_41_841">
<rect width="18" height="18" fill="white" transform="translate(8.5 8)"/>
</clipPath>
</defs>
</svg>
