<svg width="25" height="25" viewBox="0 0 25 25" fill="none" xmlns="http://www.w3.org/2000/svg">
<path d="M11.9079 23.252C9.6979 23.252 7.3799 23.196 5.7499 23.101C4.3879 23.021 3.2809 22.318 2.5499 21.066C1.9689 20.07 1.76088 18.956 1.76088 18.244C1.74511 16.9913 1.74974 14.4942 1.75466 11.8355L1.75488 11.719C1.75788 10.297 1.76088 8.82597 1.76088 7.46497C1.76088 2.80297 4.69088 2.05799 5.98388 1.95699C6.24488 1.91999 8.11987 1.67098 10.5259 1.77198C10.9399 1.78898 11.2609 2.13899 11.2439 2.55299C11.2269 2.96699 10.8779 3.28798 10.4629 3.27098C8.07188 3.17098 6.1939 3.44298 6.1749 3.44598C6.1569 3.44898 6.13789 3.45099 6.11889 3.45199C4.81489 3.54599 3.25991 4.31898 3.25991 7.46598C3.25991 8.82798 3.2569 10.3 3.2539 11.723L3.25302 12.1933C3.24828 14.7118 3.2439 17.0391 3.25991 18.235C3.25991 18.922 3.69688 21.479 5.83588 21.604C8.90288 21.782 14.4279 21.822 16.9549 21.605C16.9582 21.605 16.9615 21.6048 16.9649 21.6044L16.9759 21.603C16.9989 21.602 19.2669 21.447 19.5269 19.209C19.7879 16.964 19.7699 15.326 19.7629 14.709C19.7629 14.6632 19.7622 14.6229 19.7617 14.5878C19.7613 14.5608 19.7609 14.5369 19.7609 14.516C19.7609 14.102 20.0969 13.766 20.5109 13.766C20.9249 13.766 21.2609 14.102 21.2609 14.516C21.2609 14.56 21.2609 14.619 21.2629 14.692L21.263 14.701C21.2701 15.3509 21.2886 17.0539 21.0169 19.382C20.6949 22.155 18.3029 23.025 17.0729 23.099C15.8389 23.204 13.9169 23.25 11.9069 23.25L11.9079 23.252Z" fill="#515E32"/>
<path d="M16.4802 9.76697H16.4412C16.1712 9.75297 15.9292 9.59498 15.8092 9.35298C15.3762 8.48598 14.9542 8.05198 14.9492 8.04798C14.6562 7.75498 14.6562 7.27999 14.9492 6.98699C15.2422 6.69399 15.7172 6.69399 16.0102 6.98699C16.0462 7.02299 16.2572 7.23997 16.5372 7.64097C17.1882 6.79797 18.2072 5.67299 19.2302 5.30999C19.6202 5.17199 20.0492 5.37597 20.1872 5.76597C20.3252 6.15597 20.1212 6.58498 19.7312 6.72298C18.8812 7.02398 17.6742 8.53597 17.1132 9.41797C16.9752 9.63497 16.7362 9.76597 16.4802 9.76597V9.76697Z" fill="#515E32"/>
<path fill-rule="evenodd" clip-rule="evenodd" d="M11.7402 7.51709C11.7402 10.6881 14.3223 13.2671 17.4953 13.2671C20.6683 13.2671 23.2502 10.6881 23.2502 7.51709C23.2502 4.34609 20.6683 1.76709 17.4953 1.76709C14.3223 1.76709 11.7402 4.34609 11.7402 7.51709ZM13.2402 7.51709C13.2402 5.17409 15.1493 3.26709 17.4953 3.26709C19.8413 3.26709 21.7502 5.17409 21.7502 7.51709C21.7502 9.86009 19.8413 11.7671 17.4953 11.7671C15.1493 11.7671 13.2402 9.86009 13.2402 7.51709Z" fill="#515E32"/>
<path d="M11.48 14.2671H7.47998C7.06598 14.2671 6.72998 13.9311 6.72998 13.5171C6.72998 13.1031 7.06598 12.7671 7.47998 12.7671H11.48C11.894 12.7671 12.23 13.1031 12.23 13.5171C12.23 13.9311 11.894 14.2671 11.48 14.2671Z" fill="#515E32"/>
<path d="M7.47998 18.2671H15.48C15.894 18.2671 16.23 17.9311 16.23 17.5171C16.23 17.1031 15.894 16.7671 15.48 16.7671H7.47998C7.06598 16.7671 6.72998 17.1031 6.72998 17.5171C6.72998 17.9311 7.06598 18.2671 7.47998 18.2671Z" fill="#515E32"/>
</svg>
