<svg width="28" height="28" viewBox="0 0 28 28" fill="none" xmlns="http://www.w3.org/2000/svg">
<path fill-rule="evenodd" clip-rule="evenodd" d="M14 1.4585C10.6173 1.4585 7.875 4.20075 7.875 7.5835C7.875 10.9662 10.6173 13.7085 14 13.7085C17.3827 13.7085 20.125 10.9662 20.125 7.5835C20.125 4.20075 17.3827 1.4585 14 1.4585ZM9.625 7.5835C9.625 5.16725 11.5838 3.2085 14 3.2085C16.4162 3.2085 18.375 5.16725 18.375 7.5835C18.375 9.99974 16.4162 11.9585 14 11.9585C11.5838 11.9585 9.625 9.99974 9.625 7.5835Z" fill="#F3DC9A"/>
<path fill-rule="evenodd" clip-rule="evenodd" d="M21.267 17.5926C21.0773 17.4855 20.9097 17.391 20.774 17.3102C16.6276 14.8413 11.3728 14.8413 7.22638 17.3102C7.09068 17.391 6.92306 17.4856 6.73328 17.5926C5.90167 18.0618 4.64457 18.771 3.78338 19.614C3.24477 20.1412 2.733 20.8359 2.63997 21.687C2.54103 22.5922 2.9359 23.4416 3.72809 24.1963C5.09478 25.4984 6.73486 26.5418 8.85622 26.5418H19.1442C21.2656 26.5418 22.9056 25.4984 24.2723 24.1963C25.0645 23.4416 25.4594 22.5922 25.3604 21.687C25.2674 20.8359 24.7556 20.1412 24.217 19.614C23.3558 18.771 22.0986 18.0617 21.267 17.5926ZM8.1217 18.8138C11.7164 16.6734 16.284 16.6734 19.8787 18.8138C20.0746 18.9305 20.2892 19.0522 20.514 19.1798C21.3454 19.6514 22.3161 20.2021 22.9929 20.8646C23.4131 21.2758 23.5922 21.6151 23.6208 21.8772C23.6436 22.0853 23.5909 22.4284 23.0652 22.9293C21.8567 24.0806 20.6287 24.7918 19.1442 24.7918H8.85622C7.3717 24.7918 6.14369 24.0806 4.9352 22.9293C4.40947 22.4284 4.35686 22.0853 4.3796 21.8772C4.40826 21.6151 4.58735 21.2758 5.0075 20.8646C5.68427 20.2021 6.65497 19.6514 7.48634 19.1798C7.71112 19.0523 7.92586 18.9304 8.1217 18.8138Z" fill="#F3DC9A"/>
</svg>
