<svg width="20" height="20" viewBox="0 0 20 20" fill="none" xmlns="http://www.w3.org/2000/svg">
<path fill-rule="evenodd" clip-rule="evenodd" d="M9.51433 2.89051C8.16805 1.87948 5.93953 1.27219 3.45538 2.79596C1.73768 3.8496 0.771155 6.0505 1.11031 8.57926C1.4511 11.1202 3.09575 13.9941 6.57876 16.5721L6.66545 16.6363C7.87494 17.532 8.67593 18.1253 10.001 18.1253C10.3462 18.1253 10.626 17.8454 10.626 17.5003C10.626 17.1551 10.3462 16.8753 10.001 16.8753C9.12212 16.8753 8.64089 16.5432 7.32242 15.5674C4.04058 13.1383 2.63462 10.5411 2.34922 8.4131C2.06217 6.27288 2.89386 4.60682 4.10897 3.86148C6.09424 2.64371 7.7666 3.14123 8.7637 3.89004L8.7811 3.9031C9.00643 4.07233 9.19999 4.2177 9.35482 4.31906C9.43528 4.37174 9.52439 4.42539 9.61686 4.46718C9.70463 4.50684 9.83945 4.55645 10.001 4.55645C10.1625 4.55645 10.2973 4.50684 10.3851 4.46718C10.4776 4.42539 10.5667 4.37174 10.6471 4.31906C10.802 4.2177 10.9955 4.07235 11.2208 3.90313L11.2382 3.89004C12.2354 3.14123 13.9077 2.64371 15.893 3.86148C17.0801 4.58968 17.9006 6.19522 17.6709 8.26466C17.6329 8.60773 17.8801 8.91671 18.2232 8.95478C18.5663 8.99285 18.8752 8.7456 18.9133 8.40252C19.1856 5.94901 18.2239 3.82481 16.5466 2.79596C14.0624 1.27219 11.8339 1.87948 10.4876 2.89051C10.2661 3.05683 10.1141 3.17067 10.001 3.24754C9.88782 3.17067 9.73581 3.05683 9.51433 2.89051ZM9.87035 3.32808C9.86768 3.32929 9.86815 3.32889 9.87152 3.32754L9.87035 3.32808ZM10.1304 3.32754C10.1338 3.32889 10.1343 3.32929 10.1316 3.32808L10.1304 3.32754Z" fill="#515E32"/>
<path d="M18.2848 12.0642C18.6194 11.9791 18.8215 11.6389 18.7364 11.3044C18.6513 10.9699 18.3111 10.7677 17.9766 10.8528C17.4136 10.996 16.8573 11.3306 16.3465 11.728C15.8285 12.131 15.3176 12.6301 14.8446 13.15C14.2054 13.8526 13.6174 14.613 13.1544 15.2675C13.0214 15.1095 12.8792 14.9715 12.7382 14.8527C12.3558 14.5307 11.949 14.3221 11.6642 14.2234C11.338 14.1103 10.982 14.283 10.8689 14.6091C10.7558 14.9352 10.9285 15.2913 11.2546 15.4044C11.398 15.4541 11.6701 15.5874 11.933 15.8089C12.1936 16.0283 12.4119 16.3057 12.5135 16.6358C12.5852 16.869 12.7861 17.0392 13.028 17.0715C13.2698 17.1039 13.5084 16.9925 13.6389 16.7864C14.091 16.0723 14.8816 14.9668 15.7692 13.9912C16.2128 13.5036 16.6708 13.0594 17.114 12.7146C17.5646 12.3641 17.9618 12.1464 18.2848 12.0642Z" fill="#515E32"/>
</svg>
