<svg width="48" height="48" viewBox="0 0 48 48" fill="none" xmlns="http://www.w3.org/2000/svg">
<path d="M0 24C0 10.7452 10.7452 0 24 0C37.2548 0 48 10.7452 48 24C48 37.2548 37.2548 48 24 48C10.7452 48 0 37.2548 0 24Z" fill="#EEEFEB"/>
<path d="M24.75 21.5C24.75 21.0858 24.4142 20.75 24 20.75C23.5858 20.75 23.25 21.0858 23.25 21.5V25.5C23.25 25.6989 23.329 25.8897 23.4697 26.0303L25.4697 28.0303C25.7626 28.3232 26.2374 28.3232 26.5303 28.0303C26.8232 27.7374 26.8232 27.2626 26.5303 26.9697L24.75 25.1893V21.5Z" fill="#515E32"/>
<path fill-rule="evenodd" clip-rule="evenodd" d="M24.75 14.75H26C26.4142 14.75 26.75 14.4142 26.75 14C26.75 13.5858 26.4142 13.25 26 13.25H22C21.5858 13.25 21.25 13.5858 21.25 14C21.25 14.4142 21.5858 14.75 22 14.75H23.25V15.2784C18.2157 15.6614 14.25 19.8676 14.25 25C14.25 27.1667 14.9568 29.1684 16.1524 30.787L14.4697 32.4697C14.1768 32.7626 14.1768 33.2374 14.4697 33.5303C14.7626 33.8232 15.2374 33.8232 15.5303 33.5303L17.1361 31.9246C18.8981 33.6712 21.323 34.75 24 34.75C26.677 34.75 29.1019 33.6712 30.8639 31.9246L32.4697 33.5303C32.7626 33.8232 33.2374 33.8232 33.5303 33.5303C33.8232 33.2374 33.8232 32.7626 33.5303 32.4697L31.8477 30.787C33.0432 29.1684 33.75 27.1667 33.75 25C33.75 19.8676 29.7843 15.6614 24.75 15.2784V14.75ZM15.75 25C15.75 20.4437 19.4437 16.75 24 16.75C28.5563 16.75 32.25 20.4437 32.25 25C32.25 29.5563 28.5563 33.25 24 33.25C19.4437 33.25 15.75 29.5563 15.75 25Z" fill="#515E32"/>
<path d="M15.3029 14.2697C15.828 14.1853 16.3101 14.3862 16.7398 14.601L17.3353 14.8988C17.7058 15.084 17.8559 15.5345 17.6707 15.905C17.4855 16.2755 17.035 16.4256 16.6645 16.2404L16.069 15.9427C15.6534 15.7348 15.5541 15.7486 15.5411 15.7507C15.5287 15.7527 15.4293 15.7705 15.0999 16.0999C14.7705 16.4293 14.7527 16.5287 14.7507 16.5411C14.7486 16.5541 14.7348 16.6534 14.9427 17.069L15.2404 17.6645C15.4256 18.035 15.2755 18.4855 14.905 18.6707C14.5345 18.8559 14.084 18.7058 13.8988 18.3353L13.601 17.7398C13.3862 17.3101 13.1853 16.828 13.2697 16.3029C13.3543 15.7773 13.6967 15.3818 14.0392 15.0392C14.3818 14.6967 14.7773 14.3543 15.3029 14.2697Z" fill="#515E32"/>
<path d="M32.4587 15.7507C32.4457 15.7486 32.3464 15.7348 31.9308 15.9427L31.3353 16.2404C30.9648 16.4256 30.5143 16.2755 30.3291 15.905C30.1438 15.5345 30.294 15.084 30.6645 14.8988L31.26 14.601C31.6896 14.3862 32.1717 14.1853 32.6968 14.2697C33.2225 14.3543 33.6179 14.6967 33.9605 15.0392C34.3031 15.3818 34.6455 15.7773 34.73 16.3029C34.8145 16.828 34.6136 17.3101 34.3987 17.7398L34.101 18.3353C33.9158 18.7058 33.4653 18.8559 33.0948 18.6707C32.7243 18.4855 32.5741 18.035 32.7594 17.6645L33.0571 17.069C33.2649 16.6534 33.2511 16.5541 33.2491 16.5411C33.2471 16.5287 33.2293 16.4293 32.8999 16.0999C32.5704 15.7705 32.4711 15.7527 32.4587 15.7507Z" fill="#515E32"/>
</svg>
