<svg width="25" height="25" viewBox="0 0 25 25" fill="none" xmlns="http://www.w3.org/2000/svg">
<path d="M13.3389 9.73633C13.3389 9.32211 13.0031 8.98633 12.5889 8.98633C12.1747 8.98633 11.8389 9.32211 11.8389 9.73633V13.7363C11.8389 13.9352 11.9179 14.126 12.0585 14.2667L14.0585 16.2667C14.3514 16.5596 14.8263 16.5596 15.1192 16.2667C15.4121 15.9738 15.4121 15.4989 15.1192 15.206L13.3389 13.4257V9.73633Z" fill="#515E32"/>
<path fill-rule="evenodd" clip-rule="evenodd" d="M13.3389 2.98633H14.5889C15.0031 2.98633 15.3389 2.65054 15.3389 2.23633C15.3389 1.82211 15.0031 1.48633 14.5889 1.48633H10.5889C10.1747 1.48633 9.83887 1.82211 9.83887 2.23633C9.83887 2.65054 10.1747 2.98633 10.5889 2.98633H11.8389V3.51475C6.80453 3.89771 2.83887 8.10391 2.83887 13.2363C2.83887 15.4031 3.54564 17.4047 4.74122 19.0233L3.05854 20.706C2.76564 20.9989 2.76564 21.4738 3.05854 21.7667C3.35143 22.0596 3.8263 22.0596 4.1192 21.7667L5.72497 20.1609C7.48692 21.9075 9.91191 22.9863 12.5889 22.9863C15.2658 22.9863 17.6908 21.9075 19.4528 20.1609L21.0585 21.7667C21.3514 22.0596 21.8263 22.0596 22.1192 21.7667C22.4121 21.4738 22.4121 20.9989 22.1192 20.706L20.4365 19.0233C21.6321 17.4047 22.3389 15.4031 22.3389 13.2363C22.3389 8.10391 18.3732 3.89771 13.3389 3.51475V2.98633ZM4.33887 13.2363C4.33887 8.67998 8.03252 4.98633 12.5889 4.98633C17.1452 4.98633 20.8389 8.67998 20.8389 13.2363C20.8389 17.7927 17.1452 21.4863 12.5889 21.4863C8.03252 21.4863 4.33887 17.7927 4.33887 13.2363Z" fill="#515E32"/>
<path d="M3.8918 2.50606C4.41689 2.42162 4.899 2.62251 5.32866 2.83734L5.92416 3.13509C6.29464 3.32033 6.44481 3.77083 6.25957 4.14132C6.07432 4.5118 5.62382 4.66197 5.25334 4.47673L4.65784 4.17898C4.24224 3.97118 4.14295 3.98494 4.12996 3.98703C4.11753 3.98903 4.01819 4.00682 3.68878 4.33624C3.35936 4.66566 3.34157 4.765 3.33957 4.77742C3.33748 4.79041 3.32372 4.8897 3.53152 5.3053L3.82927 5.9008C4.01451 6.27128 3.86434 6.72179 3.49386 6.90703C3.12337 7.09227 2.67287 6.9421 2.48762 6.57162L2.18988 5.97612C1.97505 5.54646 1.77416 5.06435 1.8586 4.53926C1.94313 4.0136 2.28553 3.61816 2.62812 3.27558C2.9707 2.93299 3.36613 2.59059 3.8918 2.50606Z" fill="#515E32"/>
<path d="M21.0475 3.98703C21.0345 3.98494 20.9353 3.97118 20.5197 4.17898L19.9242 4.47673C19.5537 4.66197 19.1032 4.5118 18.9179 4.14132C18.7327 3.77083 18.8829 3.32033 19.2533 3.13509L19.8488 2.83734C20.2785 2.62251 20.7606 2.42162 21.2857 2.50606C21.8114 2.59059 22.2068 2.93299 22.5494 3.27558C22.892 3.61816 23.2344 4.0136 23.3189 4.53926C23.4033 5.06435 23.2024 5.54647 22.9876 5.97612L22.6899 6.57162C22.5046 6.9421 22.0541 7.09227 21.6836 6.90703C21.3132 6.72179 21.163 6.27128 21.3482 5.9008L21.646 5.3053C21.8538 4.8897 21.84 4.79041 21.8379 4.77742C21.8359 4.765 21.8181 4.66566 21.4887 4.33624C21.1593 4.00682 21.06 3.98903 21.0475 3.98703Z" fill="#515E32"/>
</svg>
