<svg width="24" height="24" viewBox="0 0 24 24" fill="none" xmlns="http://www.w3.org/2000/svg">
<path fill-rule="evenodd" clip-rule="evenodd" d="M15.3728 18.5293C15.5188 18.6763 15.7108 18.7493 15.9028 18.7493H15.9038C16.0958 18.7493 16.2878 18.6753 16.4338 18.5293L22.5288 12.4343C22.8218 12.1413 22.8218 11.6663 22.5288 11.3733C22.2358 11.0803 21.7608 11.0803 21.4678 11.3733L21.3098 11.5313C20.4968 10.4913 18.8588 8.46429 17.1958 6.80129C15.5328 5.13929 13.5058 3.50128 12.4658 2.68728L12.6238 2.52927C12.9168 2.23627 12.9168 1.76129 12.6238 1.46829C12.3308 1.17529 11.8558 1.17529 11.5628 1.46829L5.4678 7.5633C5.1748 7.8563 5.1748 8.33129 5.4678 8.62429C5.7608 8.91729 6.2358 8.91729 6.5288 8.62429L6.6868 8.46628C7.25053 9.18742 8.21093 10.3831 9.30128 11.603L2.27942 17.5842C1.65842 18.1132 1.28342 18.8842 1.25042 19.6992C1.21742 20.5142 1.52942 21.3132 2.10642 21.8902C2.65642 22.4402 3.40642 22.7492 4.18142 22.7492L4.18242 22.7512C4.22142 22.7512 4.25942 22.7512 4.29842 22.7492C5.11342 22.7162 5.88442 22.3412 6.41342 21.7202L12.396 14.6968C13.6152 15.7862 14.81 16.7461 15.5308 17.3103L15.3728 17.4683C15.0798 17.7613 15.0798 18.2363 15.3728 18.5293ZM11.2931 13.6779C11.1264 13.5181 10.9619 13.3573 10.8008 13.1963C10.6402 13.0357 10.4799 12.8718 10.3205 12.7056L3.25242 18.7262C2.94442 18.9882 2.76642 19.3552 2.75042 19.7592C2.73442 20.1632 2.88242 20.5432 3.16842 20.8302C3.45442 21.1162 3.83442 21.2642 4.23842 21.2492C4.64242 21.2332 5.00942 21.0542 5.27142 20.7472L11.2931 13.6779ZM11.8618 12.1363C10.1928 10.4673 8.5028 8.35629 7.7558 7.39729L11.3958 3.7573C12.3548 4.5033 14.4658 6.19428 16.1348 7.86228C17.8038 9.53128 19.4938 11.6423 20.2408 12.6013L16.6008 16.2413C15.6418 15.4953 13.5308 13.8043 11.8618 12.1363Z" fill="#A2A2A2"/>
</svg>
