<svg width="24" height="24" viewBox="0 0 24 24" fill="none" xmlns="http://www.w3.org/2000/svg">
<path d="M8.55772 17.3952C8.71909 17.2733 9.20084 16.9094 9.47855 16.6927C10.0348 16.2586 10.7738 15.6655 11.5107 15.0257C12.2514 14.3826 12.9727 13.7071 13.5029 13.107C13.7688 12.8061 13.9708 12.5418 14.1023 12.3236C14.226 12.1185 14.2517 11.9973 14.2517 11.9973C14.2517 11.9973 14.226 11.8797 14.1023 11.6745C13.9708 11.4564 13.7688 11.1921 13.5029 10.8911C12.9727 10.291 12.2514 9.61552 11.5107 8.97248C10.7738 8.33267 10.0347 7.73956 9.47851 7.30549C9.2008 7.08876 8.71974 6.72536 8.55836 6.60348C8.22484 6.35784 8.1529 5.88784 8.39853 5.55432C8.64417 5.22079 9.11366 5.14954 9.44719 5.39518L9.44973 5.39709C9.61899 5.52493 10.118 5.90184 10.4014 6.12297C10.9701 6.56684 11.731 7.17727 12.4941 7.83983C13.2535 8.49915 14.0322 9.22482 14.627 9.89794C14.9236 10.2336 15.1903 10.5739 15.3869 10.9001C15.5712 11.2057 15.7524 11.5926 15.7524 11.9991C15.7524 12.4056 15.5711 12.7925 15.3869 13.0981C15.1903 13.4242 14.9236 13.7645 14.627 14.1002C14.0322 14.7733 13.2535 15.499 12.4942 16.1583C11.7311 16.8209 10.9702 17.4313 10.4014 17.8752C10.1178 18.0965 9.61881 18.4734 9.4499 18.601L9.44772 18.6026C9.11419 18.8483 8.64422 18.7774 8.39859 18.4438C8.15296 18.1103 8.22422 17.6408 8.55772 17.3952Z" fill="#161616"/>
</svg>
