<svg width="79" height="56" viewBox="0 0 79 56" fill="none" xmlns="http://www.w3.org/2000/svg">
<path d="M71.1346 2.40796C71.2824 2.53396 71.2824 2.53396 71.4162 2.68796C71.4638 2.74109 71.5114 2.79422 71.5605 2.84896C71.9376 3.38593 71.9906 4.17678 71.9899 4.81246C71.9899 4.86354 71.9899 4.91462 71.9898 4.96725C71.9861 5.40113 71.96 5.83219 71.9301 6.26496C71.7847 8.4003 71.7428 10.5409 71.7185 12.6805C71.7162 12.8764 71.714 13.0723 71.7116 13.2682C71.7108 13.34 71.71 13.4118 71.7091 13.4857C71.7038 13.8992 71.6962 14.3124 71.6844 14.7257C71.6471 16.0272 71.6329 17.3275 71.6339 18.6295C71.634 18.8983 71.6339 19.167 71.6338 19.4358C71.6337 19.8882 71.6338 20.3406 71.6341 20.793C71.6344 21.2475 71.6344 21.7021 71.6341 22.1566C71.6326 24.7876 71.6437 27.4176 71.6883 30.0482C71.7011 30.8354 71.7053 31.6226 71.7083 32.41C71.7086 32.4753 71.7089 32.5407 71.7092 32.608C71.7094 32.6711 71.7097 32.7343 71.71 32.7993C71.7102 32.8552 71.7104 32.911 71.7107 32.9686C71.712 35.0876 71.2383 37.0895 69.6983 38.626C69.3986 38.9229 69.0903 39.2063 68.769 39.48C68.7386 39.5061 68.7082 39.5323 68.6769 39.5592C68.2317 39.9415 67.7757 40.3058 67.3047 40.656C67.246 40.7001 67.1873 40.7443 67.1269 40.7898C65.8019 41.7707 64.2131 42.7383 62.4991 42.5381C61.5326 42.3671 60.8171 41.8476 60.0955 41.216C60.0153 41.1461 60.0153 41.1461 59.9336 41.0749C59.8416 40.9933 59.7502 40.9111 59.6594 40.8281C59.5767 40.7526 59.4932 40.678 59.4086 40.6046C58.9001 40.1615 58.4306 39.6776 57.9552 39.2C57.7506 39.274 57.5854 39.3638 57.4083 39.4894C57.332 39.543 57.332 39.543 57.2541 39.5977C57.1997 39.6362 57.1453 39.6748 57.0893 39.7145C56.4308 40.1754 55.7607 40.6159 55.0828 41.048C55.0358 41.078 54.9888 41.108 54.9403 41.1389C54.6325 41.3349 54.3233 41.5283 54.0127 41.72C53.965 41.7495 53.9172 41.7791 53.8681 41.8095C52.9284 42.3892 52.0115 42.9544 50.8528 42.6877C50.6993 42.6344 50.5546 42.5738 50.4081 42.504C50.3669 42.485 50.3256 42.466 50.2832 42.4464C49.5953 42.0983 49.0533 41.564 48.5143 41.027C48.4866 40.9994 48.459 40.9719 48.4305 40.9435C47.9297 40.4433 47.9297 40.4433 47.761 40.208C47.7324 40.2674 47.7038 40.3269 47.6743 40.3882C47.4718 40.8036 47.2765 41.1992 46.9725 41.552C46.9302 41.605 46.8878 41.6581 46.8442 41.7127C46.6904 41.8956 46.5198 42.0452 46.3318 42.1925C46.298 42.2189 46.2642 42.2454 46.2294 42.2727C45.8671 42.5462 45.4776 42.7252 45.0575 42.896C45.0071 42.9171 44.9566 42.9383 44.9046 42.9601C44.1946 43.2244 43.4279 43.0623 42.7611 42.7719C41.8951 42.3463 41.2945 41.5551 40.7771 40.768C40.5537 40.787 40.4515 40.8506 40.3012 41.0125C40.0982 41.225 39.8712 41.4139 39.6507 41.608C39.5966 41.6568 39.5426 41.7056 39.487 41.7558C38.374 42.7441 37.177 43.2955 35.6773 43.242C35.3956 43.2215 35.1676 43.1367 34.9196 43.008C34.8686 42.9842 34.8175 42.9605 34.765 42.936C34.3643 42.7376 34.0564 42.4764 33.7369 42.168C33.6849 42.1225 33.6849 42.1225 33.6319 42.0761C33.0672 41.5649 32.7423 40.8354 32.4415 40.152C32.4169 40.0975 32.3924 40.0431 32.3671 39.987C32.3162 39.8742 32.2661 39.7611 32.2162 39.648C31.9662 39.7287 31.7936 39.8657 31.6001 40.0365C31.3116 40.2852 31.0175 40.5242 30.7159 40.7571C30.547 40.8878 30.3792 41.0194 30.2139 41.1545C29.665 41.6015 29.0894 42.001 28.4989 42.392C28.6811 42.7743 28.897 43.0787 29.1748 43.4C29.2214 43.4539 29.268 43.5078 29.316 43.5634C30.422 44.815 31.9338 45.7162 33.5116 46.256C33.5639 46.2754 33.6163 46.2949 33.6702 46.315C34.0042 46.4079 34.355 46.3828 34.6987 46.3809C34.7787 46.3808 34.8588 46.3808 34.9388 46.3809C35.1549 46.3808 35.3709 46.38 35.587 46.379C35.7227 46.3785 35.8583 46.3781 35.994 46.3778C39.5183 46.3719 39.5183 46.3719 43.0405 46.263C43.1061 46.2602 43.1061 46.2602 43.173 46.2573C43.6852 46.2347 44.1786 46.1753 44.6807 46.072C45.4575 45.9225 46.3025 45.8266 46.9859 46.2844C47.3293 46.5528 47.4573 46.8619 47.592 47.264C47.6523 48.0016 47.5111 48.6481 47.0288 49.224C46.6342 49.642 46.1789 49.8681 45.6032 49.9093C44.8724 49.9239 44.2949 49.7474 43.6706 49.3769C43.2888 49.1573 42.8919 49.1595 42.4615 49.1609C42.4179 49.1608 42.3742 49.1607 42.3292 49.1606C42.184 49.1604 42.0388 49.1605 41.8936 49.1607C41.7889 49.1606 41.6842 49.1605 41.5794 49.1604C41.2947 49.1602 41.01 49.1603 40.7253 49.1604C40.4235 49.1606 40.1217 49.1604 39.8199 49.1604C39.3098 49.1603 38.7997 49.1604 38.2896 49.1607C37.7734 49.1609 37.2571 49.1609 36.7408 49.1607C33.1936 49.1573 33.1936 49.1573 29.6467 49.1929C29.5767 49.194 29.5066 49.1951 29.4345 49.1962C28.5909 49.2097 28.5909 49.2097 27.7481 49.2457C26.8237 49.2976 25.8979 49.2892 24.9724 49.2893C24.8167 49.2894 24.661 49.2895 24.5053 49.2896C23.9576 49.2901 23.4099 49.2904 22.8622 49.2903C22.4146 49.2903 21.9671 49.2907 21.5195 49.2915C17.2021 49.2989 17.2021 49.2989 15.7387 49.2303C15.6914 49.2281 15.6441 49.2259 15.5953 49.2237C13.1843 49.1069 13.1843 49.1069 12.3979 48.293C11.8485 47.6127 11.8328 46.8038 11.884 45.976C11.9751 45.1572 12.1891 44.1933 12.5598 43.456C11.5061 43.69 10.5229 44.0396 9.68743 44.744C9.65343 44.7719 9.61942 44.7998 9.58439 44.8286C9.31688 45.0532 9.09476 45.2883 8.88485 45.5665C8.85391 45.6072 8.82296 45.6479 8.79108 45.6898C8.2536 46.4117 7.82252 47.1946 7.42901 48.0011C6.9714 48.9286 6.46395 49.5202 5.4633 49.896C4.95824 50.0376 4.32769 50.0356 3.85108 49.812C3.20496 49.4304 2.86872 48.8937 2.65425 48.1845C2.39852 47.0167 2.67614 45.7688 3.28435 44.7545C3.58052 44.3131 3.9354 44.0079 4.4495 43.848C4.61839 43.837 4.78123 43.8563 4.94936 43.8725C5.73528 43.9072 6.39977 43.5551 7.09663 43.232C7.15748 43.2044 7.21833 43.1769 7.28102 43.1486C8.59742 42.5528 9.82878 41.8327 11.0392 41.048C10.8596 40.864 10.6763 40.7005 10.4724 40.544C8.40379 38.8671 7.21342 35.9577 6.87134 33.376C6.87134 33.302 6.87134 33.2281 6.87134 33.152C6.80259 33.1783 6.73383 33.2047 6.663 33.2318C5.61166 33.6301 4.41682 33.9896 3.30195 33.6C2.96598 33.4408 2.69318 33.2355 2.42192 32.984C2.39011 32.9549 2.3583 32.9259 2.32553 32.896C1.59624 32.2245 0.747152 31.3694 0.704102 30.3275C0.729827 29.6416 1.09168 29.0425 1.40812 28.448C1.43862 28.3906 1.46911 28.3332 1.50053 28.2741C1.67316 27.9683 1.83522 27.7386 2.19356 27.6311C2.31875 27.6055 2.44379 27.585 2.5702 27.5662C2.61671 27.5586 2.66322 27.5509 2.71114 27.5431C2.81006 27.5269 2.90903 27.5111 3.00804 27.4955C3.26423 27.4552 3.51992 27.412 3.77562 27.3689C3.85011 27.3563 3.8501 27.3563 3.92609 27.3436C4.68737 27.2142 5.41926 27.0207 6.14642 26.7634C6.30812 26.712 6.30812 26.712 6.47709 26.712C6.4762 26.646 6.47532 26.5799 6.47441 26.5119C6.45092 24.5776 6.54253 22.6767 6.76222 20.755C6.76683 20.714 6.77144 20.673 6.77618 20.6308C6.78923 20.5165 6.80297 20.4023 6.817 20.2881C6.82477 20.2239 6.83255 20.1596 6.84056 20.0934C6.87134 19.936 6.87134 19.936 6.98399 19.768C7.25856 19.817 7.25856 19.817 7.32192 19.88C7.32698 20.0294 7.32839 20.1775 7.32742 20.3269C7.32729 20.3973 7.3273 20.3973 7.32717 20.4691C7.32695 20.5715 7.32661 20.674 7.32615 20.7764C7.32543 20.9395 7.32507 21.1025 7.32479 21.2656C7.32404 21.6717 7.32269 22.0777 7.32133 22.4838C7.32021 22.8253 7.31933 23.1668 7.31877 23.5083C7.31841 23.6672 7.3177 23.8261 7.31698 23.985C7.31558 24.4727 7.32164 24.9588 7.34678 25.446C7.34897 25.4888 7.35117 25.5317 7.35343 25.5759C7.36794 25.8267 7.39537 26.0718 7.43456 26.32C11.1145 24.8371 13.6136 22.7709 15.1788 19.1046C15.3917 18.5936 15.5869 18.0769 15.7737 17.556C15.7867 17.52 15.7996 17.484 15.813 17.4469C15.9583 17.0412 16.0859 16.6391 16.1771 16.2178C16.2254 16.0566 16.2975 15.9323 16.3897 15.792C16.4827 15.8104 16.5756 15.8289 16.6713 15.848C16.5472 18.0954 15.6455 20.5391 14.5874 22.512C14.5682 22.5483 14.549 22.5846 14.5292 22.6221C13.918 23.7715 13.1143 24.7596 12.2219 25.704C12.6113 26.8057 13.5663 27.5634 14.5311 28.168C14.6141 28.2221 14.6141 28.2221 14.6988 28.2773C15.0423 28.491 15.403 28.6498 15.7772 28.8015C15.8236 28.8204 15.87 28.8393 15.9178 28.8588C16.7623 29.1892 17.8322 29.2933 18.6952 28.9734C19.5185 28.6042 20.4453 28.1034 20.9635 27.3398C21.0577 27.0786 21.026 26.8713 20.9294 26.6153C20.8933 26.542 20.8562 26.4692 20.818 26.397C20.7978 26.3579 20.7775 26.3189 20.7566 26.2786C20.3808 25.5789 19.8382 25.0218 19.2926 24.4514C18.732 23.8604 18.732 23.8604 18.7372 23.446C18.7724 23.154 18.8977 22.8947 19.0157 22.6275C19.0398 22.5703 19.0638 22.5132 19.0886 22.4543C19.4625 21.5848 19.4625 21.5848 19.769 21.28C20.0414 21.287 20.1925 21.4401 20.378 21.6195C20.4077 21.6475 20.4375 21.6756 20.4681 21.7045C20.5276 21.7609 20.5869 21.8175 20.6459 21.8744C20.7134 21.9393 20.782 22.0032 20.8508 22.0668C21.8175 22.981 22.5441 24.2409 22.6109 25.5821C22.633 26.6555 22.3031 27.708 21.853 28.672C21.835 28.7109 21.8171 28.7497 21.7986 28.7898C21.104 30.2663 19.6134 31.4475 18.1102 32.0545C16.9282 32.4612 15.759 32.272 14.6468 31.7546C14.0086 31.443 13.4303 31.0431 12.8978 30.576C12.8444 30.5297 12.7911 30.4834 12.7361 30.4357C12.4276 30.1632 12.1476 29.883 11.884 29.568C11.8348 29.5112 11.7855 29.4546 11.7361 29.398C11.4247 29.0393 11.1336 28.6759 10.8702 28.28C10.7262 28.4582 10.6234 28.6438 10.5197 28.8476C10.4847 28.916 10.4496 28.9844 10.4146 29.0528C10.3964 29.0884 10.3783 29.124 10.3596 29.1606C9.80982 30.2363 9.27726 31.2426 8.39203 32.088C8.50353 32.5346 8.65058 32.957 8.82501 33.383C8.84995 33.4441 8.87488 33.5053 8.90058 33.5683C9.49167 35.0052 10.2369 36.2297 11.3208 37.352C11.3501 37.3827 11.3794 37.4135 11.4096 37.4452C12.3469 38.4079 13.5469 39.0123 14.8127 39.424C14.9156 39.4576 14.9156 39.4576 15.0206 39.492C15.8441 39.7344 16.7013 39.8165 17.5571 39.8269C17.6292 39.8279 17.6292 39.8279 17.7028 39.829C17.9433 39.8321 18.1835 39.8332 18.424 39.8311C19.121 39.8316 19.7122 39.9381 20.2513 40.418C20.641 40.8495 20.805 41.3286 20.798 41.8998C20.7196 42.9963 20.1827 44.0229 19.3554 44.7413C19.1331 44.9117 18.9007 45.0288 18.6426 45.136C18.5625 45.1723 18.5625 45.1723 18.4807 45.2095C17.7457 45.3702 17.0459 45.1507 16.4249 44.758C16.0538 44.4947 15.73 44.1902 15.4569 43.827C15.1384 43.486 14.6493 43.455 14.2024 43.4382C14.1126 43.4347 14.1126 43.4347 14.0209 43.4311C13.9285 43.4278 13.9285 43.4278 13.8341 43.4245C13.7712 43.422 13.7082 43.4196 13.6434 43.4171C13.4887 43.4112 13.3341 43.4055 13.1794 43.4C13.1993 44.1804 13.2694 44.8916 13.8553 45.472C14.8196 46.2966 16.226 46.3045 17.4358 46.3407C17.5468 46.3442 17.5468 46.3442 17.6601 46.3477C17.9045 46.3553 18.1489 46.3623 18.3933 46.3693C18.4356 46.3705 18.4779 46.3717 18.5215 46.373C20.4556 46.429 22.3894 46.4474 24.3242 46.457C24.7694 46.4592 25.2146 46.4619 25.6598 46.4647C26.5686 46.4703 27.4775 46.4754 28.3863 46.48C28.3863 46.443 28.3863 46.406 28.3863 46.368C28.354 46.3535 28.3217 46.3389 28.2884 46.324C27.8116 46.0694 27.4746 45.6067 27.1472 45.192C27.0584 45.0796 26.9693 44.9676 26.8797 44.856C26.8405 44.8063 26.8013 44.7566 26.7609 44.7055C26.5051 44.4307 26.2258 44.3666 25.8729 44.282C25.3266 44.1403 24.8116 43.9207 24.4559 43.4634C24.1756 42.9742 24.0633 42.3924 24.2013 41.8444C24.4655 41.0576 24.9115 40.4923 25.6483 40.1032C26.0484 39.9313 26.469 39.928 26.8762 40.075C27.068 40.1562 27.1857 40.2356 27.3197 40.3935C27.4617 40.5536 27.4617 40.5536 27.5968 40.5527C27.8999 40.5135 28.1541 40.4427 28.4285 40.3095C28.4687 40.2902 28.5089 40.271 28.5504 40.2512C29.6329 39.7126 30.6084 38.947 31.4855 38.1239C31.6296 37.9887 31.7776 37.8588 31.9275 37.73C32.2036 37.4874 32.4345 37.2138 32.6707 36.9337C32.7101 36.8881 32.7494 36.8425 32.7899 36.7955C32.8256 36.7534 32.8612 36.7113 32.898 36.6679C33.0112 36.5619 33.078 36.5331 33.23 36.512C33.3968 36.7036 33.4693 36.913 33.5503 37.149C33.9496 38.2528 34.7266 39.4145 35.8208 39.928C36.1789 40.0871 36.4789 40.1266 36.8698 40.124C36.9243 40.1237 36.9789 40.1234 37.0352 40.1231C37.5049 40.1118 37.8737 40.0222 38.2989 39.816C38.351 39.7916 38.403 39.7673 38.4567 39.7422C39.1173 39.4086 39.6967 38.9501 40.2321 38.4455C40.3584 38.3269 40.4867 38.2131 40.6187 38.101C40.834 37.9169 41.0286 37.7153 41.2233 37.5099C41.3436 37.4051 41.4056 37.3565 41.5656 37.352C41.7412 37.4717 41.8093 37.6594 41.9 37.8455C42.42 38.8217 43.3097 39.618 44.3394 40.0365C44.8237 40.177 45.4589 40.1843 45.9079 39.9435C46.3066 39.6789 46.3066 39.6789 46.4889 39.2546C46.5337 38.7587 46.2491 38.4491 45.9587 38.08C45.8929 37.9926 45.8271 37.9051 45.7616 37.8175C45.7354 37.7837 45.7093 37.75 45.6824 37.7153C45.532 37.5118 45.5275 37.315 45.5644 37.072C45.653 36.8155 45.7662 36.5721 45.8813 36.3265C45.9254 36.2291 45.9254 36.2291 45.9704 36.1297C46.4949 34.9843 46.4949 34.9843 46.7472 34.776C46.9158 34.776 46.979 34.8376 47.1063 34.9475C47.4026 35.2772 47.6159 35.5989 47.8068 35.9975C48.005 36.4068 48.2447 36.7322 48.5495 37.072C48.5993 37.1313 48.6489 37.1908 48.6982 37.2505C49.471 38.1791 50.3503 39.1995 51.5346 39.592C53.0604 39.7079 54.2745 38.7406 55.4996 37.9501C55.754 37.7866 56.0098 37.6253 56.2656 37.464C56.1875 37.2906 56.096 37.167 55.9646 37.0295C55.9272 36.9901 55.8898 36.9507 55.8512 36.9101C55.8114 36.8688 55.7716 36.8275 55.7305 36.785C55.6897 36.7425 55.6489 36.7 55.6068 36.6563C55.5255 36.5718 55.444 36.4874 55.3624 36.4031C55.2698 36.3067 55.1789 36.2093 55.0888 36.1108C54.638 35.6314 54.1881 35.4666 53.5551 35.3395C53.1594 35.2595 52.8517 35.1669 52.5484 34.888C52.5122 34.8551 52.476 34.8223 52.4388 34.7884C51.992 34.334 51.9097 33.8434 51.9042 33.229C51.9036 33.1795 51.903 33.1301 51.9024 33.0792C51.9105 32.4803 52.1117 31.973 52.5334 31.5396C52.8679 31.2415 53.167 31.1113 53.6207 31.1191C53.7089 31.1187 53.7971 31.1182 53.8853 31.1177C54.0225 31.1178 54.1596 31.1184 54.2968 31.12C54.9023 31.1253 55.3496 31.0853 55.8713 30.744C55.9355 30.7028 55.9355 30.7028 56.0009 30.6608C56.1212 30.5797 56.2375 30.4949 56.3536 30.408C56.3958 30.3771 56.438 30.3462 56.4815 30.3143C56.6165 30.2154 56.7509 30.1158 56.8851 30.016C57.0267 29.911 57.1683 29.8061 57.3102 29.7015C57.3992 29.6357 57.4881 29.5697 57.5767 29.5033C58.3095 28.9605 59.0879 28.509 60.0365 28.6387C60.8479 28.828 61.4154 29.476 61.9365 30.086C62.6357 30.8948 63.5723 31.4021 64.5423 31.8244C65.0204 32.038 65.3591 32.3933 65.5732 32.8709C65.7897 33.4565 65.8254 34.1457 65.5627 34.723C65.3008 35.1845 64.9105 35.5 64.4164 35.6874C64.161 35.755 63.9218 35.7221 63.6614 35.7C62.8724 35.668 62.3249 35.9945 61.6725 36.4C61.5714 36.4608 61.4703 36.5216 61.3691 36.5824C60.9481 36.8391 60.5433 37.1085 60.1518 37.408C61.1665 38.4241 62.2424 39.4593 63.7599 39.494C65.533 39.4554 67.22 38.126 68.5438 37.072C68.6058 37.0256 68.6679 36.9793 68.7301 36.9331C68.7912 36.8861 68.8523 36.8391 68.9134 36.792C68.9669 36.7515 69.0204 36.7111 69.0755 36.6695C69.5374 36.1647 69.4755 35.5289 69.4689 34.8901C69.4686 34.7853 69.4684 34.6804 69.4683 34.5756C69.4678 34.2992 69.4659 34.0229 69.4637 33.7466C69.4622 33.5271 69.4616 33.3076 69.4612 33.0881C69.4606 32.8185 69.4595 32.5488 69.4583 32.2791C69.4581 32.2308 69.4579 32.1825 69.4577 32.1326C69.4549 31.5412 69.4434 30.9503 69.4252 30.3591C69.3849 29.0454 69.3724 27.7319 69.362 26.4177C69.3593 26.0885 69.3564 25.7593 69.3535 25.4301C69.3468 24.6666 69.3404 23.9031 69.334 23.1396C69.3259 22.1694 69.3178 21.1991 69.3092 20.2289C69.3064 19.9039 69.3036 19.5788 69.301 19.2538C69.291 17.9978 69.2781 16.7419 69.2491 15.4862C69.248 15.4379 69.2469 15.3896 69.2458 15.3399C69.1899 12.9069 69.0552 10.5177 68.3646 8.16988C67.9221 6.65549 67.8399 5.1483 68.5955 3.71392C68.9387 3.09596 69.4038 2.51404 70.0937 2.27474C70.4775 2.17919 70.7854 2.21433 71.1346 2.40796Z" fill="#515E32"/>
<path d="M63.2073 8.28418C63.9717 8.49953 64.5941 9.73003 64.9607 10.3739C65.1495 10.7144 65.3205 11.0546 65.4461 11.4237C65.468 11.4877 65.49 11.5517 65.5125 11.6177C65.9301 12.9821 65.5353 14.398 64.8899 15.6307C64.6669 16.0409 64.4172 16.4034 64.0944 16.7437C64.0567 16.7844 64.0567 16.7844 64.0183 16.826C63.165 17.7452 61.9648 18.5601 60.6739 18.6208C60.1689 18.6301 59.7612 18.5424 59.307 18.3117C59.2492 18.2826 59.1913 18.2535 59.1317 18.2235C58.7253 18.0033 58.4024 17.7307 58.0679 17.4157C57.9919 17.3524 57.9156 17.2894 57.8391 17.2267C57.511 16.9434 57.2544 16.5931 56.9899 16.2524C56.8605 16.0983 56.8143 16.0759 56.6141 16.0555C56.0853 16.1032 55.5675 16.8162 55.2072 17.1792C55.0056 17.3817 54.798 17.5715 54.576 17.7517C54.5487 17.7742 54.5215 17.7968 54.4934 17.82C54.0216 18.2093 53.5416 18.5325 52.999 18.8157C52.9483 18.8453 52.8976 18.8749 52.8454 18.9054C52.3551 19.169 51.8103 19.1638 51.2697 19.069C51.1441 19.0317 51.0328 18.9849 50.9151 18.9277C50.8708 18.9084 50.8265 18.8891 50.7809 18.8693C50.1186 18.5499 49.5318 18.0176 49.0247 17.493C48.9454 17.4095 48.9454 17.4095 48.8312 17.3597C48.8179 17.4078 48.8046 17.456 48.7909 17.5056C48.7109 17.7156 48.6007 17.8755 48.4615 18.0492C48.4365 18.0808 48.4114 18.1123 48.3855 18.1449C47.9858 18.6405 47.5855 19.1246 46.9186 19.2241C46.0127 19.3153 45.2418 18.9872 44.4335 18.6225C44.1655 18.5031 43.8948 18.4054 43.6144 18.3187C43.5777 18.3073 43.541 18.2959 43.5032 18.2842C43.1594 18.1815 42.8397 18.1367 42.4811 18.1371C42.4441 18.1371 42.4072 18.137 42.3691 18.137C42.2453 18.137 42.1216 18.1373 41.9979 18.1377C41.9082 18.1378 41.8185 18.1378 41.7288 18.1378C41.4825 18.1379 41.2362 18.1383 40.9898 18.1388C40.7241 18.1393 40.4584 18.1394 40.1926 18.1396C39.7321 18.14 39.2716 18.1405 38.8111 18.1412C38.1444 18.1421 37.4778 18.1427 36.8112 18.1431C35.7285 18.1437 34.6459 18.1446 33.5633 18.1456C33.4985 18.1457 33.4337 18.1457 33.3669 18.1458C32.4478 18.1467 31.5287 18.1477 30.6097 18.1488C30.5126 18.1489 30.5126 18.1489 30.4137 18.1491C30.3168 18.1492 30.3168 18.1492 30.2179 18.1493C29.1398 18.1506 28.0617 18.1514 26.9836 18.1519C26.3189 18.1523 25.6542 18.153 24.9895 18.1541C24.5337 18.1549 24.0779 18.1553 23.6221 18.1553C23.3593 18.1553 23.0965 18.1556 22.8337 18.1563C22.5928 18.1569 22.3519 18.1571 22.1109 18.1568C22.0241 18.1568 21.9373 18.157 21.8505 18.1573C20.6348 18.1626 19.3903 17.9767 18.4836 17.1002C17.7337 16.289 17.4253 15.2505 17.4317 14.1642C17.4323 14.0658 17.4323 14.0658 17.4328 13.9655C17.4727 12.057 18.5613 10.3367 19.8817 9.01568C20.0309 8.88377 20.0309 8.88377 20.1633 8.79168C20.3218 8.80568 20.3218 8.80568 20.445 8.84768C20.4195 9.12306 20.2776 9.28981 20.1105 9.49868C19.8616 9.8231 19.6508 10.1563 19.4593 10.5172C19.4363 10.5599 19.4133 10.6027 19.3896 10.6467C19.1175 11.1722 19.0087 11.6452 19.0158 12.2357C19.0151 12.2899 19.0145 12.3441 19.0138 12.4C19.0167 13.1065 19.2749 13.6585 19.667 14.2377C20.5571 15.103 21.7849 15.1846 22.962 15.1828C23.0526 15.1829 23.1432 15.1829 23.2337 15.1831C23.4821 15.1833 23.7305 15.1832 23.9788 15.183C24.2471 15.1829 24.5153 15.1831 24.7835 15.1832C25.3094 15.1835 25.8354 15.1834 26.3613 15.1833C26.7902 15.1831 27.219 15.1831 27.6479 15.1832C27.7397 15.1832 27.7397 15.1832 27.8333 15.1832C27.9576 15.1832 28.0819 15.1832 28.2062 15.1833C29.3732 15.1834 30.5402 15.1832 31.7072 15.1829C32.7025 15.1827 33.6977 15.1827 34.693 15.183C35.8522 15.1833 37.0114 15.1834 38.1706 15.1832C38.2952 15.1832 38.4198 15.1832 38.5443 15.1832C38.6362 15.1832 38.6362 15.1832 38.73 15.1831C39.1557 15.1831 39.5815 15.1832 40.0072 15.1833C43.0932 15.1865 43.0932 15.1865 46.1789 15.1542C46.2673 15.1529 46.2673 15.1529 46.3575 15.1516C46.517 15.1492 46.6764 15.1461 46.8359 15.1426C46.9034 15.1417 46.9034 15.1417 46.9722 15.1407C47.2021 15.1346 47.3849 15.1094 47.5921 15.0077C47.7356 14.2988 47.3039 13.5772 46.9345 12.9888C46.7863 12.772 46.6151 12.5692 46.4349 12.3781C46.2489 12.1658 46.1935 11.9916 46.2084 11.7101C46.2745 11.3491 46.4111 11.0095 46.5439 10.6683C46.5961 10.5342 46.6469 10.3995 46.6974 10.2647C46.7302 10.1787 46.763 10.0926 46.7959 10.0066C46.811 9.96666 46.8262 9.9267 46.8418 9.88553C46.9195 9.68686 46.9935 9.50829 47.1415 9.35168C47.2779 9.32477 47.2779 9.32477 47.4231 9.35168C48.3804 10.0239 48.8636 11.3032 49.0969 12.3976C49.1478 12.7056 49.1709 12.9973 49.1682 13.3091C49.147 13.9009 49.147 13.9009 49.3224 14.4507C49.4691 14.5837 49.6194 14.6806 49.7886 14.7837C49.8606 14.8376 49.932 14.8924 50.0027 14.948C51.0454 15.7724 51.0454 15.7724 52.3231 15.9597C53.7923 15.6664 55.0416 14.3463 56.1035 13.3651C56.8496 12.6776 56.8496 12.6776 57.1633 12.6312C57.4935 12.6781 57.6943 12.8832 57.8893 13.1412C57.9134 13.1738 57.9375 13.2065 57.9623 13.2402C58.6874 14.1884 59.6084 15.2398 60.8277 15.5117C61.6476 15.6189 62.4034 15.2526 63.0614 14.7905C63.602 14.3861 63.602 14.3861 63.9212 13.8168C63.9266 13.5467 63.8463 13.4029 63.7072 13.1772C63.6839 13.138 63.6607 13.0989 63.6367 13.0585C63.2812 12.4709 62.8449 11.9521 62.3933 11.4364C61.8731 10.8413 61.8731 10.8413 61.878 10.4517C61.9164 10.1655 62.0555 9.92116 62.1865 9.66668C62.2266 9.58569 62.2266 9.58569 62.2674 9.50305C62.349 9.33962 62.4327 9.17752 62.5174 9.01568C62.5471 8.95827 62.5769 8.90087 62.6075 8.84172C62.6369 8.78637 62.6662 8.73102 62.6965 8.67399C62.7229 8.62399 62.7493 8.57399 62.7765 8.52248C62.897 8.33471 62.9841 8.28845 63.2073 8.28418Z" fill="#515E32"/>
<path d="M76.7888 2.28717C77.227 2.53204 77.4687 2.94751 77.622 3.41045C77.7512 3.89908 77.7887 4.39125 77.7881 4.89424C77.7881 4.93979 77.788 4.98534 77.788 5.03227C77.7845 5.52458 77.7543 6.01497 77.724 6.50623C77.6484 7.75216 77.5951 8.99628 77.5782 10.2444C77.5771 10.321 77.576 10.3977 77.5749 10.4743C77.5373 13.1093 77.5466 15.7449 77.5478 18.3802C77.5481 18.9443 77.548 19.5084 77.5478 20.0725C77.5464 23.2221 77.5519 26.371 77.595 29.5203C77.5956 29.5655 77.5962 29.6106 77.5968 29.6571C77.598 29.7464 77.5993 29.8358 77.6005 29.9251C77.6166 31.1042 77.6202 32.2834 77.6188 33.4626C77.6185 33.7501 77.6187 34.0375 77.619 34.325C77.6192 34.5564 77.6191 34.7878 77.619 35.0192C77.619 35.1254 77.619 35.2317 77.6191 35.3379C77.6197 35.8855 77.6115 36.4317 77.5859 36.9788C77.5836 37.027 77.5814 37.0752 77.5791 37.1249C77.5593 37.5107 77.5147 37.8875 77.4495 38.2685C77.4393 38.3305 77.429 38.3924 77.4184 38.4563C77.3982 38.577 77.3777 38.6976 77.3568 38.8181C77.3348 38.9464 77.3145 39.0747 77.2953 39.2034C76.8134 42.0655 74.969 44.4307 72.6551 46.0875C71.3752 46.9923 69.9189 47.9089 68.3747 48.2715C68.3287 48.2823 68.2828 48.2931 68.2355 48.3043C66.0882 48.787 63.7233 48.4264 61.5597 48.1595C61.5204 48.1547 61.4811 48.1499 61.4406 48.145C61.3248 48.1309 61.2091 48.1164 61.0933 48.1017C60.9927 48.0891 60.9927 48.0891 60.8901 48.0762C60.6191 48.0318 60.4059 47.9642 60.208 47.7675C60.2182 47.6097 60.2511 47.5553 60.3699 47.449C60.5756 47.3227 60.7679 47.3036 61.0044 47.2788C63.4824 47.0074 65.9515 46.5406 68.3184 45.7515C68.3805 45.7312 68.4427 45.711 68.5068 45.6902C70.1609 45.1486 71.7869 44.442 73.1057 43.2875C73.1618 43.2398 73.218 43.1921 73.2758 43.1429C73.9027 42.6006 74.3573 41.9798 74.6827 41.2155C74.7055 41.1621 74.7055 41.1621 74.7287 41.1076C75.4076 39.4542 75.3113 37.5546 75.3117 35.8003C75.3117 35.6116 75.312 35.4229 75.3122 35.2342C75.313 34.617 75.313 33.9997 75.3129 33.3824C75.3128 33.2213 75.3128 33.0602 75.3128 32.8991C75.313 28.4279 75.2692 23.958 75.1896 19.4875C75.1873 19.3549 75.1849 19.2222 75.1826 19.0896C75.2257 13.7984 75.2257 13.7984 74.3171 8.62611C74.1885 8.20448 74.084 7.77699 73.9808 7.34864C73.957 7.25011 73.9323 7.15177 73.9074 7.05352C73.6291 5.80611 73.9334 4.45554 74.5842 3.36999C75.0832 2.63829 75.8366 1.95047 76.7888 2.28717Z" fill="#515E32"/>
<path d="M11.1217 11.8788C11.7261 12.0852 12.2794 12.781 12.7289 13.2156C12.781 13.2659 12.8331 13.3162 12.8869 13.368C13.0635 13.5502 13.1664 13.6678 13.2287 13.9156C13.0345 14.6882 12.1886 15.459 11.6126 15.9998C11.5334 16.069 11.5334 16.069 11.5461 16.1836C11.6361 16.2626 11.7295 16.3378 11.8242 16.4111C12.0847 16.6179 12.3207 16.8349 12.5527 17.0726C12.6678 17.1868 12.7872 17.2907 12.9119 17.3946C13.3281 17.7553 13.3281 17.7553 13.4048 17.9756C13.3949 18.3203 13.3294 18.4947 13.1055 18.7666C13.0808 18.797 13.0561 18.8274 13.0306 18.8588C12.9498 18.9573 12.8677 19.0545 12.7852 19.1516C12.7567 19.1856 12.7282 19.2196 12.6988 19.2547C12.5059 19.4848 12.3092 19.7113 12.1094 19.9356C12.0702 19.98 12.0311 20.0243 11.9908 20.0701C11.8447 20.2269 11.745 20.316 11.5426 20.3941C11.2013 20.3724 10.9277 20.0749 10.6767 19.8586C10.6433 19.8299 10.6098 19.8012 10.5754 19.7717C10.3079 19.5406 10.0458 19.3038 9.78608 19.0641C9.73169 19.014 9.73169 19.014 9.6762 18.963C9.64247 18.9316 9.60874 18.9002 9.57399 18.8678C9.5442 18.8401 9.51442 18.8125 9.48373 18.7839C9.4059 18.7036 9.4059 18.7036 9.29326 18.5356C9.30391 18.2459 9.42595 18.0571 9.59599 17.8321C9.62088 17.7983 9.64577 17.7645 9.67141 17.7298C9.94159 17.3682 10.2346 17.0267 10.5323 16.6876C10.5722 16.6416 10.6121 16.5957 10.6531 16.5484C10.7962 16.3843 10.9396 16.2238 11.0956 16.0716C11.0558 16.0591 11.0161 16.0466 10.9752 16.0337C10.779 15.9435 10.6404 15.8162 10.4866 15.6691C10.4266 15.6129 10.3665 15.5569 10.3064 15.5008C10.263 15.4601 10.263 15.4601 10.2187 15.4186C10.1165 15.3235 10.0116 15.2317 9.90576 15.1406C9.87135 15.1104 9.83693 15.0802 9.80148 15.0491C9.71401 14.9742 9.62478 14.9014 9.53483 14.8295C9.14246 14.5049 9.14246 14.5049 9.06445 14.2586C9.22778 13.7045 9.65311 13.2535 10.0254 12.8236C10.0681 12.7743 10.1107 12.7249 10.1546 12.6742C10.8693 11.8657 10.8693 11.8657 11.1217 11.8788Z" fill="#515E32"/>
<path d="M36.3275 6.88831C36.4857 7.00249 36.4857 7.00249 36.6337 7.14731C36.714 7.22408 36.714 7.22408 36.7959 7.3024C36.8707 7.37462 36.8707 7.37462 36.947 7.44831C37.0192 7.51072 37.0919 7.57263 37.1653 7.63381C37.3775 7.81925 37.5843 8.01005 37.7883 8.20431C37.821 8.23421 37.8537 8.26412 37.8874 8.29494C38.0539 8.45619 38.1236 8.54468 38.1837 8.77437C38.1904 9.29433 37.7444 9.67641 37.421 10.0441C37.3002 10.1838 37.1856 10.3282 37.0702 10.4723C36.6533 10.9774 36.6533 10.9774 36.3063 11.0988C36.0069 11.0834 35.8695 10.9469 35.6516 10.7523C35.6019 10.7083 35.5523 10.6642 35.5011 10.6189C35.3439 10.4776 35.1879 10.335 35.0321 10.1923C34.7432 9.93262 34.4461 9.69185 34.1309 9.46431C34.0981 9.50776 34.0653 9.55122 34.0315 9.59599C32.8155 11.1942 32.8155 11.1942 32.4413 11.3683C32.1143 11.3649 31.9315 11.2524 31.6985 11.0393C31.6517 10.9982 31.6517 10.9982 31.604 10.9563C31.5067 10.8706 31.4107 10.7836 31.3148 10.6963C31.2845 10.6689 31.2541 10.6415 31.2228 10.6132C31.0788 10.4832 30.9356 10.3523 30.7934 10.2203C30.6578 10.0974 30.5184 9.98397 30.375 9.87031C30.2342 9.74564 30.1862 9.68341 30.1074 9.50631C30.2007 8.71144 31.2158 7.77548 31.7654 7.22431C31.9624 7.09373 32.0405 7.08842 32.2723 7.11231C32.3988 7.18274 32.3988 7.18274 32.5222 7.28731C32.5703 7.32795 32.6183 7.36859 32.6679 7.41046C33.1899 7.87333 33.6986 8.35062 34.1872 8.84831C34.2145 8.81034 34.2418 8.77237 34.27 8.73324C34.6283 8.23859 34.9998 7.76295 35.4122 7.31181C35.4381 7.28333 35.464 7.25486 35.4907 7.22552C35.9082 6.77491 35.9082 6.77491 36.3275 6.88831Z" fill="#515E32"/>
<path d="M22.1238 33.334C22.8127 33.4952 23.8346 34.5935 24.2387 35.1645C24.2913 35.3339 24.2652 35.446 24.2182 35.616C24.132 35.7619 24.132 35.7619 24.0211 35.9065C23.9598 35.9866 23.9598 35.9866 23.8973 36.0684C23.8545 36.1224 23.8117 36.1764 23.7677 36.232C23.7278 36.2825 23.688 36.333 23.6469 36.3851C23.4176 36.6694 23.1787 36.9448 22.9334 37.2155C22.8949 37.2586 22.8949 37.2586 22.8556 37.3025C22.6023 37.578 22.6023 37.578 22.4159 37.632C22.1035 37.6273 21.9295 37.4791 21.7084 37.2785C21.6746 37.2487 21.6407 37.219 21.6059 37.1884C21.3345 36.9485 21.0671 36.7037 20.8024 36.4566C20.521 36.1511 20.521 36.1511 20.1631 36.008C20.0961 36.0916 20.0336 36.1787 19.973 36.267C19.0096 37.6174 19.0096 37.6174 18.5297 37.856C18.3488 37.8784 18.2026 37.8939 18.0395 37.8018C17.94 37.7237 17.8476 37.6414 17.7553 37.555C17.7213 37.5246 17.6873 37.4942 17.6523 37.4629C17.5497 37.3707 17.4483 37.2775 17.347 37.184C17.2894 37.132 17.2318 37.0802 17.1741 37.0285C17.0715 36.9363 16.9692 36.8438 16.8674 36.7509C16.7001 36.5992 16.5301 36.451 16.3591 36.3035C16.222 36.1843 16.222 36.1843 16.1924 36.015C16.2066 35.2461 17.2829 34.3408 17.7905 33.824C17.9102 33.712 17.9102 33.712 18.0792 33.6C18.7935 33.6517 19.6966 34.7787 20.1631 35.28C20.1817 35.3169 20.2002 35.3539 20.2194 35.392C20.2474 35.3549 20.2474 35.3549 20.2759 35.317C20.6122 34.872 20.9512 34.43 21.3142 34.006C21.3407 33.9747 21.3672 33.9434 21.3945 33.9111C21.8266 33.4128 21.8266 33.4128 22.1238 33.334Z" fill="#515E32"/>
<path d="M55.7004 20.1769C55.904 20.2461 56.0337 20.38 56.1813 20.5309C56.245 20.5928 56.3087 20.6546 56.3725 20.7164C56.4026 20.7462 56.4328 20.7761 56.4639 20.8068C56.5664 20.9064 56.6737 20.9991 56.7832 21.0909C57.5568 21.7584 57.5568 21.7584 57.6738 22.0639C57.6738 22.7994 56.7293 23.5784 56.2658 24.0799C56.2392 24.1113 56.2126 24.1427 56.1852 24.1751C56.0604 24.3167 55.9738 24.3631 55.7905 24.4194C55.4329 24.4132 55.201 24.1555 54.9492 23.9224C54.8954 23.8731 54.8415 23.8237 54.786 23.7728C54.71 23.7031 54.71 23.7031 54.6324 23.6319C54.2854 23.3215 53.9249 23.0282 53.5623 22.7359C53.5513 22.7728 53.5402 22.8096 53.5289 22.8475C53.4166 23.0862 53.2537 23.2703 53.0836 23.4709C53.0483 23.5129 53.013 23.5548 52.9767 23.598C52.8721 23.7218 52.7668 23.845 52.6612 23.9679C52.6323 24.0018 52.6034 24.0356 52.5736 24.0704C52.0975 24.624 52.0975 24.624 51.8163 24.6959C51.568 24.6828 51.436 24.58 51.2496 24.4229C51.1957 24.3776 51.1419 24.3323 51.0864 24.2856C50.8527 24.0829 50.6245 23.8744 50.3973 23.6647C50.2277 23.5093 50.0549 23.358 49.8801 23.2084C49.8499 23.1819 49.8198 23.1553 49.7888 23.1279C49.7409 23.0933 49.7409 23.0933 49.6922 23.0579C49.5717 22.8948 49.5967 22.7639 49.6198 22.5679C49.7129 22.3921 49.7129 22.3921 49.8416 22.2179C49.8645 22.1866 49.8875 22.1553 49.9111 22.123C50.2387 21.6808 50.5933 21.2628 50.9645 20.8564C51.0037 20.8133 51.0037 20.8133 51.0438 20.7694C51.3376 20.4522 51.3376 20.4522 51.5809 20.417C51.8095 20.4463 51.927 20.5457 52.0909 20.6954C52.1217 20.7224 52.1524 20.7494 52.1841 20.7772C52.2878 20.869 52.3901 20.9622 52.4922 21.0559C52.5502 21.109 52.5502 21.109 52.6093 21.163C52.9706 21.4946 53.3293 21.8283 53.675 22.1759C53.7181 22.1108 53.7181 22.1108 53.7621 22.0442C54.0718 21.5867 54.4067 21.1635 54.7775 20.7533C54.8522 20.6701 54.925 20.5854 54.9976 20.5005C55.0398 20.454 55.0819 20.4074 55.1252 20.3594C55.1788 20.2989 55.1788 20.2989 55.2335 20.2372C55.3962 20.1414 55.516 20.144 55.7004 20.1769Z" fill="#515E32"/>
<path d="M59.4519 31.6837C60.1076 32.0313 60.6771 32.7147 61.1123 33.3026C61.1361 33.3342 61.16 33.3657 61.1845 33.3982C61.2821 33.5374 61.3365 33.6238 61.3232 33.7958C61.2703 33.9588 61.2222 34.0075 61.0861 34.1094C61.0457 34.1401 61.0053 34.1709 60.9638 34.2025C60.9198 34.2347 60.8759 34.2669 60.8306 34.3001C60.7854 34.3341 60.7402 34.3681 60.6937 34.4032C60.5512 34.5099 60.4077 34.6152 60.2639 34.7201C60.2186 34.7532 60.1733 34.7862 60.1266 34.8203C59.8731 35.0045 59.6182 35.1867 59.3626 35.3681C59.2001 35.4837 59.0385 35.6006 58.877 35.7176C58.8286 35.7526 58.7803 35.7876 58.7305 35.8237C58.681 35.8596 58.681 35.8596 58.6306 35.8961C58.4671 35.8226 58.3508 35.7439 58.2247 35.6174C58.1918 35.5847 58.159 35.552 58.1252 35.5183C58.091 35.4836 58.0568 35.4489 58.0216 35.4131C57.9861 35.3774 57.9505 35.3417 57.9139 35.305C57.7113 35.1002 57.5163 34.8918 57.331 34.6713C57.2367 34.5677 57.1399 34.4717 57.0384 34.3752C56.9884 34.3273 56.9884 34.3273 56.9374 34.2784C56.8707 34.2148 56.8034 34.1519 56.7355 34.0897C56.5861 33.9469 56.4994 33.8486 56.4268 33.6526C56.4365 33.4317 56.5098 33.3518 56.6558 33.1871C56.7027 33.1339 56.7496 33.0806 56.7979 33.0257C58.3538 31.355 58.3538 31.355 59.4519 31.6837Z" fill="#FAEAAD"/>
<path d="M35.708 51.0162C36.225 51.2656 36.6769 51.7163 37.116 52.0802C37.1656 52.1213 37.2152 52.1624 37.2663 52.2047C37.6767 52.553 37.6767 52.553 37.7919 52.7522C37.7769 53.0807 37.6722 53.2902 37.4962 53.5572C37.4594 53.6142 37.4594 53.6142 37.4219 53.6724C37.2224 53.9762 37.0087 54.2689 36.7887 54.5582C36.7583 54.5982 36.728 54.6382 36.6967 54.6795C36.2969 55.1938 36.2969 55.1938 35.9924 55.2431C35.7785 55.2096 35.6681 55.1366 35.4933 55.0097C35.4626 54.9877 35.4319 54.9656 35.4003 54.9429C35.2955 54.867 35.1919 54.7898 35.0884 54.7122C35.0486 54.6825 35.0087 54.6529 34.9676 54.6223C34.7239 54.4405 34.4802 54.2587 34.2415 54.0705C34.1671 54.0125 34.0915 53.956 34.0148 53.9012C33.8231 53.7567 33.7458 53.6963 33.7002 53.4542C33.7414 53.2308 33.8097 53.0836 33.9268 52.8887C33.9468 52.8553 33.9669 52.8218 33.9875 52.7874C35.1216 50.9298 35.1216 50.9298 35.708 51.0162Z" fill="#515E32"/>
<path d="M35.4068 25.683C35.4484 25.6816 35.49 25.6802 35.5328 25.6787C35.8855 25.6779 36.1709 25.7969 36.4404 26.023C36.5607 26.2996 36.5216 26.5737 36.4369 26.856C36.2394 27.2044 35.994 27.5235 35.6156 27.685C35.1961 27.7971 34.8069 27.7744 34.4199 27.577C34.1873 27.4354 33.9983 27.2749 33.8179 27.0719C33.6743 26.931 33.5208 26.9293 33.3298 26.9284C33.2813 26.928 33.2328 26.9276 33.1828 26.9273C33.1298 26.9272 33.0768 26.9271 33.0222 26.9271C32.9663 26.9268 32.9104 26.9266 32.8528 26.9264C32.6676 26.9258 32.4824 26.9259 32.2973 26.926C32.2338 26.926 32.1704 26.9259 32.1051 26.9259C30.5919 26.9265 29.0815 26.9853 27.5706 27.0646C27.0866 27.0899 26.6044 27.1131 26.1195 27.108C26.0708 27.1077 26.0222 27.1075 25.972 27.1072C25.8569 27.1066 25.7418 27.1056 25.6266 27.1045C25.608 27.0306 25.5895 26.9566 25.5703 26.8805C25.8367 26.68 26.1046 26.6677 26.4257 26.632C26.8985 26.5778 27.3682 26.5121 27.8381 26.4373C28.5554 26.3256 29.2737 26.2357 29.9951 26.156C30.0573 26.149 30.1195 26.1421 30.1836 26.1349C31.2284 26.0188 32.2745 25.917 33.3216 25.8235C33.4222 25.8143 33.4222 25.8143 33.5248 25.8049C34.1512 25.7482 34.7777 25.6944 35.4068 25.683Z" fill="#515E32"/>
<path d="M62.799 19.3195C63.316 19.5672 63.7684 20.0201 64.207 20.3835C64.2566 20.4245 64.3062 20.4656 64.3573 20.5079C64.7677 20.8563 64.7677 20.8563 64.8829 21.0555C64.8679 21.3839 64.7631 21.5935 64.5872 21.8605C64.5504 21.9175 64.5504 21.9175 64.5129 21.9757C64.3134 22.2795 64.0997 22.5722 63.8796 22.8615C63.8493 22.9015 63.819 22.9415 63.7877 22.9827C63.3878 23.4971 63.3878 23.4971 63.0834 23.5464C62.8695 23.5129 62.759 23.4398 62.5842 23.313C62.5535 23.2909 62.5229 23.2689 62.4912 23.2462C62.3865 23.1703 62.2829 23.093 62.1794 23.0155C62.1395 22.9858 62.0997 22.9561 62.0586 22.9256C61.8149 22.7438 61.5712 22.5619 61.3324 22.3738C61.2581 22.3157 61.1825 22.2593 61.1057 22.2044C60.9173 22.0624 60.8376 21.9986 60.7881 21.7622C60.8374 21.5098 60.9312 21.3314 61.0671 21.115C61.092 21.0741 61.1169 21.0332 61.1426 20.9911C61.421 20.5434 61.737 20.1228 62.0668 19.7115C62.1057 19.6629 62.1057 19.6629 62.1454 19.6133C62.3548 19.3571 62.4612 19.2767 62.799 19.3195Z" fill="#515E32"/>
<path d="M19.1636 4.79492C19.3879 4.82533 19.4591 4.92413 19.6001 5.09592C19.6321 5.27165 19.6321 5.27165 19.6276 5.46627C19.6267 5.53611 19.6258 5.60595 19.6249 5.67791C19.6225 5.75035 19.6202 5.82279 19.6177 5.89742C19.6165 5.97094 19.6152 6.04447 19.6139 6.12022C19.6106 6.30152 19.6059 6.48269 19.6001 6.66392C19.666 6.66197 19.7318 6.66002 19.7997 6.65802C19.8869 6.65644 19.9741 6.65491 20.0613 6.65342C20.1262 6.65131 20.1262 6.65131 20.1925 6.64916C20.4554 6.64579 20.6256 6.66162 20.8392 6.83192C20.931 7.01444 20.9258 7.19472 20.8955 7.39192C20.7953 7.63952 20.6534 7.83355 20.4274 7.97992C20.1489 8.09256 19.9287 8.12318 19.6483 8.01908C19.4912 7.94403 19.3529 7.87179 19.2249 7.75308C19.0405 7.63939 18.901 7.65136 18.685 7.65196C18.6238 7.65179 18.6238 7.65179 18.5613 7.65161C18.4261 7.65145 18.291 7.65248 18.1558 7.65355C18.0607 7.65372 17.9657 7.65382 17.8706 7.65386C17.6705 7.65412 17.4705 7.65493 17.2705 7.65617C17.018 7.65773 16.7656 7.65836 16.5131 7.65862C15.5614 7.65973 14.611 7.66409 13.6604 7.71582C13.275 7.73628 12.8894 7.73293 12.5036 7.72792C12.4684 7.62292 12.4684 7.62292 12.4473 7.50392C12.5831 7.36887 12.6432 7.36753 12.8303 7.33986C12.8879 7.33125 12.9455 7.32264 13.0048 7.31377C13.1 7.30048 13.1 7.30048 13.1971 7.28692C13.2628 7.27748 13.3286 7.26804 13.3964 7.25832C13.9951 7.17496 14.5955 7.10687 15.1965 7.04192C15.2422 7.03695 15.2879 7.03198 15.335 7.02686C15.4664 7.01268 15.5977 6.9988 15.7291 6.98505C15.7681 6.98086 15.8071 6.97667 15.8473 6.97235C16.0667 6.94991 16.282 6.93992 16.5024 6.94392C16.5344 6.40966 16.5344 6.40966 16.3546 5.93855C16.2358 5.86978 16.2358 5.86978 16.0519 5.82392C16.0672 5.46565 16.1904 5.1861 16.4461 4.92792C16.6503 4.87892 16.6503 4.87892 16.8404 4.92792C17.0006 5.08199 17.0608 5.17259 17.0912 5.39393C17.0901 5.46284 17.0889 5.53176 17.0877 5.60277C17.0873 5.63966 17.087 5.67655 17.0867 5.71456C17.0854 5.83156 17.0826 5.94846 17.0797 6.06542C17.0786 6.14508 17.0776 6.22474 17.0767 6.30441C17.0742 6.49894 17.0703 6.69342 17.0657 6.88792C17.1028 6.86944 17.14 6.85096 17.1783 6.83192C17.2744 6.828 17.3707 6.8272 17.4669 6.82842C17.5182 6.82893 17.5695 6.82943 17.6223 6.82995C17.6616 6.8306 17.701 6.83125 17.7415 6.83192C17.7319 6.36297 17.7319 6.36297 17.5462 5.9578C17.4614 5.9125 17.3762 5.86816 17.2909 5.82392C17.2202 5.57776 17.3208 5.40404 17.4353 5.18692C17.5962 4.93577 17.5962 4.93577 17.833 4.87892C18.0492 4.93465 18.1141 4.97762 18.2484 5.15192C18.274 5.32643 18.274 5.32643 18.2704 5.52905C18.2697 5.6016 18.269 5.67414 18.2682 5.74889C18.2663 5.82523 18.2644 5.90158 18.2625 5.97792C18.2614 6.05514 18.2603 6.13236 18.2594 6.20958C18.2568 6.39838 18.2527 6.58715 18.2484 6.77592C18.5086 6.75744 18.7688 6.73896 19.0369 6.71992C19.0575 6.27356 19.0575 6.27356 18.8891 5.88123C18.7702 5.79581 18.7702 5.79581 18.5863 5.71192C18.6022 5.40385 18.8174 4.85229 19.1636 4.79492Z" fill="#515E32"/>
<path d="M54.8505 26.5264C54.9378 26.5249 54.9378 26.5249 55.0269 26.5234C55.4067 26.5238 55.6572 26.5715 55.9488 26.8309C56.0789 27.0597 56.0879 27.2391 56.0403 27.4959C55.8866 27.9173 55.5798 28.258 55.1755 28.4573C54.8299 28.5654 54.3932 28.5722 54.0585 28.4234C53.9275 28.3458 53.8342 28.2696 53.73 28.1575C53.4651 27.8758 53.2717 27.7426 52.8794 27.7169C52.7241 27.7163 52.5704 27.7182 52.4153 27.7228C52.3308 27.7234 52.2463 27.7238 52.1618 27.724C51.9368 27.7252 51.7121 27.7296 51.4872 27.7346C51.3008 27.7384 51.1145 27.7402 50.9281 27.7421C49.7637 27.7535 48.5987 27.7813 47.4361 27.848C46.7553 27.887 46.0774 27.8942 45.3955 27.8879C45.3955 27.814 45.3955 27.7401 45.3955 27.6639C45.7378 27.4943 46.0674 27.4414 46.4445 27.3909C46.5103 27.3817 46.5762 27.3725 46.644 27.363C46.827 27.3376 47.0101 27.3127 47.1932 27.2879C47.3535 27.266 47.5137 27.2434 47.6738 27.2208C48.8366 27.057 50.0008 26.9223 51.1693 26.8057C51.456 26.7768 51.7422 26.7439 52.0283 26.7095C52.965 26.5978 53.907 26.5349 54.8505 26.5264Z" fill="#515E32"/>
<path d="M64.524 2.61445C64.5862 2.61283 64.6485 2.6112 64.7127 2.60953C65.1511 2.60612 65.3446 2.65714 65.6645 2.95395C65.7622 3.14824 65.7653 3.31893 65.7278 3.52795C65.5885 3.93782 65.3579 4.23982 64.9957 4.47995C64.6471 4.65122 64.2279 4.65458 63.8538 4.55936C63.6766 4.48063 63.5491 4.38682 63.4158 4.24563C63.158 3.97463 62.9691 3.83157 62.5889 3.80407C62.4436 3.80303 62.2984 3.80478 62.1532 3.80883C62.0732 3.80929 61.9932 3.80954 61.9132 3.8096C61.6989 3.81043 61.4849 3.8145 61.2707 3.81928C61.0924 3.82286 60.9141 3.82453 60.7359 3.82622C59.2055 3.84107 57.6766 3.90682 56.1495 4.00635C55.3322 4.05855 55.3322 4.05855 55.083 3.97595C55.1016 3.88355 55.1202 3.79115 55.1393 3.69595C55.4864 3.60355 55.8315 3.54111 56.1868 3.4888C56.2453 3.48006 56.3038 3.47133 56.3641 3.46234C56.5577 3.43366 56.7514 3.40548 56.9451 3.37745C57.0455 3.36288 57.0455 3.36288 57.1478 3.34801C58.253 3.18849 59.3599 3.05104 60.4698 2.92821C60.5836 2.9156 60.6973 2.90288 60.811 2.89014C61.5836 2.80416 62.3529 2.72723 63.1299 2.69964C63.2871 2.69344 63.4409 2.67991 63.5969 2.65949C63.9063 2.62005 64.2124 2.61718 64.524 2.61445Z" fill="#515E32"/>
<path d="M14.8128 51.6882C15.0025 51.8962 15.0143 52.0506 15.0046 52.3235C14.9407 52.7393 14.6815 53.0346 14.36 53.2912C14.039 53.515 13.6722 53.5295 13.2921 53.4802C12.9355 53.3648 12.6768 53.1818 12.4396 52.8951C12.1577 52.6618 11.7684 52.6791 11.4205 52.6794C11.3431 52.6789 11.3431 52.6789 11.2642 52.6785C11.0918 52.6778 10.9194 52.6782 10.747 52.6787C10.6573 52.6787 10.6573 52.6787 10.5658 52.6788C9.23985 52.6801 7.91684 52.7394 6.59283 52.8044C6.43561 52.8121 6.27839 52.8198 6.12117 52.8275C6.04705 52.8311 5.97294 52.8347 5.89657 52.8384C5.39494 52.862 4.89537 52.8753 4.39324 52.8642C4.37465 52.7903 4.35606 52.7164 4.33691 52.6402C4.7135 52.4472 5.1078 52.3996 5.52319 52.3392C5.60381 52.3272 5.68442 52.3152 5.76504 52.3031C5.97865 52.2715 6.19239 52.2407 6.40619 52.2104C6.52839 52.193 6.65054 52.1753 6.7727 52.1576C7.97896 51.9841 9.18947 51.8547 10.4021 51.7337C10.4728 51.7266 10.5435 51.7196 10.6163 51.7123C14.3799 51.337 14.3799 51.337 14.8128 51.6882Z" fill="#515E32"/>
<path d="M51.1402 1.67969C51.196 1.67969 51.2517 1.67969 51.3092 1.67969C51.3051 1.72379 51.3011 1.7679 51.2969 1.81334C51.259 2.25546 51.2476 2.69216 51.2529 3.13569C51.2898 3.15089 51.3266 3.1661 51.3646 3.18176C51.5342 3.25209 51.7033 3.32338 51.8724 3.39469C51.9304 3.41858 51.9884 3.44248 52.0482 3.46709C52.4781 3.64952 52.9945 3.88361 53.2241 4.31169C53.29 4.73174 53.2272 5.12747 52.9989 5.48769C52.6796 5.88724 52.3181 6.23857 51.8161 6.38369C51.7548 6.40332 51.6935 6.42296 51.6304 6.44319C51.2153 6.54768 50.7088 6.58558 50.313 6.39769C50.0983 6.26524 49.9453 6.13542 49.8307 5.90769C49.6609 5.1194 49.9175 4.35409 50.2074 3.62569C50.2229 3.58565 50.2385 3.5456 50.2545 3.50435C50.3332 3.31634 50.3784 3.21284 50.5482 3.09172C50.7758 2.89213 50.8197 2.62522 50.9009 2.34119C50.9345 2.22835 50.9682 2.11554 51.0021 2.00278C51.0165 1.95289 51.0309 1.90299 51.0458 1.85158C51.0839 1.73569 51.0839 1.73569 51.1402 1.67969Z" fill="#515E32"/>
<path d="M40.326 27.2158C40.3632 27.2158 40.4004 27.2158 40.4387 27.2158C40.4476 27.7027 40.4138 28.1862 40.3824 28.6718C40.42 28.6862 40.4577 28.7006 40.4965 28.7154C40.8593 28.8591 41.2104 29.0202 41.5581 29.1968C41.5982 29.2165 41.6384 29.2361 41.6797 29.2563C41.9968 29.4208 42.2478 29.6374 42.4099 29.9598C42.4568 30.3792 42.3411 30.7173 42.1283 31.0798C41.8355 31.4379 41.5079 31.7723 41.0582 31.9198C41.0223 31.9322 40.9865 31.9445 40.9495 31.9572C40.6675 32.0361 40.3817 32.0447 40.0902 32.0493C40.033 32.0508 40.033 32.0508 39.9746 32.0523C39.7117 32.0519 39.5352 32.0006 39.3122 31.8638C38.9943 31.5405 38.9053 31.2647 38.9093 30.8255C38.9234 30.6013 38.9771 30.3926 39.0377 30.1768C39.0502 30.1311 39.0627 30.0854 39.0756 30.0383C39.4092 28.859 39.4092 28.859 39.7628 28.5598C39.8 28.5413 39.8372 28.5229 39.8755 28.5038C39.9211 28.3934 39.9211 28.3934 39.9564 28.2593C39.9708 28.2097 39.9852 28.1601 40 28.109C40.0146 28.0568 40.0293 28.0046 40.0444 27.9508C40.0735 27.8482 40.1028 27.7457 40.1324 27.6433C40.1453 27.5976 40.1581 27.5519 40.1714 27.5048C40.2134 27.3838 40.2134 27.3838 40.326 27.2158Z" fill="#515E32"/>
<path d="M32.216 1.12033C32.7273 1.38322 32.9788 1.8911 33.1734 2.40833C33.3063 3.28371 32.9907 3.96071 32.4835 4.66233C31.6102 5.75071 30.7357 6.40197 29.34 6.67483C29.2924 6.68476 29.2447 6.69468 29.1956 6.70491C28.9012 6.76336 28.6299 6.78633 28.3298 6.77633C28.3112 6.70241 28.2926 6.62849 28.2734 6.55233C28.621 6.36855 28.9704 6.23792 29.3436 6.11483C30.4292 5.76811 30.4292 5.76811 31.3711 5.15233C31.4056 5.12187 31.44 5.0914 31.4754 5.06002C31.8438 4.7156 32.0546 4.3371 32.216 3.86433C32.1718 3.86202 32.1277 3.85971 32.0822 3.85733C31.5873 3.73855 31.152 3.38861 30.8079 3.02433C30.6903 2.82496 30.6606 2.69689 30.6953 2.46433C30.9313 1.95793 31.5558 0.972967 32.216 1.12033Z" fill="#515E32"/>
<path d="M19.7708 2.23543C19.8791 2.23127 19.9875 2.22863 20.0959 2.22605C20.1555 2.22461 20.2151 2.22317 20.2765 2.22168C20.5213 2.24848 20.7082 2.33926 20.8879 2.50605C20.9956 2.72028 20.9884 2.91039 20.9143 3.13715C20.7512 3.50266 20.5087 3.73893 20.1346 3.88505C19.714 3.95974 19.4474 3.92463 19.0926 3.69605C19.0544 3.65957 19.0161 3.62308 18.9767 3.58549C18.6327 3.25861 18.3751 3.19851 17.9051 3.20581C17.8257 3.20934 17.7464 3.21293 17.667 3.21655C17.5827 3.21873 17.4984 3.22071 17.4141 3.22249C17.2371 3.22661 17.0603 3.2321 16.8834 3.23868C16.6206 3.2483 16.3578 3.25371 16.0948 3.25834C15.1282 3.27671 14.1637 3.31824 13.1988 3.37906C12.816 3.40302 12.4361 3.42241 12.0524 3.41605C12.0338 3.34213 12.0152 3.26821 11.9961 3.19205C12.2049 3.05363 12.4004 3.0327 12.6434 2.9978C12.6909 2.99068 12.7384 2.98355 12.7874 2.97621C13.2948 2.90115 13.8034 2.8356 14.3123 2.77205C14.4093 2.75986 14.5062 2.74765 14.6032 2.73544C14.8379 2.70594 15.0727 2.67667 15.3075 2.64751C15.4187 2.63367 15.5299 2.61972 15.6411 2.60575C17.0136 2.43359 18.3883 2.29101 19.7708 2.23543Z" fill="#515E32"/>
<path d="M9.79995 27.5518C9.83712 27.5702 9.87429 27.5887 9.91259 27.6078C9.50772 28.1944 9.08958 28.7534 8.61719 29.2878C8.57944 29.3322 8.54168 29.3765 8.50279 29.4223C8.31212 29.6455 8.11735 29.8355 7.88501 30.0158C7.76624 29.8386 7.74261 29.7364 7.709 29.5293C7.69956 29.4736 7.69012 29.4179 7.6804 29.3606C7.65653 29.1473 7.65644 28.9423 7.65972 28.7278C7.68883 28.7137 7.71794 28.6997 7.74793 28.6852C8.83952 28.2179 8.83952 28.2179 9.79995 27.5518Z" fill="#FAEAAD"/>
<path d="M50.6332 4.2002C51.227 4.22248 51.8567 4.51124 52.3228 4.8722C52.3945 4.99448 52.3945 4.99448 52.4355 5.0962C51.9789 5.4454 51.4236 5.50359 50.8584 5.4322C50.6466 5.34623 50.4562 5.24835 50.3515 5.0402C50.3179 4.699 50.3932 4.53286 50.5768 4.2562C50.5954 4.23772 50.614 4.21924 50.6332 4.2002Z" fill="#FAEAAD"/>
<path d="M39.7628 29.7363C40.3778 29.779 41.0413 30.0678 41.5088 30.4643C41.5537 30.5884 41.5537 30.5884 41.5651 30.6883C41.1944 30.9268 40.8713 30.9886 40.4387 30.9893C40.3947 30.9907 40.3507 30.9921 40.3053 30.9935C40.0041 30.995 39.8322 30.9436 39.5938 30.7443C39.4961 30.5499 39.5107 30.3409 39.5375 30.1283C39.5989 29.9817 39.6721 29.8687 39.7628 29.7363Z" fill="#FAEAAD"/>
<path d="M6.47674 29.2881C6.54169 29.6433 6.53842 29.9918 6.53307 30.3521C5.98333 30.3891 5.384 30.2688 4.95605 29.9041C4.95605 29.8671 4.95605 29.8302 4.95605 29.7921C5.61608 29.546 5.61608 29.546 5.7362 29.5014C5.81826 29.4707 5.9001 29.4393 5.98173 29.4074C6.28998 29.2881 6.28998 29.2881 6.47674 29.2881Z" fill="#FAEAAD"/>
</svg>
