<svg width="56" height="56" viewBox="0 0 56 56" fill="none" xmlns="http://www.w3.org/2000/svg">
<path d="M8 0.75H48C52.0041 0.75 55.25 3.99594 55.25 8V48C55.25 52.0041 52.0041 55.25 48 55.25H8C3.99594 55.25 0.75 52.0041 0.75 48V8C0.75 3.99594 3.99594 0.75 8 0.75Z" fill="#FEFCF5"/>
<path d="M8 0.75H48C52.0041 0.75 55.25 3.99594 55.25 8V48C55.25 52.0041 52.0041 55.25 48 55.25H8C3.99594 55.25 0.75 52.0041 0.75 48V8C0.75 3.99594 3.99594 0.75 8 0.75Z" stroke="#F7E8BB" stroke-width="1.5"/>
<path d="M19.1069 27.5528C19.3539 27.0588 19.9546 26.8586 20.4485 27.1056L23.1152 28.4389C23.6092 28.6859 23.8094 29.2866 23.5624 29.7806C23.3154 30.2746 22.7148 30.4748 22.2208 30.2278L19.5541 28.8945C19.0601 28.6475 18.8599 28.0468 19.1069 27.5528Z" fill="#F3DC9A"/>
<path fill-rule="evenodd" clip-rule="evenodd" d="M15.0403 21.0551C15.0149 20.9325 15.0011 20.8031 15.0011 20.6665C15.0011 19.7304 15.6477 19.1354 16.243 18.7333C16.8375 18.3318 17.6925 17.9181 18.6996 17.4308L22.8881 15.404C25.0771 14.344 26.4761 13.6665 28.0011 13.6665C29.5261 13.6665 30.9251 14.344 33.1141 15.404L37.3026 17.4308C38.3097 17.9181 39.1648 18.3318 39.7593 18.7333C40.3546 19.1354 41.0011 19.7304 41.0011 20.6665C41.0011 20.8031 40.9873 20.9325 40.962 21.0551C40.9875 21.1434 41.0011 21.2367 41.0011 21.3331L41.0011 34.8815C41.0011 36.3754 39.9113 37.3689 38.57 38.1738C37.2122 38.9886 35.2147 39.8324 32.6906 40.8986L32.409 41.0176C30.5169 41.8175 29.2972 42.3331 28.0011 42.3331C26.7051 42.3331 25.4853 41.8175 23.5933 41.0176L23.3117 40.8986C20.7876 39.8324 18.7901 38.9886 17.4322 38.1738C16.0909 37.3689 15.0011 36.3754 15.0011 34.8815L15.0011 21.3331C15.0011 21.2367 15.0148 21.1434 15.0403 21.0551ZM17.0011 23.0517C17.4885 23.3162 18.0637 23.5945 18.6996 23.9022L22.8881 25.929C24.5945 26.7553 25.8209 27.3492 27.0011 27.5709L27.0011 40.184C26.3626 40.0084 25.5318 39.6653 24.1728 39.0912C21.5477 37.9823 19.6828 37.1919 18.4613 36.4589C17.2084 35.7071 17.0011 35.231 17.0011 34.8815L17.0011 23.0517ZM29.0011 27.5709C30.1813 27.3492 31.4077 26.7553 33.1141 25.929L37.3026 23.9022C37.9385 23.5945 38.5138 23.3162 39.0011 23.0517L39.0011 34.8815C39.0011 35.231 38.7938 35.7071 37.5409 36.4589C36.3194 37.1919 34.4545 37.9823 31.8294 39.0912C30.4704 39.6653 29.6396 40.0084 29.0011 40.184L29.0011 27.5709ZM23.5379 17.3115C26.0284 16.1064 26.991 15.6665 28.0011 15.6665C29.0112 15.6665 29.9739 16.1064 32.4643 17.3115L32.4701 17.3143L21.2601 22.9193L19.643 22.1368C18.5439 21.605 17.8225 21.253 17.3624 20.9423C17.1646 20.8086 17.069 20.7181 17.0247 20.6665C17.069 20.6149 17.1646 20.5243 17.3624 20.3907C17.8225 20.0799 18.5439 19.728 19.643 19.1962L23.5379 17.3115ZM23.5328 24.019L23.5379 24.0215C26.0284 25.2266 26.991 25.6665 28.0011 25.6665C29.0112 25.6665 29.9739 25.2266 32.4643 24.0215L36.3593 22.1368C37.4583 21.605 38.1797 21.253 38.6398 20.9423C38.8377 20.8086 38.9333 20.7181 38.9775 20.6665C38.9333 20.6149 38.8377 20.5243 38.6398 20.3907C38.1797 20.0799 37.4583 19.728 36.3593 19.1962L34.7428 18.414L23.5328 24.019Z" fill="#F3DC9A"/>
</svg>
