<svg width="25" height="25" viewBox="0 0 25 25" fill="none" xmlns="http://www.w3.org/2000/svg">
<path fill-rule="evenodd" clip-rule="evenodd" d="M5.05854 4.52826C5.35143 4.23537 5.8263 4.23537 6.1192 4.52826L12.5889 10.9979L19.0585 4.52826C19.3514 4.23537 19.8263 4.23537 20.1192 4.52826C20.4121 4.82116 20.4121 5.29603 20.1192 5.58892L13.6495 12.0586L20.1192 18.5283C20.4121 18.8212 20.4121 19.296 20.1192 19.5889C19.8263 19.8818 19.3514 19.8818 19.0585 19.5889L12.5889 13.1193L6.1192 19.5889C5.8263 19.8818 5.35143 19.8818 5.05854 19.5889C4.76564 19.296 4.76564 18.8212 5.05854 18.5283L11.5282 12.0586L5.05854 5.58892C4.76564 5.29603 4.76564 4.82116 5.05854 4.52826Z" fill="#E02C1F"/>
</svg>
