<svg width="48" height="48" viewBox="0 0 48 48" fill="none" xmlns="http://www.w3.org/2000/svg">
<path d="M0 24C0 10.7452 10.7452 0 24 0C37.2548 0 48 10.7452 48 24C48 37.2548 37.2548 48 24 48C10.7452 48 0 37.2548 0 24Z" fill="#ECF7E9"/>
<path fill-rule="evenodd" clip-rule="evenodd" d="M30.7526 15.4273C32.2661 14.8882 33.9792 15.6183 34.5602 17.1214C34.8485 17.8674 34.8031 18.5708 34.4405 19.2028C34.1076 19.7829 33.5432 20.2378 32.9356 20.6284C32.7274 20.7623 32.5134 20.8949 32.2938 21.0309C31.4789 21.5357 30.5877 22.0877 29.6378 22.9255C28.4395 23.9824 27.2593 25.2653 26.2009 26.5413C25.1483 27.8103 24.2522 29.0285 23.6185 29.9314C23.4162 30.2196 23.1717 30.5819 22.9759 30.8749C22.8784 31.0209 22.7938 31.1485 22.7335 31.2396L22.663 31.3465L22.6412 31.3797C22.0881 32.2499 21.1084 32.7627 20.0727 32.7498C19.0345 32.7368 18.0661 32.1975 17.5371 31.3088C16.5794 29.6998 15.8794 29.1308 15.6406 28.9704C15.4484 28.8412 15.2436 28.7364 15 28.6117L14.9904 28.6067C14.7622 28.49 14.4841 28.3476 14.2327 28.1646C13.9684 27.9721 13.7101 27.7192 13.524 27.3637C13.3382 27.0086 13.25 26.6003 13.25 26.1336C13.25 24.5126 14.6098 23.2503 16.2222 23.2503C16.2314 23.2503 16.2406 23.2505 16.2498 23.2508C17.2975 23.2895 18.2369 23.6999 19.0259 24.2301C19.3311 24.4352 19.6429 24.6773 19.96 24.9619C20.441 24.3249 20.9821 23.6344 21.5697 22.9259C22.7417 21.5131 24.1349 19.9851 25.6388 18.6587C27.11 17.3611 28.8585 16.102 30.7526 15.4273ZM21.3841 30.5612L21.4104 30.5213L21.4823 30.4123C21.5436 30.3197 21.6296 30.19 21.7286 30.0417C21.926 29.7463 22.1782 29.3724 22.3907 29.0697C23.0407 28.1436 23.9614 26.8917 25.0464 25.5837C26.1343 24.2722 27.3692 22.9263 28.6456 21.8005C29.7004 20.8702 30.725 20.2365 31.5479 19.7276C31.7536 19.6004 31.9467 19.481 32.1245 19.3667C32.6757 19.0124 32.99 18.7167 33.1395 18.4563C33.2591 18.2477 33.2997 18.0208 33.161 17.6622C32.8882 16.9561 32.0436 16.5598 31.2559 16.8404C29.6208 17.4228 28.0396 18.5413 26.631 19.7837C25.2052 21.0412 23.8667 22.5063 22.7242 23.8836C21.9388 24.8305 21.2372 25.7466 20.6543 26.5416C20.5226 26.7213 20.3179 26.8331 20.0955 26.8468C19.8732 26.8604 19.6562 26.7745 19.5035 26.6124C19.0355 26.1154 18.5945 25.7474 18.1892 25.4751C17.5556 25.0493 16.8891 24.7789 16.2088 24.7504C15.3733 24.7572 14.75 25.4021 14.75 26.1336C14.75 26.4086 14.8008 26.5684 14.853 26.6681C14.9049 26.7673 14.9837 26.8559 15.1157 26.952C15.2586 27.0561 15.4336 27.1485 15.6793 27.2743C15.6898 27.2797 15.7004 27.2851 15.7111 27.2906C15.935 27.4051 16.2097 27.5455 16.4772 27.7253C16.9465 28.0407 17.7872 28.7963 18.826 30.5415C19.0781 30.965 19.5555 31.2432 20.0914 31.2499C20.6271 31.2566 21.1129 30.99 21.377 30.5722L21.3841 30.5612Z" fill="#45AD22"/>
</svg>
