<svg width="22" height="22" viewBox="0 0 22 22" fill="none" xmlns="http://www.w3.org/2000/svg">
<path fill-rule="evenodd" clip-rule="evenodd" d="M15.5518 3.96076C16.8916 2.84949 18.8525 3.14236 19.873 4.51181C20.8341 5.80154 20.6506 7.63073 19.4132 8.6796C18.6408 9.3343 17.9102 9.93986 17.21 10.5202C14.9583 12.3866 13.021 13.9924 11.0196 16.1338L10.9883 16.1672C10.272 16.9337 9.69208 17.5542 9.18719 17.9768C8.6727 18.4075 8.12968 18.7267 7.48382 18.7208C6.8476 18.715 6.32519 18.4095 5.83346 17.9889C5.35787 17.5821 4.82325 16.989 4.16907 16.2633L2.31636 14.2081C1.36397 13.1516 1.24795 11.5803 2.03358 10.3943C3.15823 8.69646 5.57796 8.52638 6.92627 10.053L8.06457 11.3418C10.2568 8.8082 12.5748 6.43006 15.5518 3.96076ZM18.8117 5.30266C18.2232 4.51291 17.1265 4.3742 16.3968 4.97947C13.477 7.40126 11.2053 9.73281 9.04478 12.2317C9.0369 12.2408 9.02851 12.2507 9.01961 12.2611C8.93792 12.3566 8.81395 12.5017 8.665 12.5951C8.30158 12.8231 7.84328 12.8256 7.47744 12.6014C7.32754 12.5096 7.20273 12.3666 7.12075 12.2728C7.11186 12.2626 7.10347 12.253 7.0956 12.2441L5.93426 10.9291C5.16329 10.0562 3.7818 10.1518 3.13699 11.1252C2.68437 11.8085 2.75184 12.7145 3.29941 13.3219L5.12053 15.3421C5.81407 16.1114 6.2915 16.639 6.69374 16.9831C7.08748 17.3198 7.31441 17.3957 7.49581 17.3973C7.66756 17.3989 7.9048 17.3243 8.33762 16.962C8.77271 16.5977 9.2976 16.0379 10.0526 15.23C12.1167 13.0216 14.1373 11.3471 16.4053 9.46762C17.0969 8.89446 17.8115 8.30223 18.5574 7.66998C19.25 7.08291 19.3646 6.04455 18.8117 5.30266Z" fill="#45AD22"/>
</svg>
