<svg width="16" height="16" viewBox="0 0 16 16" fill="none" xmlns="http://www.w3.org/2000/svg">
<path d="M4.83301 8.99992C4.83301 7.25102 6.25077 5.83325 7.99967 5.83325C8.27582 5.83325 8.49967 5.60939 8.49967 5.33325C8.49967 5.05711 8.27582 4.83325 7.99967 4.83325C5.69849 4.83325 3.83301 6.69873 3.83301 8.99992C3.83301 11.3011 5.69849 13.1666 7.99967 13.1666C8.27582 13.1666 8.49967 12.9427 8.49967 12.6666C8.49967 12.3904 8.27582 12.1666 7.99967 12.1666C6.25077 12.1666 4.83301 10.7488 4.83301 8.99992Z" fill="#A2A2A2"/>
<path d="M10.4157 6.27727C10.5688 6.04751 10.5068 5.73707 10.277 5.5839C10.0472 5.43072 9.7368 5.49281 9.58362 5.72257L7.58362 8.72257C7.43044 8.95234 7.49253 9.26277 7.7223 9.41595C7.95206 9.56912 8.2625 9.50704 8.41567 9.27727L10.4157 6.27727Z" fill="#A2A2A2"/>
<path fill-rule="evenodd" clip-rule="evenodd" d="M9.49967 2.33325C9.49967 2.56567 9.44682 2.78574 9.35246 2.9821C12.1075 3.59873 14.1663 6.05889 14.1663 8.99992C14.1663 12.4057 11.4054 15.1666 7.99967 15.1666C4.59392 15.1666 1.83301 12.4057 1.83301 8.99992C1.83301 6.05889 3.89185 3.59873 6.64689 2.9821C6.55253 2.78574 6.49967 2.56567 6.49967 2.33325C6.49967 1.50482 7.17125 0.833252 7.99967 0.833252C8.8281 0.833252 9.49967 1.50482 9.49967 2.33325ZM7.99967 2.83325C7.72353 2.83325 7.49967 2.60939 7.49967 2.33325C7.49967 2.05711 7.72353 1.83325 7.99967 1.83325C8.27582 1.83325 8.49967 2.05711 8.49967 2.33325C8.49967 2.60939 8.27582 2.83325 7.99967 2.83325ZM2.83301 8.99992C2.83301 6.14645 5.1462 3.83325 7.99967 3.83325C10.8531 3.83325 13.1663 6.14645 13.1663 8.99992C13.1663 11.8534 10.8531 14.1666 7.99967 14.1666C5.1462 14.1666 2.83301 11.8534 2.83301 8.99992Z" fill="#A2A2A2"/>
</svg>
