<svg width="62" height="84" viewBox="0 0 62 84" fill="none" xmlns="http://www.w3.org/2000/svg">
<path d="M61.25 31C61.25 14.28 47.72 0.75 31 0.75C14.28 0.75 0.75 14.28 0.75 31C0.75 55.035 31 77.75 31 77.75C31 77.75 61.25 55.035 61.25 31ZM14.5 31C14.5 21.87 21.87 14.5 31 14.5C40.13 14.5 47.5 21.87 47.5 31C47.5 40.13 40.13 47.5 31 47.5C21.87 47.5 14.5 40.13 14.5 31ZM53 80.5C53 82.0125 51.7625 83.25 50.25 83.25H11.75C10.2375 83.25 9 82.0125 9 80.5C9 78.9875 10.2375 77.75 11.75 77.75H50.25C51.7625 77.75 53 78.9875 53 80.5ZM31 34.8775L26.0775 39.8C25.5275 40.35 24.84 40.5975 24.125 40.5975C23.41 40.5975 22.7225 40.3225 22.1725 39.8C21.9176 39.5456 21.7153 39.2434 21.5773 38.9107C21.4393 38.578 21.3683 38.2214 21.3683 37.8612C21.3683 37.5011 21.4393 37.1445 21.5773 36.8118C21.7153 36.4791 21.9176 36.1769 22.1725 35.9225L27.1225 31L22.2 26.0775C21.9454 25.8229 21.7434 25.5206 21.6056 25.188C21.4679 24.8553 21.3969 24.4988 21.3969 24.1388C21.3969 23.7787 21.4679 23.4222 21.6056 23.0895C21.7434 22.7569 21.9454 22.4546 22.2 22.2C22.4546 21.9454 22.7569 21.7434 23.0895 21.6056C23.4222 21.4679 23.7787 21.3969 24.1388 21.3969C24.4988 21.3969 24.8553 21.4679 25.188 21.6056C25.5206 21.7434 25.8229 21.9454 26.0775 22.2L31 27.1225L35.9225 22.2C36.1771 21.9454 36.4794 21.7434 36.812 21.6056C37.1447 21.4679 37.5012 21.3969 37.8613 21.3969C38.2213 21.3969 38.5778 21.4679 38.9105 21.6056C39.2431 21.7434 39.5454 21.9454 39.8 22.2C40.0546 22.4546 40.2566 22.7569 40.3943 23.0895C40.5321 23.4222 40.6031 23.7787 40.6031 24.1388C40.6031 24.4988 40.5321 24.8553 40.3943 25.188C40.2566 25.5206 40.0546 25.8229 39.8 26.0775L34.8775 31L39.8 35.9225C40.1838 36.3065 40.4447 36.796 40.5498 37.3286C40.6548 37.8613 40.5992 38.4131 40.3899 38.9141C40.1807 39.4151 39.8273 39.8426 39.3746 40.1423C38.922 40.442 38.3904 40.6005 37.8475 40.5975C37.1325 40.5975 36.445 40.3225 35.895 39.8L31 34.8775Z" fill="#E02C1F"/>
</svg>
