<svg width="16" height="16" viewBox="0 0 16 16" fill="none" xmlns="http://www.w3.org/2000/svg">
<path d="M8.50033 3C8.50033 2.72386 8.27647 2.5 8.00033 2.5C7.72418 2.5 7.50033 2.72386 7.50033 3V8.64128L7.49629 8.63652C7.35583 8.47076 7.21831 8.29559 7.0897 8.13177L7.05988 8.0938C6.93173 7.93064 6.79691 7.75923 6.6922 7.65151C6.49973 7.45349 6.18318 7.44899 5.98516 7.64146C5.78715 7.83393 5.78265 8.15048 5.97512 8.3485C6.03425 8.40933 6.13134 8.53054 6.27346 8.71149L6.30484 8.75145C6.43154 8.91287 6.5802 9.10226 6.73335 9.28299C6.89748 9.4767 7.0812 9.67789 7.26485 9.83431C7.35688 9.91269 7.46061 9.99001 7.57221 10.0497C7.67983 10.1073 7.82814 10.1667 8.00033 10.1667C8.17252 10.1667 8.32082 10.1073 8.42844 10.0497C8.54004 9.99001 8.64377 9.91269 8.7358 9.83431C8.91945 9.67789 9.10317 9.4767 9.2673 9.28299C9.42044 9.10226 9.56908 8.91291 9.69579 8.75149L9.72719 8.71149C9.86932 8.53054 9.9664 8.40933 10.0255 8.3485C10.218 8.15048 10.2135 7.83393 10.0155 7.64146C9.81747 7.44899 9.50092 7.45349 9.30845 7.65151C9.20374 7.75923 9.06892 7.93064 8.94077 8.0938L8.91097 8.13175C8.78236 8.29557 8.64482 8.47077 8.50436 8.63652L8.50033 8.64128V3Z" fill="#515E32"/>
<path d="M3.16699 11C3.16699 10.7239 2.94313 10.5 2.66699 10.5C2.39085 10.5 2.16699 10.7239 2.16699 11C2.16699 11.4245 2.18848 11.7993 2.25845 12.1178C2.32966 12.442 2.45774 12.7389 2.69294 12.9741C2.92814 13.2093 3.22498 13.3373 3.54915 13.4085C3.86765 13.4785 4.2425 13.5 4.66699 13.5H11.3337C11.7581 13.5 12.133 13.4785 12.4515 13.4085C12.7757 13.3373 13.0725 13.2093 13.3077 12.9741C13.5429 12.7389 13.671 12.442 13.7422 12.1178C13.8122 11.7993 13.8337 11.4245 13.8337 11C13.8337 10.7239 13.6098 10.5 13.3337 10.5C13.0575 10.5 12.8337 10.7239 12.8337 11C12.8337 11.4028 12.812 11.6917 12.7655 11.9033C12.7202 12.1092 12.6586 12.209 12.6006 12.2669C12.5426 12.3249 12.4429 12.3866 12.2369 12.4318C12.0253 12.4783 11.7365 12.5 11.3337 12.5H4.66699C4.26415 12.5 3.97534 12.4783 3.76371 12.4318C3.55775 12.3866 3.45801 12.3249 3.40005 12.2669C3.34208 12.209 3.28041 12.1092 3.23516 11.9033C3.18867 11.6917 3.16699 11.4028 3.16699 11Z" fill="#515E32"/>
</svg>
