<svg width="48" height="48" viewBox="0 0 48 48" fill="none" xmlns="http://www.w3.org/2000/svg">
<path d="M0 24C0 10.7452 10.7452 0 24 0C37.2548 0 48 10.7452 48 24C48 37.2548 37.2548 48 24 48C10.7452 48 0 37.2548 0 24Z" fill="#FCEAE9"/>
<path d="M21.5304 20.4697C21.2375 20.1768 20.7626 20.1768 20.4697 20.4696C20.1768 20.7625 20.1768 21.2374 20.4696 21.5303L22.9394 24.0003L20.4703 26.4697C20.1774 26.7626 20.1774 27.2375 20.4703 27.5304C20.7632 27.8232 21.2381 27.8232 21.531 27.5303L24 25.061L26.469 27.5303C26.7619 27.8232 27.2368 27.8232 27.5297 27.5304C27.8226 27.2375 27.8226 26.7626 27.5297 26.4697L25.0606 24.0003L27.5304 21.5303C27.8232 21.2374 27.8232 20.7625 27.5303 20.4696C27.2374 20.1768 26.7625 20.1768 26.4696 20.4697L24 22.9396L21.5304 20.4697Z" fill="#E02C1F"/>
<path fill-rule="evenodd" clip-rule="evenodd" d="M24 34.75C18.0629 34.75 13.25 29.9371 13.25 24C13.25 18.0629 18.0629 13.25 24 13.25C29.9371 13.25 34.75 18.0629 34.75 24C34.75 29.9371 29.9371 34.75 24 34.75ZM14.75 24C14.75 29.1086 18.8914 33.25 24 33.25C29.1086 33.25 33.25 29.1086 33.25 24C33.25 18.8914 29.1086 14.75 24 14.75C18.8914 14.75 14.75 18.8914 14.75 24Z" fill="#E02C1F"/>
</svg>
