<svg width="16" height="16" viewBox="0 0 16 16" fill="none" xmlns="http://www.w3.org/2000/svg">
<g clip-path="url(#clip0_3457_1474)">
<path d="M8 12L8 10" stroke="#747474" stroke-linecap="round"/>
<path d="M1.56727 8.80962C1.33192 7.27815 1.21425 6.51241 1.50378 5.83357C1.79332 5.15473 2.43569 4.69027 3.72043 3.76136L4.68033 3.06732C6.27853 1.91176 7.07763 1.33398 7.99967 1.33398C8.92171 1.33398 9.72081 1.91176 11.319 3.06732L12.2789 3.76136C13.5637 4.69027 14.206 5.15473 14.4956 5.83357C14.7851 6.51241 14.6674 7.27814 14.4321 8.80962L14.2314 10.1156C13.8978 12.2866 13.7309 13.3721 12.9523 14.0197C12.1737 14.6673 11.0355 14.6673 8.75888 14.6673H7.24046C4.9639 14.6673 3.82561 14.6673 3.04701 14.0197C2.2684 13.3721 2.10159 12.2866 1.76796 10.1156L1.56727 8.80962Z" stroke="#747474" stroke-linejoin="round"/>
</g>
<defs>
<clipPath id="clip0_3457_1474">
<rect width="16" height="16" fill="white"/>
</clipPath>
</defs>
</svg>
