<svg width="48" height="48" viewBox="0 0 48 48" fill="none" xmlns="http://www.w3.org/2000/svg">
<path d="M0 24C0 10.7452 10.7452 0 24 0C37.2548 0 48 10.7452 48 24C48 37.2548 37.2548 48 24 48C10.7452 48 0 37.2548 0 24Z" fill="#FAFAFA"/>
<path d="M23.491 23.7512C23.4216 23.7501 23.3413 23.75 23.2422 23.75C22.828 23.75 22.4922 23.4142 22.4922 23C22.4922 22.5858 22.828 22.25 23.2422 22.25L23.2766 22.25C23.4817 22.2499 23.7035 22.2498 23.8908 22.275C24.1101 22.3045 24.3903 22.3803 24.6261 22.6161C24.8619 22.8519 24.9377 23.1321 24.9672 23.3514C24.9924 23.5387 24.9923 23.7605 24.9922 23.9656L24.9922 29C24.9922 29.4142 24.6564 29.75 24.2422 29.75C23.828 29.75 23.4922 29.4142 23.4922 29V24C23.4922 23.9009 23.4922 23.8206 23.491 23.7512Z" fill="#B9B9B9"/>
<path d="M23.9922 19C23.4399 19 22.9922 19.4477 22.9922 20C22.9922 20.5523 23.4399 21 23.9922 21H24.0012C24.5535 21 25.0012 20.5523 25.0012 20C25.0012 19.4477 24.5535 19 24.0012 19H23.9922Z" fill="#B9B9B9"/>
<path fill-rule="evenodd" clip-rule="evenodd" d="M13.25 24C13.25 29.9371 18.0629 34.75 24 34.75C29.9371 34.75 34.75 29.9371 34.75 24C34.75 18.0629 29.9371 13.25 24 13.25C18.0629 13.25 13.25 18.0629 13.25 24ZM24 33.25C18.8914 33.25 14.75 29.1086 14.75 24C14.75 18.8914 18.8914 14.75 24 14.75C29.1086 14.75 33.25 18.8914 33.25 24C33.25 29.1086 29.1086 33.25 24 33.25Z" fill="#B9B9B9"/>
</svg>
