<svg width="24" height="24" viewBox="0 0 24 24" fill="none" xmlns="http://www.w3.org/2000/svg">
<path d="M5.32901 11.6644C5.51426 11.294 5.96476 11.1438 6.33525 11.329L8.33525 12.329C8.70573 12.5143 8.8559 12.9648 8.67066 13.3353C8.48541 13.7058 8.03491 13.8559 7.66442 13.6707L5.66443 12.6707C5.29394 12.4854 5.14377 12.0349 5.32901 11.6644Z" fill="#A2A2A2"/>
<path fill-rule="evenodd" clip-rule="evenodd" d="M12.7497 11.678C13.6348 11.5117 14.5546 11.0663 15.8344 10.4466L18.9758 8.92645C19.4527 8.69571 19.8842 8.48694 20.2497 8.28861L20.2497 11.9997C20.2497 12.4139 20.5855 12.7497 20.9997 12.7497C21.4139 12.7497 21.7497 12.4139 21.7497 11.9997L21.7497 6.99969C21.7497 6.92733 21.7394 6.85736 21.7203 6.79115C21.7393 6.69922 21.7497 6.60218 21.7497 6.49969C21.7497 5.79764 21.2648 5.3514 20.8183 5.04983C20.3724 4.74865 19.7311 4.43839 18.9758 4.07295L15.8344 2.55283C14.1927 1.7578 13.1434 1.24969 11.9997 1.24969C10.8559 1.24969 9.80667 1.7578 8.1649 2.55284L5.02355 4.07294C4.26821 4.43839 3.62695 4.74865 3.18105 5.04983C2.7346 5.3514 2.24967 5.79764 2.24967 6.49969C2.24967 6.60218 2.26001 6.69922 2.27905 6.79115C2.25992 6.85736 2.24967 6.92733 2.24967 6.99969L2.24967 17.161C2.24967 18.2814 3.06701 19.0265 4.073 19.6302C5.09139 20.2413 6.58953 20.8741 8.48262 21.6738L8.6938 21.763C10.1128 22.363 11.0276 22.7497 11.9997 22.7497C12.1986 22.7497 12.3894 22.6707 12.53 22.53C12.6707 22.3894 12.7497 22.1986 12.7497 21.9997L12.7497 11.678ZM3.74967 8.28861C4.11518 8.48696 4.54663 8.69571 5.02356 8.92646L8.1649 10.4466C9.44474 11.0663 10.3645 11.5117 11.2497 11.678L11.2497 21.1378C10.7708 21.0061 10.1477 20.7488 9.12845 20.3183C7.15963 19.4866 5.76095 18.8937 4.84481 18.344C3.90515 17.7801 3.74967 17.4231 3.74967 17.161L3.74967 8.28861ZM8.65227 3.98342C10.5201 3.0796 11.2421 2.74969 11.9997 2.74969C12.7573 2.74969 13.4792 3.0796 15.3471 3.98342L15.3514 3.98553L6.9439 8.1893L5.73107 7.60242C4.90676 7.20355 4.36571 6.93962 4.02065 6.70654C3.87226 6.60631 3.80057 6.53839 3.76739 6.49969C3.80057 6.46099 3.87226 6.39308 4.02065 6.29284C4.36571 6.05977 4.90677 5.79583 5.73107 5.39696L8.65227 3.98342ZM8.64841 9.01409L8.65227 9.01596C10.5201 9.91979 11.2421 10.2497 11.9997 10.2497C12.7573 10.2497 13.4792 9.91979 15.3471 9.01596L18.2683 7.60243C19.0926 7.20355 19.6336 6.93962 19.9787 6.70655C20.1271 6.60631 20.1988 6.53839 20.232 6.49969C20.1988 6.46099 20.1271 6.39307 19.9787 6.29284C19.6336 6.05977 19.0926 5.79583 18.2683 5.39696L17.0559 4.81033L8.64841 9.01409Z" fill="#A2A2A2"/>
<path d="M22.6949 14.7185C22.8503 15.1025 22.665 15.5397 22.2811 15.6951C21.8012 15.8893 21.2489 16.3068 20.668 16.889C20.0968 17.4615 19.5429 18.1473 19.054 18.8171C18.5666 19.4848 18.1528 20.1241 17.8607 20.5971C17.7148 20.8332 17.5999 21.0269 17.5219 21.1608C17.4829 21.2277 17.4532 21.2795 17.4335 21.3142L17.4115 21.353L17.4064 21.3622L17.4053 21.3641C17.2667 21.6132 16.9988 21.7626 16.7141 21.749C16.4293 21.7355 16.1768 21.5617 16.0626 21.3005C15.6602 20.3809 15.2912 19.9982 15.092 19.8465C15.0029 19.7786 14.9437 19.7536 14.9228 19.746C14.5447 19.7075 14.2497 19.3881 14.2497 18.9999C14.2497 18.5857 14.5855 18.2499 14.9997 18.2499L15.0014 18.2499L15.0031 18.2499L15.0066 18.2499L15.0138 18.25L15.0294 18.2504C15.0403 18.2508 15.0521 18.2515 15.0649 18.2524C15.0904 18.2543 15.1195 18.2574 15.152 18.2624C15.217 18.2723 15.2948 18.2894 15.3829 18.3182C15.5604 18.3762 15.7718 18.4786 16.0011 18.6533C16.2507 18.8435 16.5149 19.1139 16.7802 19.4961C17.0655 19.0464 17.4279 18.5006 17.8424 17.9327C18.3572 17.2275 18.9614 16.4757 19.6061 15.8295C20.2413 15.193 20.9629 14.6104 21.7183 14.3047C22.1022 14.1493 22.5395 14.3345 22.6949 14.7185Z" fill="#A2A2A2"/>
</svg>
