<svg width="20" height="22" viewBox="0 0 20 22" fill="none" xmlns="http://www.w3.org/2000/svg">
<path fill-rule="evenodd" clip-rule="evenodd" d="M14.7495 12.75V8.25C14.7495 7.6804 14.3555 7.33859 14.0768 7.14789C13.8005 6.95888 13.4128 6.76896 12.9921 6.5629L10.8585 5.51731L10.804 5.49031C10.6091 5.39307 10.3222 5.25 9.99951 5.25C9.6768 5.25 9.38993 5.39308 9.19497 5.49031L9.14053 5.51731L7.00689 6.5629C6.58626 6.76896 6.19856 6.95888 5.92226 7.14789C5.64348 7.33859 5.24951 7.6804 5.24951 8.25V12.75C5.24951 13.3196 5.64348 13.6614 5.92226 13.8521C6.19856 14.0411 6.58626 14.231 7.0069 14.4371L9.14053 15.4827L9.19497 15.5097C9.38993 15.6069 9.6768 15.75 9.99951 15.75C10.3222 15.75 10.6091 15.6069 10.8041 15.5097L10.8585 15.4827L12.9921 14.4371C13.4127 14.2311 13.8005 14.0411 14.0768 13.8521C14.3555 13.6614 14.7495 13.3196 14.7495 12.75ZM9.80061 6.86427C9.86716 6.83166 9.91771 6.80692 9.96157 6.78634C9.97592 6.77961 9.98848 6.77384 9.99951 6.76888C10.0105 6.77384 10.0231 6.77961 10.0375 6.78634C10.0813 6.80692 10.1319 6.83166 10.1984 6.86427L12.2847 7.88665C12.6008 8.04156 12.8324 8.15595 13.0037 8.25C12.8324 8.34405 12.6008 8.45844 12.2847 8.61335L10.1984 9.63573C10.1319 9.66834 10.0813 9.69308 10.0375 9.71366C10.0231 9.72039 10.0105 9.72616 9.99951 9.73112C9.98848 9.72616 9.97592 9.72039 9.96157 9.71366C9.91771 9.69308 9.86716 9.66834 9.80061 9.63573L7.71433 8.61335C7.39823 8.45844 7.16667 8.34405 6.99531 8.25C7.16667 8.15595 7.39823 8.04156 7.71433 7.88665L9.80061 6.86427ZM12.9921 9.9371C13.0796 9.89426 13.1656 9.85212 13.2495 9.81054V12.6004L13.2299 12.6141C13.0549 12.7337 12.7691 12.876 12.2847 13.1133L10.7495 13.8657V11.0368L10.8585 10.9827L12.9921 9.9371ZM7.71433 13.1133L9.24951 13.8657V11.0368L9.14053 10.9827L7.00688 9.9371C6.91943 9.89426 6.83341 9.85212 6.74951 9.81054V12.6004L6.76916 12.6141C6.94411 12.7337 7.22997 12.876 7.71433 13.1133Z" fill="#515E32"/>
<path fill-rule="evenodd" clip-rule="evenodd" d="M9.99852 0.25C8.38669 0.25 7.07948 0.824946 5.94845 1.44345C5.60356 1.63206 5.28455 1.81782 4.98063 1.99479C4.24184 2.42498 3.59226 2.80324 2.87699 3.04413L2.85109 3.05286C2.42891 3.19503 2.07585 3.31393 1.80771 3.42484C1.55387 3.52984 1.24849 3.67545 1.03312 3.92811C0.842875 4.15129 0.746687 4.3994 0.683097 4.63457C0.624865 4.84993 0.580206 5.11152 0.531953 5.39415L0.526881 5.42385C-0.641011 12.2609 1.90365 18.7706 8.19422 21.3128L8.22878 21.3268C8.84213 21.5748 9.27553 21.75 10.0016 21.75C10.7277 21.75 11.1611 21.5748 11.7744 21.3268L11.809 21.3128C18.0994 18.7705 20.6415 12.2606 19.4733 5.4238L19.4682 5.39404C19.4199 5.11139 19.3752 4.84978 19.317 4.63441C19.2534 4.39922 19.1572 4.15108 18.9669 3.92789C18.7515 3.67524 18.4461 3.52967 18.1922 3.4247C17.9241 3.31383 17.571 3.19499 17.1489 3.05289L17.123 3.04418C16.4073 2.80327 15.7572 2.42491 15.0178 1.99465C14.7138 1.81771 14.3947 1.63198 14.0497 1.44344C12.9181 0.824955 11.6104 0.25 9.99852 0.25ZM3.35576 4.46567C4.22608 4.17256 5.07563 3.67778 5.86358 3.21888C6.13993 3.05793 6.40871 2.90139 6.66815 2.75952C7.71956 2.18455 8.76088 1.75 9.99852 1.75C11.2363 1.75 12.2782 2.18462 13.3303 2.75967C13.5899 2.90154 13.8588 3.05805 14.1352 3.21897C14.9237 3.6779 15.7738 4.17271 16.6445 4.46579C17.0992 4.61889 17.4035 4.72176 17.6191 4.81088C17.7483 4.86432 17.8086 4.89885 17.8307 4.91222C17.8387 4.92941 17.8522 4.96367 17.869 5.02602C17.9064 5.16408 17.9396 5.35401 17.9947 5.67645C19.0806 12.0313 16.702 17.7174 11.2469 19.9221C10.6167 20.1768 10.4216 20.25 10.0016 20.25C9.58161 20.25 9.38651 20.1768 8.75626 19.9221C3.30061 17.7173 0.919969 12.0311 2.00546 5.67642C2.06053 5.35403 2.09377 5.16414 2.1311 5.0261C2.14795 4.96378 2.16137 4.92953 2.16934 4.91234C2.19151 4.89897 2.25177 4.86442 2.38104 4.81095C2.59662 4.72178 2.90095 4.61885 3.35576 4.46567Z" fill="#515E32"/>
</svg>
