<svg width="24" height="24" viewBox="0 0 24 24" fill="none" xmlns="http://www.w3.org/2000/svg">
<path d="M15.8503 1.75094C15.4366 1.73043 15.0846 2.04919 15.0641 2.46289C15.0436 2.8766 15.3624 3.22859 15.7761 3.2491C17.8549 3.35212 18.906 3.65992 19.6231 4.37696C20.3401 5.09404 20.6479 6.14501 20.7509 8.22393C20.7714 8.63763 21.1234 8.95638 21.5372 8.93587C21.9509 8.91536 22.2696 8.56335 22.2491 8.14965C22.144 6.02913 21.8291 4.4618 20.6837 3.31632C19.5382 2.17084 17.9709 1.85603 15.8503 1.75094Z" fill="white"/>
<path d="M8.22391 3.2491C8.63762 3.22859 8.95637 2.8766 8.93587 2.46289C8.91536 2.04919 8.56337 1.73043 8.14966 1.75094C6.02913 1.85603 4.46181 2.17085 3.31632 3.31633C2.17085 4.46182 1.85603 6.02913 1.75094 8.14966C1.73043 8.56337 2.04919 8.91536 2.46289 8.93587C2.8766 8.95637 3.22859 8.63762 3.2491 8.22391C3.35213 6.14501 3.65993 5.09405 4.37699 4.37698C4.89979 3.85419 5.60007 3.54894 6.74681 3.38199C7.17293 3.31995 7.6607 3.27701 8.22391 3.2491Z" fill="white"/>
<path d="M3.2491 15.7761C3.22859 15.3624 2.8766 15.0436 2.46289 15.0641C2.04919 15.0846 1.73043 15.4366 1.75094 15.8503C1.85603 17.9709 2.17088 19.5383 3.31635 20.6838C4.46183 21.8292 6.02912 22.144 8.14964 22.2491C8.56334 22.2696 8.91535 21.9509 8.93586 21.5372C8.95637 21.1234 8.63762 20.7714 8.22391 20.7509C6.14501 20.6479 5.09404 20.3401 4.37696 19.6231C3.65992 18.906 3.35212 17.8549 3.2491 15.7761Z" fill="white"/>
<path d="M22.2491 15.8504C22.2696 15.4367 21.9509 15.0846 21.5372 15.0641C21.1234 15.0436 20.7714 15.3624 20.7509 15.7761C20.723 16.3394 20.68 16.8272 20.618 17.2534C20.451 18.4 20.1458 19.1003 19.6231 19.6231C18.906 20.3401 17.8549 20.6479 15.7761 20.7509C15.3624 20.7714 15.0436 21.1234 15.0641 21.5372C15.0846 21.9509 15.4367 22.2696 15.8504 22.2491C17.9709 22.144 19.5383 21.8291 20.6838 20.6837C21.8292 19.5382 22.144 17.9709 22.2491 15.8504Z" fill="white"/>
<path fill-rule="evenodd" clip-rule="evenodd" d="M15.2551 9.17604C15.2631 9.42867 15.2585 9.67714 15.2533 9.89935C15.4352 9.94848 15.6252 10.0218 15.814 10.13C16.314 10.4166 16.7266 10.9027 16.9806 11.6342L16.9902 11.6618L16.9976 11.6901C17.3389 12.9928 17.2777 14.9321 17.0822 16.0201L17.0752 16.0591L17.0642 16.0971C16.8349 16.8845 16.4393 17.4722 15.8125 17.8291C15.2236 18.1643 14.5317 18.2342 13.8492 18.2342C13.7131 18.2342 13.5147 18.2348 13.2754 18.2356C12.1067 18.2396 9.96462 18.2468 9.35963 18.1955C8.3706 18.1116 7.20938 17.4378 6.92001 15.9587L6.91799 15.9483L6.91626 15.9379C6.61339 14.1197 6.80377 12.4439 7.01774 11.6783L7.02337 11.6581L7.03826 11.6144C7.13305 11.3354 7.29463 10.86 7.67199 10.4745C7.94877 10.1917 8.30143 9.99226 8.7378 9.8882C8.73317 9.61375 8.73239 9.31207 8.74874 9.03056C8.78113 8.47293 8.88326 7.78991 9.2532 7.23837C10.6962 5.08698 13.7878 5.35779 14.887 7.49545C15.1703 8.04638 15.239 8.662 15.2551 9.17604ZM10.4989 8.07393C11.3009 6.87829 12.9723 7.05208 13.5531 8.18142C13.682 8.43221 13.7419 8.77788 13.7559 9.22317C13.7616 9.40562 13.7596 9.59091 13.7555 9.78184C12.7975 9.76391 11.3403 9.76216 10.2362 9.78395C10.2326 9.56704 10.2328 9.34816 10.2462 9.11753C10.2748 8.62561 10.3607 8.28007 10.4989 8.07393ZM9.52975 11.3043C10.8867 11.2505 13.699 11.2617 14.4544 11.3038L14.4752 11.3049H14.4961C14.7083 11.3049 14.9031 11.3368 15.068 11.4313C15.2127 11.5143 15.4048 11.6852 15.554 12.0991C15.8114 13.115 15.7762 14.7661 15.6129 15.7151C15.4619 16.2112 15.2655 16.4144 15.0704 16.5255C14.8324 16.661 14.4677 16.7342 13.8492 16.7342C13.6909 16.7342 13.4688 16.7348 13.2074 16.7357C12.0184 16.7394 10.0148 16.7456 9.4864 16.7008C9.04111 16.6631 8.53474 16.3786 8.39402 15.6803C8.13142 14.0923 8.30628 12.6591 8.45714 12.1011C8.55804 11.8067 8.62895 11.6412 8.74393 11.5237C8.82708 11.4388 9.00782 11.3049 9.50004 11.3049H9.5149L9.52975 11.3043Z" fill="white"/>
</svg>
