<svg width="25" height="25" viewBox="0 0 25 25" fill="none" xmlns="http://www.w3.org/2000/svg">
<path d="M9.75 8C9.75 7.37939 10.3316 6.75 11 6.75C11.7531 6.75 12.25 7.29512 12.25 7.83333C12.25 8.03509 12.1865 8.22611 12.0693 8.39315C11.9455 8.56951 11.7896 8.7531 11.6043 8.96424L11.5135 9.06733C11.3584 9.24326 11.1867 9.43796 11.03 9.63536C10.6636 10.0969 10.25 10.7255 10.25 11.5C10.25 11.9142 10.5858 12.25 11 12.25C11.4142 12.25 11.75 11.9142 11.75 11.5C11.75 11.262 11.8791 10.9783 12.2049 10.5679C12.3351 10.4038 12.4761 10.2439 12.6307 10.0684L12.7316 9.95377C12.9179 9.74155 13.1219 9.50434 13.297 9.25496C13.5808 8.85062 13.75 8.36152 13.75 7.83333C13.75 6.3465 12.456 5.25 11 5.25C9.45926 5.25 8.25 6.59556 8.25 8C8.25 8.41421 8.58579 8.75 9 8.75C9.41421 8.75 9.75 8.41421 9.75 8Z" fill="#AD9C6D"/>
<path d="M11 13C10.4477 13 10 13.4477 10 14C10 14.5523 10.4477 15 11 15H11.009C11.5613 15 12.009 14.5523 12.009 14C12.009 13.4477 11.5613 13 11.009 13H11Z" fill="#AD9C6D"/>
<path fill-rule="evenodd" clip-rule="evenodd" d="M12.7856 2.30772C11.6112 2.23068 10.3864 2.23084 9.21442 2.30772C5.49196 2.55191 2.52769 5.51936 2.2838 9.24367C2.23873 9.93173 2.23873 10.6432 2.2838 11.3313C2.37498 12.7237 2.98802 13.9713 3.65939 14.9732C3.81253 15.2752 3.74658 15.7726 3.37879 16.4604L3.35895 16.4975C3.23613 16.727 3.10825 16.9659 3.03332 17.1729C2.953 17.3947 2.85578 17.7848 3.08715 18.1741C3.29686 18.5269 3.6296 18.6504 3.87853 18.698C4.08113 18.7366 4.326 18.7424 4.54095 18.7474L4.58153 18.7484C5.74981 18.7764 6.58103 18.4424 7.24025 17.9627C7.33016 17.8973 7.39844 17.8477 7.45249 17.8095C7.53612 17.8416 7.6449 17.8857 7.79281 17.9458C8.24146 18.1282 8.74859 18.2367 9.21442 18.2672C10.3864 18.3441 11.6112 18.3443 12.7856 18.2672C16.508 18.023 19.4723 15.0556 19.7162 11.3313C19.7613 10.6432 19.7613 9.93173 19.7162 9.24367C19.4723 5.51936 16.508 2.55191 12.7856 2.30772ZM9.31261 3.8045C10.4193 3.73191 11.5785 3.73176 12.6874 3.8045C15.6577 3.99935 18.0246 6.36755 18.2194 9.34169C18.2602 9.96447 18.2602 10.6105 18.2194 11.2333C18.0246 14.2074 15.6577 16.5756 12.6874 16.7704C11.5785 16.8432 10.4193 16.843 9.31261 16.7704C8.99375 16.7495 8.64558 16.6733 8.3576 16.5562L8.33934 16.5488C8.15011 16.4719 7.98115 16.4032 7.84699 16.3566L7.84244 16.3551C7.74087 16.3198 7.51004 16.2396 7.266 16.2693C7.02961 16.298 6.83967 16.4168 6.74826 16.4752C6.64013 16.5443 6.51091 16.6383 6.37408 16.7379L6.35764 16.7499C5.95794 17.0407 5.45682 17.2612 4.65783 17.2496L4.70155 17.1677C5.10328 16.4165 5.53646 15.2546 4.95679 14.2189C4.94661 14.2007 4.93567 14.183 4.92401 14.1657C4.31649 13.2654 3.84821 12.2658 3.78059 11.2333C3.7398 10.6105 3.7398 9.96447 3.78059 9.34169C3.97536 6.36755 6.34225 3.99935 9.31261 3.8045Z" fill="#AD9C6D"/>
<path d="M21.0951 10.3155C21.4733 10.1464 21.9169 10.316 22.0859 10.6941C22.4378 11.4813 22.6571 12.3409 22.7162 13.2439C22.7613 13.9319 22.7613 14.6434 22.7162 15.3315C22.625 16.7239 22.012 17.9715 21.3406 18.9733C21.1875 19.2753 21.2534 19.7728 21.6212 20.4606L21.6411 20.4977C21.7639 20.7272 21.8918 20.9661 21.9667 21.1731C22.047 21.3949 22.1442 21.785 21.9129 22.1742C21.7032 22.5271 21.3704 22.6506 21.1215 22.6981C20.9189 22.7368 20.674 22.7426 20.4591 22.7476L20.4185 22.7485C19.2502 22.7766 18.419 22.4426 17.7598 21.9629C17.6699 21.8975 17.6016 21.8479 17.5475 21.8097C17.4639 21.8418 17.3551 21.8859 17.2072 21.946C16.7586 22.1284 16.2514 22.2369 15.7856 22.2674C14.6136 22.3443 13.3888 22.3445 12.2144 22.2674C10.5951 22.1612 9.1833 21.5396 8.02171 20.5779C7.70266 20.3137 7.65817 19.8409 7.92233 19.5219C8.1865 19.2028 8.65928 19.1583 8.97833 19.4225C9.91751 20.2001 11.034 20.6868 12.3126 20.7706C13.4216 20.8434 14.5807 20.8432 15.6874 20.7706C16.0063 20.7497 16.3544 20.6734 16.6424 20.5564L16.6607 20.549C16.8499 20.472 17.0188 20.4034 17.153 20.3568L17.1576 20.3553C17.2591 20.32 17.49 20.2398 17.734 20.2694C17.9704 20.2981 18.1603 20.417 18.2518 20.4754C18.3598 20.5444 18.4889 20.6383 18.6256 20.7378L18.6424 20.75C19.0421 21.0409 19.5432 21.2614 20.3422 21.2497L20.2985 21.1679C19.8967 20.4166 19.4636 19.2548 20.0432 18.2191C20.0534 18.2009 20.0643 18.1832 20.076 18.1659C20.6835 17.2656 21.1518 16.266 21.2194 15.2334C21.2602 14.6107 21.2602 13.9647 21.2194 13.3419C21.1721 12.6193 20.9969 11.9336 20.7165 11.3062C20.5475 10.9281 20.717 10.4845 21.0951 10.3155Z" fill="#AD9C6D"/>
</svg>
