<svg width="40" height="40" viewBox="0 0 40 40" fill="none" xmlns="http://www.w3.org/2000/svg">
<rect width="40" height="40" rx="20" fill="#FCEAE9"/>
<path d="M23.1245 15.2877C23.0498 13.4084 21.4838 11.8256 19.4144 11.8762C18.9336 11.8879 18.3684 12.0475 17.4817 12.2978L17.3729 12.3285C14.9365 13.0157 12.5467 14.2454 11.978 17.1451C11.8749 17.6708 11.8749 18.251 11.875 19.2244L11.875 20.7756C11.8749 21.749 11.8749 22.3293 11.978 22.8549C12.5467 25.7546 14.9365 26.9843 17.3729 27.6715L17.4817 27.7022C18.3684 27.9525 18.9336 28.1121 19.4144 28.1238C21.4838 28.1745 23.0498 26.5916 23.1245 24.7123C23.1382 24.3674 22.8697 24.0767 22.5248 24.063C22.1799 24.0493 21.8892 24.3178 21.8755 24.6627C21.8275 25.87 20.8213 26.9079 19.445 26.8742C19.1435 26.8668 18.7442 26.7595 17.7123 26.4685C15.3795 25.8105 13.6292 24.7793 13.2046 22.6143C13.1278 22.2229 13.125 21.7723 13.125 20.6977V19.3023C13.125 18.2277 13.1278 17.7771 13.2046 17.3857C13.6292 15.2207 15.3795 14.1895 17.7123 13.5316C18.7442 13.2405 19.1435 13.1332 19.445 13.1258C20.8213 13.0921 21.8275 14.13 21.8755 15.3373C21.8892 15.6822 22.1799 15.9507 22.5248 15.937C22.8697 15.9233 23.1382 15.6326 23.1245 15.2877Z" fill="#E02C1F"/>
<path d="M25.8523 17.4685C25.6048 17.2279 25.2091 17.2335 24.9685 17.481C24.7279 17.7286 24.7335 18.1243 24.981 18.3648C25.1157 18.4957 25.33 18.6643 25.5339 18.8244L25.5814 18.8617C25.7861 19.0225 26.0051 19.1944 26.2123 19.37L26.2183 19.375H18.3333C17.9882 19.375 17.7083 19.6548 17.7083 20C17.7083 20.3452 17.9882 20.625 18.3333 20.625H26.2183L26.2123 20.63C26.0051 20.8056 25.7861 20.9775 25.5814 21.1383L25.5339 21.1756C25.33 21.3357 25.1157 21.5043 24.981 21.6352C24.7335 21.8757 24.7279 22.2714 24.9685 22.519C25.2091 22.7665 25.6048 22.7721 25.8523 22.5315C25.9283 22.4576 26.0798 22.3362 26.306 22.1586L26.356 22.1194C26.5578 21.961 26.7945 21.7752 27.0204 21.5837C27.2625 21.3786 27.514 21.1489 27.7096 20.9193C27.8075 20.8043 27.9042 20.6746 27.9788 20.5351C28.0508 20.4006 28.125 20.2152 28.125 20C28.125 19.7848 28.0508 19.5994 27.9788 19.4649C27.9042 19.3254 27.8075 19.1957 27.7096 19.0807C27.514 18.8511 27.2625 18.6214 27.0204 18.4163C26.7945 18.2248 26.5578 18.039 26.356 17.8807L26.306 17.8414C26.0798 17.6638 25.9283 17.5424 25.8523 17.4685Z" fill="#E02C1F"/>
</svg>
