<svg width="40" height="40" viewBox="0 0 40 40" fill="none" xmlns="http://www.w3.org/2000/svg">
<rect width="40" height="40" rx="20" fill="#EEEFEB"/>
<path d="M17.9167 24.3753C17.5715 24.3753 17.2917 24.0955 17.2917 23.7503L17.2917 18.7503C17.2917 18.4051 17.5715 18.1253 17.9167 18.1253C18.2618 18.1253 18.5417 18.4051 18.5417 18.7503L18.5417 23.7503C18.5417 24.0955 18.2618 24.3753 17.9167 24.3753Z" fill="#515E32"/>
<path d="M22.7083 18.7503C22.7083 18.4051 22.4285 18.1253 22.0833 18.1253C21.7382 18.1253 21.4583 18.4051 21.4583 18.7503V23.7503C21.4583 24.0955 21.7382 24.3753 22.0833 24.3753C22.4285 24.3753 22.7083 24.0955 22.7083 23.7503V18.7503Z" fill="#515E32"/>
<path fill-rule="evenodd" clip-rule="evenodd" d="M20.0552 11.042H20.0018C19.5807 11.042 19.2236 11.042 18.9272 11.069C18.6126 11.0976 18.3196 11.1596 18.0363 11.3103C17.9245 11.3697 17.8178 11.4383 17.7173 11.5154C17.4627 11.7107 17.2848 11.9516 17.1283 12.2259C16.9808 12.4845 16.8326 12.8095 16.658 13.1926L16.3088 13.9587H12.5C12.1548 13.9587 11.875 14.2385 11.875 14.5837C11.875 14.9288 12.1548 15.2087 12.5 15.2087H13.1616L13.6319 22.9996C13.6948 24.041 13.7447 24.8673 13.8485 25.5274C13.9549 26.2044 14.126 26.7682 14.4693 27.2614C14.7833 27.7126 15.1878 28.0935 15.6571 28.3797C16.1701 28.6926 16.7432 28.8294 17.4253 28.8949C18.0905 28.9587 18.9183 28.9587 19.9615 28.9587H20.0263C21.0681 28.9587 21.895 28.9587 22.5593 28.895C23.2407 28.8297 23.8131 28.6931 24.3258 28.3808C24.7948 28.0951 25.1992 27.7149 25.5133 27.2644C25.8567 26.772 26.0283 26.209 26.1355 25.533C26.2401 24.8739 26.2911 24.0486 26.3554 23.0087L26.8376 15.2087H27.5C27.8452 15.2087 28.125 14.9288 28.125 14.5837C28.125 14.2385 27.8452 13.9587 27.5 13.9587H23.7714L23.3618 13.1137C23.1826 12.7442 23.0306 12.4305 22.8809 12.1811C22.722 11.9163 22.5433 11.6843 22.2918 11.4967C22.1924 11.4225 22.0871 11.3566 21.977 11.2995C21.6985 11.1549 21.4117 11.0954 21.1042 11.0679C20.8145 11.042 20.4658 11.042 20.0552 11.042ZM25.5852 15.2087H23.3935C23.3847 15.2089 23.3758 15.2089 23.3669 15.2087H16.7242C16.715 15.2089 16.7058 15.2089 16.6966 15.2087H14.4139L14.8777 22.892C14.943 23.9728 14.9899 24.7393 15.0833 25.3333C15.1751 25.9172 15.3037 26.2721 15.4953 26.5474C15.7101 26.8561 15.9869 27.1167 16.308 27.3125C16.5944 27.4872 16.9563 27.5941 17.5447 27.6506C18.1432 27.708 18.9111 27.7087 19.994 27.7087C21.0754 27.7087 21.8423 27.708 22.44 27.6507C23.0277 27.5944 23.3893 27.4876 23.6754 27.3133C23.9963 27.1178 24.2731 26.8576 24.488 26.5494C24.6796 26.2745 24.8085 25.9202 24.901 25.3372C24.9951 24.7441 25.043 23.9787 25.1098 22.8994L25.5852 15.2087ZM22.3822 13.9587H17.6825L17.7842 13.7356C17.973 13.3213 18.098 13.0486 18.214 12.8454C18.3241 12.6524 18.403 12.5648 18.4782 12.5072C18.5238 12.4721 18.5723 12.441 18.6232 12.4139C18.7068 12.3695 18.8193 12.3339 19.0405 12.3138C19.2735 12.2926 19.5735 12.292 20.0288 12.292C20.4729 12.292 20.7654 12.2926 20.9928 12.3129C21.2087 12.3322 21.319 12.3663 21.4014 12.409C21.4514 12.435 21.4992 12.465 21.5444 12.4987C21.6188 12.5541 21.6976 12.6386 21.8091 12.8244C21.9267 13.0202 22.0547 13.283 22.2485 13.6827L22.3822 13.9587Z" fill="#515E32"/>
</svg>
