<svg width="20" height="20" viewBox="0 0 20 20" fill="none" xmlns="http://www.w3.org/2000/svg">
<path fill-rule="evenodd" clip-rule="evenodd" d="M12.7085 5.41685C12.7085 6.45238 13.548 7.29185 14.5835 7.29185C15.619 7.29185 16.4585 6.45238 16.4585 5.41685C16.4585 4.38131 15.619 3.54185 14.5835 3.54185C13.548 3.54185 12.7085 4.38131 12.7085 5.41685ZM14.5835 6.04185C14.2383 6.04185 13.9585 5.76202 13.9585 5.41685C13.9585 5.07167 14.2383 4.79185 14.5835 4.79185C14.9287 4.79185 15.2085 5.07167 15.2085 5.41685C15.2085 5.76202 14.9287 6.04185 14.5835 6.04185Z" fill="#515E32"/>
<path d="M12.1093 8.76406C12.3534 8.51998 12.3534 8.12426 12.1093 7.88018C11.8652 7.6361 11.4695 7.6361 11.2254 7.88018L11.0148 8.09083C10.8981 8.03094 10.7722 7.97711 10.637 7.92944C9.82692 7.64393 8.98112 7.98507 8.50465 8.55342C8.25803 8.8476 8.08668 9.22714 8.07241 9.65402C8.05792 10.0876 8.20731 10.5206 8.51881 10.9077C8.64731 11.0674 8.7687 11.2006 8.86726 11.3088L8.88468 11.328C8.99203 11.4459 9.05976 11.5222 9.11119 11.5934C9.18407 11.6943 9.22225 11.7746 9.21227 11.9687C9.20952 12.0221 9.17446 12.136 9.04425 12.2732C8.91866 12.4055 8.73569 12.5239 8.52229 12.5895C8.25216 12.6725 7.89268 12.5698 7.6422 12.29C7.48704 12.1166 7.42866 11.9639 7.40295 11.8465C7.38011 11.7422 7.38002 11.6681 7.37991 11.5693C7.37987 11.5395 7.37983 11.5075 7.37917 11.4717C7.37273 11.1265 7.08774 10.852 6.74263 10.8584C6.39751 10.8648 6.12295 11.1498 6.12938 11.495C6.12967 11.5104 6.12955 11.5293 6.1294 11.5513C6.12807 11.7488 6.12504 12.1986 6.40593 12.6997L6.23141 12.8742C5.98733 13.1183 5.98733 13.514 6.23141 13.7581C6.47549 14.0021 6.87122 14.0021 7.1153 13.7581L7.28687 13.5865C7.75618 13.8522 8.32829 13.9568 8.88959 13.7843C9.30474 13.6567 9.67453 13.4248 9.95082 13.1338C10.2225 12.8476 10.4384 12.4651 10.4606 12.0329C10.4861 11.5368 10.3535 11.1785 10.1244 10.8614C10.0249 10.7236 9.90886 10.5961 9.80905 10.4865L9.79604 10.4722C9.69497 10.3612 9.59658 10.2532 9.49268 10.124C9.34924 9.94578 9.31822 9.80027 9.32171 9.69578C9.32543 9.58456 9.37047 9.46633 9.46257 9.35648C9.66352 9.11677 9.98438 9.0248 10.2215 9.10836C10.4494 9.1887 10.5874 9.27926 10.6722 9.35678C10.9057 9.57036 10.8919 9.81665 10.8708 10.1927L10.8664 10.2724C10.848 10.6171 11.1126 10.9114 11.4573 10.9297C11.8019 10.9481 12.0963 10.6835 12.1146 10.3388C12.1157 10.3179 12.1178 10.292 12.1203 10.2615C12.1404 10.0163 12.1843 9.47973 11.9165 8.95683L12.1093 8.76406Z" fill="#515E32"/>
<path fill-rule="evenodd" clip-rule="evenodd" d="M16.2164 1.31024C16.8403 1.45352 17.4721 1.68784 17.8923 2.10801C18.3125 2.52818 18.5468 3.16005 18.6901 3.78389C18.8381 4.42835 18.9107 5.16607 18.9408 5.89107C19.0011 7.34317 18.8932 8.82697 18.8235 9.58538C18.7801 10.0587 18.5864 10.4957 18.284 10.8475C16.0263 13.4744 13.6859 15.8659 11.1304 18.1539C9.96118 19.2009 8.21538 19.212 6.99778 18.2692C4.98971 16.7144 3.28587 15.0106 1.73109 13.0025C0.788334 11.7849 0.799439 10.0391 1.84637 8.86986C4.13443 6.31444 6.52586 3.97404 9.1528 1.71627C9.50464 1.41388 9.94164 1.22025 10.4149 1.17676C11.1733 1.10707 12.6571 0.999238 14.1092 1.05948C14.8342 1.08956 15.572 1.16223 16.2164 1.31024ZM14.0574 2.30841C12.6872 2.25156 11.2673 2.35371 10.5293 2.42152C10.3258 2.44021 10.1311 2.52367 9.96756 2.66426C7.38129 4.88706 5.02885 7.18941 2.77762 9.70369C2.15264 10.4017 2.12778 11.4731 2.71946 12.2373C4.20959 14.1618 5.83846 15.7907 7.76304 17.2808C8.52722 17.8725 9.59861 17.8477 10.2966 17.2227C12.8109 14.9715 15.1132 12.619 17.336 10.0327C17.4766 9.86918 17.5601 9.67448 17.5788 9.471C17.6466 8.73305 17.7487 7.31311 17.6919 5.94288C17.6634 5.25671 17.5958 4.60362 17.4718 4.0637C17.343 3.50318 17.1736 3.15712 17.0084 2.9919C16.8432 2.82668 16.4971 2.65726 15.9366 2.52852C15.3967 2.40452 14.7436 2.33687 14.0574 2.30841Z" fill="#515E32"/>
</svg>
