<svg width="24" height="24" viewBox="0 0 24 24" fill="none" xmlns="http://www.w3.org/2000/svg">
<path fill-rule="evenodd" clip-rule="evenodd" d="M4.95021 3.25007C4.28536 3.25003 3.71247 3.25 3.25374 3.31168C2.7621 3.37778 2.29084 3.52684 1.90859 3.90908C1.52634 4.29133 1.37729 4.76259 1.31119 5.25423C1.24951 5.71296 1.24954 6.2858 1.24958 6.95065L1.24958 15.0323C1.24956 15.4721 1.24955 15.8514 1.27776 16.1627C1.3076 16.4919 1.37365 16.8179 1.55102 17.1251C1.7485 17.4671 2.03254 17.7512 2.37458 17.9486C2.68179 18.126 3.00775 18.1921 3.33693 18.2219C3.48753 18.2355 3.65405 18.2426 3.83564 18.2462C4.17282 19.6815 5.46141 20.7501 6.99958 20.7501C8.53637 20.7501 9.82403 19.6834 10.1626 18.2501L13.8365 18.2501C14.1751 19.6834 15.4628 20.7501 16.9996 20.7501C18.5377 20.7501 19.8263 19.6815 20.1635 18.2462C20.3451 18.2426 20.5116 18.2355 20.6622 18.2219C20.9914 18.1921 21.3174 18.126 21.6246 17.9486C21.9666 17.7512 22.2507 17.4671 22.4481 17.1251C22.6255 16.8179 22.6916 16.4919 22.7214 16.1627C22.7496 15.8514 22.7496 15.4721 22.7496 15.0323L22.7496 12.2614C22.75 11.9171 22.7503 11.6123 22.6679 11.315C22.5856 11.0175 22.4285 10.7564 22.251 10.4613L20.5 7.54298C20.3008 7.21099 20.1247 6.91738 19.9531 6.68563C19.7671 6.43439 19.5539 6.20915 19.2589 6.04212C18.9639 5.87509 18.661 5.80817 18.3499 5.77793C18.0629 5.75003 17.7205 5.75005 17.3333 5.75007L15.7314 5.75007C15.7222 5.57266 15.7085 5.40711 15.688 5.25423C15.6219 4.76259 15.4728 4.29133 15.0906 3.90908C14.7083 3.52683 14.2371 3.37778 13.7454 3.31168C13.2867 3.25 12.7139 3.25003 12.049 3.25007L4.95021 3.25007ZM20.1616 16.746C20.3036 16.7429 20.4226 16.7375 20.5268 16.728C20.752 16.7076 20.8337 16.6732 20.8746 16.6496C20.9886 16.5838 21.0833 16.4891 21.1491 16.3751C21.1727 16.3342 21.2071 16.2525 21.2275 16.0273C21.2489 15.7919 21.2496 15.4812 21.2496 15.0001L21.2496 12.331C21.2496 11.8783 21.2433 11.7911 21.2224 11.7153C21.2014 11.6396 21.1619 11.5616 20.9289 11.1734L19.2304 8.34246C19.0096 7.97444 18.8706 7.74438 18.7475 7.57819C18.6342 7.42506 18.5687 7.37509 18.5198 7.34742C18.4709 7.31975 18.3944 7.28932 18.2048 7.27089C17.999 7.25089 17.7302 7.25007 17.301 7.25007L15.7496 7.25007L15.7496 14.4991C16.1344 14.3387 16.5566 14.2501 16.9996 14.2501C18.5349 14.2501 19.8216 15.3147 20.1616 16.746ZM14.2816 15.7175C14.2608 15.6487 14.2496 15.5757 14.2496 15.5001L14.2496 7.00007C14.2496 6.27176 14.248 5.80098 14.2014 5.4541C14.1576 5.1288 14.087 5.02684 14.0299 4.96974C13.9728 4.91265 13.8709 4.84204 13.5456 4.7983C13.1987 4.75166 12.7279 4.75007 11.9996 4.75007L4.99958 4.75007C4.27127 4.75007 3.80049 4.75167 3.45361 4.7983C3.1283 4.84204 3.02634 4.91265 2.96925 4.96974C2.91216 5.02683 2.84155 5.1288 2.79781 5.4541C2.75117 5.80098 2.74958 6.27176 2.74958 7.00007L2.74958 15.0001C2.74958 15.4812 2.7503 15.7919 2.77164 16.0273C2.79204 16.2525 2.82647 16.3342 2.85006 16.3751C2.91589 16.4891 3.01057 16.5838 3.12458 16.6496C3.16544 16.6732 3.24718 16.7076 3.47233 16.728C3.57656 16.7375 3.69554 16.7429 3.83752 16.746C4.17759 15.3147 5.46426 14.2501 6.99958 14.2501C8.53637 14.2501 9.82403 15.3167 10.1626 16.7501L13.8365 16.7501C13.9247 16.3769 14.0772 16.0286 14.2816 15.7175ZM5.24958 17.5001L5.24958 17.5021C5.25067 18.4677 6.03375 19.2501 6.99958 19.2501C7.96608 19.2501 8.74958 18.4666 8.74958 17.5001C8.74958 16.5336 7.96608 15.7501 6.99958 15.7501C6.03308 15.7501 5.24958 16.5336 5.24958 17.5001ZM15.2496 17.5021C15.2507 18.4677 16.0338 19.2501 16.9996 19.2501C17.9661 19.2501 18.7496 18.4666 18.7496 17.5001C18.7496 16.5336 17.9661 15.7501 16.9996 15.7501C16.0331 15.7501 15.2496 16.5336 15.2496 17.5001L15.2496 17.5021Z" fill="#A2A2A2"/>
</svg>
