<svg width="88" height="88" viewBox="0 0 88 88" fill="none" xmlns="http://www.w3.org/2000/svg">
<path d="M44 0C19.7445 0 0 19.7445 0 44C0 68.2555 19.7445 88 44 88C68.2555 88 88 68.2555 88 44C88 19.7445 68.2555 0 44 0ZM44 80.605C23.8118 80.605 7.39496 64.2252 7.39496 44C7.39496 23.7748 23.8118 7.39496 44 7.39496C64.2252 7.39496 80.605 23.7748 80.605 44C80.605 64.2252 64.2252 80.605 44 80.605Z" fill="#45AD22"/>
<path d="M44.0001 7.39453C23.8118 7.39453 7.39502 23.7744 7.39502 43.9996C7.39502 64.2248 23.8118 80.6046 44.0001 80.6046C64.2253 80.6046 80.6051 64.2248 80.6051 43.9996C80.6051 23.7744 64.2253 7.39453 44.0001 7.39453Z" fill="#45AD22"/>
<path d="M61.6469 30.7892C60.2311 29.3385 57.936 29.3385 56.5202 30.7892L38.4277 49.3318L31.4971 42.229C30.0813 40.7783 27.7858 40.7783 26.3703 42.229C24.9547 43.6799 24.9547 46.0322 26.3703 47.4831L35.8644 57.213C36.5723 57.9384 37.4999 58.3012 38.4277 58.3012C39.3555 58.3012 40.2832 57.9384 40.991 57.213L61.6469 36.0435C63.0625 34.5924 63.0625 32.2403 61.6469 30.7892Z" fill="white"/>
</svg>
