<svg width="20" height="20" viewBox="0 0 20 20" fill="none" xmlns="http://www.w3.org/2000/svg">
<path fill-rule="evenodd" clip-rule="evenodd" d="M15.627 2.85634C16.8883 2.40708 18.3159 3.01546 18.8 4.26808C19.0403 4.88972 19.0024 5.47595 18.7002 6.0026C18.4229 6.48596 17.9525 6.86511 17.4462 7.19062C17.2727 7.30214 17.0943 7.41264 16.9113 7.52599C16.2322 7.94663 15.4896 8.40663 14.698 9.10482C13.6994 9.98555 12.7159 11.0547 11.8339 12.118C10.9568 13.1755 10.21 14.1906 9.68192 14.9431C9.51335 15.1832 9.30958 15.4851 9.14644 15.7294C9.0652 15.851 8.99466 15.9573 8.94445 16.0333L8.88568 16.1223L8.86748 16.15C8.40662 16.8751 7.5902 17.3025 6.7271 17.2917C5.8619 17.2809 5.05492 16.8315 4.61408 16.0909C3.81597 14.7501 3.23264 14.2759 3.03366 14.1422C2.87349 14.0346 2.70287 13.9472 2.49981 13.8433L2.4918 13.8392C2.30167 13.7419 2.06991 13.6233 1.86046 13.4708C1.64015 13.3103 1.4249 13.0996 1.26983 12.8033C1.11497 12.5074 1.0415 12.1672 1.0415 11.7782C1.0415 10.4274 2.1747 9.3755 3.5183 9.3755C3.52599 9.3755 3.53367 9.37565 3.54136 9.37593C4.41445 9.40816 5.19722 9.75013 5.85473 10.192C6.10906 10.3629 6.36896 10.5646 6.63321 10.8018C7.03403 10.271 7.48491 9.69554 7.97461 9.10518C8.95123 7.9278 10.1123 6.65445 11.3655 5.54916C12.5915 4.46781 14.0486 3.41855 15.627 2.85634ZM7.81993 15.4679L7.84182 15.4347L7.90178 15.3438C7.95282 15.2666 8.02447 15.1586 8.10703 15.035C8.27148 14.7888 8.4817 14.4772 8.65878 14.225C9.2004 13.4533 9.96769 12.41 10.8718 11.32C11.7784 10.227 12.8075 9.10547 13.8712 8.16735C14.7502 7.39207 15.604 6.86402 16.2898 6.43991C16.4612 6.33391 16.6221 6.2344 16.7702 6.13915C17.2296 5.84387 17.4915 5.59752 17.6161 5.38046C17.7158 5.20668 17.7495 5.01756 17.634 4.71871C17.4066 4.13036 16.7028 3.80006 16.0464 4.03387C14.6838 4.51922 13.3662 5.4513 12.1923 6.48663C11.0042 7.53456 9.88873 8.7555 8.9367 9.90322C8.28215 10.6923 7.6975 11.4557 7.21178 12.1183C7.10202 12.268 6.93138 12.3612 6.74609 12.3725C6.5608 12.3839 6.38003 12.3124 6.25275 12.1772C5.86275 11.7631 5.49528 11.4565 5.15753 11.2295C4.62947 10.8746 4.07405 10.6493 3.50718 10.6255C2.81093 10.6312 2.2915 11.1686 2.2915 11.7782C2.2915 12.0074 2.33383 12.1406 2.37732 12.2237C2.4206 12.3064 2.48628 12.3802 2.59622 12.4602C2.71535 12.547 2.86117 12.624 3.0659 12.7288C3.07464 12.7333 3.08348 12.7378 3.09241 12.7424C3.27898 12.8378 3.50789 12.9549 3.73086 13.1047C4.12195 13.3675 4.82251 13.9972 5.68819 15.4515C5.89822 15.8044 6.29612 16.0363 6.74268 16.0418C7.18905 16.0474 7.59396 15.8253 7.81402 15.4771L7.81993 15.4679Z" fill="#515E32"/>
</svg>
