<svg width="23" height="19" viewBox="0 0 23 19" fill="none" xmlns="http://www.w3.org/2000/svg">
<path fill-rule="evenodd" clip-rule="evenodd" d="M4.53907 0.662666C3.87423 0.662629 3.30134 0.6626 2.8426 0.724275C2.35097 0.790374 1.8797 0.939433 1.49746 1.32168C1.11521 1.70393 0.966152 2.17519 0.900054 2.66683C0.838379 3.12556 0.838407 3.6984 0.838443 4.36324L0.838446 12.4449C0.83843 12.8847 0.838417 13.264 0.86663 13.5753C0.896464 13.9045 0.962521 14.2305 1.13989 14.5377C1.33737 14.8797 1.62141 15.1637 1.96345 15.3612C2.27066 15.5386 2.59662 15.6047 2.9258 15.6345C3.07639 15.6481 3.24292 15.6552 3.42451 15.6588C3.76169 17.0941 5.05028 18.1627 6.58844 18.1627C8.12523 18.1627 9.4129 17.096 9.75148 15.6627L13.4254 15.6627C13.764 17.096 15.0517 18.1627 16.5884 18.1627C18.1266 18.1627 19.4152 17.0941 19.7524 15.6588C19.934 15.6552 20.1005 15.6481 20.2511 15.6345C20.5803 15.6047 20.9062 15.5386 21.2134 15.3612C21.5555 15.1637 21.8395 14.8797 22.037 14.5377C22.2144 14.2305 22.2804 13.9045 22.3103 13.5753C22.3385 13.264 22.3385 12.8847 22.3384 12.4449L22.3385 9.67402C22.3389 9.32974 22.3392 9.02494 22.2568 8.72755C22.1744 8.43014 22.0173 8.16895 21.8399 7.87392L20.0888 4.95558C19.8897 4.62358 19.7135 4.32998 19.5419 4.09823C19.3559 3.84699 19.1427 3.62175 18.8477 3.45472C18.5527 3.28769 18.2499 3.22077 17.9388 3.19052C17.6517 3.16263 17.3094 3.16265 16.9222 3.16267L15.3202 3.16267C15.3111 2.98526 15.2974 2.81971 15.2768 2.66683C15.2107 2.17519 15.0617 1.70393 14.6794 1.32168C14.2972 0.939432 13.8259 0.790373 13.3343 0.724274C12.8756 0.6626 12.3027 0.66263 11.6379 0.662666L4.53907 0.662666ZM19.7505 14.1586C19.8925 14.1555 20.0115 14.1501 20.1157 14.1406C20.3408 14.1202 20.4226 14.0858 20.4635 14.0622C20.5775 13.9964 20.6721 13.9017 20.738 13.7877C20.7616 13.7468 20.796 13.6651 20.8164 13.4399C20.8377 13.2045 20.8384 12.8938 20.8384 12.4127L20.8384 9.74362C20.8384 9.29089 20.8322 9.20366 20.8112 9.12794C20.7903 9.05223 20.7507 8.97423 20.5178 8.58601L18.8192 5.75506C18.5984 5.38704 18.4594 5.15698 18.3364 4.99079C18.223 4.83766 18.1576 4.78769 18.1087 4.76002C18.0598 4.73235 17.9833 4.70192 17.7936 4.68349C17.5878 4.66349 17.3191 4.66267 16.8899 4.66267L15.3384 4.66267L15.3384 11.9117C15.7232 11.7513 16.1455 11.6627 16.5884 11.6627C18.1238 11.6627 19.4104 12.7273 19.7505 14.1586ZM13.8705 13.1301C13.8496 13.0613 13.8384 12.9883 13.8384 12.9127L13.8384 4.41267C13.8384 3.68436 13.8369 3.21358 13.7902 2.8667C13.7465 2.54139 13.6759 2.43943 13.6188 2.38234C13.5617 2.32525 13.4597 2.25463 13.1344 2.2109C12.7875 2.16426 12.3168 2.16267 11.5884 2.16267L4.58845 2.16267C3.86014 2.16267 3.38936 2.16426 3.04248 2.2109C2.71717 2.25464 2.61521 2.32525 2.55812 2.38234C2.50102 2.43943 2.43041 2.54139 2.38668 2.8667C2.34004 3.21358 2.33845 3.68436 2.33845 4.41267L2.33845 12.4127C2.33845 12.8938 2.33917 13.2045 2.36051 13.4399C2.38091 13.6651 2.41534 13.7468 2.43893 13.7877C2.50476 13.9017 2.59943 13.9964 2.71345 14.0622C2.75431 14.0858 2.83605 14.1202 3.06119 14.1406C3.16543 14.1501 3.2844 14.1555 3.42638 14.1586C3.76646 12.7273 5.05312 11.6627 6.58844 11.6627C8.12524 11.6627 9.4129 12.7293 9.75148 14.1627L13.4254 14.1627C13.5136 13.7895 13.666 13.4412 13.8705 13.1301ZM4.83845 14.9127L4.83845 14.9147C4.83954 15.8803 5.62262 16.6627 6.58844 16.6627C7.55494 16.6627 8.33844 15.8792 8.33844 14.9127C8.33844 13.9462 7.55494 13.1627 6.58844 13.1627C5.62195 13.1627 4.83844 13.9462 4.83845 14.9127ZM14.8384 14.9147C14.8395 15.8803 15.6226 16.6627 16.5884 16.6627C17.5549 16.6627 18.3384 15.8792 18.3384 14.9127C18.3384 13.9462 17.5549 13.1627 16.5884 13.1627C15.6219 13.1627 14.8384 13.9462 14.8384 14.9127L14.8384 14.9147Z" fill="#FFA600"/>
</svg>
