<svg width="20" height="20" viewBox="0 0 20 20" fill="none" xmlns="http://www.w3.org/2000/svg">
<path fill-rule="evenodd" clip-rule="evenodd" d="M10.0003 13.1253C8.27444 13.1253 6.87533 11.7262 6.87533 10.0003C6.87533 8.27444 8.27444 6.87533 10.0003 6.87533C11.7262 6.87533 13.1253 8.27444 13.1253 10.0003C13.1253 11.7262 11.7262 13.1253 10.0003 13.1253ZM8.12533 10.0003C8.12533 11.0359 8.96479 11.8753 10.0003 11.8753C11.0359 11.8753 11.8753 11.0359 11.8753 10.0003C11.8753 8.96479 11.0359 8.12533 10.0003 8.12533C8.96479 8.12533 8.12533 8.96479 8.12533 10.0003Z" fill="#A2A2A2"/>
<path fill-rule="evenodd" clip-rule="evenodd" d="M10.0003 3.54199C7.85819 3.54199 6.02195 4.48483 4.60058 5.59448C3.17793 6.70512 2.12638 8.01678 1.53817 8.84159L1.49382 8.90344C1.28286 9.19684 1.04199 9.53182 1.04199 10.0003C1.04199 10.4688 1.28286 10.8038 1.49382 11.0972L1.53817 11.1591C2.12638 11.9839 3.17793 13.2955 4.60058 14.4062C6.02195 15.5158 7.85819 16.4587 10.0003 16.4587C12.1425 16.4587 13.9787 15.5158 15.4001 14.4062C16.8227 13.2955 17.8743 11.9839 18.4625 11.1591L18.5068 11.0972C18.7178 10.8038 18.9587 10.4688 18.9587 10.0003C18.9587 9.53182 18.7178 9.19684 18.5068 8.90344L18.4625 8.84159C17.8743 8.01678 16.8227 6.70512 15.4001 5.59448C13.9787 4.48483 12.1425 3.54199 10.0003 3.54199ZM2.55588 9.56737C3.10605 8.7959 4.07731 7.58881 5.36979 6.57978C6.66355 5.56975 8.23478 4.79199 10.0003 4.79199C11.7659 4.79199 13.3371 5.56975 14.6309 6.57978C15.9233 7.58881 16.8946 8.7959 17.4448 9.56737C17.5809 9.75822 17.6456 9.85141 17.6843 9.92559C17.7088 9.97275 17.7087 9.98568 17.7087 9.99833L17.7087 10.0003L17.7087 10.0023C17.7087 10.015 17.7088 10.0279 17.6843 10.0751C17.6456 10.1492 17.5809 10.2424 17.4448 10.4333C16.8946 11.2048 15.9233 12.4118 14.6309 13.4209C13.3371 14.4309 11.7659 15.2087 10.0003 15.2087C8.23478 15.2087 6.66356 14.4309 5.36979 13.4209C4.07731 12.4118 3.10605 11.2048 2.55588 10.4333C2.41978 10.2424 2.35501 10.1492 2.31639 10.0751C2.29185 10.0279 2.29192 10.015 2.29199 10.0023L2.29199 10.0003L2.29199 9.99833C2.29192 9.98568 2.29185 9.97275 2.31639 9.92559C2.35501 9.85141 2.41978 9.75822 2.55588 9.56737Z" fill="#A2A2A2"/>
</svg>
