<svg width="20" height="20" viewBox="0 0 20 20" fill="none" xmlns="http://www.w3.org/2000/svg">
<path d="M6.57943 11.5714C5.44335 11.0869 4.45814 10.4149 3.65023 9.73522L2.10996 11.2755C1.9883 11.3972 1.82831 11.4588 1.66831 11.4588H1.66742C1.50742 11.4588 1.34743 11.398 1.22577 11.2755C0.981602 11.0313 0.981602 10.6355 1.22577 10.3914L2.7285 8.88865C1.75823 7.91859 1.20211 7.09806 1.14624 7.01393C0.954573 6.72643 1.032 6.33889 1.3195 6.14723C1.607 5.95556 1.99453 6.03307 2.1862 6.32057C2.21786 6.36723 5.40118 11.0422 9.99951 11.0422C14.5978 11.0422 17.7812 6.36725 17.8129 6.31975C18.0046 6.03309 18.3929 5.95556 18.6795 6.14723C18.9662 6.33889 19.0437 6.72645 18.8529 7.01311C18.797 7.09721 18.2413 7.91707 17.2718 8.88658L18.7766 10.3914C19.0208 10.6355 19.0208 11.0313 18.7766 11.2755C18.655 11.3972 18.495 11.4588 18.335 11.4588H18.3341C18.1741 11.4588 18.0141 11.398 17.8924 11.2755L16.3502 9.73325C15.5425 10.4129 14.5574 11.0851 13.4215 11.5698L14.2868 13.0119C14.4643 13.3078 14.3684 13.6919 14.0726 13.8694C13.9718 13.9294 13.861 13.9586 13.7518 13.9586C13.5393 13.9586 13.3326 13.8503 13.2151 13.6553L12.2164 11.9907C11.5208 12.1805 10.7803 12.2914 9.99951 12.2914C9.21947 12.2914 8.47965 12.1815 7.78474 11.9921L6.78681 13.6553C6.66931 13.8503 6.4626 13.9586 6.2501 13.9586C6.14094 13.9586 6.03014 13.9303 5.9293 13.8694C5.63347 13.6919 5.53761 13.3078 5.71511 13.0119L6.57943 11.5714Z" fill="#A2A2A2"/>
</svg>
