<svg width="21" height="22" viewBox="0 0 21 22" fill="none" xmlns="http://www.w3.org/2000/svg">
<path fill-rule="evenodd" clip-rule="evenodd" d="M17.083 13.9998C17.083 12.7572 16.0756 11.7498 14.833 11.7498C13.5904 11.7498 12.583 12.7572 12.583 13.9998C12.583 15.2425 13.5904 16.2498 14.833 16.2498C16.0756 16.2498 17.083 15.2425 17.083 13.9998ZM14.833 13.2498C15.2472 13.2498 15.583 13.5856 15.583 13.9998C15.583 14.414 15.2472 14.7498 14.833 14.7498C14.4188 14.7498 14.083 14.414 14.083 13.9998C14.083 13.5856 14.4188 13.2498 14.833 13.2498Z" fill="#515E32"/>
<path fill-rule="evenodd" clip-rule="evenodd" d="M0.584044 4.96033H0.583009C0.583009 3.75508 1.31531 2.61622 2.50569 2.25037C4.50234 1.63671 8.04673 0.741985 13.0491 0.302036L13.1334 0.29453C13.9957 0.217285 15.3442 0.0964951 16.2479 1.23707C16.9194 2.08468 17.0885 3.26889 17.0829 4.30371C17.0789 5.03579 16.9865 5.7694 16.8639 6.40224C16.8644 6.40234 16.865 6.40244 16.8655 6.40254C17.763 6.57467 18.5144 6.86116 19.0759 7.46671C19.6317 8.06617 19.8664 8.81419 19.9764 9.6974C20.083 10.5538 20.083 11.6442 20.083 13.003V15.1275C20.083 16.5211 20.0831 17.65 19.952 18.5391C19.8148 19.4701 19.5208 20.2449 18.8552 20.8532C18.1971 21.4546 17.4303 21.6832 16.5273 21.7366C15.675 21.7869 14.6205 21.6839 13.3321 21.558L13.2707 21.552C10.6562 21.2965 7.72548 20.8487 4.92674 20.0925L4.75152 20.0453C3.22272 19.6333 2.13214 19.3394 1.35599 18.3206C0.943288 17.7789 0.755178 17.1889 0.666623 16.5025C0.582968 15.8542 0.582986 15.0655 0.583009 14.1089V4.99976C0.583009 4.98657 0.583356 4.97342 0.584044 4.96033ZM13.1805 1.79627C14.205 1.70617 14.715 1.71772 15.0721 2.16856C15.4189 2.60625 15.588 3.35895 15.5829 4.29553C15.5793 4.95445 15.4901 5.62988 15.3737 6.20575C14.7993 6.1521 14.1556 6.10751 13.4392 6.05787L13.3886 6.05437C8.49273 5.71511 4.40641 5.02556 2.1716 4.45217C2.31049 4.0736 2.59974 3.7907 2.94636 3.68417C4.85457 3.0977 8.2951 2.22593 13.1805 1.79627ZM2.08301 5.97621V14.0612C2.08301 15.0774 2.08444 15.7692 2.15429 16.3106C2.22063 16.8248 2.34231 17.1401 2.54919 17.4116C2.98286 17.9809 3.53888 18.1637 5.31802 18.6444C8.01299 19.3726 10.8568 19.809 13.4166 20.0591C14.7815 20.1924 15.7181 20.2818 16.4388 20.2392C17.1224 20.1988 17.5178 20.0434 17.8433 19.7459C18.1615 19.4551 18.3593 19.0584 18.4681 18.3204C18.5811 17.5533 18.583 16.5354 18.583 15.068V13.0544C18.583 11.6323 18.5816 10.6356 18.4879 9.88278C18.3961 9.14594 18.2272 8.75754 17.976 8.48658C17.7304 8.22171 17.3479 8.02239 16.583 7.87569C15.8067 7.72682 14.7649 7.65333 13.2849 7.55078C8.53431 7.22159 4.487 6.56446 2.08301 5.97621Z" fill="#515E32"/>
</svg>
