<svg width="48" height="48" viewBox="0 0 48 48" fill="none" xmlns="http://www.w3.org/2000/svg">
<path d="M0 24C0 10.7452 10.7452 0 24 0C37.2548 0 48 10.7452 48 24C48 37.2548 37.2548 48 24 48C10.7452 48 0 37.2548 0 24Z" fill="#FFF6E6"/>
<path d="M23.491 24.7512C23.4216 24.7501 23.3413 24.75 23.2422 24.75C22.828 24.75 22.4922 24.4142 22.4922 24C22.4922 23.5858 22.828 23.25 23.2422 23.25L23.2766 23.25C23.4817 23.2499 23.7035 23.2498 23.8908 23.275C24.1101 23.3045 24.3903 23.3803 24.6261 23.6161C24.8619 23.8519 24.9377 24.1321 24.9672 24.3514C24.9924 24.5387 24.9923 24.7605 24.9922 24.9656L24.9922 29C24.9922 29.4142 24.6564 29.75 24.2422 29.75C23.828 29.75 23.4922 29.4142 23.4922 29V25C23.4922 24.9009 23.4922 24.8206 23.491 24.7512Z" fill="#FFA600"/>
<path d="M23.9922 20C23.4399 20 22.9922 20.4477 22.9922 21C22.9922 21.5523 23.4399 22 23.9922 22H24.0012C24.5535 22 25.0012 21.5523 25.0012 21C25.0012 20.4477 24.5535 20 24.0012 20H23.9922Z" fill="#FFA600"/>
<path fill-rule="evenodd" clip-rule="evenodd" d="M22.362 14.015C23.4264 13.6617 24.5736 13.6617 25.638 14.015C26.6981 14.3669 27.5304 15.2014 28.3665 16.3739C29.1999 17.5426 30.1208 19.1721 31.3078 21.2725L31.3544 21.355C32.5417 23.4557 33.4625 25.0851 34.0364 26.4065C34.613 27.7343 34.9002 28.8807 34.6711 29.9821C34.4403 31.0911 33.8714 32.0995 33.0428 32.8617C32.2162 33.622 31.0907 33.9428 29.6736 34.0968C28.2645 34.25 26.4212 34.25 24.0488 34.25H23.9513C21.5788 34.25 19.7355 34.25 18.3264 34.0968C16.9093 33.9428 15.7838 33.622 14.9572 32.8617C14.1286 32.0995 13.5597 31.0911 13.329 29.9821C13.0998 28.8807 13.387 27.7343 13.9637 26.4065C14.5375 25.0851 15.4584 23.4557 16.6456 21.355L16.6922 21.2725C17.8792 19.1721 18.8001 17.5426 19.6335 16.3739C20.4696 15.2014 21.3019 14.3669 22.362 14.015ZM25.1655 15.4386C24.4078 15.1871 23.5922 15.1871 22.8345 15.4386C22.2386 15.6365 21.6394 16.1445 20.8547 17.2449C20.0728 18.3414 19.19 19.9014 17.9747 22.0519C16.7594 24.2023 15.8782 25.7635 15.3395 27.004C14.7998 28.2467 14.6646 29.0379 14.7975 29.6766C14.9651 30.4821 15.3775 31.2102 15.9727 31.7577C16.4402 32.1877 17.1685 32.4621 18.4885 32.6056C19.807 32.7489 21.5686 32.75 24 32.75C26.4314 32.75 28.193 32.7489 29.5115 32.6056C30.8315 32.4621 31.5599 32.1877 32.0273 31.7577C32.6225 31.2102 33.0349 30.4821 33.2025 29.6766C33.3354 29.0379 33.2002 28.2467 32.6605 27.004C32.1218 25.7635 31.2406 24.2023 30.0254 22.0519C28.81 19.9014 27.9273 18.3414 27.1453 17.2449C26.3606 16.1445 25.7615 15.6365 25.1655 15.4386Z" fill="#FFA600"/>
</svg>
