<svg width="88" height="88" viewBox="0 0 88 88" fill="none" xmlns="http://www.w3.org/2000/svg">
<path d="M55.5049 10.7664L86.2253 63.9759C87.3902 65.9906 88.0023 68.2772 87.9997 70.6045C87.9997 77.9384 82.0542 83.8842 74.72 83.8842H43.9997L33.376 43.9998L43.9997 4.11548C48.9188 4.11548 53.21 6.79209 55.5049 10.7664Z" fill="#FFA600"/>
<path d="M32.4949 10.7664L1.77427 63.9759C0.609509 65.9907 -0.00254797 68.2773 7.97247e-06 70.6045C7.97247e-06 77.9384 5.94551 83.8842 13.2798 83.8842H44V4.11548C39.0809 4.11548 34.7897 6.79209 32.4949 10.7664Z" fill="#FFA600"/>
<path d="M81.6258 66.6318L50.9055 13.4227C49.5209 11.0235 46.9783 9.50962 44.2285 9.43176L70.5029 78.5728H74.7205C79.1135 78.5728 82.6883 74.9981 82.6883 70.605C82.688 69.2104 82.3216 67.8403 81.6258 66.6318Z" fill="#FFE3B0"/>
<path d="M76.4596 66.632C77.0598 67.8359 77.3768 69.2099 77.3768 70.6052C77.3768 74.9981 74.2942 78.573 70.5031 78.573H13.2803C8.88733 78.573 5.3125 74.9981 5.3125 70.6052C5.31279 69.2106 5.67911 67.8406 6.37486 66.632L37.0951 13.4229C38.5187 10.9582 41.1641 9.42664 44.0005 9.42664C44.0767 9.42664 44.1528 9.42835 44.229 9.43196C46.5891 9.52409 48.7688 11.0344 49.9568 13.4229L76.4596 66.632Z" fill="#FFE3B0"/>
<path d="M44 60.866V69.7191C46.4453 69.7191 48.4266 67.7377 48.4266 65.2924C48.4266 62.8473 46.4453 60.866 44 60.866Z" fill="white"/>
<path d="M43.9999 60.866C44.4885 60.866 44.8852 62.8473 44.8852 65.2926C44.8852 67.7379 44.4885 69.7192 43.9999 69.7192C41.5546 69.7192 39.5732 67.7379 39.5732 65.2926C39.5732 62.8473 41.5546 60.866 43.9999 60.866Z" fill="white"/>
<path d="M44 22.7983V55.555C46.4453 55.555 48.4266 53.5719 48.4266 51.1283V27.225C48.4266 24.7797 46.4453 22.7983 44 22.7983Z" fill="white"/>
<path d="M43.9999 22.7983C44.4885 22.7983 44.8852 24.7797 44.8852 27.225V51.1283C44.8852 53.5717 44.4885 55.555 43.9999 55.555C41.5546 55.555 39.5732 53.5719 39.5732 51.1283V27.225C39.5732 24.7797 41.5546 22.7983 43.9999 22.7983Z" fill="white"/>
</svg>
