<svg width="24" height="24" viewBox="0 0 24 24" fill="none" xmlns="http://www.w3.org/2000/svg">
<path d="M8.55723 17.3952C8.7186 17.2733 9.20035 16.9094 9.47806 16.6927C10.0343 16.2586 10.7734 15.6655 11.5103 15.0257C12.2509 14.3826 12.9722 13.7071 13.5024 13.107C13.7683 12.8061 13.9703 12.5418 14.1018 12.3236C14.2255 12.1185 14.2512 11.9973 14.2512 11.9973C14.2512 11.9973 14.2255 11.8797 14.1018 11.6745C13.9703 11.4564 13.7683 11.1921 13.5024 10.8911C12.9722 10.291 12.2509 9.61552 11.5102 8.97248C10.7733 8.33267 10.0342 7.73956 9.47802 7.30549C9.20031 7.08876 8.71925 6.72536 8.55787 6.60348C8.22435 6.35784 8.15241 5.88784 8.39805 5.55432C8.64368 5.22079 9.11318 5.14954 9.4467 5.39518L9.44924 5.39709C9.6185 5.52493 10.1175 5.90184 10.4009 6.12297C10.9696 6.56684 11.7306 7.17727 12.4937 7.83983C13.253 8.49915 14.0317 9.22482 14.6265 9.89794C14.9231 10.2336 15.1898 10.5739 15.3864 10.9001C15.5707 11.2057 15.7519 11.5926 15.7519 11.9991C15.7519 12.4056 15.5707 12.7925 15.3864 13.0981C15.1898 13.4242 14.9231 13.7645 14.6265 14.1002C14.0317 14.7733 13.253 15.499 12.4937 16.1583C11.7306 16.8209 10.9697 17.4313 10.4009 17.8752C10.1174 18.0965 9.61832 18.4734 9.44941 18.601L9.44723 18.6026C9.11371 18.8483 8.64373 18.7774 8.3981 18.4438C8.15247 18.1103 8.22374 17.6408 8.55723 17.3952Z" fill="#161616"/>
</svg>
