<svg width="16" height="16" viewBox="0 0 16 16" fill="none" xmlns="http://www.w3.org/2000/svg">
<path d="M4.08191 2.94387L4.08435 2.9403L4.09708 2.92205C4.10884 2.90543 4.12664 2.88079 4.14919 2.85112L4.16634 2.82878V6.16606H3.66634C3.3902 6.16606 3.16634 6.38992 3.16634 6.66606C3.16634 6.9422 3.3902 7.16606 3.66634 7.16606H5.66634C5.94248 7.16606 6.16634 6.9422 6.16634 6.66606C6.16634 6.38992 5.94248 6.16606 5.66634 6.16606H5.16634L5.16636 2.59987C5.16649 2.43764 5.16663 2.25152 5.13846 2.1023C5.12205 2.01534 5.0892 1.89714 5.0102 1.78508C4.92243 1.66058 4.80024 1.57541 4.6609 1.53218C4.37352 1.44301 4.12104 1.55587 3.98247 1.63828C3.83123 1.72821 3.69985 1.85012 3.60155 1.95291C3.4996 2.05951 3.41301 2.16711 3.35302 2.24604C3.3226 2.28607 3.29802 2.32005 3.28063 2.34463C3.27192 2.35695 3.26496 2.36698 3.25993 2.37432L3.25382 2.38328C3.25092 2.38719 3.25079 2.38777 3.25079 2.38777L3.25118 2.38719L3.25187 2.38616L3.25382 2.38328L3.25079 2.38777C3.09731 2.61734 3.15888 2.92801 3.38844 3.08149C3.61796 3.23494 3.92839 3.17332 4.08191 2.94387Z" fill="#A2A2A2"/>
<path fill-rule="evenodd" clip-rule="evenodd" d="M4.63919 8.8326H4.69351C4.98444 8.83258 5.24524 8.83256 5.45628 8.85739C5.68217 8.88396 5.92642 8.94582 6.13367 9.12717C6.35053 9.31692 6.43451 9.55572 6.46948 9.78326C6.49979 9.98057 6.49974 10.2202 6.49969 10.4681L6.49969 12.2845C6.49973 12.6667 6.49976 13.0088 6.45727 13.2853C6.41011 13.5923 6.30172 13.8868 6.03604 14.1193C5.77997 14.3433 5.47203 14.4266 5.15537 14.4638C4.85367 14.4993 4.47543 14.4993 4.02935 14.4993L3.33302 14.4993C3.05687 14.4993 2.83302 14.2754 2.83302 13.9993C2.83302 13.7231 3.05687 13.4993 3.33302 13.4993H3.99968C4.4835 13.4993 4.80227 13.4985 5.03854 13.4707C5.26651 13.4438 5.34071 13.3989 5.37754 13.3667C5.40475 13.3429 5.44282 13.303 5.46887 13.1334C5.4983 12.9419 5.49968 12.6778 5.49968 12.2493V12.1659L4.63919 12.1659C4.34826 12.166 4.08746 12.166 3.87642 12.1412C3.65054 12.1146 3.40628 12.0527 3.19903 11.8714C2.98217 11.6816 2.89819 11.4428 2.86322 11.2153C2.83291 11.018 2.83296 10.7783 2.83301 10.5305V10.4681C2.83296 10.2202 2.83291 9.98057 2.86322 9.78326C2.89819 9.55572 2.98217 9.31692 3.19903 9.12717C3.40628 8.94582 3.65054 8.88396 3.87642 8.85739C4.08746 8.83256 4.34827 8.83258 4.63919 8.8326ZM5.49968 11.1659V10.4993C5.49968 10.2082 5.4983 10.0473 5.48108 9.93513C5.47657 9.9058 5.47208 9.88769 5.46883 9.87726C5.45303 9.87083 5.41591 9.85953 5.33945 9.85054C5.19395 9.83342 4.99303 9.8326 4.66635 9.8326C4.33967 9.8326 4.13875 9.83342 3.99325 9.85054C3.91679 9.85953 3.87967 9.87083 3.86387 9.87726C3.86062 9.88769 3.85613 9.9058 3.85162 9.93513C3.8344 10.0473 3.83302 10.2082 3.83302 10.4993C3.83302 10.7903 3.8344 10.9513 3.85162 11.0634C3.85613 11.0927 3.86062 11.1109 3.86387 11.1213C3.87967 11.1277 3.91679 11.139 3.99325 11.148C4.13875 11.1651 4.33967 11.1659 4.66635 11.1659H5.49968ZM3.86654 11.1289C3.8682 11.1315 3.8688 11.1334 3.8688 11.1334C3.8688 11.1334 3.8679 11.1324 3.86654 11.1289ZM3.8688 9.86514C3.8688 9.86514 3.8682 9.86707 3.86654 9.86959C3.8679 9.86618 3.8688 9.86514 3.8688 9.86514ZM5.46616 9.86959C5.4645 9.86707 5.4639 9.86514 5.4639 9.86514C5.4639 9.86514 5.4648 9.86618 5.46616 9.86959Z" fill="#A2A2A2"/>
<path d="M11.4997 2.66593C11.4997 2.38979 11.2758 2.16593 10.9997 2.16593C10.7235 2.16593 10.4997 2.38979 10.4997 2.66593V12.3072L10.4956 12.3025C10.3552 12.1367 10.2176 11.9615 10.089 11.7977L10.0592 11.7597C9.93108 11.5966 9.79626 11.4252 9.69155 11.3174C9.49908 11.1194 9.18253 11.1149 8.98451 11.3074C8.7865 11.4999 8.782 11.8164 8.97447 12.0144C9.0336 12.0753 9.13068 12.1965 9.27281 12.3774L9.30418 12.4174C9.43088 12.5788 9.57957 12.7682 9.7327 12.9489C9.89683 13.1426 10.0806 13.3438 10.2642 13.5002C10.3562 13.5786 10.46 13.6559 10.5716 13.7157C10.6792 13.7733 10.8275 13.8326 10.9997 13.8326C11.1719 13.8326 11.3202 13.7733 11.4278 13.7157C11.5394 13.6559 11.6431 13.5786 11.7351 13.5002C11.9188 13.3438 12.1025 13.1426 12.2667 12.9489C12.4198 12.7682 12.5684 12.5789 12.6951 12.4175L12.7265 12.3774C12.8687 12.1965 12.9657 12.0753 13.0249 12.0144C13.2174 11.8164 13.2129 11.4999 13.0148 11.3074C12.8168 11.1149 12.5003 11.1194 12.3078 11.3174C12.2031 11.4252 12.0683 11.5966 11.9401 11.7597L11.9103 11.7977C11.7817 11.9615 11.6442 12.1367 11.5037 12.3025L11.4997 12.3072V2.66593Z" fill="#A2A2A2"/>
</svg>
