<svg width="20" height="20" viewBox="0 0 20 20" fill="none" xmlns="http://www.w3.org/2000/svg">
<path fill-rule="evenodd" clip-rule="evenodd" d="M1.66644 1.04173C1.32126 1.04173 1.04144 1.32155 1.04144 1.66673C1.04144 2.01191 1.32126 2.29173 1.66644 2.29173L2.47144 2.29173C2.98468 2.29173 3.41344 2.62987 3.53055 3.08493L6.00993 12.7196C6.08668 13.0178 6.02198 13.3356 5.82859 13.5861L5.21199 14.3848C5.14212 14.3783 5.07133 14.3751 4.99977 14.3751C3.73412 14.3751 2.70811 15.4011 2.70811 16.6667C2.70811 17.9324 3.73412 18.9584 4.99978 18.9584C6.04876 18.9584 6.93312 18.2536 7.20518 17.2917L11.961 17.2917C12.2331 18.2536 13.1175 18.9584 14.1664 18.9584C15.4321 18.9584 16.4581 17.9324 16.4581 16.6667C16.4581 15.4011 15.4321 14.3751 14.1664 14.3751C13.1175 14.3751 12.2331 15.0799 11.961 16.0417L7.20518 16.0417C7.0721 15.5712 6.79249 15.1622 6.41877 14.8671L6.81803 14.35C6.92054 14.2172 7.00707 14.0751 7.07696 13.9264L13.9851 13.3507C15.1156 13.2565 16.0258 13.081 16.6453 12.4783C17.2648 11.8756 17.4653 10.9706 17.5905 9.8432L18.0592 5.62507L18.3331 5.62506C18.6783 5.62507 18.9581 5.34524 18.9581 5.00007C18.9581 4.65489 18.6783 4.37506 18.3331 4.37506L15.8331 4.37507C15.4879 4.37506 15.2081 4.65489 15.2081 5.00007C15.2081 5.34524 15.4879 5.62506 15.8331 5.62507L16.8015 5.62506L16.3482 9.70516C16.2215 10.8453 16.0408 11.3225 15.7736 11.5824C15.5065 11.8423 15.0246 12.0098 13.8813 12.105L7.26966 12.656C7.258 12.573 7.24164 12.4903 7.22048 12.408L5.47495 5.62506L6.24978 5.62507C6.59495 5.62506 6.87478 5.34524 6.87478 5.00006C6.87478 4.65489 6.59495 4.37506 6.24978 4.37507L5.15327 4.37507L4.7411 2.77341C4.47635 1.74459 3.53268 1.04173 2.47144 1.04173L1.66644 1.04173ZM4.99978 15.6251C4.42448 15.6251 3.95811 16.0914 3.95811 16.6667C3.95811 17.242 4.42448 17.7084 4.99977 17.7084C5.57507 17.7084 6.04144 17.242 6.04144 16.6667C6.04144 16.0914 5.57507 15.6251 4.99978 15.6251ZM14.1664 17.7084C13.5911 17.7084 13.1248 17.242 13.1248 16.6667C13.1248 16.0914 13.5911 15.6251 14.1664 15.6251C14.7417 15.6251 15.2081 16.0914 15.2081 16.6667C15.2081 17.242 14.7417 17.7084 14.1664 17.7084Z" fill="#515E32"/>
<path d="M15.6251 3.08938C15.9505 2.97414 16.1208 2.61696 16.0056 2.29158C15.8903 1.96621 15.5332 1.79586 15.2078 1.91109C14.5119 2.15755 13.8356 2.63243 13.2305 3.16315C12.6188 3.69954 12.0445 4.32464 11.5542 4.91237C11.1124 5.44197 10.7326 5.94877 10.4484 6.34599C10.1624 5.95732 9.87843 5.69596 9.6173 5.52187C9.40673 5.38149 9.21741 5.30229 9.06471 5.25866C8.9888 5.23697 8.92316 5.22442 8.86981 5.21731C8.84317 5.21375 8.81968 5.21157 8.79958 5.21027C8.79172 5.20977 8.77078 5.20917 8.75805 5.20881L8.74978 5.20857C8.4046 5.20857 8.12478 5.48839 8.12478 5.83357C8.12478 6.16486 8.38253 6.43594 8.70843 6.45722C8.71147 6.45791 8.71577 6.45898 8.7213 6.46056C8.75089 6.46902 8.82198 6.49398 8.92392 6.56193C9.12659 6.69704 9.47783 7.02055 9.85743 7.77974C9.95816 7.98122 10.1595 8.1129 10.3845 8.12442C10.6094 8.13593 10.8233 8.02533 10.9441 7.83527L10.9451 7.83366L10.95 7.82604L10.9708 7.79378C10.9896 7.76494 11.0178 7.72176 11.0549 7.66606C11.1292 7.55463 11.2386 7.3933 11.3774 7.1966C11.6556 6.80257 12.0496 6.26977 12.514 5.7131C12.9796 5.15499 13.5082 4.58218 14.0546 4.10295C14.6076 3.61804 15.1445 3.25958 15.6251 3.08938Z" fill="#515E32"/>
</svg>
