<svg width="20" height="20" viewBox="0 0 20 20" fill="none" xmlns="http://www.w3.org/2000/svg">
<path d="M7.91667 14.3753C7.57149 14.3753 7.29167 14.0955 7.29167 13.7503L7.29167 8.75033C7.29167 8.40515 7.57149 8.12533 7.91667 8.12533C8.26184 8.12533 8.54167 8.40515 8.54167 8.75033L8.54167 13.7503C8.54167 14.0955 8.26184 14.3753 7.91667 14.3753Z" fill="#515E32"/>
<path d="M12.7083 8.75033C12.7083 8.40515 12.4285 8.12533 12.0833 8.12533C11.7382 8.12533 11.4583 8.40515 11.4583 8.75033V13.7503C11.4583 14.0955 11.7382 14.3753 12.0833 14.3753C12.4285 14.3753 12.7083 14.0955 12.7083 13.7503V8.75033Z" fill="#515E32"/>
<path fill-rule="evenodd" clip-rule="evenodd" d="M10.0552 1.04199H10.0018C9.58075 1.04198 9.22356 1.04197 8.92715 1.06896C8.61261 1.09759 8.31962 1.15961 8.03631 1.31026C7.92449 1.36971 7.8178 1.43833 7.71732 1.51542C7.46273 1.71073 7.28477 1.9516 7.12826 2.22593C6.98076 2.48445 6.83263 2.80945 6.65799 3.1926L6.30879 3.95866H2.5C2.15482 3.95866 1.875 4.23848 1.875 4.58366C1.875 4.92884 2.15482 5.20866 2.5 5.20866H3.16161L3.63194 12.9996C3.6948 14.041 3.74469 14.8673 3.84847 15.5274C3.95489 16.2044 4.12601 16.7682 4.46926 17.2614C4.78326 17.7126 5.18781 18.0935 5.65712 18.3797C6.17013 18.6926 6.74321 18.8294 7.42534 18.8949C8.09048 18.9587 8.91832 18.9587 9.96154 18.9587H10.0263C11.0681 18.9587 11.895 18.9587 12.5593 18.895C13.2407 18.8297 13.8131 18.6931 14.3258 18.3808C14.7948 18.0951 15.1992 17.7149 15.5133 17.2644C15.8567 16.772 16.0283 16.209 16.1355 15.533C16.2401 14.8739 16.2911 14.0486 16.3554 13.0087L16.8376 5.20866H17.5C17.8452 5.20866 18.125 4.92884 18.125 4.58366C18.125 4.23848 17.8452 3.95866 17.5 3.95866H13.7714L13.3618 3.11375C13.1826 2.74418 13.0306 2.43048 12.8809 2.18106C12.722 1.9163 12.5433 1.68428 12.2918 1.49667C12.1924 1.42253 12.0871 1.35657 11.977 1.29946C11.6985 1.15495 11.4117 1.09539 11.1042 1.06788C10.8145 1.04197 10.4658 1.04198 10.0552 1.04199ZM15.5852 5.20866H13.3935C13.3847 5.20885 13.3758 5.20885 13.3669 5.20866H6.72416C6.715 5.20886 6.70582 5.20886 6.69663 5.20866H4.41389L4.87772 12.892C4.94298 13.9728 4.98992 14.7393 5.0833 15.3333C5.1751 15.9172 5.30366 16.2721 5.49526 16.5474C5.71011 16.8561 5.9869 17.1167 6.30801 17.3125C6.59437 17.4872 6.95632 17.5941 7.54471 17.6506C8.14321 17.708 8.91114 17.7087 9.99397 17.7087C11.0754 17.7087 11.8423 17.708 12.44 17.6507C13.0277 17.5944 13.3893 17.4876 13.6754 17.3133C13.9963 17.1178 14.2731 16.8576 14.488 16.5494C14.6796 16.2745 14.8085 15.9202 14.901 15.3372C14.9951 14.7441 15.043 13.9787 15.1098 12.8994L15.5852 5.20866ZM12.3822 3.95866H7.68253L7.78421 3.73561C7.97304 3.32135 8.098 3.04864 8.21397 2.84538C8.32406 2.65244 8.40305 2.56482 8.47817 2.50719C8.52384 2.47215 8.57234 2.44096 8.62316 2.41393C8.70676 2.36948 8.81925 2.33395 9.04048 2.31381C9.27353 2.29259 9.5735 2.29199 10.0288 2.29199C10.4729 2.29199 10.7654 2.29257 10.9928 2.31292C11.2087 2.33222 11.319 2.36629 11.4014 2.40903C11.4514 2.43498 11.4992 2.46496 11.5444 2.49866C11.6188 2.55414 11.6976 2.63856 11.8091 2.82436C11.9267 3.02017 12.0547 3.28305 12.2485 3.68273L12.3822 3.95866Z" fill="#515E32"/>
</svg>
