<svg width="18" height="18" viewBox="0 0 18 18" fill="none" xmlns="http://www.w3.org/2000/svg">
<path fill-rule="evenodd" clip-rule="evenodd" d="M2.45441 1.79596C4.93855 0.272187 7.16707 0.879476 8.51335 1.89051C8.73484 2.05683 8.88684 2.17067 9 2.24754C9.11316 2.17067 9.26517 2.05683 9.48665 1.89051C10.8329 0.879476 13.0615 0.272187 15.5456 1.79596C17.2633 2.8496 18.2298 5.0505 17.8907 7.57926C17.5499 10.1202 15.9052 12.9941 12.4222 15.5721C12.3931 15.5936 12.3642 15.615 12.3355 15.6363C11.126 16.532 10.3251 17.1253 9 17.1253C7.67495 17.1253 6.87396 16.532 5.66447 15.6363C5.63581 15.615 5.60691 15.5936 5.57778 15.5721C2.09478 12.9941 0.450122 10.1202 0.109332 7.57926C-0.229821 5.0505 0.736704 2.8496 2.45441 1.79596ZM8.86938 2.32808C8.8667 2.32929 8.86718 2.32889 8.87054 2.32754C8.87011 2.32774 8.86972 2.32792 8.86938 2.32808ZM9.12946 2.32754C9.13282 2.32889 9.1333 2.32929 9.13062 2.32808C9.13028 2.32792 9.12989 2.32774 9.12946 2.32754ZM7.76273 2.89004C6.76562 2.14123 5.09326 1.64371 3.10799 2.86148C1.89289 3.60682 1.0612 5.27288 1.34824 7.4131C1.63365 9.54112 3.0396 12.1383 6.32144 14.5674C7.63991 15.5432 8.12114 15.8753 9 15.8753C9.87886 15.8753 10.3601 15.5432 11.6786 14.5674C14.9604 12.1383 16.3664 9.54112 16.6518 7.4131C16.9388 5.27288 16.1071 3.60682 14.892 2.86148C12.9067 1.64371 11.2344 2.14123 10.2373 2.89004L10.2198 2.90313C9.99452 3.07235 9.80098 3.2177 9.64616 3.31906C9.56569 3.37174 9.47659 3.42539 9.38411 3.46718C9.29635 3.50684 9.16153 3.55645 9 3.55645C8.83847 3.55645 8.70365 3.50684 8.61589 3.46718C8.52341 3.42539 8.43431 3.37174 8.35384 3.31906C8.19901 3.2177 8.00546 3.07233 7.78012 2.9031L7.76273 2.89004Z" fill="#F3DC9A"/>
</svg>
