<svg width="24" height="24" viewBox="0 0 24 24" fill="none" xmlns="http://www.w3.org/2000/svg">
<path fill-rule="evenodd" clip-rule="evenodd" d="M4.1449 3.35467C7.12587 1.52614 9.8001 2.25488 11.4156 3.46812C11.6814 3.66771 11.8638 3.80431 11.9996 3.89655C12.1354 3.80431 12.3178 3.66771 12.5836 3.46812C14.1991 2.25488 16.8734 1.52614 19.8543 3.35467C21.9156 4.61903 23.0754 7.26011 22.6684 10.2946C22.2595 13.3438 20.2859 16.7924 16.1063 19.886C16.0713 19.9119 16.0366 19.9376 16.0022 19.963C14.5509 21.038 13.5897 21.7498 11.9996 21.7498C10.4095 21.7498 9.44836 21.038 7.99698 19.963C7.96258 19.9376 7.92791 19.9119 7.89294 19.886C3.71334 16.7924 1.73976 13.3438 1.33081 10.2946C0.923824 7.26011 2.08365 4.61903 4.1449 3.35467ZM11.8429 3.9932C11.8397 3.99466 11.8402 3.99418 11.8443 3.99256C11.8437 3.9928 11.8433 3.99302 11.8429 3.9932ZM12.155 3.99256C12.159 3.99418 12.1596 3.99466 12.1564 3.9932C12.1559 3.99302 12.1555 3.9928 12.155 3.99256ZM10.5149 4.66755C9.31836 3.76899 7.31152 3.17197 4.9292 4.63328C3.47107 5.5277 2.47304 7.52697 2.8175 10.0952C3.15998 12.6489 4.84713 15.7654 8.78534 18.6803C10.3675 19.8514 10.945 20.2498 11.9996 20.2498C13.0542 20.2498 13.6317 19.8514 15.2139 18.6803C19.1521 15.7654 20.8392 12.6489 21.1817 10.0952C21.5262 7.52697 20.5281 5.5277 19.07 4.63328C16.6877 3.17197 14.6809 3.76899 13.4843 4.66755L13.4634 4.68326C13.193 4.88633 12.9608 5.06075 12.775 5.18238C12.6784 5.2456 12.5715 5.30998 12.4605 5.36012C12.3552 5.40772 12.1934 5.46725 11.9996 5.46725C11.8058 5.46725 11.644 5.40772 11.5387 5.36012C11.4277 5.30998 11.3208 5.2456 11.2242 5.18238C11.0384 5.06075 10.8062 4.88631 10.5358 4.68323L10.5149 4.66755Z" fill="#A2A2A2"/>
</svg>
