<svg width="20" height="21" viewBox="0 0 20 21" fill="none" xmlns="http://www.w3.org/2000/svg">
<path fill-rule="evenodd" clip-rule="evenodd" d="M5.15178 2.375C5.16622 2.375 5.18071 2.375 5.19526 2.375L14.8482 2.375C15.4903 2.37497 16.0355 2.37495 16.4656 2.43359C16.9208 2.49565 17.3561 2.63576 17.6893 3.00258C18.0255 3.37261 18.1175 3.81855 18.1245 4.27439C18.1311 4.70011 18.0631 5.22894 17.9837 5.84551L17.9779 5.89041C17.9499 6.1086 17.9078 6.31964 17.82 6.53092C17.7309 6.74544 17.6082 6.92814 17.4553 7.10971C16.6389 8.07961 15.1212 9.83242 12.9845 11.4287C12.95 11.4545 12.9063 11.5157 12.898 11.6075C12.6904 13.9016 12.5078 15.1154 12.3761 15.8186C12.2336 16.579 11.6536 17.1053 11.1535 17.4677C10.8917 17.6573 10.6139 17.8281 10.3665 17.9787C10.3467 17.9907 10.3271 18.0027 10.3077 18.0144C10.0766 18.155 9.88009 18.2745 9.71584 18.3906C9.26541 18.7091 8.74576 18.6868 8.34856 18.4554C7.97373 18.237 7.70997 17.8388 7.65664 17.3883C7.53958 16.3996 7.32738 14.4641 7.09313 11.6022C7.08562 11.5104 7.07128 11.4837 7.07008 11.4815C7.06926 11.48 7.06715 11.4761 7.06015 11.4684C7.05233 11.4598 7.03669 11.4445 7.00696 11.4223C4.8746 9.82806 3.35985 8.07834 2.54459 7.10968C2.39234 6.92878 2.26601 6.75043 2.17594 6.53352C2.08776 6.32118 2.05016 6.10907 2.02203 5.89041C2.0201 5.87539 2.01817 5.86042 2.01625 5.8455C1.93691 5.22893 1.86885 4.70011 1.87544 4.27439C1.8825 3.81855 1.97452 3.37261 2.31067 3.00258C2.6439 2.63576 3.07919 2.49565 3.53442 2.43359C3.96451 2.37495 4.50964 2.37497 5.15178 2.375ZM3.70328 3.67213C3.3832 3.71577 3.28678 3.78708 3.23589 3.84309C3.18793 3.89589 3.13001 3.98888 3.12529 4.29374C3.12027 4.61844 3.1751 5.05676 3.26182 5.73093C3.28592 5.91827 3.30703 5.99795 3.33036 6.05414C3.35179 6.10576 3.38978 6.17268 3.50095 6.30477C4.29952 7.25359 5.74039 8.91463 7.75545 10.4212C7.91734 10.5422 8.06587 10.6921 8.17333 10.8938C8.2792 11.0926 8.32254 11.2995 8.33897 11.5002C8.57194 14.3465 8.78261 16.267 8.89797 17.2414C8.90148 17.2711 8.9123 17.3004 8.92895 17.3259C8.94598 17.352 8.96491 17.3678 8.97778 17.3753C8.97942 17.3762 8.98086 17.377 8.9821 17.3776C8.98506 17.376 8.98906 17.3736 8.99415 17.37C9.19591 17.2273 9.43009 17.085 9.65111 16.9507C9.67311 16.9374 9.69499 16.9241 9.71668 16.9109C9.96569 16.7593 10.2038 16.6121 10.42 16.4555C10.8757 16.1253 11.0992 15.8459 11.1474 15.5884C11.2695 14.9369 11.4477 13.7651 11.6531 11.4948C11.6908 11.0789 11.895 10.6823 12.2364 10.4273C14.2556 8.91878 15.6994 7.25476 16.499 6.30475C16.596 6.18954 16.6391 6.11525 16.6657 6.05134C16.6936 5.98419 16.717 5.89533 16.7382 5.73093C16.8249 5.05676 16.8797 4.61844 16.8747 4.29374C16.87 3.98888 16.812 3.8959 16.7641 3.84309C16.7132 3.78708 16.6168 3.71577 16.2967 3.67213C15.9611 3.62638 15.5023 3.625 14.8047 3.625H5.19526C4.49772 3.625 4.03884 3.62638 3.70328 3.67213ZM8.97554 17.3805C8.97558 17.3805 8.97599 17.3803 8.97676 17.3801L8.97554 17.3805Z" fill="#A2A2A2"/>
</svg>
