<svg width="20" height="20" viewBox="0 0 20 20" fill="none" xmlns="http://www.w3.org/2000/svg">
<path fill-rule="evenodd" clip-rule="evenodd" d="M7.50025 2.29175C5.31412 2.29175 3.54191 4.06395 3.54191 6.25008C3.54191 8.43621 5.31412 10.2084 7.50025 10.2084C9.68637 10.2084 11.4586 8.43621 11.4586 6.25008C11.4586 4.06395 9.68637 2.29175 7.50025 2.29175ZM4.79191 6.25008C4.79191 4.75431 6.00447 3.54175 7.50025 3.54175C8.99602 3.54175 10.2086 4.75431 10.2086 6.25008C10.2086 7.74585 8.99602 8.95841 7.50025 8.95841C6.00447 8.95841 4.79191 7.74585 4.79191 6.25008Z" fill="#515E32"/>
<path fill-rule="evenodd" clip-rule="evenodd" d="M11.561 12.8752C9.07273 11.5417 5.92776 11.5417 3.43946 12.8752C3.36188 12.9168 3.26484 12.966 3.15412 13.0222C2.66045 13.2727 1.89486 13.6611 1.36998 14.1235C1.04641 14.4085 0.699646 14.8155 0.635507 15.3436C0.565278 15.9219 0.852403 16.4308 1.33832 16.8474C2.16742 17.5583 3.1606 18.1251 4.43835 18.1251H10.5621C11.8399 18.1251 12.8331 17.5583 13.6622 16.8474C14.1481 16.4308 14.4352 15.9219 14.365 15.3436C14.3008 14.8155 13.9541 14.4085 13.6305 14.1235C13.1056 13.6611 12.3401 13.2727 11.8464 13.0222C11.7357 12.966 11.6386 12.9168 11.561 12.8752ZM2.15197 15.8985C1.85746 15.6459 1.87368 15.516 1.87629 15.4951C1.88458 15.4268 1.94914 15.2791 2.19626 15.0614C2.58736 14.7169 3.14881 14.4301 3.64249 14.1779C3.77838 14.1085 3.90924 14.0416 4.02989 13.977C6.14938 12.8411 8.85111 12.8411 10.9706 13.977C11.0913 14.0416 11.2221 14.1084 11.358 14.1779C11.8517 14.4301 12.4131 14.7169 12.8042 15.0614C13.0513 15.2791 13.1158 15.426 13.1241 15.4943C13.1267 15.5152 13.143 15.6459 12.8485 15.8985C12.1448 16.5019 11.4308 16.8751 10.5621 16.8751H4.43835C3.56974 16.8751 2.85572 16.5019 2.15197 15.8985Z" fill="#515E32"/>
<path d="M13.0384 4.83711C13.1877 4.8075 13.3434 4.79175 13.5041 4.79175C14.732 4.79175 15.6251 5.68513 15.6251 6.66675C15.6251 7.64837 14.732 8.54175 13.5041 8.54175C13.3434 8.54175 13.1877 8.52599 13.0384 8.49639C12.6998 8.42922 12.3709 8.64926 12.3037 8.98784C12.2366 9.32642 12.4566 9.65534 12.7952 9.7225C13.0244 9.76795 13.2616 9.79175 13.5041 9.79175C15.3094 9.79175 16.8751 8.44655 16.8751 6.66675C16.8751 4.88694 15.3094 3.54175 13.5041 3.54175C13.2616 3.54175 13.0244 3.56554 12.7952 3.611C12.4566 3.67816 12.2366 4.00708 12.3037 4.34566C12.3709 4.68424 12.6998 4.90427 13.0384 4.83711Z" fill="#515E32"/>
<path d="M14.5835 11.8751C14.2383 11.8751 13.9585 12.1549 13.9585 12.5001C13.9585 12.8453 14.2383 13.1251 14.5835 13.1251C14.8419 13.1251 15.2903 13.2032 15.8162 13.3664C16.3325 13.5266 16.8718 13.7527 17.3091 14.0146C17.7698 14.2904 18.0195 14.548 18.0992 14.7294C18.1303 14.8003 18.1284 14.842 18.119 14.8768C18.1073 14.92 18.0651 15.0155 17.9106 15.1533C17.2869 15.7097 16.6673 16.0417 15.922 16.0417H15.5135C15.1683 16.0417 14.8885 16.3216 14.8885 16.6667C14.8885 17.0119 15.1683 17.2917 15.5135 17.2917H15.922C17.0932 17.2917 17.9978 16.7506 18.7427 16.0861C19.0229 15.8362 19.2333 15.5435 19.3254 15.2041C19.4198 14.8562 19.3729 14.521 19.2436 14.2266C19.0024 13.6777 18.4693 13.2523 17.9512 12.9421C17.4097 12.6179 16.7745 12.3549 16.1866 12.1725C15.6081 11.993 15.0225 11.8751 14.5835 11.8751Z" fill="#515E32"/>
</svg>
