<svg width="20" height="20" viewBox="0 0 20 20" fill="none" xmlns="http://www.w3.org/2000/svg">
<path d="M5.00065 4.37469C4.65547 4.37469 4.37565 4.65451 4.37565 4.99968C4.37565 5.34486 4.65547 5.62469 5.00065 5.62469L11.6673 5.62469C12.0125 5.62468 12.2923 5.34486 12.2923 4.99968C12.2923 4.65451 12.0125 4.37468 11.6673 4.37469L5.00065 4.37469Z" fill="#515E32"/>
<path d="M7.29232 8.33302C7.29232 8.6782 7.0125 8.95802 6.66732 8.95802L5.00065 8.95802C4.65547 8.95802 4.37565 8.6782 4.37565 8.33302C4.37565 7.98784 4.65547 7.70802 5.00065 7.70802L6.66732 7.70802C7.0125 7.70802 7.29232 7.98784 7.29232 8.33302Z" fill="#515E32"/>
<path d="M11.0423 8.33302C11.0423 7.98784 10.7625 7.70802 10.4173 7.70802C10.0721 7.70802 9.79232 7.98784 9.79232 8.33302L9.79232 8.53709C9.09732 8.76382 8.54232 9.36 8.54232 10.1559C8.54232 11.181 9.46279 11.8747 10.4173 11.8747C10.8435 11.8747 11.0423 12.1603 11.0423 12.3434C11.0423 12.5265 10.8435 12.8122 10.4173 12.8122C10.0953 12.8122 9.88249 12.6337 9.81795 12.4739C9.68867 12.1539 9.32441 11.9992 9.00436 12.1285C8.6843 12.2578 8.52966 12.6221 8.65894 12.9421C8.85931 13.4381 9.28434 13.7999 9.79232 13.9641L9.79232 14.1664C9.79232 14.5115 10.0721 14.7914 10.4173 14.7914C10.7625 14.7914 11.0423 14.5115 11.0423 14.1664L11.0423 13.9623C11.7373 13.7355 12.2923 13.1394 12.2923 12.3434C12.2923 11.3184 11.3718 10.6247 10.4173 10.6247C9.99114 10.6247 9.79232 10.339 9.79232 10.1559C9.79232 9.97284 9.99114 9.68719 10.4173 9.68718C10.7393 9.68718 10.9521 9.86567 11.0167 10.0254C11.146 10.3455 11.5102 10.5001 11.8303 10.3709C12.1503 10.2416 12.305 9.87732 12.1757 9.55727C11.9753 9.06124 11.5503 8.69944 11.0423 8.53529L11.0423 8.33302Z" fill="#515E32"/>
<path fill-rule="evenodd" clip-rule="evenodd" d="M8.33398 18.958C7.91411 18.958 7.59752 18.7582 7.11859 18.4558L5.52482 17.4505C5.31232 17.3164 5.07149 17.1647 5.00732 17.1572L5.00647 17.1572C4.9423 17.1572 4.65065 17.3405 4.47648 17.4505C4.41512 17.489 4.33671 17.5438 4.2523 17.6028L4.21981 17.6255C3.61064 18.0522 2.59149 18.7655 1.71399 18.2005C1.04232 17.7672 1.04232 16.9755 1.04232 15.5372L1.04232 6.7105C1.04232 4.24383 1.04233 2.88553 1.9565 1.96469C2.87149 1.04054 4.21978 1.04054 6.66721 1.04054L16.6673 1.04054C16.6794 1.04054 16.6914 1.04088 16.7034 1.04156C17.7838 1.06158 18.5993 2.51161 18.8865 4.9297C18.9823 5.73303 19.0507 6.31386 18.6115 6.8047C18.174 7.29217 17.5799 7.29217 16.6808 7.29217L16.6807 7.29135L15.6257 7.29135L15.6257 15.5372C15.6257 16.9747 15.6256 17.7672 14.954 18.1997C14.0765 18.7647 13.0573 18.0514 12.4482 17.6247L12.4147 17.6013C12.3306 17.5425 12.2526 17.488 12.1915 17.4497C11.979 17.3155 11.7382 17.1638 11.674 17.1563L11.6731 17.1563C11.609 17.1563 11.3173 17.3397 11.1431 17.4497L9.55066 18.4539C9.07066 18.7572 8.75398 18.958 8.33398 18.958ZM6.66732 2.29054L15.161 2.29054C14.6278 3.39146 14.3757 5.06501 14.3757 6.66635L14.3757 15.5372C14.3757 16.2522 14.3756 16.9913 14.2698 17.153C14.1831 17.1955 13.9198 17.1288 13.1648 16.6005C13.0557 16.5238 12.9523 16.4513 12.8582 16.3922C12.4082 16.108 12.1106 15.9205 11.7165 15.9072C11.2739 15.8898 10.943 16.0983 10.4865 16.3859L8.87199 17.4037C8.64955 17.5438 8.40045 17.7006 8.33398 17.7064C8.26648 17.7005 8.01064 17.5397 7.78398 17.3963L6.19149 16.3922C5.74149 16.108 5.44397 15.9205 5.04981 15.9072C4.60582 15.8898 4.27465 16.0988 3.8181 16.387L3.80981 16.3922C3.71565 16.4522 3.6123 16.5238 3.50313 16.6005C2.7473 17.1288 2.48399 17.1955 2.39815 17.153C2.29232 16.9922 2.29232 16.253 2.29232 15.5372L2.29232 6.7105C2.29232 4.50717 2.29233 3.40053 2.844 2.8447C3.39232 2.29054 4.48655 2.29054 6.66732 2.29054ZM16.6807 6.04135L15.639 6.04135C15.74 3.65105 16.404 2.39466 16.6807 2.29383C16.8607 2.36467 17.4156 3.14803 17.6448 5.0772L17.645 5.07873C17.6933 5.48325 17.7431 5.90062 17.6807 5.9697C17.6165 6.04135 17.0973 6.04135 16.6807 6.04135Z" fill="#515E32"/>
</svg>
