<svg width="20" height="20" viewBox="0 0 20 20" fill="none" xmlns="http://www.w3.org/2000/svg">
<path fill-rule="evenodd" clip-rule="evenodd" d="M9.99967 4.79199C8.27378 4.79199 6.87467 6.1911 6.87467 7.91699C6.87467 9.64288 8.27378 11.042 9.99967 11.042C11.7256 11.042 13.1247 9.64288 13.1247 7.91699C13.1247 6.1911 11.7256 4.79199 9.99967 4.79199ZM8.12467 7.91699C8.12467 6.88146 8.96414 6.04199 9.99967 6.04199C11.0352 6.04199 11.8747 6.88146 11.8747 7.91699C11.8747 8.95253 11.0352 9.79199 9.99967 9.79199C8.96414 9.79199 8.12467 8.95253 8.12467 7.91699Z" fill="#515E32"/>
<path fill-rule="evenodd" clip-rule="evenodd" d="M9.99967 1.04199C6.26821 1.04199 3.12467 4.18247 3.12467 7.98941C3.12467 11.8896 6.33928 14.4957 9.02224 16.1898L9.03302 16.1966L9.04407 16.2029C9.33482 16.3704 9.66416 16.4587 9.99967 16.4587C10.3352 16.4587 10.6645 16.3704 10.9553 16.2029L10.9649 16.1974L10.9744 16.1915C13.6678 14.5104 16.8747 11.8764 16.8747 7.98941C16.8747 4.18247 13.7311 1.04199 9.99967 1.04199ZM4.37467 7.98941C4.37467 4.8649 6.96647 2.29199 9.99967 2.29199C13.0329 2.29199 15.6247 4.8649 15.6247 7.98941C15.6247 11.14 13.0099 13.4457 10.3234 15.1243C10.2239 15.1798 10.1125 15.2087 9.99967 15.2087C9.88728 15.2087 9.77637 15.18 9.67713 15.125C6.99071 13.4268 4.37467 11.1505 4.37467 7.98941Z" fill="#515E32"/>
<path d="M5.20138 15.5919C5.52808 15.4805 5.70263 15.1253 5.59123 14.7986C5.47984 14.4719 5.12468 14.2973 4.79797 14.4087C4.24581 14.597 3.75663 14.8291 3.39287 15.1129C3.03756 15.3902 2.70801 15.7948 2.70801 16.3274C2.70801 16.9065 3.09544 17.3336 3.49457 17.6175C3.90962 17.9128 4.46969 18.1531 5.10552 18.3445C6.38509 18.7296 8.11528 18.9586 9.99967 18.9586C11.8841 18.9586 13.6143 18.7296 14.8938 18.3445C15.5297 18.1531 16.0897 17.9128 16.5048 17.6175C16.9039 17.3336 17.2913 16.9065 17.2913 16.3274C17.2913 15.7948 16.9618 15.3902 16.6065 15.1129C16.2427 14.8291 15.7535 14.597 15.2014 14.4087C14.8747 14.2973 14.5195 14.4719 14.4081 14.7986C14.2967 15.1253 14.4713 15.4805 14.798 15.5919C15.2831 15.7573 15.6272 15.9343 15.8375 16.0984C16.0056 16.2296 16.0357 16.3084 16.0407 16.327C16.0356 16.346 16.0009 16.4419 15.7801 16.599C15.5204 16.7838 15.1042 16.9758 14.5336 17.1475C13.4003 17.4886 11.7972 17.7086 9.99967 17.7086C8.20217 17.7086 6.59902 17.4886 5.46574 17.1475C4.89513 16.9758 4.4789 16.7838 4.21924 16.599C3.99841 16.4419 3.96375 16.346 3.9587 16.327C3.96362 16.3084 3.99372 16.2296 4.16185 16.0984C4.37212 15.9343 4.71626 15.7573 5.20138 15.5919Z" fill="#515E32"/>
</svg>
