<svg width="105" height="75" viewBox="0 0 105 75" fill="none" xmlns="http://www.w3.org/2000/svg">
<path d="M95.2689 3.22538C95.4669 3.39413 95.4669 3.39413 95.646 3.60038C95.7098 3.67154 95.7736 3.74269 95.8393 3.81601C96.3444 4.53517 96.4153 5.59434 96.4145 6.44569C96.4144 6.51411 96.4144 6.58252 96.4143 6.65301C96.4094 7.23409 96.3744 7.81141 96.3344 8.39101C96.1395 11.2508 96.0836 14.1177 96.0509 16.9832C96.0479 17.2456 96.0449 17.508 96.0418 17.7704C96.0406 17.8665 96.0395 17.9626 96.0383 18.0617C96.0313 18.6154 96.0211 19.1688 96.0052 19.7224C95.9553 21.4655 95.9364 23.2069 95.9376 24.9507C95.9378 25.3106 95.9376 25.6706 95.9375 26.0305C95.9374 26.6364 95.9376 27.2423 95.9379 27.8481C95.9383 28.4569 95.9383 29.0657 95.9379 29.6745C95.9359 33.1981 95.9508 36.7204 96.0105 40.2435C96.0276 41.2979 96.0332 42.3522 96.0373 43.4066C96.0377 43.4942 96.0381 43.5817 96.0385 43.6719C96.0388 43.7564 96.0392 43.841 96.0395 43.9281C96.0398 44.0029 96.0401 44.0777 96.0405 44.1548C96.0423 46.9928 95.4079 49.6739 93.3454 51.7316C92.944 52.1293 92.5311 52.5089 92.1008 52.8754C92.0601 52.9104 92.0193 52.9454 91.9774 52.9815C91.3811 53.4935 90.7704 53.9814 90.1396 54.4504C90.061 54.5095 89.9824 54.5687 89.9015 54.6297C88.1269 55.9433 85.9991 57.2393 83.7035 56.9711C82.4091 56.7422 81.4508 56.0463 80.4844 55.2004C80.3771 55.1068 80.3771 55.1068 80.2675 55.0114C80.1444 54.9021 80.0219 54.792 79.9004 54.6809C79.7897 54.5798 79.6777 54.4799 79.5645 54.3815C78.8835 53.7882 78.2546 53.14 77.618 52.5004C77.3439 52.5995 77.1227 52.7198 76.8855 52.888C76.7833 52.9598 76.7833 52.9598 76.679 53.0331C76.6062 53.0847 76.5333 53.1363 76.4583 53.1894C75.5763 53.8067 74.679 54.3967 73.771 54.9754C73.7081 55.0156 73.6451 55.0558 73.5801 55.0972C73.168 55.3597 72.7537 55.6188 72.3379 55.8754C72.2739 55.915 72.21 55.9546 72.1441 55.9953C70.8857 56.7717 69.6576 57.5286 68.1058 57.1715C67.9003 57.1 67.7065 57.0189 67.5103 56.9254C67.455 56.9 67.3998 56.8745 67.3429 56.8483C66.4217 56.3821 65.6958 55.6665 64.9739 54.9473C64.9369 54.9104 64.8998 54.8735 64.8616 54.8355C64.191 54.1656 64.191 54.1656 63.965 53.8504C63.9267 53.93 63.8884 54.0097 63.8489 54.0918C63.5777 54.6482 63.3161 55.1779 62.909 55.6504C62.8523 55.7214 62.7956 55.7925 62.7372 55.8657C62.5312 56.1106 62.3028 56.311 62.0509 56.5082C62.0057 56.5437 61.9604 56.5791 61.9138 56.6157C61.4285 56.982 60.9069 57.2217 60.3443 57.4504C60.2767 57.4787 60.2092 57.507 60.1395 57.5362C59.1885 57.8902 58.1617 57.6732 57.2687 57.2843C56.1088 56.7142 55.3045 55.6545 54.6116 54.6004C54.3124 54.6259 54.1755 54.7111 53.9742 54.9279C53.7024 55.2125 53.3984 55.4655 53.1029 55.7254C53.0306 55.7907 52.9583 55.8561 52.8837 55.9234C51.3931 57.247 49.7901 57.9855 47.7815 57.9138C47.4042 57.8864 47.0989 57.7728 46.7667 57.6004C46.6984 57.5686 46.63 57.5368 46.5596 57.504C46.023 57.2383 45.6107 56.8885 45.1827 56.4754C45.1131 56.4145 45.1131 56.4145 45.0421 56.3523C44.2858 55.6678 43.8507 54.6907 43.4478 53.7754C43.4149 53.7025 43.382 53.6296 43.3482 53.5545C43.2801 53.4034 43.2129 53.252 43.146 53.1004C42.8112 53.2085 42.5801 53.392 42.321 53.6207C41.9345 53.9539 41.5407 54.2739 41.1367 54.5859C40.9105 54.7608 40.6859 54.9372 40.4644 55.1181C39.7293 55.7168 38.9583 56.2518 38.1676 56.7754C38.4115 57.2875 38.7008 57.6951 39.0728 58.1254C39.1352 58.1976 39.1976 58.2698 39.2619 58.3442C40.7431 60.0206 42.7679 61.2275 44.881 61.9504C44.9511 61.9765 45.0212 62.0025 45.0935 62.0294C45.5407 62.1539 46.0105 62.1202 46.4709 62.1177C46.5781 62.1176 46.6852 62.1176 46.7924 62.1177C47.0818 62.1176 47.3712 62.1165 47.6606 62.1152C47.8423 62.1144 48.024 62.1139 48.2057 62.1135C52.9257 62.1056 52.9257 62.1056 57.6429 61.9598C57.7308 61.956 57.7308 61.956 57.8204 61.9522C58.5063 61.9219 59.1672 61.8423 59.8397 61.704C60.8799 61.5037 62.0116 61.3754 62.927 61.9885C63.3869 62.348 63.5582 62.762 63.7387 63.3004C63.8194 64.2883 63.6303 65.1541 62.9844 65.9254C62.4559 66.4853 61.8461 66.7881 61.0751 66.8433C60.0964 66.8628 59.3229 66.6264 58.4868 66.1302C57.9755 65.8361 57.4439 65.8391 56.8675 65.8409C56.809 65.8407 56.7506 65.8406 56.6903 65.8405C56.4959 65.8402 56.3014 65.8404 56.1069 65.8407C55.9666 65.8406 55.8264 65.8404 55.6861 65.8403C55.3048 65.8399 54.9235 65.8401 54.5421 65.8403C54.138 65.8405 53.7338 65.8403 53.3296 65.8402C52.6464 65.8401 51.9633 65.8402 51.2802 65.8406C50.5887 65.841 49.8973 65.841 49.2058 65.8406C44.4551 65.8361 44.4551 65.8361 39.7048 65.8838C39.611 65.8852 39.5172 65.8867 39.4206 65.8882C38.2908 65.9062 38.2908 65.9062 37.162 65.9544C35.924 66.024 34.6841 66.0127 33.4446 66.0129C33.2361 66.013 33.0275 66.0131 32.819 66.0133C32.0855 66.014 31.3519 66.0143 30.6184 66.0143C30.019 66.0142 29.4196 66.0148 28.8201 66.0158C23.0379 66.0257 23.0379 66.0257 21.078 65.9339C21.0147 65.931 20.9513 65.928 20.886 65.925C17.6569 65.7686 17.6569 65.7686 16.6038 64.6785C15.8679 63.7675 15.8469 62.6842 15.9154 61.5754C16.0374 60.4788 16.324 59.1878 16.8206 58.2004C15.4094 58.5138 14.0926 58.982 12.9736 59.9254C12.9281 59.9628 12.8825 60.0002 12.8356 60.0387C12.4774 60.3396 12.1799 60.6544 11.8987 61.0269C11.8573 61.0815 11.8159 61.136 11.7732 61.1922C11.0533 62.159 10.476 63.2075 9.94895 64.2876C9.33608 65.5298 8.65647 66.3222 7.31631 66.8254C6.63989 67.015 5.7954 67.0124 5.15709 66.7129C4.29175 66.2019 3.84143 65.483 3.55418 64.5332C3.21169 62.9692 3.5835 61.2979 4.39807 59.9394C4.79473 59.3483 5.27001 58.9395 5.95855 58.7254C6.18473 58.7108 6.40282 58.7365 6.628 58.7582C7.68057 58.8048 8.57051 58.3332 9.50381 57.9004C9.5853 57.8635 9.6668 57.8267 9.75076 57.7887C11.5138 56.9907 13.1629 56.0264 14.784 54.9754C14.5435 54.729 14.2981 54.5101 14.025 54.3004C11.2545 52.0546 9.66022 48.1581 9.20208 44.7004C9.20208 44.6014 9.20208 44.5024 9.20208 44.4004C9.11 44.4357 9.01792 44.471 8.92305 44.5073C7.515 45.0407 5.91477 45.5223 4.42164 45.0004C3.97169 44.7873 3.60632 44.5122 3.24303 44.1754C3.20043 44.1365 3.15783 44.0976 3.11393 44.0575C2.13721 43.1582 1.00004 42.0131 0.942383 40.6176C0.976836 39.6991 1.46146 38.8967 1.88527 38.1004C1.92611 38.0235 1.96695 37.9467 2.00902 37.8675C2.24023 37.4579 2.45727 37.1503 2.93719 37.0064C3.10486 36.972 3.27232 36.9446 3.44163 36.9194C3.50392 36.9092 3.56621 36.899 3.63039 36.8885C3.76286 36.8668 3.89541 36.8456 4.02802 36.8248C4.37112 36.7708 4.71356 36.713 5.05603 36.6552C5.15578 36.6384 5.15578 36.6384 5.25755 36.6213C6.27712 36.448 7.25733 36.1889 8.2312 35.8442C8.44777 35.7754 8.44777 35.7754 8.67406 35.7754C8.67288 35.687 8.67169 35.5986 8.67047 35.5075C8.63901 32.9169 8.76171 30.371 9.05593 27.7973C9.06211 27.7424 9.06828 27.6875 9.07463 27.6309C9.09211 27.4779 9.11051 27.325 9.1293 27.1721C9.13971 27.086 9.15012 26.9999 9.16085 26.9112C9.20208 26.7004 9.20208 26.7004 9.35294 26.4754C9.72067 26.541 9.72067 26.541 9.80553 26.6254C9.81231 26.8256 9.8142 27.0238 9.8129 27.224C9.81273 27.3183 9.81273 27.3183 9.81256 27.4144C9.81228 27.5516 9.81181 27.6888 9.8112 27.8259C9.81024 28.0443 9.80974 28.2628 9.80938 28.4812C9.80837 29.025 9.80656 29.5688 9.80475 30.1126C9.80324 30.57 9.80207 31.0274 9.80131 31.4848C9.80083 31.6976 9.79988 31.9104 9.79892 32.1231C9.79704 32.7764 9.80516 33.4274 9.83883 34.0799C9.84177 34.1373 9.84471 34.1947 9.84774 34.2539C9.86716 34.5897 9.90391 34.918 9.95639 35.2504C14.8849 33.2645 18.2318 30.4971 20.3281 25.587C20.6133 24.9026 20.8747 24.2106 21.1249 23.5129C21.1423 23.4647 21.1596 23.4165 21.1775 23.3669C21.3721 22.8234 21.543 22.2849 21.6651 21.7206C21.7298 21.5048 21.8263 21.3383 21.9499 21.1504C22.0744 21.1751 22.1988 21.1999 22.3271 21.2254C22.1608 24.2353 20.9532 27.5082 19.5361 30.1504C19.5104 30.199 19.4847 30.2477 19.4582 30.2979C18.6396 31.8372 17.5632 33.1606 16.368 34.4254C16.8895 35.9009 18.1686 36.9156 19.4607 37.7254C19.5718 37.7979 19.5718 37.7979 19.6852 37.8719C20.1454 38.158 20.6284 38.3707 21.1296 38.5738C21.1917 38.5992 21.2538 38.6245 21.3178 38.6506C22.4489 39.0932 23.8818 39.2326 25.0376 38.8041C26.1403 38.3097 27.3815 37.639 28.0755 36.6162C28.2016 36.2664 28.1592 35.9888 28.0298 35.6459C27.9815 35.5477 27.9318 35.4503 27.8807 35.3535C27.8535 35.3012 27.8264 35.2489 27.7984 35.195C27.2951 34.2579 26.5684 33.5118 25.8376 32.7478C25.0869 31.9564 25.0869 31.9564 25.0938 31.4013C25.141 31.0103 25.3088 30.663 25.4669 30.3051C25.4991 30.2285 25.5313 30.152 25.5644 30.0732C26.0652 28.9086 26.0652 28.9086 26.4758 28.5004C26.8406 28.5098 27.0429 28.7149 27.2914 28.9551C27.3312 28.9926 27.371 29.0302 27.412 29.0689C27.4917 29.1444 27.5711 29.2203 27.6501 29.2965C27.7405 29.3835 27.8324 29.469 27.9246 29.5542C29.2193 30.7786 30.1924 32.466 30.2819 34.2621C30.3115 35.6998 29.8696 37.1094 29.2667 38.4004C29.2427 38.4525 29.2187 38.5046 29.194 38.5582C28.2637 40.5356 26.2673 42.1176 24.2541 42.9306C22.671 43.4753 21.1052 43.2219 19.6157 42.5289C18.7609 42.1116 17.9864 41.5761 17.2732 40.9504C17.2017 40.8884 17.1303 40.8264 17.0566 40.7626C16.6435 40.3976 16.2685 40.0223 15.9154 39.6004C15.8496 39.5244 15.7835 39.4485 15.7174 39.3727C15.3004 38.8923 14.9104 38.4056 14.5577 37.8754C14.3648 38.1141 14.2271 38.3627 14.0883 38.6356C14.0414 38.7273 13.9944 38.8189 13.9475 38.9105C13.9232 38.9581 13.8989 39.0058 13.8739 39.0548C13.1375 40.4954 12.4243 41.8432 11.2387 42.9754C11.388 43.5736 11.585 44.1393 11.8186 44.7098C11.852 44.7917 11.8854 44.8736 11.9198 44.958C12.7115 46.8824 13.7096 48.5224 15.1611 50.0254C15.2004 50.0666 15.2396 50.1078 15.2801 50.1503C16.5354 51.4396 18.1426 52.249 19.8379 52.8004C19.9757 52.8455 19.9757 52.8455 20.1163 52.8915C21.2191 53.2162 22.3671 53.3261 23.5134 53.34C23.61 53.3414 23.61 53.3414 23.7085 53.3428C24.0306 53.347 24.3523 53.3485 24.6744 53.3456C25.6078 53.3463 26.3996 53.489 27.1217 54.1316C27.6436 54.7096 27.8633 55.3513 27.8539 56.1162C27.7488 57.5848 27.0298 58.9596 25.9218 59.9219C25.624 60.15 25.3129 60.3069 24.9672 60.4504C24.8598 60.4991 24.8598 60.4991 24.7503 60.5488C23.766 60.7641 22.8287 60.4701 21.9971 59.9441C21.5 59.5916 21.0663 59.1837 20.7006 58.6973C20.2741 58.2405 19.619 58.199 19.0205 58.1767C18.9002 58.1719 18.9002 58.1719 18.7774 58.1671C18.6536 58.1627 18.6536 58.1627 18.5272 58.1582C18.4429 58.155 18.3586 58.1517 18.2718 58.1484C18.0646 58.1405 17.8575 58.1328 17.6504 58.1254C17.677 59.1707 17.7708 60.1232 18.5555 60.9004C19.847 62.0048 21.7307 62.0154 23.3509 62.0639C23.4996 62.0685 23.4996 62.0685 23.6513 62.0733C23.9786 62.0834 24.306 62.0928 24.6333 62.1021C24.6899 62.1038 24.7466 62.1054 24.8049 62.1071C27.3952 62.1821 29.9852 62.2068 32.5765 62.2196C33.1727 62.2225 33.769 62.2262 34.3652 62.2299C35.5824 62.2375 36.7996 62.2442 38.0167 62.2504C38.0167 62.2009 38.0167 62.1514 38.0167 62.1004C37.9735 62.0809 37.9302 62.0615 37.8856 62.0415C37.2471 61.7005 36.7957 61.0808 36.3573 60.5254C36.2384 60.3749 36.119 60.2249 35.999 60.0754C35.9464 60.0089 35.8939 59.9423 35.8398 59.8738C35.4972 59.5058 35.1232 59.4199 34.6506 59.3066C33.919 59.1169 33.2292 58.8228 32.7528 58.2103C32.3775 57.5552 32.2271 56.776 32.4119 56.0421C32.7656 54.9883 33.363 54.2312 34.3498 53.71C34.8856 53.4799 35.4489 53.4755 35.9942 53.6723C36.2512 53.7811 36.4088 53.8873 36.5883 54.0988C36.7784 54.3133 36.7784 54.3133 36.9594 54.3121C37.3653 54.2595 37.7058 54.1647 38.0733 53.9863C38.1272 53.9606 38.181 53.9348 38.2365 53.9083C39.6863 53.187 40.9928 52.1616 42.1675 51.0593C42.3605 50.8782 42.5587 50.7042 42.7595 50.5316C43.1293 50.2068 43.4384 49.8404 43.7548 49.4652C43.8075 49.4041 43.8602 49.343 43.9145 49.2801C43.9622 49.2237 44.01 49.1673 44.0592 49.1093C44.2108 48.9672 44.3003 48.9286 44.5038 48.9004C44.7272 49.1571 44.8244 49.4375 44.9328 49.7535C45.4676 51.2318 46.5082 52.7877 47.9736 53.4754C48.4533 53.6885 48.8551 53.7414 49.3785 53.7379C49.4516 53.7375 49.5247 53.7371 49.6001 53.7367C50.2292 53.7217 50.7231 53.6015 51.2926 53.3254C51.3623 53.2928 51.432 53.2602 51.5039 53.2267C52.3887 52.7798 53.1647 52.1657 53.8817 51.4899C54.0508 51.3311 54.2226 51.1787 54.3994 51.0285C54.6877 50.7819 54.9484 50.512 55.2091 50.2369C55.3703 50.0966 55.4534 50.0314 55.6676 50.0254C55.9028 50.1857 55.994 50.4371 56.1155 50.6863C56.8118 51.9938 58.0035 53.0602 59.3826 53.6207C60.0311 53.809 60.8819 53.8186 61.4832 53.4962C62.0172 53.1418 62.0172 53.1418 62.2613 52.5736C62.3213 51.9094 61.9401 51.4947 61.5512 51.0004C61.4631 50.8833 61.375 50.7661 61.2872 50.6488C61.2522 50.6037 61.2172 50.5585 61.1811 50.512C60.9797 50.2395 60.9738 49.9759 61.0232 49.6504C61.1418 49.307 61.2935 48.9809 61.4475 48.6519C61.5066 48.5215 61.5066 48.5215 61.5668 48.3884C62.2693 46.8544 62.2693 46.8544 62.6073 46.5754C62.8331 46.5754 62.9177 46.658 63.0881 46.8051C63.4851 47.2467 63.7706 47.6775 64.0263 48.2113C64.2918 48.7595 64.6128 49.1953 65.021 49.6504C65.0878 49.7298 65.1541 49.8095 65.2202 49.8894C66.2553 51.1332 67.4328 52.4997 69.0189 53.0254C71.0624 53.1807 72.6885 51.8851 74.3293 50.8264C74.6699 50.6074 75.0126 50.3915 75.3551 50.1754C75.2505 49.9432 75.1279 49.7777 74.952 49.5935C74.9019 49.5408 74.8518 49.488 74.8002 49.4337C74.7468 49.3783 74.6935 49.323 74.6385 49.266C74.5838 49.2091 74.5292 49.1523 74.4729 49.0937C74.3639 48.9805 74.2547 48.8674 74.1454 48.7546C74.0215 48.6255 73.8997 48.4951 73.779 48.3631C73.1753 47.7211 72.5728 47.5004 71.725 47.3301C71.1951 47.223 70.7829 47.099 70.3766 46.7254C70.3282 46.6814 70.2798 46.6374 70.2299 46.5921C69.6316 45.9835 69.5213 45.3265 69.5139 44.5035C69.5131 44.4373 69.5124 44.3711 69.5116 44.3029C69.5223 43.5008 69.7919 42.8214 70.3566 42.2409C70.8046 41.8418 71.2052 41.6674 71.8128 41.6778C71.9309 41.6772 72.0491 41.6766 72.1673 41.6759C72.351 41.6761 72.5346 41.6769 72.7183 41.679C73.5293 41.6862 74.1283 41.6326 74.8271 41.1754C74.9129 41.1202 74.9129 41.1202 75.0006 41.064C75.1617 40.9553 75.3175 40.8418 75.473 40.7254C75.5295 40.684 75.586 40.6426 75.6443 40.6C75.825 40.4675 76.005 40.334 76.1848 40.2004C76.3744 40.0598 76.5641 39.9194 76.7541 39.7792C76.8734 39.6911 76.9924 39.6027 77.1111 39.5138C78.0925 38.7868 79.1349 38.1821 80.4054 38.3559C81.4921 38.6094 82.2522 39.4772 82.9501 40.2941C83.8865 41.3774 85.1409 42.0568 86.4399 42.6224C87.0803 42.9085 87.5339 43.3843 87.8207 44.0239C88.1106 44.8082 88.1584 45.7313 87.8065 46.5045C87.4558 47.1226 86.933 47.545 86.2714 47.7961C85.9293 47.8866 85.609 47.8425 85.2601 47.8129C84.2035 47.7701 83.4703 48.2074 82.5965 48.7504C82.4611 48.8319 82.3256 48.9133 82.1902 48.9947C81.6263 49.3385 81.0842 49.6993 80.5598 50.1004C81.9188 51.4613 83.3597 52.8477 85.3921 52.8941C87.7668 52.8425 90.0262 51.062 91.7991 49.6504C91.8821 49.5882 91.9653 49.5262 92.0486 49.4643C92.1305 49.4014 92.2123 49.3384 92.2941 49.2754C92.3657 49.2212 92.4374 49.1671 92.5112 49.1113C93.1298 48.4353 93.0469 47.5837 93.0381 46.7283C93.0377 46.5879 93.0375 46.4474 93.0373 46.307C93.0366 45.9369 93.034 45.5668 93.0311 45.1968C93.0291 44.9028 93.0284 44.6088 93.0278 44.3149C93.027 43.9537 93.0255 43.5926 93.0239 43.2314C93.0237 43.1667 93.0234 43.1019 93.0232 43.0352C93.0194 42.2431 93.004 41.4518 92.9796 40.66C92.9256 38.9006 92.9089 37.1414 92.8949 35.3813C92.8913 34.9404 92.8874 34.4995 92.8835 34.0586C92.8746 33.036 92.866 32.0135 92.8575 30.991C92.8466 29.6915 92.8357 28.3921 92.8243 27.0927C92.8205 26.6574 92.8167 26.2221 92.8133 25.7868C92.7998 24.1046 92.7826 22.4227 92.7437 20.7408C92.7423 20.6762 92.7408 20.6115 92.7393 20.5449C92.6644 17.2864 92.4841 14.0866 91.5592 10.9422C90.9665 8.91404 90.8563 6.89548 91.8683 4.97444C92.3281 4.14682 92.9509 3.36746 93.8749 3.04696C94.3889 2.919 94.8012 2.96606 95.2689 3.22538Z" fill="#F3DC9A"/>
<path d="M84.6524 11.0957C85.6762 11.3841 86.5098 13.0321 87.0007 13.8944C87.2536 14.3505 87.4826 14.8061 87.6508 15.3004C87.6801 15.3861 87.7095 15.4719 87.7398 15.5603C88.299 17.3876 87.7702 19.2838 86.9059 20.9348C86.6073 21.4842 86.2728 21.9696 85.8404 22.4254C85.79 22.48 85.79 22.48 85.7386 22.5357C84.5958 23.7666 82.9883 24.8581 81.2595 24.9393C80.5831 24.9518 80.037 24.8344 79.4288 24.5254C79.3513 24.4864 79.2738 24.4475 79.194 24.4073C78.6497 24.1123 78.2173 23.7473 77.7693 23.3254C77.6675 23.2407 77.5653 23.1563 77.4629 23.0723C77.0234 22.6929 76.6797 22.2237 76.3255 21.7674C76.1522 21.561 76.0903 21.5311 75.8223 21.5037C75.1139 21.5676 74.4204 22.5226 73.938 23.0087C73.668 23.2799 73.39 23.5341 73.0926 23.7754C73.0561 23.8056 73.0196 23.8358 72.982 23.8669C72.3502 24.3883 71.7072 24.8211 70.9805 25.2004C70.9127 25.24 70.8448 25.2797 70.7749 25.3205C70.1181 25.6736 69.3886 25.6666 68.6646 25.5396C68.4963 25.4897 68.3472 25.427 68.1896 25.3504C68.1303 25.3246 68.0709 25.2988 68.0098 25.2722C67.1229 24.8444 66.337 24.1315 65.6578 23.4289C65.5516 23.3172 65.5516 23.3172 65.3986 23.2504C65.3808 23.3149 65.363 23.3794 65.3447 23.4458C65.2376 23.727 65.09 23.9412 64.9036 24.1738C64.87 24.2161 64.8364 24.2584 64.8018 24.302C64.2665 24.9657 63.7303 25.6141 62.8371 25.7474C61.6238 25.8696 60.5914 25.4302 59.509 24.9416C59.15 24.7817 58.7874 24.651 58.4118 24.5348C58.3627 24.5195 58.3136 24.5043 58.263 24.4886C57.8025 24.3511 57.3744 24.291 56.8941 24.2916C56.8446 24.2915 56.7951 24.2915 56.744 24.2915C56.5783 24.2914 56.4126 24.2919 56.2469 24.2924C56.1268 24.2925 56.0067 24.2925 55.8866 24.2925C55.5567 24.2926 55.2267 24.2932 54.8968 24.2939C54.5409 24.2945 54.1851 24.2947 53.8292 24.295C53.2124 24.2954 52.5956 24.2962 51.9789 24.297C51.086 24.2983 50.1932 24.299 49.3004 24.2996C47.8505 24.3005 46.4005 24.3016 44.9506 24.303C44.8638 24.3031 44.777 24.3031 44.6876 24.3032C43.4567 24.3044 42.2258 24.3058 40.9948 24.3073C40.8649 24.3074 40.8649 24.3074 40.7323 24.3076C40.6026 24.3077 40.6026 24.3077 40.4701 24.3079C39.0263 24.3096 37.5824 24.3108 36.1386 24.3115C35.2483 24.3119 34.3581 24.3128 33.4678 24.3144C32.8574 24.3154 32.247 24.3159 31.6365 24.316C31.2846 24.316 30.9326 24.3163 30.5807 24.3173C30.258 24.3181 29.9353 24.3183 29.6126 24.3179C29.4963 24.3179 29.3801 24.3182 29.2638 24.3187C27.6356 24.3257 25.9689 24.0767 24.7546 22.9029C23.7503 21.8165 23.3373 20.4256 23.3458 18.9707C23.3466 18.839 23.3466 18.839 23.3473 18.7046C23.4007 16.1486 24.8586 13.8446 26.6271 12.0754C26.8269 11.8987 26.8269 11.8987 27.0042 11.7754C27.2164 11.7941 27.2164 11.7941 27.3814 11.8504C27.3474 12.2192 27.1573 12.4425 26.9335 12.7223C26.6001 13.1568 26.3178 13.6029 26.0614 14.0863C26.0305 14.1436 25.9997 14.2008 25.968 14.2598C25.6036 14.9635 25.4578 15.597 25.4673 16.3879C25.4665 16.4605 25.4656 16.5331 25.4647 16.6079C25.4685 17.5542 25.8144 18.2934 26.3395 19.0691C27.5316 20.2281 29.1759 20.3374 30.7524 20.3349C30.8737 20.335 30.995 20.3351 31.1163 20.3353C31.449 20.3356 31.7816 20.3354 32.1143 20.3352C32.4735 20.335 32.8327 20.3353 33.1919 20.3355C33.8963 20.3358 34.6007 20.3358 35.3051 20.3355C35.8794 20.3354 36.4538 20.3353 37.0282 20.3354C37.1511 20.3354 37.1511 20.3354 37.2765 20.3355C37.4429 20.3355 37.6094 20.3355 37.7759 20.3355C39.3389 20.3357 40.9018 20.3355 42.4648 20.3351C43.7977 20.3348 45.1306 20.3348 46.4636 20.3352C48.0161 20.3356 49.5686 20.3357 51.1211 20.3355C51.288 20.3355 51.4548 20.3355 51.6216 20.3354C51.7447 20.3354 51.7447 20.3354 51.8703 20.3354C52.4405 20.3353 53.0106 20.3354 53.5808 20.3356C57.7138 20.3398 57.7138 20.3398 61.8465 20.2966C61.9649 20.2949 61.9649 20.2949 62.0856 20.2932C62.2992 20.29 62.5128 20.2857 62.7264 20.2811C62.8168 20.2798 62.8168 20.2798 62.9089 20.2786C63.2168 20.2704 63.4617 20.2366 63.7391 20.1004C63.9313 19.151 63.3532 18.1846 62.8584 17.3965C62.66 17.1062 62.4307 16.8346 62.1894 16.5786C61.9402 16.2943 61.8661 16.061 61.8861 15.6839C61.9745 15.2005 62.1574 14.7457 62.3353 14.2888C62.4052 14.1091 62.4732 13.9288 62.5409 13.7482C62.5848 13.633 62.6287 13.5177 62.6728 13.4025C62.6931 13.349 62.7134 13.2955 62.7343 13.2404C62.8384 12.9743 62.9375 12.7351 63.1357 12.5254C63.3184 12.4894 63.3184 12.4894 63.5129 12.5254C64.7949 13.4256 65.4421 15.1391 65.7546 16.6047C65.8227 17.0173 65.8536 17.4079 65.85 17.8255C65.8217 18.6181 65.8217 18.6181 66.0566 19.3545C66.253 19.5325 66.4543 19.6623 66.681 19.8004C66.7774 19.8726 66.8729 19.946 66.9677 20.0204C68.3642 21.1246 68.3642 21.1246 70.0754 21.3754C72.0431 20.9826 73.7161 19.2146 75.1384 17.9005C76.1376 16.9798 76.1376 16.9798 76.5577 16.9176C77 16.9804 77.2688 17.2552 77.5301 17.6006C77.5624 17.6444 77.5946 17.6881 77.6279 17.7332C78.599 19.0031 79.8324 20.4113 81.4654 20.7754C82.5636 20.9191 83.5757 20.4284 84.457 19.8095C85.181 19.268 85.181 19.268 85.6085 18.5055C85.6158 18.1437 85.5081 17.9511 85.3218 17.6488C85.2907 17.5964 85.2596 17.544 85.2275 17.4899C84.7514 16.7029 84.167 16.008 83.5622 15.3174C82.8655 14.5205 82.8655 14.5205 82.872 13.9987C82.9235 13.6153 83.1097 13.2881 83.2852 12.9473C83.3389 12.8388 83.3389 12.8388 83.3936 12.7281C83.5028 12.5092 83.6149 12.2921 83.7284 12.0754C83.7682 11.9985 83.8081 11.9216 83.8491 11.8424C83.8884 11.7683 83.9277 11.6941 83.9682 11.6178C84.0036 11.5508 84.039 11.4838 84.0754 11.4149C84.2368 11.1634 84.3534 11.1014 84.6524 11.0957Z" fill="#F3DC9A"/>
<path d="M102.842 3.06408C103.429 3.39204 103.753 3.94847 103.958 4.56848C104.131 5.22289 104.181 5.88204 104.181 6.55569C104.18 6.61669 104.18 6.6777 104.18 6.74056C104.176 7.39989 104.135 8.05666 104.095 8.7146C103.993 10.3833 103.922 12.0495 103.899 13.7211C103.898 13.8237 103.896 13.9263 103.895 14.0289C103.845 17.558 103.857 21.0879 103.859 24.6172C103.859 25.3727 103.859 26.1282 103.859 26.8838C103.857 31.1019 103.864 35.3192 103.922 39.537C103.923 39.5975 103.923 39.658 103.924 39.7203C103.926 39.8399 103.928 39.9595 103.929 40.0791C103.951 41.6584 103.956 43.2376 103.954 44.8169C103.953 45.2019 103.954 45.5869 103.954 45.9719C103.954 46.2818 103.954 46.5917 103.954 46.9016C103.954 47.0439 103.954 47.1862 103.954 47.3285C103.955 48.0619 103.944 48.7933 103.91 49.526C103.907 49.5906 103.904 49.6552 103.901 49.7218C103.874 50.2385 103.814 50.743 103.727 51.2533C103.713 51.3363 103.7 51.4193 103.685 51.5049C103.658 51.6665 103.631 51.828 103.603 51.9895C103.573 52.1613 103.546 52.3331 103.521 52.5055C102.875 56.3386 100.405 59.5063 97.306 61.7252C95.5918 62.9371 93.6414 64.1647 91.5732 64.6502C91.5117 64.6647 91.4502 64.6792 91.3868 64.6941C88.511 65.3406 85.3438 64.8577 82.4461 64.5002C82.3934 64.4938 82.3408 64.4874 82.2866 64.4809C82.1315 64.4619 81.9764 64.4425 81.8214 64.4229C81.6867 64.406 81.6867 64.406 81.5493 64.3887C81.1863 64.3292 80.9007 64.2387 80.6357 63.9752C80.6495 63.7639 80.6934 63.6911 80.8526 63.5487C81.1281 63.3795 81.3856 63.3539 81.7024 63.3207C85.0211 62.9572 88.3279 62.332 91.4978 61.2752C91.5811 61.2481 91.6644 61.221 91.7501 61.1931C93.9655 60.4678 96.1432 59.5214 97.9094 57.9752C97.9846 57.9113 98.0598 57.8474 98.1372 57.7816C98.9768 57.0553 99.5857 56.2239 100.022 55.2002C100.052 55.1287 100.052 55.1287 100.083 55.0558C100.992 52.8414 100.863 50.2973 100.864 47.9477C100.864 47.695 100.864 47.4423 100.865 47.1896C100.866 46.3629 100.866 45.5362 100.865 44.7095C100.865 44.4938 100.865 44.278 100.865 44.0622C100.866 38.074 100.807 32.0875 100.7 26.1002C100.697 25.9226 100.694 25.745 100.691 25.5674C100.749 18.4809 100.749 18.4809 99.5318 11.5537C99.3596 10.989 99.2197 10.4165 99.0814 9.84283C99.0495 9.71087 99.0165 9.57917 98.9832 9.44758C98.6104 7.77695 99.0179 5.96815 99.8895 4.51428C100.558 3.53434 101.567 2.61315 102.842 3.06408Z" fill="#F3DC9A"/>
<path d="M14.8949 15.91C15.7043 16.1865 16.4454 17.1183 17.0474 17.7003C17.1172 17.7677 17.187 17.8351 17.2589 17.9045C17.4955 18.1485 17.6334 18.306 17.7168 18.6378C17.4566 19.6727 16.3238 20.7049 15.5523 21.4292C15.4463 21.522 15.4463 21.522 15.4633 21.6753C15.5838 21.7812 15.7089 21.8819 15.8358 21.98C16.1846 22.2571 16.5007 22.5477 16.8114 22.866C16.9656 23.019 17.1255 23.1582 17.2925 23.2972C17.8499 23.7803 17.8499 23.7803 17.9526 24.0753C17.9393 24.5371 17.8516 24.7706 17.5518 25.1347C17.5187 25.1755 17.4855 25.2162 17.4514 25.2582C17.3433 25.3902 17.2333 25.5203 17.1228 25.6503C17.0846 25.6959 17.0464 25.7415 17.0071 25.7885C16.7487 26.0967 16.4853 26.4 16.2176 26.7003C16.1652 26.7598 16.1128 26.8192 16.0588 26.8805C15.8632 27.0905 15.7297 27.2099 15.4586 27.3144C15.0015 27.2854 14.6351 26.8869 14.2989 26.5972C14.2541 26.5588 14.2094 26.5205 14.1632 26.4809C13.805 26.1713 13.454 25.8542 13.1061 25.5331C13.0333 25.4662 13.0333 25.4662 12.9589 25.3978C12.9138 25.3558 12.8686 25.3137 12.8221 25.2703C12.7822 25.2333 12.7423 25.1962 12.7012 25.158C12.5969 25.0503 12.5969 25.0503 12.4461 24.8253C12.4604 24.4374 12.6238 24.1845 12.8515 23.8831C12.8849 23.8379 12.9182 23.7927 12.9525 23.7461C13.3144 23.2619 13.7068 22.8045 14.1056 22.3503C14.159 22.2888 14.2123 22.2274 14.2673 22.164C14.459 21.9442 14.6511 21.7293 14.8599 21.5253C14.8067 21.5086 14.7535 21.4919 14.6987 21.4746C14.4359 21.3538 14.2502 21.1834 14.0443 20.9863C13.9639 20.9111 13.8835 20.836 13.803 20.761C13.7449 20.7064 13.7449 20.7064 13.6856 20.6508C13.5486 20.5234 13.4082 20.4005 13.2664 20.2785C13.2203 20.238 13.1742 20.1976 13.1267 20.156C13.0096 20.0557 12.8901 19.9582 12.7696 19.8619C12.2441 19.4272 12.2441 19.4272 12.1396 19.0972C12.3584 18.3552 12.928 17.7511 13.4267 17.1753C13.4838 17.1093 13.5408 17.0433 13.5997 16.9752C14.5569 15.8924 14.5569 15.8924 14.8949 15.91Z" fill="#F3DC9A"/>
<path d="M48.6527 9.22515C48.8645 9.37808 48.8645 9.37808 49.0628 9.57202C49.1703 9.67484 49.1703 9.67484 49.28 9.77974C49.3802 9.87647 49.3802 9.87647 49.4824 9.97515C49.5792 10.0587 49.6765 10.1417 49.7747 10.2236C50.0589 10.4719 50.3359 10.7275 50.6092 10.9876C50.653 11.0277 50.6968 11.0678 50.7419 11.109C50.9649 11.325 51.0582 11.4435 51.1387 11.7511C51.1477 12.4475 50.5504 12.9592 50.1172 13.4517C49.9554 13.6388 49.8019 13.8322 49.6474 14.0251C49.089 14.7017 49.089 14.7017 48.6244 14.8642C48.2233 14.8436 48.0393 14.6608 47.7475 14.4001C47.681 14.3412 47.6145 14.2822 47.546 14.2214C47.3354 14.0323 47.1265 13.8413 46.9178 13.6501C46.5309 13.3024 46.133 12.9799 45.7109 12.6751C45.6669 12.7333 45.623 12.7916 45.5777 12.8515C43.9492 14.9919 43.9492 14.9919 43.4479 15.2251C43.0101 15.2206 42.7652 15.07 42.4532 14.7845C42.3905 14.7295 42.3905 14.7295 42.3266 14.6734C42.1964 14.5585 42.0677 14.4421 41.9393 14.3251C41.8986 14.2884 41.858 14.2517 41.8161 14.2139C41.6232 14.0397 41.4314 13.8645 41.241 13.6876C41.0593 13.523 40.8726 13.3711 40.6806 13.2189C40.4921 13.0519 40.4278 12.9686 40.3223 12.7314C40.4472 11.6668 41.8067 10.4133 42.5428 9.67515C42.8066 9.50027 42.9113 9.49316 43.2216 9.52515C43.3911 9.61948 43.3911 9.61948 43.5564 9.75952C43.6207 9.81395 43.6851 9.86838 43.7514 9.92447C44.4506 10.5444 45.1319 11.1836 45.7863 11.8501C45.8229 11.7993 45.8594 11.7484 45.8971 11.696C46.377 11.0336 46.8746 10.3965 47.4269 9.79234C47.4616 9.7542 47.4963 9.71607 47.5321 9.67678C48.0912 9.07327 48.0912 9.07327 48.6527 9.22515Z" fill="#F3DC9A"/>
<path d="M29.6304 44.6436C30.553 44.8594 31.9217 46.3304 32.4628 47.0951C32.5333 47.322 32.4983 47.4722 32.4354 47.6998C32.3199 47.8952 32.3199 47.8952 32.1714 48.0889C32.0893 48.1962 32.0893 48.1962 32.0055 48.3057C31.9483 48.378 31.891 48.4503 31.832 48.5248C31.7786 48.5925 31.7252 48.6602 31.6702 48.7299C31.3631 49.1106 31.0432 49.4794 30.7147 49.842C30.6631 49.8997 30.6631 49.8997 30.6104 49.9586C30.2713 50.3275 30.2713 50.3275 30.0217 50.3998C29.6032 50.3935 29.3702 50.1951 29.0741 49.9264C29.0287 49.8865 28.9834 49.8467 28.9368 49.8057C28.5733 49.4844 28.2152 49.1566 27.8607 48.8256C27.4838 48.4165 27.4838 48.4165 27.0044 48.2248C26.9148 48.3368 26.831 48.4535 26.7498 48.5717C25.4596 50.3803 25.4596 50.3803 24.8169 50.6998C24.5746 50.7298 24.3788 50.7505 24.1603 50.6272C24.027 50.5227 23.9033 50.4124 23.7797 50.2967C23.7342 50.256 23.6887 50.2152 23.6418 50.1733C23.5044 50.0499 23.3686 49.925 23.2329 49.7998C23.1558 49.7302 23.0786 49.6608 23.0013 49.5915C22.8639 49.4681 22.727 49.3442 22.5905 49.2197C22.3665 49.0166 22.1389 48.8181 21.9099 48.6206C21.7262 48.4609 21.7262 48.4609 21.6865 48.2342C21.7055 47.2044 23.1471 45.9919 23.8269 45.2998C23.9872 45.1498 23.9872 45.1498 24.2135 44.9998C25.1701 45.0691 26.3797 46.5785 27.0044 47.2498C27.0293 47.2993 27.0542 47.3488 27.0798 47.3998C27.1173 47.3501 27.1173 47.3501 27.1555 47.2994C27.606 46.7034 28.06 46.1115 28.546 45.5436C28.5815 45.5016 28.6171 45.4597 28.6537 45.4165C29.2323 44.7491 29.2323 44.7491 29.6304 44.6436Z" fill="#F3DC9A"/>
<path d="M74.5981 27.0228C74.8708 27.1155 75.0445 27.2948 75.2421 27.4969C75.3274 27.5798 75.4128 27.6626 75.4982 27.7454C75.5386 27.7853 75.579 27.8252 75.6207 27.8664C75.7579 27.9998 75.9017 28.1239 76.0483 28.2469C77.0844 29.1409 77.0844 29.1409 77.2411 29.5501C77.2411 30.535 75.976 31.5784 75.3553 32.2501C75.3197 32.2921 75.2841 32.3342 75.2474 32.3775C75.0802 32.5671 74.9643 32.6293 74.7188 32.7047C74.2399 32.6964 73.9293 32.3513 73.5921 32.0391C73.5199 31.973 73.4478 31.9069 73.3735 31.8387C73.2717 31.7453 73.2717 31.7453 73.1678 31.6501C72.703 31.2343 72.2202 30.8414 71.7346 30.4501C71.7198 30.4994 71.705 30.5487 71.6898 30.5995C71.5395 30.9192 71.3213 31.1658 71.0934 31.4344C71.0462 31.4906 70.9989 31.5468 70.9503 31.6047C70.8101 31.7704 70.6691 31.9354 70.5277 32.1001C70.489 32.1454 70.4503 32.1907 70.4104 32.2373C69.7728 32.9787 69.7728 32.9787 69.3962 33.0751C69.0636 33.0575 68.8869 32.9198 68.6372 32.7094C68.5651 32.6487 68.4929 32.588 68.4186 32.5254C68.1057 32.254 67.8001 31.9748 67.4957 31.694C67.2686 31.4858 67.0372 31.2832 66.803 31.0829C66.7626 31.0473 66.7223 31.0117 66.6807 30.9751C66.6167 30.9286 66.6167 30.9286 66.5514 30.8813C66.39 30.6629 66.4235 30.4876 66.4544 30.2251C66.5791 29.9895 66.5791 29.9895 66.7514 29.7563C66.7822 29.7144 66.8129 29.6724 66.8446 29.6292C67.2833 29.0369 67.7582 28.4772 68.2553 27.9329C68.3079 27.8751 68.3079 27.8751 68.3615 27.8162C68.755 27.3914 68.755 27.3914 69.081 27.3443C69.3871 27.3836 69.5445 27.5167 69.764 27.7172C69.8051 27.7534 69.8463 27.7895 69.8888 27.8267C70.0277 27.9497 70.1647 28.0746 70.3014 28.2001C70.379 28.2711 70.379 28.2711 70.4582 28.3435C70.9421 28.7875 71.4225 29.2345 71.8855 29.7001C71.9432 29.6128 71.9432 29.6128 72.0021 29.5237C72.417 28.9108 72.8654 28.3441 73.3621 27.7947C73.4621 27.6833 73.5596 27.5698 73.6569 27.4562C73.7133 27.3938 73.7697 27.3315 73.8278 27.2672C73.8996 27.1862 73.8996 27.1862 73.9728 27.1035C74.1906 26.9752 74.3512 26.9787 74.5981 27.0228Z" fill="#F3DC9A"/>
<path d="M79.6237 42.4331C80.5019 42.8987 81.2647 43.814 81.8475 44.6013C81.8794 44.6436 81.9114 44.6858 81.9443 44.7294C82.0749 44.9158 82.1478 45.0314 82.13 45.2618C82.0592 45.4801 81.9947 45.5453 81.8124 45.6818C81.7584 45.723 81.7043 45.7641 81.6486 45.8066C81.5898 45.8497 81.5309 45.8928 81.4703 45.9373C81.4098 45.9828 81.3493 46.0284 81.2869 46.0753C81.096 46.2182 80.9039 46.3593 80.7113 46.4998C80.6506 46.544 80.5899 46.5883 80.5274 46.6339C80.1879 46.8806 79.8465 47.1247 79.5042 47.3676C79.2865 47.5224 79.0701 47.679 78.8538 47.8357C78.7891 47.8826 78.7243 47.9295 78.6576 47.9778C78.5914 48.0258 78.5914 48.0258 78.5238 48.0748C78.3049 47.9763 78.1491 47.8708 77.9802 47.7015C77.9362 47.6577 77.8923 47.6139 77.847 47.5688C77.8012 47.5223 77.7554 47.4758 77.7082 47.4279C77.6606 47.3801 77.613 47.3323 77.564 47.283C77.2926 47.0087 77.0315 46.7297 76.7833 46.4344C76.657 46.2956 76.5273 46.167 76.3914 46.0378C76.3245 45.9736 76.3245 45.9736 76.2562 45.9081C76.1668 45.8231 76.0767 45.7388 75.9858 45.6554C75.7857 45.4642 75.6696 45.3325 75.5723 45.0701C75.5853 44.7742 75.6835 44.6672 75.879 44.4466C75.9418 44.3753 76.0046 44.3039 76.0693 44.2304C78.1531 41.9928 78.1531 41.9928 79.6237 42.4331Z" fill="url(#paint0_linear_2178_5646)"/>
<path d="M47.8228 68.3255C48.5152 68.6594 49.1204 69.2632 49.7086 69.7505C49.775 69.8055 49.8414 69.8605 49.9098 69.9172C50.4595 70.3837 50.4595 70.3837 50.6137 70.6505C50.5937 71.0904 50.4534 71.371 50.2177 71.7286C50.1685 71.805 50.1685 71.805 50.1182 71.8829C49.8511 72.2898 49.5649 72.6818 49.2701 73.0692C49.2295 73.1228 49.1889 73.1764 49.147 73.2317C48.6115 73.9205 48.6115 73.9205 48.2038 73.9865C47.9172 73.9417 47.7693 73.8439 47.5352 73.6739C47.4941 73.6444 47.453 73.6149 47.4107 73.5845C47.2704 73.4829 47.1316 73.3794 46.993 73.2755C46.9397 73.2358 46.8863 73.196 46.8312 73.1551C46.5049 72.9116 46.1785 72.6681 45.8587 72.4161C45.7592 72.3383 45.6579 72.2627 45.5551 72.1893C45.2984 71.9958 45.1948 71.9149 45.1338 71.5906C45.189 71.2915 45.2805 71.0943 45.4373 70.8333C45.4641 70.7885 45.491 70.7437 45.5186 70.6976C47.0374 68.2098 47.0374 68.2098 47.8228 68.3255Z" fill="#F3DC9A"/>
<path d="M47.42 34.3964C47.4757 34.3945 47.5314 34.3926 47.5887 34.3906C48.0611 34.3895 48.4433 34.5488 48.8043 34.8517C48.9654 35.2221 48.913 35.5893 48.7996 35.9673C48.5351 36.4339 48.2064 36.8613 47.6996 37.0777C47.1378 37.2278 46.6165 37.1974 46.0982 36.933C45.7867 36.7433 45.5335 36.5284 45.292 36.2565C45.0996 36.0678 44.8941 36.0655 44.6383 36.0642C44.5734 36.0638 44.5084 36.0633 44.4414 36.0628C44.3704 36.0627 44.2994 36.0626 44.2263 36.0625C44.1514 36.0622 44.0765 36.0619 43.9994 36.0616C43.7514 36.0609 43.5034 36.0609 43.2554 36.0611C43.1704 36.0611 43.0855 36.061 42.998 36.061C40.9714 36.0618 38.9486 36.1405 36.9251 36.2467C36.2768 36.2806 35.631 36.3117 34.9815 36.3048C34.9164 36.3045 34.8513 36.3042 34.7841 36.3038C34.6299 36.303 34.4757 36.3016 34.3215 36.3001C34.2966 36.2011 34.2717 36.1021 34.2461 36.0001C34.6029 35.7317 34.9617 35.7151 35.3917 35.6673C36.025 35.5948 36.654 35.5068 37.2834 35.4066C38.2439 35.257 39.2059 35.1367 40.1721 35.0298C40.2554 35.0205 40.3388 35.0112 40.4246 35.0016C41.8239 34.8461 43.2249 34.7097 44.6273 34.5845C44.762 34.5722 44.762 34.5722 44.8994 34.5597C45.7383 34.4836 46.5774 34.4116 47.42 34.3964Z" fill="#F3DC9A"/>
<path d="M84.1052 25.8749C84.7977 26.2067 85.4036 26.8132 85.991 27.2999C86.0574 27.3549 86.1238 27.4099 86.1923 27.4666C86.7419 27.9331 86.7419 27.9331 86.8962 28.1999C86.8762 28.6398 86.7358 28.9205 86.5002 29.278C86.4509 29.3544 86.4509 29.3544 86.4007 29.4324C86.1335 29.8392 85.8473 30.2312 85.5526 30.6187C85.5119 30.6723 85.4713 30.7259 85.4295 30.7811C84.8939 31.4699 84.8939 31.4699 84.4862 31.5359C84.1997 31.4911 84.0518 31.3933 83.8177 31.2233C83.7766 31.1938 83.7355 31.1643 83.6931 31.1339C83.5528 31.0323 83.4141 30.9288 83.2755 30.8249C83.2221 30.7852 83.1687 30.7454 83.1137 30.7045C82.7873 30.4611 82.4609 30.2175 82.1412 29.9655C82.0416 29.8878 81.9403 29.8121 81.8375 29.7387C81.5852 29.5485 81.4784 29.4631 81.4121 29.1465C81.4781 28.8084 81.6038 28.5695 81.7857 28.2796C81.8191 28.2248 81.8525 28.1701 81.8868 28.1137C82.2598 27.5142 82.683 26.9508 83.1246 26.3999C83.1768 26.3348 83.1768 26.3348 83.2299 26.2685C83.5104 25.9253 83.6528 25.8177 84.1052 25.8749Z" fill="#F3DC9A"/>
<path d="M25.6651 6.42188C25.9654 6.4626 26.0608 6.59492 26.2497 6.825C26.2925 7.06035 26.2925 7.06035 26.2865 7.321C26.2853 7.41453 26.2841 7.50807 26.2828 7.60444C26.2797 7.70146 26.2765 7.79848 26.2732 7.89844C26.2715 7.99691 26.2698 8.09537 26.2681 8.19683C26.2636 8.43964 26.2574 8.68228 26.2497 8.925C26.3379 8.92239 26.426 8.91978 26.5169 8.91709C26.6337 8.91498 26.7505 8.91293 26.8673 8.91094C26.9543 8.90811 26.9543 8.90811 27.043 8.90522C27.3951 8.90072 27.6231 8.92192 27.9091 9.15C28.0321 9.39444 28.0251 9.6359 27.9846 9.9C27.8503 10.2316 27.6602 10.4915 27.3576 10.6875C26.9846 10.8384 26.6897 10.8794 26.3142 10.7399C26.1038 10.6394 25.9185 10.5427 25.7471 10.3837C25.5001 10.2314 25.3134 10.2475 25.024 10.2483C24.942 10.248 24.942 10.248 24.8584 10.2478C24.6773 10.2476 24.4963 10.249 24.3153 10.2504C24.1879 10.2506 24.0606 10.2508 23.9333 10.2508C23.6654 10.2512 23.3975 10.2522 23.1296 10.2539C22.7915 10.256 22.4534 10.2568 22.1152 10.2572C20.8406 10.2587 19.5678 10.2645 18.2947 10.3338C17.7785 10.3612 17.2621 10.3567 16.7454 10.35C16.6982 10.2094 16.6982 10.2094 16.6699 10.05C16.8518 9.86913 16.9323 9.86733 17.1829 9.83027C17.26 9.81874 17.3372 9.80722 17.4167 9.79534C17.5441 9.77754 17.5441 9.77754 17.6741 9.75938C17.7622 9.74673 17.8503 9.73409 17.9411 9.72107C18.743 9.60942 19.547 9.51823 20.3519 9.43125C20.4131 9.42459 20.4744 9.41794 20.5374 9.41108C20.7133 9.39208 20.8893 9.37349 21.0653 9.35508C21.1175 9.34947 21.1698 9.34386 21.2236 9.33808C21.5174 9.30801 21.8057 9.29465 22.101 9.3C22.1437 8.58447 22.1437 8.58447 21.903 7.95352C21.7438 7.86142 21.7438 7.86142 21.4975 7.8C21.518 7.32017 21.6831 6.94578 22.0255 6.6C22.299 6.53438 22.299 6.53438 22.5535 6.6C22.7682 6.80634 22.8488 6.92768 22.8895 7.22412C22.8879 7.31641 22.8864 7.40871 22.8847 7.50381C22.8843 7.55322 22.8839 7.60263 22.8834 7.65354C22.8818 7.81023 22.878 7.96679 22.8741 8.12344C22.8726 8.23013 22.8712 8.33681 22.87 8.44351C22.8667 8.70405 22.8615 8.96451 22.8553 9.225C22.9051 9.20025 22.9548 9.1755 23.0061 9.15C23.1349 9.14475 23.2639 9.14367 23.3927 9.14531C23.4614 9.14599 23.53 9.14667 23.6007 9.14736C23.6534 9.14823 23.7061 9.1491 23.7604 9.15C23.7476 8.52194 23.7476 8.52194 23.4988 7.9793C23.3853 7.91864 23.2712 7.85925 23.157 7.8C23.0623 7.47031 23.197 7.23765 23.3503 6.94688C23.5658 6.61051 23.5658 6.61051 23.883 6.53438C24.1726 6.60902 24.2594 6.66656 24.4393 6.9C24.4736 7.13372 24.4736 7.13372 24.4688 7.40508C24.4678 7.50224 24.4668 7.5994 24.4658 7.69951C24.4633 7.80176 24.4608 7.904 24.4582 8.00625C24.4567 8.10967 24.4553 8.21308 24.4541 8.3165C24.4505 8.56936 24.4451 8.82219 24.4393 9.075C24.7878 9.05025 25.1363 9.0255 25.4954 9C25.5229 8.40219 25.5229 8.40219 25.2973 7.87676C25.1381 7.76235 25.1381 7.76235 24.8919 7.65C24.9132 7.2374 25.2014 6.49871 25.6651 6.42188Z" fill="#F3DC9A"/>
<path d="M73.4608 35.5265C73.5777 35.5245 73.5777 35.5245 73.697 35.5225C74.2057 35.5229 74.5412 35.5868 74.9317 35.9343C75.1059 36.2407 75.118 36.4809 75.0543 36.8249C74.8484 37.3892 74.4375 37.8455 73.896 38.1125C73.4331 38.2573 72.8484 38.2663 72.4001 38.0671C72.2246 37.9632 72.0996 37.861 71.9602 37.711C71.6054 37.3337 71.3463 37.1553 70.821 37.1209C70.6129 37.12 70.4071 37.1226 70.1993 37.1287C70.0862 37.1295 69.973 37.1301 69.8598 37.1304C69.5586 37.132 69.2575 37.1378 68.9564 37.1446C68.7068 37.1496 68.4572 37.1521 68.2075 37.1545C66.6481 37.1698 65.0878 37.207 63.5308 37.2964C62.619 37.3486 61.7111 37.3583 60.7979 37.3499C60.7979 37.2509 60.7979 37.1519 60.7979 37.0499C61.2562 36.8227 61.6977 36.7519 62.2028 36.6843C62.2909 36.6719 62.3791 36.6596 62.4699 36.6469C62.715 36.6128 62.9603 36.5795 63.2055 36.5463C63.4202 36.517 63.6347 36.4867 63.8491 36.4564C65.4065 36.2371 66.9657 36.0566 68.5306 35.9005C68.9146 35.8618 69.2978 35.8177 69.681 35.7717C70.9356 35.622 72.1972 35.5378 73.4608 35.5265Z" fill="#F3DC9A"/>
<path d="M86.4156 3.50192C86.499 3.49974 86.5825 3.49757 86.6684 3.49532C87.2555 3.49076 87.5147 3.55908 87.9431 3.9566C88.0739 4.21681 88.0782 4.44541 88.028 4.72535C87.8413 5.27428 87.5325 5.67875 87.0473 6.00035C86.5805 6.22973 86.0191 6.23423 85.5181 6.1067C85.2808 6.00126 85.11 5.87562 84.9314 5.68652C84.5863 5.32358 84.3333 5.13199 83.824 5.09515C83.6295 5.09376 83.4349 5.09611 83.2404 5.10152C83.1333 5.10214 83.0262 5.10248 82.919 5.10255C82.6321 5.10368 82.3454 5.10912 82.0585 5.11553C81.8198 5.12032 81.581 5.12256 81.3423 5.12482C79.2927 5.14471 77.2451 5.23277 75.1999 5.36606C74.1053 5.43598 74.1053 5.43598 73.7715 5.32535C73.7964 5.2016 73.8213 5.07785 73.8469 4.95035C74.3117 4.8266 74.774 4.74298 75.2498 4.67291C75.3281 4.66122 75.4065 4.64952 75.4872 4.63748C75.7465 4.59908 76.006 4.56133 76.2654 4.52379C76.3998 4.50428 76.3998 4.50428 76.5368 4.48437C78.017 4.27071 79.4995 4.08664 80.986 3.92213C81.1383 3.90525 81.2906 3.88821 81.4429 3.87114C82.4776 3.756 83.5079 3.65296 84.5486 3.61601C84.7591 3.60771 84.9651 3.58958 85.174 3.56223C85.5883 3.50941 85.9983 3.50557 86.4156 3.50192Z" fill="#F3DC9A"/>
<path d="M19.8388 69.2249C20.0928 69.5034 20.1087 69.7101 20.0957 70.0756C20.01 70.6325 19.6629 71.028 19.2324 71.3717C18.8025 71.6714 18.3112 71.6909 17.8021 71.6249C17.3245 71.4702 16.978 71.2251 16.6603 70.8412C16.2828 70.5287 15.7615 70.5519 15.2955 70.5523C15.1919 70.5517 15.1919 70.5517 15.0863 70.5511C14.8554 70.5502 14.6245 70.5507 14.3936 70.5514C14.2734 70.5514 14.2734 70.5514 14.1508 70.5515C12.375 70.5533 10.6031 70.6326 8.82991 70.7198C8.61935 70.7301 8.40879 70.7404 8.19823 70.7506C8.09896 70.7555 7.99969 70.7603 7.89742 70.7653C7.22559 70.7968 6.55653 70.8147 5.88402 70.7999C5.85913 70.7009 5.83424 70.6019 5.80859 70.4999C6.31295 70.2413 6.84104 70.1776 7.39736 70.0967C7.50533 70.0806 7.61329 70.0645 7.72126 70.0484C8.00735 70.006 8.29361 69.9648 8.57995 69.9241C8.7436 69.9008 8.90721 69.8772 9.0708 69.8535C10.6863 69.6211 12.3076 69.4478 13.9316 69.2858C14.0263 69.2763 14.121 69.2668 14.2185 69.257C19.2591 68.7545 19.2591 68.7545 19.8388 69.2249Z" fill="#F3DC9A"/>
<path d="M68.4916 2.25C68.5663 2.25 68.641 2.25 68.7179 2.25C68.7125 2.30907 68.707 2.36814 68.7014 2.429C68.6507 3.02112 68.6354 3.60599 68.6425 4.2C68.6919 4.22036 68.7413 4.24073 68.7922 4.26171C69.0193 4.35589 69.2457 4.45137 69.4722 4.54687C69.5499 4.57888 69.6276 4.61088 69.7077 4.64385C70.2835 4.88818 70.9751 5.20168 71.2826 5.775C71.3708 6.33757 71.2867 6.86756 70.9809 7.35C70.5534 7.88512 70.0692 8.35564 69.3968 8.55C69.3147 8.5763 69.2327 8.60259 69.1481 8.62969C68.5921 8.76964 67.9138 8.82039 67.3837 8.56875C67.0962 8.39137 66.8913 8.2175 66.7379 7.9125C66.5103 6.85675 66.8541 5.83178 67.2423 4.85625C67.2631 4.80262 67.2839 4.749 67.3054 4.69374C67.4108 4.44194 67.4713 4.30332 67.6987 4.14111C68.0036 3.87381 68.0623 3.51633 68.1711 3.13594C68.2161 2.98481 68.2612 2.83374 68.3066 2.68271C68.3259 2.61589 68.3453 2.54907 68.3652 2.48022C68.4162 2.325 68.4162 2.325 68.4916 2.25Z" fill="#F3DC9A"/>
<path d="M54.0089 36.4502C54.0587 36.4502 54.1085 36.4502 54.1598 36.4502C54.1717 37.1022 54.1264 37.7499 54.0843 38.4002C54.1348 38.4194 54.1853 38.4387 54.2372 38.4585C54.7231 38.6511 55.1933 38.8668 55.6589 39.1033C55.7127 39.1296 55.7665 39.1559 55.8219 39.183C56.2466 39.4033 56.5827 39.6933 56.7998 40.1252C56.8626 40.6869 56.7077 41.1397 56.4227 41.6252C56.0305 42.1048 55.5918 42.5526 54.9895 42.7502C54.9415 42.7667 54.8934 42.7833 54.8439 42.8003C54.4662 42.9059 54.0835 42.9174 53.693 42.9236C53.6164 42.9256 53.6164 42.9256 53.5382 42.9277C53.1862 42.9271 52.9497 42.8584 52.6511 42.6752C52.2253 42.2422 52.1062 41.8727 52.1115 41.2846C52.1304 40.9843 52.2023 40.7049 52.2834 40.4158C52.3002 40.3546 52.3169 40.2934 52.3342 40.2304C52.781 38.6509 52.781 38.6509 53.2546 38.2502C53.3044 38.2254 53.3542 38.2007 53.4054 38.1752C53.4665 38.0273 53.4665 38.0273 53.5139 37.8477C53.5331 37.7812 53.5524 37.7148 53.5722 37.6464C53.5919 37.5765 53.6115 37.5066 53.6317 37.4346C53.6707 37.2972 53.7099 37.1599 53.7496 37.0227C53.7668 36.9615 53.784 36.9003 53.8018 36.8372C53.858 36.6752 53.858 36.6752 54.0089 36.4502Z" fill="#F3DC9A"/>
<path d="M43.1464 1.50037C43.8312 1.85245 44.1681 2.53265 44.4287 3.22537C44.6067 4.39775 44.184 5.30445 43.5047 6.24412C42.3351 7.70177 41.1639 8.57399 39.2947 8.93944C39.2309 8.95273 39.167 8.96602 39.1012 8.97972C38.707 9.058 38.3436 9.08877 37.9416 9.07537C37.9167 8.97637 37.8919 8.87737 37.8662 8.77537C38.3317 8.52924 38.7997 8.35429 39.2994 8.18944C40.7534 7.72508 40.7534 7.72508 42.0149 6.90037C42.061 6.85957 42.1071 6.81877 42.1546 6.77674C42.6479 6.31546 42.9303 5.80855 43.1464 5.17537C43.0873 5.17228 43.0281 5.16919 42.9672 5.166C42.3044 5.00692 41.7215 4.53824 41.2606 4.05037C41.1031 3.78336 41.0633 3.61184 41.1097 3.30037C41.4258 2.62215 42.2622 1.30301 43.1464 1.50037Z" fill="#F3DC9A"/>
<path d="M26.479 2.99401C26.6241 2.98842 26.7692 2.98489 26.9143 2.98145C26.9942 2.97951 27.074 2.97758 27.1562 2.97559C27.4841 3.01148 27.7344 3.13306 27.9751 3.35645C28.1194 3.64335 28.1097 3.89797 28.0104 4.20166C27.792 4.69118 27.4672 5.00761 26.9662 5.20332C26.4029 5.30334 26.0458 5.25632 25.5707 4.9502C25.5195 4.90133 25.4683 4.85246 25.4155 4.80212C24.9547 4.36433 24.6098 4.28384 23.9802 4.29362C23.8739 4.29835 23.7676 4.30315 23.6614 4.30801C23.5485 4.31093 23.4356 4.31357 23.3226 4.31595C23.0856 4.32148 22.8488 4.32883 22.6119 4.33763C22.2599 4.35052 21.9079 4.35777 21.5558 4.36396C20.2611 4.38857 18.9694 4.44419 17.6771 4.52565C17.1645 4.55774 16.6556 4.58371 16.1418 4.5752C16.1169 4.4762 16.0921 4.3772 16.0664 4.2752C16.3461 4.0898 16.6079 4.06177 16.9333 4.01504C16.9969 4.00549 17.0606 3.99595 17.1262 3.98612C17.8057 3.88559 18.4869 3.7978 19.1685 3.7127C19.2984 3.69636 19.4282 3.68001 19.558 3.66366C19.8724 3.62414 20.1869 3.58495 20.5013 3.5459C20.6503 3.52736 20.7992 3.50867 20.9481 3.48997C22.7863 3.25939 24.6274 3.06844 26.479 2.99401Z" fill="#F3DC9A"/>
<path d="M13.1252 36.9004C13.175 36.9251 13.2248 36.9499 13.2761 36.9754C12.7339 37.761 12.1739 38.5097 11.5412 39.2254C11.4906 39.2848 11.4401 39.3443 11.388 39.4056C11.1326 39.7046 10.8718 39.9589 10.5606 40.2004C10.4015 39.9632 10.3699 39.8262 10.3249 39.5488C10.3122 39.4743 10.2996 39.3997 10.2866 39.3229C10.2546 39.0372 10.2545 38.7628 10.2589 38.4754C10.2979 38.4566 10.3368 38.4378 10.377 38.4184C11.839 37.7926 11.839 37.7926 13.1252 36.9004Z" fill="url(#paint1_linear_2178_5646)"/>
<path d="M67.8124 5.625C68.6077 5.65484 69.4511 6.04158 70.0753 6.525C70.1714 6.68877 70.1714 6.68877 70.2262 6.825C69.6147 7.29269 68.8711 7.37061 68.1141 7.275C67.8305 7.15987 67.5754 7.02878 67.4352 6.75C67.3902 6.29305 67.491 6.07053 67.737 5.7C67.7619 5.67525 67.7868 5.6505 67.8124 5.625Z" fill="url(#paint2_linear_2178_5646)"/>
<path d="M53.2542 39.8252C54.0778 39.8823 54.9665 40.2692 55.5926 40.8002C55.6527 40.9663 55.6527 40.9663 55.668 41.1002C55.1716 41.4196 54.7389 41.5024 54.1594 41.5033C54.1004 41.5052 54.0415 41.507 53.9808 41.5089C53.5774 41.5109 53.3472 41.4421 53.0279 41.1752C52.897 40.9148 52.9166 40.6348 52.9525 40.3502C53.0347 40.1538 53.1328 40.0025 53.2542 39.8252Z" fill="url(#paint3_linear_2178_5646)"/>
<path d="M8.67433 39.2246C8.76132 39.7003 8.75694 40.1671 8.74976 40.6496C8.01351 40.6992 7.21083 40.5381 6.6377 40.0496C6.6377 40.0001 6.6377 39.9506 6.6377 39.8996C7.52165 39.57 7.52165 39.57 7.68253 39.5104C7.79244 39.4692 7.90204 39.4272 8.01137 39.3845C8.42421 39.2246 8.42421 39.2246 8.67433 39.2246Z" fill="url(#paint4_linear_2178_5646)"/>
<defs>
<linearGradient id="paint0_linear_2178_5646" x1="82.1327" y1="42.2041" x2="80.814" y2="49.0073" gradientUnits="userSpaceOnUse">
<stop stop-color="#404D26"/>
<stop offset="1" stop-color="#181C10"/>
</linearGradient>
<linearGradient id="paint1_linear_2178_5646" x1="13.2761" y1="36.9004" x2="12.3866" y2="40.6577" gradientUnits="userSpaceOnUse">
<stop stop-color="#404D26"/>
<stop offset="1" stop-color="#181C10"/>
</linearGradient>
<linearGradient id="paint2_linear_2178_5646" x1="70.2262" y1="5.625" x2="69.9664" y2="7.61819" gradientUnits="userSpaceOnUse">
<stop stop-color="#404D26"/>
<stop offset="1" stop-color="#181C10"/>
</linearGradient>
<linearGradient id="paint3_linear_2178_5646" x1="55.668" y1="39.8252" x2="55.4034" y2="41.8145" gradientUnits="userSpaceOnUse">
<stop stop-color="#404D26"/>
<stop offset="1" stop-color="#181C10"/>
</linearGradient>
<linearGradient id="paint4_linear_2178_5646" x1="8.75324" y1="39.2246" x2="8.50557" y2="40.912" gradientUnits="userSpaceOnUse">
<stop stop-color="#404D26"/>
<stop offset="1" stop-color="#181C10"/>
</linearGradient>
</defs>
</svg>
