<svg width="33" height="32" viewBox="0 0 33 32" fill="none" xmlns="http://www.w3.org/2000/svg">
<path d="M7.40964 15.5528C7.65663 15.0588 8.2573 14.8586 8.75128 15.1056L11.4179 16.4389C11.9119 16.6859 12.1122 17.2866 11.8652 17.7806C11.6182 18.2746 11.0175 18.4748 10.5235 18.2278L7.85685 16.8945C7.36288 16.6475 7.16265 16.0468 7.40964 15.5528Z" fill="#A2A2A2"/>
<path fill-rule="evenodd" clip-rule="evenodd" d="M3.34302 9.05509C3.31763 8.93251 3.30385 8.80313 3.30385 8.66648C3.30385 7.73041 3.95041 7.13542 4.54569 6.73334C5.14022 6.33175 5.99524 5.91807 7.00236 5.4308L11.1908 3.404C13.3798 2.34396 14.7789 1.66648 16.3039 1.66648C17.8288 1.66648 19.2279 2.34396 21.4169 3.404L25.6054 5.43081C26.6125 5.91806 27.4675 6.33175 28.062 6.73333C28.6573 7.13542 29.3039 7.73041 29.3039 8.66648C29.3039 8.80313 29.2901 8.93252 29.2647 9.05509C29.2902 9.14336 29.3039 9.23666 29.3039 9.33315L29.3039 22.8815C29.3039 24.3754 28.2141 25.3689 26.8727 26.1738C25.5149 26.9886 23.5174 27.8324 20.9934 28.8986L20.7117 29.0176C18.8196 29.8175 17.5999 30.3331 16.3039 30.3331C15.0078 30.3331 13.7881 29.8175 11.896 29.0176L11.6144 28.8986C9.09029 27.8324 7.09279 26.9886 5.73496 26.1738C4.39364 25.3689 3.30385 24.3754 3.30385 22.8815L3.30385 9.33315C3.30385 9.23666 3.31752 9.14336 3.34302 9.05509ZM5.30385 11.0517C5.7912 11.3162 6.36647 11.5945 7.00237 11.9022L11.1908 13.929C12.8973 14.7553 14.1236 15.3492 15.3039 15.5709L15.3039 28.184C14.6653 28.0084 13.8345 27.6653 12.4756 27.0912C9.85046 25.9823 7.98555 25.1919 6.76403 24.4589C5.51115 23.7071 5.30385 23.231 5.30385 22.8815L5.30385 11.0517ZM17.3039 15.5709C18.4841 15.3492 19.7104 14.7553 21.4169 13.929L25.6054 11.9022C26.2412 11.5945 26.8165 11.3162 27.3039 11.0517L27.3039 22.8815C27.3039 23.231 27.0965 23.7071 25.8437 24.4589C24.6222 25.1919 22.7572 25.9823 20.1322 27.0912C18.7732 27.6653 17.9424 28.0084 17.3039 28.184L17.3039 15.5709ZM11.8406 5.31145C14.3311 4.10635 15.2937 3.66648 16.3039 3.66648C17.314 3.66648 18.2766 4.10635 20.7671 5.31145L20.7729 5.31427L9.56282 10.9193L7.94571 10.1368C6.84664 9.60496 6.12523 9.25304 5.66516 8.94228C5.4673 8.80864 5.37171 8.71808 5.32747 8.66648C5.37171 8.61488 5.4673 8.52432 5.66516 8.39068C6.12523 8.07992 6.84664 7.728 7.94571 7.19617L11.8406 5.31145ZM11.8355 12.019L11.8406 12.0215C14.3311 13.2266 15.2937 13.6665 16.3039 13.6665C17.314 13.6665 18.2766 13.2266 20.7671 12.0215L24.662 10.1368C25.7611 9.60496 26.4825 9.25304 26.9425 8.94228C27.1404 8.80864 27.236 8.71808 27.2802 8.66648C27.236 8.61488 27.1404 8.52432 26.9425 8.39068C26.4825 8.07992 25.7611 7.728 24.662 7.19617L23.0456 6.41399L11.8355 12.019Z" fill="#A2A2A2"/>
</svg>
