<svg width="30" height="21" viewBox="0 0 30 21" fill="none" xmlns="http://www.w3.org/2000/svg">
<g clip-path="url(#clip0_594_2148)">
<path d="M0 20.5H30V0.5H0V20.5Z" fill="#005430"/>
<path d="M22.5 8.44412C22.4979 8.09279 22.3616 7.14643 22.327 6.82895C22.2925 6.51147 22.2577 6.22345 22.2661 6.156C22.2743 6.09092 22.3745 6.24649 22.4274 6.25907C22.4548 6.25358 22.4426 6.15533 22.3928 6.07142C22.3591 6.01444 22.2443 5.80138 22.1746 5.67653C22.1418 5.61744 22.1345 5.58317 22.1187 5.57591C22.103 5.56865 21.9762 5.82451 21.9901 5.85287C22.0247 5.90487 22.0484 5.92969 22.0538 6.02153C22.0593 6.11337 22.1068 6.7691 22.1673 7.26613C22.2129 7.64109 22.3128 8.44893 22.3164 8.95119C22.3174 9.11504 22.2992 9.27121 22.2774 9.33646C22.2214 9.43894 22.134 9.53137 21.8082 9.72198C21.442 9.9363 20.9534 10.1147 20.7434 10.234C20.6129 10.3085 20.6561 10.3184 20.7698 10.2859C20.8832 10.2533 21.4696 10.1489 21.7544 10.0285C22.0218 9.9152 22.1954 9.72569 22.3272 9.44924C22.4899 9.10744 22.5023 8.8174 22.5 8.44412Z" fill="white"/>
<path d="M21.3662 5.77537C21.3945 5.76439 21.6289 5.75232 21.692 5.76532C21.6506 5.82458 21.3695 5.95576 21.3683 5.97982C21.376 5.99602 21.5625 5.94985 21.6213 5.92419C21.6597 5.90106 21.6853 5.86527 21.7138 5.83555C21.781 5.75823 21.8607 5.61481 21.8407 5.59683C21.8081 5.56779 21.4886 5.58586 21.4465 5.59185C21.4183 5.5959 21.3467 5.72421 21.3336 5.75713C21.3207 5.79005 21.3379 5.78634 21.3662 5.77537Z" fill="white"/>
<path d="M21.845 7.85773C21.8939 7.69228 21.9059 7.49155 21.8394 7.28026C21.7711 7.06272 21.6015 6.93011 21.4792 6.86216L21.4573 7.07159C21.4573 7.07159 21.6289 7.15684 21.7462 7.37151C21.8205 7.50767 21.8515 7.70022 21.7928 7.91488C21.783 7.96815 21.8211 7.93877 21.845 7.85773Z" fill="white"/>
<path d="M20.03 8.908C20.074 8.75901 20.0848 8.57828 20.0251 8.38802C19.9635 8.19209 19.8108 8.07265 19.7006 8.0117L19.6808 8.20019C19.6808 8.20019 19.8353 8.27701 19.941 8.47015C20.008 8.59263 20.0357 8.76627 19.9831 8.9595C19.9743 9.00727 20.0085 8.98094 20.03 8.908Z" fill="white"/>
<path d="M13.7287 6.05636C13.7994 6.1856 13.8287 6.36861 13.7731 6.57246C13.7638 6.62303 13.7997 6.59526 13.8227 6.51827C13.8689 6.36126 13.8804 6.17049 13.8172 5.96967C13.7523 5.76294 13.5911 5.63708 13.4749 5.57267L13.4543 5.77155C13.4543 5.77155 13.6173 5.8525 13.7287 6.05636Z" fill="white"/>
<path d="M9.47498 6.12326C9.53433 6.26237 9.53835 6.45019 9.44248 6.64806C9.42385 6.69778 9.46923 6.67423 9.5073 6.59986C9.58509 6.44783 9.62873 6.25756 9.58929 6.04737C9.54885 5.83127 9.38651 5.68397 9.26499 5.6042L9.20984 5.80164C9.20984 5.80164 9.3814 5.90395 9.47498 6.12326Z" fill="white"/>
<path d="M10.6509 9.23274C10.7263 9.09279 10.7577 8.99858 10.7912 8.83279C10.8205 8.68692 10.8224 8.51844 10.8118 8.34691C11.0375 8.2549 11.3065 8.10219 11.3969 8.09096C11.3351 8.30318 11.4826 8.53219 11.7806 8.50231C11.8035 8.7423 11.823 8.95308 11.8349 9.0781C11.8592 9.33438 11.8555 9.65735 11.8548 9.71348C11.8538 9.76987 11.8946 9.75923 11.9365 9.63362C11.9924 9.46547 12.0096 9.02635 11.9893 8.73597C11.9845 8.66337 11.9763 8.56537 11.9663 8.45369C12.1595 8.3643 12.1917 8.19175 12.2639 8.11823C12.3291 8.34657 12.6879 8.37755 12.7987 8.32867C12.936 8.26798 12.981 8.15883 13.0163 7.90551C13.0517 7.65227 12.9486 7.55029 12.9117 7.52269C12.908 7.55333 12.8182 7.85098 12.8182 7.85098C12.8182 7.85098 12.9034 7.94096 12.9077 7.98519C12.8383 8.048 12.6919 8.05188 12.569 8.01187C12.446 7.97186 12.4083 7.89825 12.4156 7.84887C12.4228 7.79931 12.4691 7.75424 12.4706 7.69388C12.472 7.63353 12.443 7.651 12.3938 7.70443C12.3446 7.75795 12.3128 7.80607 12.2447 7.92095C12.189 8.01491 12.0986 8.12954 11.9392 8.16229C11.9129 7.88643 11.8829 7.59292 11.8628 7.40856C11.8523 7.31123 11.7474 6.47014 11.7399 6.37601C11.7334 6.29405 11.7213 6.1974 11.7233 6.15198C11.7253 6.11585 11.7479 6.1302 11.783 6.16802C11.8182 6.20575 11.8796 6.2716 11.8902 6.26645C11.926 6.24889 11.8894 6.13957 11.8425 6.04165C11.7958 5.94348 11.6362 5.55619 11.6027 5.54023C11.5854 5.53213 11.4777 5.77051 11.4713 5.81745C11.488 5.84683 11.5316 5.893 11.5332 6.02435C11.5337 6.06098 11.5573 6.4064 11.59 6.733C11.6186 7.02144 11.6565 7.29511 11.6601 7.32694C11.6861 7.54709 11.7177 7.85739 11.7478 8.16246C11.5747 8.12954 11.5287 8.01541 11.5326 7.95033C11.5369 7.87689 11.5701 7.794 11.5542 7.77526C11.5209 7.75525 11.3226 7.86609 11.046 7.98519C10.9682 8.01862 10.8806 8.0545 10.7881 8.08852C10.764 7.8806 10.7322 7.68291 10.7194 7.53172L10.7179 7.51492C10.8997 7.50319 11.0487 7.41135 11.1164 7.3239C11.201 7.21458 11.2602 6.98962 11.266 6.81725C11.2717 6.6447 11.1325 6.32925 11.0993 6.22897C11.0659 6.1286 11.0487 6.05904 11.0457 6.02435C11.0427 5.98965 11.121 6.06453 11.1702 6.07922C11.2035 6.08588 11.192 6.01371 11.1513 5.96416C11.1108 5.91478 10.8921 5.58278 10.8767 5.60608C10.8673 5.61975 10.7797 5.86396 10.7739 5.90136C10.8084 5.92415 10.8488 5.98695 10.8516 6.04714C10.8545 6.10733 10.9028 6.37196 10.9562 6.51901C11.0098 6.66606 11.1239 6.94817 11.1311 7.02575C11.0496 7.08323 10.864 7.18056 10.6803 7.17474C10.6489 6.91744 10.6091 6.61862 10.5879 6.40699C10.5796 6.3252 10.5791 6.23791 10.5804 6.19233C10.5814 6.1562 10.6074 6.16118 10.6432 6.19832C10.6792 6.23547 10.7343 6.28949 10.7456 6.28561C10.7703 6.27742 10.7489 6.19545 10.7001 6.09812C10.6512 6.0008 10.4571 5.58911 10.4231 5.57375C10.4058 5.5659 10.3189 5.79711 10.3134 5.84429C10.3307 5.8735 10.3752 5.91866 10.3796 6.05001C10.3831 6.1546 10.434 6.66716 10.4777 7.1186C10.296 7.02465 10.234 6.89035 10.2115 6.66488C10.1958 6.5077 10.1942 6.21816 10.1382 5.97598C10.1066 5.83906 10.04 5.69994 9.96115 5.62608C9.94235 5.67158 9.85835 5.95091 9.85835 5.95091C9.88574 6.0311 9.97092 6.30114 9.968 6.53513C9.96517 6.76913 9.94673 6.99789 9.68451 7.15549C9.42247 7.31318 9.02941 7.25046 8.93236 7.00447C8.8353 6.75832 9.05105 6.14118 9.04822 5.99548C9.0453 5.84978 9.01928 5.82969 8.95838 5.85375C8.89757 5.8778 8.77313 6.01827 8.66594 6.24678C8.55875 6.47545 8.51109 6.75866 8.45019 6.95121C8.38947 7.14376 8.29224 7.33884 8.14177 7.32803C7.9913 7.3174 7.91032 7.17972 7.86403 6.98059C7.81765 6.78129 7.84604 6.51884 7.85864 6.45157C7.89005 6.28308 7.81728 6.3176 7.77273 6.58215C7.74515 6.74532 7.71776 7.00591 7.81482 7.27865C7.91169 7.55139 8.07685 7.65311 8.22157 7.61825C8.36637 7.58355 8.49365 7.24396 8.53857 7.09142C8.5834 6.93914 8.78399 6.26273 8.89757 6.22947C8.91346 6.3057 8.80928 6.55143 8.77596 6.83886C8.74272 7.12628 8.82024 7.51239 9.18508 7.57916C9.54993 7.64602 9.79745 7.40941 9.8872 7.24514C9.97704 7.08062 10.0189 6.90816 10.0291 6.8213C10.0408 7.04179 10.1912 7.38611 10.4835 7.48428L10.5136 7.49298C10.5316 7.67345 10.5609 7.90905 10.5879 8.15647C10.531 8.17403 10.4735 8.1899 10.4164 8.20357C10.4091 8.17985 10.4011 8.15664 10.3913 8.13528C10.3021 7.94341 10.1544 7.76656 9.94983 7.7788C9.74084 7.79121 9.51295 8.07011 9.5229 8.2738C9.52948 8.41081 9.60489 8.52325 9.87916 8.55203C10.0044 8.56528 10.1375 8.55136 10.2749 8.52139C10.2942 8.57803 10.3065 8.63434 10.3078 8.68566C10.2209 8.78729 9.50172 9.32974 8.96322 9.3819C8.42472 9.43399 8.26046 9.15171 8.25508 8.86833C8.25106 8.65274 8.38071 8.43757 8.47183 8.28866C8.60221 8.19327 8.70922 8.074 8.77678 7.98199C8.79513 7.9933 8.81257 8.00376 8.82919 8.01347C8.89355 8.05087 8.91921 8.10675 8.91921 8.10675C8.93108 8.08852 8.98641 7.98891 8.96477 7.9402C8.95482 7.92821 8.90615 7.89825 8.84763 7.86271C8.90908 7.70958 8.90825 7.55671 8.82864 7.52269C8.73962 7.48479 8.62339 7.59014 8.57327 7.65438C8.54724 7.6878 8.53729 7.72571 8.53711 7.75753C8.53674 7.79847 8.55601 7.83544 8.60367 7.86837C8.65115 7.90078 8.69525 7.93016 8.7367 7.95666C8.61901 8.08024 8.3409 8.26131 8.17071 8.36767C8.16441 8.35206 8.13949 8.36852 8.10598 8.40802L8.05987 8.43647C7.9241 8.51953 7.59852 8.70195 7.53452 8.74661C7.47042 8.79134 7.5106 8.78324 7.53452 8.77328C7.57971 8.74888 7.63906 8.71934 7.70571 8.68676C7.80012 8.64058 7.90995 8.58833 8.01732 8.53591C7.98555 8.58976 7.95268 8.65274 7.92356 8.72145C7.79546 9.0239 7.58839 9.65076 8.03632 10.0279C8.46489 10.389 9.20152 10.2516 9.81242 9.8764C10.4234 9.5011 10.5554 9.36916 10.6509 9.23274ZM8.659 7.74166C8.63782 7.72604 8.63489 7.70519 8.65215 7.69067C8.67415 7.67193 8.70228 7.65421 8.73423 7.64821C8.80198 7.63564 8.829 7.71347 8.8018 7.83468C8.7503 7.8032 8.69735 7.77011 8.659 7.74166ZM10.0603 8.25295C9.74924 8.25439 9.73491 8.19792 9.74075 8.16179C9.7465 8.12583 9.84337 8.02715 9.96627 8.09223C10.0182 8.11983 10.0767 8.17757 10.1309 8.25008C10.107 8.25186 10.0834 8.25279 10.0603 8.25295ZM9.10757 9.88881C8.51985 10.0492 7.94657 9.80068 7.91187 9.30863C7.8853 8.93291 8.02235 8.64978 8.11073 8.49024C8.195 8.44854 8.27462 8.40802 8.34044 8.37172C8.1866 8.61948 8.09658 8.95131 8.15674 9.23241C8.22486 9.55081 8.50187 9.74387 8.97089 9.68157C9.43525 9.62003 10.0631 9.17838 10.2412 9.01183C10.2954 8.95173 10.3312 8.89754 10.38 8.78712C10.4 8.74179 10.4283 8.68194 10.4388 8.61433C10.4456 8.57027 10.4493 8.52316 10.4501 8.47522C10.5046 8.45892 10.5594 8.44069 10.6145 8.42111C10.6332 8.62269 10.647 8.8214 10.6478 8.99326C10.3585 9.33261 9.69528 9.72834 9.10757 9.88881Z" fill="white"/>
<path d="M19.3875 8.59849C19.3676 8.26928 19.3196 7.6734 19.2927 7.37111C19.269 7.10209 19.2223 6.73337 19.1882 6.4088C19.1796 6.32709 19.1787 6.24883 19.1796 6.20333C19.1806 6.16737 19.2166 6.18122 19.2526 6.21819C19.2885 6.25516 19.3448 6.30159 19.3554 6.29594C19.3905 6.2777 19.3484 6.18755 19.299 6.09056C19.2496 5.9934 19.0538 5.5915 19.0197 5.57622C19.0024 5.56846 18.9106 5.80921 18.9053 5.85639C18.9229 5.88543 18.9677 5.93042 18.9725 6.06177C18.9775 6.19321 19.0438 6.79744 19.0918 7.28611C19.125 7.62579 19.1679 8.18005 19.1991 8.59798C19.1976 8.59866 19.2286 8.99532 19.232 9.03989C19.2512 9.29651 19.2412 9.61939 19.2393 9.67544C19.2372 9.73175 19.2784 9.72195 19.3226 9.59702C19.3676 9.46947 19.3933 9.18466 19.3967 8.92754L19.3875 8.59849Z" fill="white"/>
<path d="M17.7187 7.446C17.6584 7.4644 17.5639 7.40067 17.5711 7.26705C17.5776 7.14633 17.6293 7.0333 17.6492 6.96197C17.6766 6.86355 17.6768 6.76867 17.6536 6.82244C17.6014 6.94264 17.5041 7.17503 17.4841 7.33272C17.4639 7.4904 17.515 7.59204 17.5845 7.62673C17.671 7.67021 17.7334 7.60124 17.7756 7.49961C17.8161 7.40228 17.8085 7.28866 17.7803 7.31541C17.7568 7.34336 17.748 7.43697 17.7187 7.446Z" fill="white"/>
<path d="M16.8525 7.93173C16.8844 7.84681 16.8919 7.76358 16.8674 7.80925C16.8119 7.91156 16.7081 8.10925 16.6777 8.2466C16.6474 8.38394 16.6842 8.47688 16.7427 8.51208C16.8155 8.55614 16.8755 8.49967 16.9209 8.41314C16.9642 8.33033 16.9664 8.2298 16.9398 8.25158C16.9168 8.27454 16.9015 8.35616 16.8752 8.36216C16.8205 8.37423 16.7426 8.31176 16.7595 8.1946C16.7748 8.08908 16.8293 7.9931 16.8525 7.93173Z" fill="white"/>
<path d="M14.33 9.72323C14.3834 9.63654 14.41 9.54664 14.3729 9.59206C14.2902 9.69352 14.1336 9.89046 14.0704 10.0349C14.0074 10.1793 14.0275 10.2878 14.0837 10.3372C14.1537 10.3988 14.2317 10.3481 14.2999 10.2621C14.3654 10.1797 14.3899 10.0703 14.3556 10.0889C14.3256 10.1099 14.2913 10.1963 14.2611 10.1979C14.1989 10.2009 14.1271 10.1181 14.1711 9.99336C14.2109 9.88075 14.2914 9.78604 14.33 9.72323Z" fill="white"/>
<path d="M18.7525 7.19325C18.6912 7.20861 18.6007 7.13998 18.6158 7.00686C18.6296 6.88674 18.6881 6.77658 18.7121 6.70652C18.7456 6.60953 18.7513 6.5149 18.7249 6.56724C18.6658 6.68474 18.5547 6.91165 18.5251 7.06815C18.4954 7.22457 18.5402 7.32865 18.6076 7.36689C18.6916 7.4145 18.7577 7.34899 18.8061 7.24955C18.8524 7.1545 18.8517 7.04071 18.8218 7.06604C18.7967 7.09288 18.7824 7.18582 18.7525 7.19325Z" fill="white"/>
<path d="M18.7337 8.82636C18.8175 8.87397 18.884 8.80847 18.9322 8.70903C18.9784 8.61398 18.9778 8.50019 18.9481 8.52551C18.9228 8.55219 18.9085 8.64529 18.8786 8.65272C18.8173 8.668 18.7266 8.59946 18.7419 8.46634C18.7557 8.34622 18.8141 8.23597 18.8382 8.16599C18.8716 8.069 18.8773 7.9742 18.851 8.02671C18.7917 8.14421 18.6808 8.37112 18.6512 8.52745C18.6215 8.68404 18.6663 8.78812 18.7337 8.82636Z" fill="white"/>
<path d="M19.805 6.74025C19.8453 6.62292 19.8523 6.50837 19.8203 6.57176C19.7485 6.71391 19.6143 6.98843 19.5784 7.17794C19.5426 7.36728 19.5969 7.49314 19.6784 7.53948C19.7799 7.59705 19.8601 7.51779 19.9186 7.39758C19.9744 7.28252 19.9736 7.14468 19.9376 7.17549C19.9072 7.20782 19.8898 7.32026 19.8536 7.32929C19.7797 7.34786 19.6698 7.26488 19.6884 7.10382C19.7051 6.95846 19.7758 6.82517 19.805 6.74025Z" fill="white"/>
<path d="M11.244 8.76974C11.31 8.62675 11.3339 8.48358 11.2854 8.55981C11.1766 8.73041 10.9718 9.06072 10.9019 9.29471C10.8319 9.52879 10.8837 9.69323 10.98 9.76068C11.1002 9.84442 11.2115 9.75359 11.3007 9.60916C11.3861 9.47063 11.403 9.29716 11.3538 9.33186C11.3114 9.369 11.2747 9.50862 11.2281 9.51596C11.1324 9.53099 11.0053 9.41433 11.0497 9.21385C11.0899 9.03295 11.1963 8.87324 11.244 8.76974Z" fill="white"/>
<path d="M20.4875 10.1875C20.5381 10.1461 20.9779 9.9091 21.0589 9.86099C21.0589 9.86099 21.1417 9.72593 21.1169 9.71158C21.092 9.69723 20.9314 9.84326 20.8315 9.84731C20.7315 9.85136 20.5947 9.77792 20.5903 9.71774C20.6032 9.67232 20.7235 9.60412 20.7669 9.60133C20.8104 9.5988 20.8034 9.69773 20.8179 9.7098C20.8324 9.72171 20.8902 9.64151 20.8975 9.60808C20.9046 9.57474 20.8987 9.43512 20.8192 9.45513C20.6933 9.48695 20.5034 9.72044 20.4817 9.79388C20.4599 9.86749 20.5772 9.93156 20.6629 9.96642C20.6556 9.96912 20.5916 9.99985 20.5512 10.0399C20.5512 10.0399 20.5077 10.0886 20.4875 10.1875Z" fill="white"/>
<path d="M18.9875 10.481C19.0381 10.4395 19.4779 10.2028 19.5589 10.1545C19.5589 10.1545 19.6419 10.0194 19.6169 10.0051C19.592 9.99071 19.4314 10.1367 19.3315 10.1408C19.2315 10.1449 19.0947 10.0714 19.0903 10.0112C19.1032 9.96581 19.2235 9.8976 19.2669 9.89499C19.3104 9.89229 19.3034 9.99113 19.3179 10.0031C19.3324 10.0152 19.3902 9.935 19.3975 9.90157C19.4046 9.86823 19.3985 9.72861 19.3192 9.74861C19.1933 9.78061 19.0034 10.0139 18.9817 10.0875C18.9599 10.161 19.0772 10.225 19.1627 10.2599C19.1556 10.2626 19.0916 10.2933 19.0512 10.3333C19.0512 10.3333 19.0077 10.3821 18.9875 10.481Z" fill="white"/>
<path d="M15.6087 6.23399C15.6482 6.27983 15.9066 6.60811 16.109 6.81451C16.3113 7.02107 16.6582 7.35535 16.913 7.58444C16.9623 7.62885 17.0146 7.67696 17.0678 7.72702C17.1321 8.2205 17.2064 8.84846 17.2377 9.10811C17.2684 9.3638 17.273 9.68668 17.2736 9.7429C17.2742 9.79921 17.3147 9.78773 17.3533 9.66136C17.4049 9.49177 17.4109 9.05265 17.3835 8.76261C17.3665 8.58348 17.3264 8.24794 17.2876 7.93856C17.4381 8.08721 17.5802 8.23468 17.676 8.3451C17.8521 8.54777 18.0003 8.70065 18.0906 8.91852C18.1545 9.07266 18.148 9.19531 18.1742 9.21954C18.1969 9.24047 18.2219 9.05603 18.194 8.87716C18.1487 8.58669 18.0866 8.46353 17.7137 8.0488C17.5715 7.89028 17.404 7.72457 17.2403 7.56967C17.234 7.52189 17.2283 7.47766 17.2231 7.43841C17.2101 7.34142 17.0837 6.50285 17.0738 6.4089C17.0653 6.3271 17.0504 6.23079 17.0516 6.18529C17.0525 6.14907 17.0755 6.16317 17.1117 6.20014C17.1476 6.23703 17.2106 6.30161 17.2213 6.29595C17.2566 6.27772 17.2173 6.16942 17.1679 6.07226C17.1187 5.97527 16.9491 5.59152 16.9151 5.57633C16.8978 5.56856 16.7962 5.80922 16.791 5.85633C16.8086 5.88536 16.8534 5.93061 16.8582 6.06179C16.8596 6.09842 16.8921 6.44334 16.9329 6.76901C16.9691 7.05677 17.0138 7.32968 17.0184 7.36125L17.0186 7.3637C16.8498 7.20973 16.7011 7.07897 16.6109 6.99684C16.4 6.80514 15.9341 6.35023 15.9154 6.28211C15.9112 6.26058 15.9474 6.27384 16.0138 6.28447C16.0806 6.29519 16.1399 6.3179 16.1293 6.28515C16.1244 6.2697 16.0988 6.23155 16.0352 6.19221C15.9715 6.15279 15.8082 6.05065 15.6868 5.97839C15.5651 5.90621 15.5048 5.84569 15.4797 5.86299C15.4673 5.87152 15.4784 6.11877 15.4857 6.14958C15.5161 6.1522 15.5695 6.18799 15.6087 6.23399Z" fill="white"/>
<path d="M15.9412 5.78936C15.9912 5.77838 16.2278 5.78438 16.3137 5.80244C16.2778 5.82743 16.0356 5.94974 15.9878 5.97886C15.9402 6.00807 15.9282 6.02495 15.9521 6.02208C16.0215 6.00284 16.1779 5.97886 16.2528 5.93978C16.3235 5.90669 16.4439 5.74529 16.4908 5.6851C16.5373 5.62492 16.5373 5.59487 16.5255 5.57874C16.4776 5.55274 16.1692 5.52666 16.0205 5.56355C15.9793 5.59149 15.8988 5.74031 15.8869 5.77129C15.875 5.80244 15.8913 5.80033 15.9412 5.78936Z" fill="white"/>
<path d="M17.2575 5.76999C17.2978 5.76113 17.4886 5.76594 17.5577 5.78046C17.5287 5.80064 17.3337 5.89923 17.2952 5.92287C17.2566 5.94625 17.247 5.95992 17.2662 5.95756C17.3222 5.9422 17.4483 5.92287 17.5086 5.89121C17.5655 5.86454 17.6626 5.73446 17.7003 5.68609C17.7378 5.63746 17.7378 5.61332 17.7282 5.60041C17.6899 5.57922 17.4413 5.55828 17.3214 5.58808C17.2881 5.61054 17.2234 5.73049 17.2138 5.75547C17.2041 5.78046 17.2173 5.77886 17.2575 5.76999Z" fill="white"/>
<path d="M18.3275 5.75623C18.3676 5.74737 18.5584 5.75218 18.6275 5.7667C18.5987 5.78687 18.4036 5.88547 18.365 5.90893C18.3266 5.93249 18.317 5.94616 18.3362 5.9438C18.3922 5.92843 18.5281 5.90893 18.5884 5.87745C18.6454 5.85077 18.7129 5.72069 18.7506 5.67215C18.7883 5.6237 18.7883 5.59939 18.7785 5.58664C18.7402 5.56546 18.5111 5.54452 18.3914 5.57415C18.3581 5.59677 18.2932 5.71672 18.2836 5.74171C18.2741 5.7667 18.2871 5.76509 18.3275 5.75623Z" fill="white"/>
<path d="M17.66 6.27737C17.5966 6.37715 17.676 6.45768 17.705 6.53829C17.6659 6.574 17.6058 6.54142 17.5857 6.5101C17.543 6.44586 17.5573 6.31493 17.507 6.29476C17.4942 6.33013 17.4858 6.36938 17.4858 6.36938C17.4858 6.36938 17.524 6.45894 17.5144 6.5182C17.5083 6.55399 17.4767 6.59578 17.435 6.59662C17.3238 6.59932 17.3786 6.43472 17.3357 6.34144C17.3269 6.36423 17.3206 6.38871 17.3104 6.41007C17.3182 6.43438 17.3225 6.46848 17.3238 6.48815C17.3263 6.52723 17.3232 6.56936 17.3299 6.6027C17.3391 6.64989 17.3653 6.68121 17.4053 6.68424C17.4884 6.69083 17.5263 6.62355 17.5388 6.56834C17.5531 6.62465 17.663 6.68669 17.717 6.61756C17.7886 6.52639 17.7314 6.44831 17.6947 6.36254C17.6682 6.29915 17.6758 6.25753 17.66 6.27737Z" fill="white"/>
<path d="M14.5387 6.01274C14.5445 6.05377 14.5656 6.08179 14.6 6.08601C14.671 6.09505 14.707 6.03857 14.7204 5.99164C14.7298 6.04068 14.8217 6.09842 14.8716 6.04119C14.9376 5.96547 14.8919 5.89592 14.8643 5.82053C14.8446 5.76465 14.8531 5.7292 14.8385 5.74566C14.7791 5.82889 14.8439 5.90174 14.865 5.97239C14.8295 6.00143 14.7794 5.97096 14.7635 5.94336C14.7297 5.88621 14.7482 5.77402 14.706 5.75452C14.6932 5.78457 14.6842 5.81792 14.6842 5.81792C14.6842 5.81792 14.7128 5.89667 14.7016 5.94724C14.6948 5.97788 14.6656 6.01257 14.6295 6.01165C14.5337 6.00954 14.5887 5.86992 14.556 5.78795C14.5475 5.80711 14.5408 5.82813 14.5309 5.84586C14.5366 5.8673 14.5387 5.89667 14.5387 5.91381C14.5395 5.94758 14.5347 5.98354 14.5387 6.01274Z" fill="white"/>
<path d="M16.805 9.87876C16.8157 9.86179 16.8392 9.8152 16.8333 9.78337C16.8273 9.75155 16.7884 9.61877 16.7127 9.58551C16.6374 9.55225 16.5805 9.62197 16.5444 9.71896L16.5194 9.71837C16.5134 9.73272 16.506 9.75417 16.5 9.79291C16.4916 9.84888 16.4757 9.88492 16.3798 9.97204C16.2991 10.045 16.0376 10.2201 15.8681 10.3024C15.6985 10.3849 15.5764 10.4561 15.5314 10.4777C15.4866 10.4989 15.4996 10.5069 15.5445 10.4935C15.5892 10.4801 15.8143 10.4076 15.9041 10.3706C15.9937 10.3334 16.1032 10.2722 16.2352 10.1865C16.3821 10.0913 16.4698 9.9961 16.4993 9.91168C16.5203 9.85149 16.5257 9.82744 16.5257 9.82744C16.5257 9.82744 16.5808 9.86002 16.6744 9.88138C16.7676 9.90282 16.7941 9.8959 16.805 9.87876ZM16.6784 9.6901C16.72 9.70588 16.7453 9.75113 16.7528 9.77856C16.7051 9.77966 16.6174 9.75543 16.58 9.73855C16.6025 9.69508 16.6415 9.67625 16.6784 9.6901Z" fill="white"/>
<path d="M15.8113 9.97211C15.6811 9.95404 15.353 9.90416 15.2728 9.71372C15.3401 9.61546 15.6505 9.49104 16.0392 9.37463C16.428 9.25848 16.8342 9.10771 16.9434 9.03495C16.9673 9.02684 17.0136 9.02929 17.0136 9.02929C17.0332 8.97299 17.1308 8.77529 17.1369 8.73393C17.0282 8.74009 16.3585 8.7893 16.0611 8.80526C15.7634 8.8213 15.1902 8.81741 14.9992 8.8153C15.1164 8.73106 15.3944 8.56662 15.7917 8.42632C15.8432 8.40809 15.8909 8.39163 15.9353 8.37677C15.9684 8.43569 15.9929 8.49394 15.9981 8.54467C16.0233 8.51867 16.0423 8.43249 16.0359 8.34402C16.2676 8.27007 16.3869 8.24559 16.4384 8.23167C16.4709 8.18954 16.5285 8.0192 16.5371 7.89536C16.5025 7.83231 16.3941 7.7538 16.2977 7.68635C16.1649 7.59358 16.0216 7.51271 15.8786 7.54808C15.6832 7.59603 15.644 7.95513 15.6895 8.03127C15.7041 8.05533 15.7385 8.09796 15.7791 8.15054C15.6363 8.20668 15.4869 8.27269 15.3553 8.34208C15.062 8.49656 14.7346 8.66555 14.6391 8.82805L14.6117 8.84139C14.6041 8.85675 14.5436 9.10822 14.5348 9.13532C14.5958 9.13321 15.0513 9.13405 15.3684 9.12417C15.6854 9.11404 15.9626 9.104 16.0712 9.104C15.9104 9.14207 15.489 9.29866 15.3679 9.39075C15.2467 9.4831 15.1706 9.62348 15.1686 9.86414C15.0556 9.81991 14.8457 9.71887 14.6669 9.47694C14.4675 9.20732 14.5087 8.93002 14.4289 8.56611C14.313 8.03802 14.0654 7.59215 13.9112 7.45574C13.8592 7.64212 13.8525 7.78259 13.8525 7.78259C13.8525 7.78259 14.0457 8.20972 14.1435 8.48238C14.2413 8.75512 14.3249 9.02381 14.3207 9.08399C14.2402 9.26059 13.7635 9.63049 13.3663 9.84701C12.9896 10.0523 12.6577 10.0744 12.5401 9.92821C12.517 9.89968 12.5013 9.86592 12.4924 9.82768C12.5435 9.80379 12.5949 9.77973 12.6474 9.75567C12.9862 9.60136 13.5878 9.27654 13.7287 9.10611C13.8808 8.89955 13.8787 8.60874 13.7895 8.44228C13.7007 8.2759 13.5614 8.08327 13.5505 8.01515C13.542 7.98298 13.641 8.02823 13.6994 8.03127C13.7277 8.02916 13.7136 7.99109 13.6529 7.9309C13.6043 7.88295 13.4165 7.72738 13.3447 7.66669C13.3267 7.65124 13.3133 7.65748 13.3097 7.67378C13.2957 7.7359 13.2671 7.86894 13.2561 7.93461L13.2637 7.9677C13.2844 7.97994 13.3081 7.9937 13.3196 8.02806C13.3359 8.07677 13.3927 8.21267 13.486 8.3842C13.5794 8.55565 13.7143 8.7449 13.7275 8.84046C13.6178 8.98042 13.0644 9.27848 12.5254 9.52413C12.5587 9.4208 12.6113 9.30397 12.681 9.17423C12.7009 9.15228 12.7189 9.12519 12.7357 9.09463C12.7895 8.99637 12.7947 8.87625 12.7621 8.90166C12.7342 8.92859 12.7141 9.02608 12.6821 9.03267C12.6167 9.04609 12.5248 8.9697 12.5479 8.82999C12.5688 8.70396 12.6362 8.59017 12.6653 8.51732C12.7057 8.41653 12.7167 8.31692 12.6862 8.37112C12.6174 8.49217 12.4884 8.72667 12.4488 8.89052C12.4093 9.05411 12.4512 9.16596 12.5203 9.20926C12.5462 9.22572 12.5709 9.23087 12.5945 9.22766C12.5472 9.31765 12.4888 9.42806 12.4461 9.55975C12.2294 9.65674 12.0185 9.74343 11.8439 9.8059C11.2164 10.0305 10.7692 10.1629 10.4564 10.2611L10.4441 10.2666C10.4671 10.1923 10.464 10.1288 10.4394 10.1479C10.4114 10.175 10.3914 10.2725 10.3595 10.2789C10.294 10.2923 10.2022 10.216 10.2252 10.0762C10.2462 9.95016 10.3136 9.83654 10.3427 9.76361C10.3829 9.6629 10.394 9.56312 10.3635 9.6174C10.2947 9.73845 10.1657 9.97295 10.1261 10.1367C10.0866 10.3004 10.1285 10.4122 10.1975 10.4556C10.2835 10.5097 10.3568 10.4434 10.4131 10.3409L10.4328 10.2988C10.4523 10.2988 10.4853 10.2942 10.5345 10.2833C10.6779 10.251 11.0362 10.199 11.529 10.1348C11.8938 10.0873 12.1457 9.98713 12.3892 9.87562C12.3881 9.90255 12.3879 9.92999 12.3891 9.95827C12.4023 10.2926 12.6214 10.387 12.9211 10.3245C13.2101 10.2638 13.6132 9.9987 13.8548 9.81991C14.1067 9.63353 14.2521 9.46698 14.2892 9.4089C14.3563 9.26649 14.3748 9.10915 14.3794 9.03495C14.4014 9.2394 14.4192 9.52235 14.6125 9.76504C14.7906 9.9884 15.1554 10.3001 15.8417 10.3086C15.8439 10.227 15.8113 9.97211 15.8113 9.97211ZM15.7659 7.90026C15.8641 7.79001 16.0737 7.8621 16.2311 8.00189C16.1504 8.0208 16.041 8.05448 15.9202 8.09762C15.8484 8.01109 15.7683 7.92769 15.7659 7.90026Z" fill="white"/>
<path d="M11.9079 6.38874C11.9524 6.36839 12.0887 6.30711 12.2356 6.22151C12.3823 6.13651 12.52 6.03352 12.5874 5.96506C12.6133 5.93881 12.6363 5.9183 12.651 5.8939C12.695 5.91214 12.7253 5.93104 12.7442 5.93847C12.7726 5.94945 12.8105 5.96523 12.8351 5.88436C12.8597 5.80358 12.8271 5.75141 12.7791 5.68911C12.7384 5.63686 12.674 5.55836 12.6217 5.53886C12.5773 5.52223 12.5562 5.62133 12.563 5.61888H12.5926L12.5984 5.62167C12.5373 5.65248 12.49 5.74837 12.4853 5.78205C12.4804 5.81869 12.4874 5.8457 12.575 5.86824L12.6103 5.87862C12.5371 5.96523 12.4008 6.05479 12.308 6.11827C12.1762 6.2086 11.9892 6.32146 11.936 6.35404C11.8828 6.38646 11.8872 6.39667 11.9079 6.38874ZM12.6996 5.75242L12.7044 5.70912C12.766 5.77935 12.8118 5.86292 12.8072 5.87474C12.7789 5.87702 12.7436 5.85085 12.682 5.82451C12.6889 5.80358 12.6946 5.78045 12.6996 5.75242ZM12.5227 5.75251C12.5223 5.73934 12.5461 5.7027 12.5963 5.6827C12.6464 5.66252 12.6686 5.71883 12.673 5.78737L12.6581 5.81481L12.6129 5.79919C12.5651 5.78518 12.5327 5.77724 12.5227 5.75251Z" fill="white"/>
<path d="M15.1937 7.71088C15.2661 7.6631 15.4648 7.5196 15.5776 7.42556C15.656 7.36023 15.7481 7.26399 15.8107 7.18262C15.8499 7.20803 15.8866 7.23057 15.9199 7.25015C15.9842 7.28771 16.01 7.34343 16.01 7.34343C16.0219 7.32519 16.0772 7.22542 16.0556 7.17688C16.0426 7.16101 15.9635 7.11483 15.8827 7.06537C15.9237 6.97336 15.9801 6.81424 15.8993 6.75852C15.8302 6.71125 15.7136 6.7895 15.6597 6.89105C15.6151 6.97513 15.6094 7.04646 15.6944 7.10487C15.7183 7.12133 15.7412 7.13687 15.7637 7.15164C15.6779 7.24542 15.52 7.3842 15.4076 7.47866C15.268 7.59549 15.136 7.71004 15.1129 7.73739L15.1063 7.74802C15.0758 7.6631 15.0841 7.61068 15.0615 7.63888C14.9637 7.79226 15.0862 7.91651 15.1308 8.0406C15.0705 8.0953 14.9782 8.04507 14.9472 7.99721C14.8813 7.89811 14.9033 7.69687 14.8262 7.66572C14.8063 7.72008 14.7933 7.78061 14.7933 7.78061C14.7933 7.78061 14.852 7.91845 14.8371 8.00945C14.8279 8.06449 14.7791 8.1289 14.7151 8.12999C14.5439 8.13438 14.6283 7.88097 14.5622 7.73747C14.5488 7.77267 14.5392 7.81032 14.5231 7.8429C14.5353 7.88064 14.5419 7.93297 14.5437 7.96328C14.5481 8.02346 14.5431 8.08804 14.5533 8.1397C14.5674 8.2123 14.6078 8.26058 14.6694 8.26506C14.7971 8.27544 14.8555 8.17161 14.8748 8.08694C14.8968 8.17355 15.066 8.26877 15.1492 8.16258C15.2594 8.0222 15.1712 7.90199 15.1149 7.76997L15.1082 7.75283C15.1161 7.75562 15.1455 7.7427 15.1937 7.71088ZM15.6934 6.92043C15.7357 6.84184 15.8249 6.83517 15.8517 6.87637C15.8729 6.90912 15.8747 6.97302 15.8427 7.04047C15.764 6.99108 15.6938 6.94271 15.6934 6.92043Z" fill="white"/>
<path d="M12.4053 7.21113C12.2549 7.2005 12.1739 7.06265 12.1276 6.86352C12.0812 6.66438 12.1096 6.40177 12.1222 6.33449C12.1348 6.2673 12.0639 6.302 12.0363 6.46517C12.0089 6.62817 11.9813 6.88884 12.0784 7.16175C12.1752 7.43432 12.3404 7.53604 12.4851 7.50118C12.6298 7.46648 12.7572 7.12689 12.8021 6.97452C12.847 6.82207 13.0475 6.20036 13.1611 6.16693C13.177 6.24316 13.0728 6.43436 13.0395 6.72179C13.0064 7.00921 13.0641 7.38621 13.4289 7.45306C13.7938 7.52 14.0413 7.28331 14.131 7.11878C14.2209 6.95451 14.2628 6.7818 14.2729 6.69503C14.2846 6.9156 14.4351 7.26001 14.7273 7.35818C15.0097 7.45306 15.2255 7.3662 15.3208 7.24321C15.4054 7.13398 15.4744 6.90901 15.4803 6.73647C15.4861 6.5641 15.337 6.24865 15.3037 6.14819C15.2703 6.04799 15.2531 5.97844 15.2501 5.94374C15.2473 5.90905 15.3255 5.98392 15.3748 5.99861C15.4081 6.00528 15.3964 5.93311 15.3559 5.88356C15.3154 5.83417 15.0965 5.50218 15.0811 5.5253C15.0717 5.53915 14.9841 5.78336 14.9783 5.82075C15.013 5.84354 15.0532 5.90635 15.0562 5.96654C15.0589 6.02672 15.1169 6.29136 15.1705 6.43841C15.2241 6.58546 15.3283 6.86757 15.3356 6.94514C15.2314 7.01858 14.9968 7.11203 14.7739 7.01732C14.551 6.92227 14.4799 6.78459 14.4553 6.53861C14.4396 6.38143 14.4381 6.09189 14.382 5.84979C14.3504 5.71296 14.2839 5.57384 14.2048 5.49998C14.1862 5.54531 14.1022 5.8248 14.1022 5.8248C14.1296 5.905 14.2148 6.17504 14.212 6.40903C14.209 6.64286 14.1906 6.8717 13.9283 7.02939C13.6663 7.18707 13.293 7.12427 13.1959 6.8782C13.0989 6.63222 13.3146 6.07881 13.3118 5.93311C13.3089 5.78741 13.2827 5.76723 13.2219 5.79138C13.1611 5.81543 13.0365 5.9559 12.9295 6.18441C12.8223 6.41308 12.7747 6.64159 12.7137 6.83414C12.653 7.02669 12.5558 7.22177 12.4053 7.21113Z" fill="white"/>
<path d="M8.03649 6.35823C8.22166 6.34481 8.37815 6.20443 8.4186 6.16712C8.45913 6.12955 8.48095 6.07359 8.45192 6.09486C8.23773 6.28606 7.95113 6.29146 7.93506 6.2593C7.94236 6.22722 8.01778 6.17505 8.1278 6.10161C8.19463 6.05696 8.25416 6.01509 8.29872 5.95575L8.31086 5.95786C8.39239 5.97575 8.48652 6.01137 8.51528 5.98284C8.56212 5.93667 8.56833 5.86103 8.51757 5.77949C8.47466 5.71027 8.37459 5.64586 8.28767 5.59935C8.20093 5.55309 8.18413 5.62695 8.17299 5.65329C8.16231 5.67786 8.16669 5.69879 8.18504 5.6993C8.1571 5.73737 8.1372 5.78641 8.1299 5.82693C8.12515 5.8531 8.12898 5.87454 8.13967 5.89218C8.14277 5.89716 8.15884 5.91683 8.18924 5.92848L8.22695 5.94021C8.16204 6.00015 8.08726 6.04708 8.048 6.0708C7.97715 6.1136 7.89315 6.18847 7.86713 6.26588C7.84102 6.34354 7.85115 6.37165 8.03649 6.35823ZM8.36381 5.81207L8.37094 5.77257V5.74724C8.42964 5.78996 8.5235 5.87083 8.51775 5.91928C8.48059 5.91084 8.40974 5.8959 8.34245 5.87859C8.35103 5.85842 8.35806 5.8363 8.36381 5.81207ZM8.18979 5.8244C8.14661 5.78996 8.1887 5.7556 8.22695 5.73348C8.27635 5.70495 8.30529 5.7285 8.33058 5.80338C8.32172 5.82482 8.30931 5.84567 8.2947 5.86568C8.25626 5.85377 8.20212 5.8347 8.18979 5.8244Z" fill="white"/>
<path d="M8.59199 8.44936C8.53876 8.49554 8.51812 8.64579 8.52899 8.65483C8.53976 8.66386 8.70612 8.71999 8.73214 8.73215L8.74401 8.6869C8.82326 8.75806 8.91109 9.11311 8.93063 9.11412C8.95017 9.11505 8.97847 9.07394 8.99701 8.97965C9.01408 8.8922 9.03115 8.76136 9.04896 8.65483C9.06557 8.55733 9.09141 8.50153 9.15003 8.49039C9.20874 8.47941 9.2522 8.55463 9.26735 8.60578C9.26735 8.60578 9.30853 8.50744 9.31729 8.44632C9.30753 8.41416 9.21622 8.29294 9.14136 8.33304C9.0664 8.37322 9.01947 8.54331 9.00431 8.64968C8.98906 8.75587 8.97738 8.88755 8.95893 8.90866C8.93958 8.818 8.87758 8.65575 8.80271 8.56459C8.71853 8.46245 8.62011 8.42497 8.59199 8.44936Z" fill="white"/>
<path d="M7.88235 8.26787C7.95184 8.24879 8.10824 8.22482 8.1831 8.18574C8.25368 8.15265 8.37411 7.99125 8.42086 7.93106C8.46751 7.87087 8.4676 7.84065 8.45573 7.8247C8.40798 7.79853 8.09947 7.77262 7.95065 7.8095C7.90956 7.83728 7.82912 7.9861 7.81726 8.01725C7.8052 8.04823 7.82164 8.04628 7.87149 8.03531C7.92143 8.02417 8.15818 8.03016 8.24382 8.04823C8.20812 8.07338 7.96599 8.1957 7.91814 8.22482C7.87048 8.25386 7.85843 8.27091 7.88235 8.26787Z" fill="white"/>
<path d="M22.2262 9.12948C22.2191 8.94909 22.1307 8.67213 21.7947 8.24719C21.6788 8.10048 21.5156 7.90954 21.3435 7.71395C21.3388 7.64726 21.334 7.58632 21.3297 7.53398C21.3072 7.26478 21.2308 6.71559 21.1979 6.39093C21.1899 6.30905 21.1892 6.22194 21.1904 6.17644C21.1916 6.14031 21.2176 6.14512 21.2534 6.18226C21.2892 6.21932 21.3443 6.27343 21.3558 6.26971C21.3803 6.26127 21.359 6.17931 21.3102 6.08215C21.2614 5.98482 21.0771 5.5912 21.0432 5.57592C21.0258 5.56815 20.9389 5.79928 20.9335 5.84655C20.9507 5.87559 20.9953 5.92075 20.9996 6.05218C21.0042 6.18353 21.0834 6.95929 21.129 7.44813L21.1314 7.4754C20.8741 7.18814 20.6318 6.9262 20.5321 6.82001C20.5149 6.80161 20.4959 6.78067 20.4754 6.75822C20.4592 6.62746 20.4442 6.50287 20.4339 6.39996C20.4255 6.31825 20.4249 6.23097 20.4264 6.18547C20.4272 6.14942 20.4534 6.15432 20.4892 6.19146C20.5252 6.22852 20.5801 6.28263 20.5916 6.27875C20.6161 6.27047 20.5948 6.18851 20.5459 6.09118C20.4972 5.99385 20.305 5.5912 20.271 5.57592C20.2537 5.56815 20.1628 5.81768 20.1574 5.86461C20.1748 5.89382 20.2193 5.93898 20.2237 6.07041C20.2254 6.12621 20.2399 6.29538 20.2593 6.50886C20.0888 6.30618 19.9218 6.09396 19.9099 6.05083C19.9057 6.02956 19.9418 6.04264 20.0085 6.05345C20.075 6.06408 20.1373 6.08409 20.1266 6.05117C20.1216 6.03589 20.0962 5.99773 20.0326 5.95823C19.9689 5.91881 19.8056 5.81667 19.6842 5.74458C19.5625 5.6724 19.5022 5.61171 19.4771 5.62901C19.4647 5.63754 19.4757 5.88496 19.4829 5.9156C19.5135 5.91838 19.57 5.94109 19.6059 5.98921C19.6423 6.03732 19.8749 6.3635 20.0589 6.58407C20.1119 6.64755 20.1948 6.74598 20.2918 6.8596C20.3108 7.06278 20.3307 7.27272 20.3471 7.44813C20.3845 7.84825 20.5187 8.90351 20.52 9.24648C20.4209 9.33942 20.2183 9.46908 20.0099 9.47178C19.8014 9.4744 19.6871 9.41953 19.6031 9.26455C19.5772 9.21651 19.5531 9.16823 19.5292 9.1245C19.4724 9.02059 19.3456 8.96226 19.2235 8.99088L19.2049 8.99586L19.1716 9.01181C19.0889 9.05512 19.0033 9.12771 18.9197 9.24032C18.7751 9.43565 18.6827 9.64753 18.5757 9.83105C18.4642 10.0222 18.3787 10.1504 18.1831 10.1197C18.0454 10.0981 17.9409 9.98004 17.8764 9.83476C18.0575 9.70949 18.1889 9.54607 18.2851 9.31958C18.4102 9.02523 18.4549 8.6934 18.4438 8.32029C18.4331 7.96913 18.273 7.14297 18.2307 6.82634C18.1886 6.50953 18.1279 6.24954 18.135 6.18192C18.1415 6.11667 18.2454 6.27031 18.2987 6.28179C18.3259 6.27571 18.3113 6.1777 18.2596 6.09489C18.2245 6.03859 18.1135 5.78248 18.0408 5.65898C18.0067 5.60057 17.9985 5.56672 17.9826 5.55979C17.9669 5.55262 17.8459 5.81101 17.8605 5.83912C17.8963 5.89027 17.9208 5.91467 17.9283 6.00634C17.9359 6.09802 18.0188 6.77096 18.0913 7.26656C18.1459 7.64051 18.2665 8.31979 18.2821 8.82188C18.2872 8.98573 18.2638 9.10332 18.2435 9.16899C18.1915 9.26961 18.1067 9.38137 17.8087 9.59351C17.7626 9.29375 17.8127 9.05022 17.769 9.02768C17.7198 9.033 17.712 9.1727 17.7064 9.34508C17.7037 9.42468 17.7071 9.53492 17.7221 9.65336C17.3561 9.89799 16.8725 10.1208 16.6455 10.2397C16.5122 10.3096 16.5603 10.3259 16.673 10.291C16.7858 10.256 17.4055 10.0935 17.7363 9.91951L17.7719 9.89976C17.7887 9.95809 17.809 10.0146 17.834 10.0666C17.9453 10.2979 18.1044 10.4353 18.2767 10.4219C18.4216 10.4107 18.5267 10.2556 18.6183 10.0707C18.711 9.88347 18.8676 9.52792 19.0212 9.39564C19.0801 9.34465 19.1411 9.3043 19.2005 9.28008C19.2005 9.28008 19.3054 9.24505 19.4019 9.3081C19.4365 9.3309 19.4623 9.36331 19.4787 9.39961C19.5167 9.48292 19.5618 9.58895 19.6538 9.67775C19.8159 9.83392 20.0767 9.80167 20.2723 9.71084C20.4676 9.61993 20.5673 9.47811 20.6107 9.30962C20.6849 9.02135 20.673 8.72599 20.6588 8.46363C20.6425 8.16421 20.5947 7.85821 20.5675 7.53398C20.5587 7.42973 20.5416 7.28471 20.522 7.12744C20.7124 7.34726 20.9102 7.57036 21.0302 7.69234C21.0715 7.73446 21.1152 7.78123 21.16 7.83061C21.1958 8.32139 21.2302 8.9355 21.2484 9.19322C21.2664 9.45 21.2548 9.7728 21.2527 9.82894C21.2505 9.88507 21.2817 9.87545 21.3265 9.75085C21.3866 9.58363 21.4243 9.1451 21.4112 8.8543C21.4033 8.6815 21.3861 8.36647 21.3674 8.06849C21.5153 8.24415 21.6556 8.42151 21.7469 8.5412C21.9092 8.75376 22.0583 9.00649 22.1105 9.16418C22.1625 9.32203 22.1683 9.3688 22.1784 9.39691C22.1885 9.42502 22.2334 9.30988 22.2262 9.12948Z" fill="white"/>
<path d="M19.485 15.1337C19.4703 15.0918 19.4254 15.061 19.3717 15.061C19.318 15.061 19.2732 15.0918 19.2584 15.1337H18.75C18.7448 15.0773 18.7498 15.0206 18.7658 14.9654L19.8156 14.9648L19.8448 15.014C19.8712 15.0585 19.9046 15.0986 19.9432 15.1337L19.485 15.1337ZM20.1799 14.6459H18.9184C19.0154 14.5759 19.0662 14.4738 19.0526 14.3705C19.0439 14.3054 18.9794 14.2568 18.9007 14.2502H18.8612C18.7656 14.2596 18.6962 14.3285 18.7063 14.4042L18.7101 14.4334L18.7148 14.4781C18.7199 14.5344 18.715 14.5909 18.6991 14.6459H9.37451C9.51297 14.8474 9.76542 14.9709 10.038 14.9707L18.5469 14.9655C18.4496 15.0355 18.3986 15.1378 18.4123 15.2413C18.4224 15.317 18.508 15.371 18.6036 15.3616C18.6992 15.3523 18.7686 15.2834 18.7586 15.2075L18.7547 15.1785H19.2548C19.2636 15.2273 19.3123 15.2648 19.3717 15.2648C19.4311 15.2648 19.4798 15.2273 19.4887 15.1785H19.9974V15.1773C20.1036 15.2527 20.2386 15.296 20.3813 15.296C20.5157 15.296 20.6245 15.2027 20.6245 15.0875V15.0272C20.6245 14.8167 20.4255 14.6459 20.1799 14.6459" fill="white"/>
</g>
<defs>
<clipPath id="clip0_594_2148">
<rect y="0.5" width="30" height="20" rx="4" fill="white"/>
</clipPath>
</defs>
</svg>
